%TF.GenerationSoftware,KiCad,Pcbnew,5.1.10-88a1d61d58~90~ubuntu20.04.1*%
%TF.CreationDate,2021-10-13T17:16:21+03:00*%
%TF.ProjectId,Arduino_Nano_Example,41726475-696e-46f5-9f4e-616e6f5f4578,1*%
%TF.SameCoordinates,Original*%
%TF.FileFunction,Other,Fab,Top*%
%FSLAX46Y46*%
G04 Gerber Fmt 4.6, Leading zero omitted, Abs format (unit mm)*
G04 Created by KiCad (PCBNEW 5.1.10-88a1d61d58~90~ubuntu20.04.1) date 2021-10-13 17:16:21*
%MOMM*%
%LPD*%
G01*
G04 APERTURE LIST*
%ADD10C,0.100000*%
%ADD11C,0.150000*%
%ADD12C,0.300000*%
%ADD13C,0.400000*%
%TA.AperFunction,Profile*%
%ADD14C,0.050000*%
%TD*%
%ADD15C,0.080000*%
%ADD16C,0.040000*%
%ADD17C,0.120000*%
%ADD18C,0.030000*%
%ADD19C,0.060000*%
G04 APERTURE END LIST*
D10*
D11*
X177002200Y-166007200D02*
X177002200Y-198007200D01*
X285002200Y-198007200D01*
X285002200Y-166007200D01*
X177002200Y-166007200D01*
D10*
D11*
X10000000Y-10000000D02*
X10000000Y-200007200D01*
X287002200Y-200007200D01*
X287002200Y-10000000D01*
X10000000Y-10000000D01*
D10*
D11*
X12000000Y-12000000D02*
X12000000Y-198007200D01*
X285002200Y-198007200D01*
X285002200Y-12000000D01*
X12000000Y-12000000D01*
D10*
D11*
X60000000Y-12000000D02*
X60000000Y-10000000D01*
D10*
D11*
X110000000Y-12000000D02*
X110000000Y-10000000D01*
D10*
D11*
X160000000Y-12000000D02*
X160000000Y-10000000D01*
D10*
D11*
X210000000Y-12000000D02*
X210000000Y-10000000D01*
D10*
D11*
X260000000Y-12000000D02*
X260000000Y-10000000D01*
D10*
D11*
X36065476Y-11588095D02*
X35322619Y-11588095D01*
X35694047Y-11588095D02*
X35694047Y-10288095D01*
X35570238Y-10473809D01*
X35446428Y-10597619D01*
X35322619Y-10659523D01*
D10*
D11*
X85322619Y-10411904D02*
X85384523Y-10350000D01*
X85508333Y-10288095D01*
X85817857Y-10288095D01*
X85941666Y-10350000D01*
X86003571Y-10411904D01*
X86065476Y-10535714D01*
X86065476Y-10659523D01*
X86003571Y-10845238D01*
X85260714Y-11588095D01*
X86065476Y-11588095D01*
D10*
D11*
X135260714Y-10288095D02*
X136065476Y-10288095D01*
X135632142Y-10783333D01*
X135817857Y-10783333D01*
X135941666Y-10845238D01*
X136003571Y-10907142D01*
X136065476Y-11030952D01*
X136065476Y-11340476D01*
X136003571Y-11464285D01*
X135941666Y-11526190D01*
X135817857Y-11588095D01*
X135446428Y-11588095D01*
X135322619Y-11526190D01*
X135260714Y-11464285D01*
D10*
D11*
X185941666Y-10721428D02*
X185941666Y-11588095D01*
X185632142Y-10226190D02*
X185322619Y-11154761D01*
X186127380Y-11154761D01*
D10*
D11*
X236003571Y-10288095D02*
X235384523Y-10288095D01*
X235322619Y-10907142D01*
X235384523Y-10845238D01*
X235508333Y-10783333D01*
X235817857Y-10783333D01*
X235941666Y-10845238D01*
X236003571Y-10907142D01*
X236065476Y-11030952D01*
X236065476Y-11340476D01*
X236003571Y-11464285D01*
X235941666Y-11526190D01*
X235817857Y-11588095D01*
X235508333Y-11588095D01*
X235384523Y-11526190D01*
X235322619Y-11464285D01*
D10*
D11*
X285941666Y-10288095D02*
X285694047Y-10288095D01*
X285570238Y-10350000D01*
X285508333Y-10411904D01*
X285384523Y-10597619D01*
X285322619Y-10845238D01*
X285322619Y-11340476D01*
X285384523Y-11464285D01*
X285446428Y-11526190D01*
X285570238Y-11588095D01*
X285817857Y-11588095D01*
X285941666Y-11526190D01*
X286003571Y-11464285D01*
X286065476Y-11340476D01*
X286065476Y-11030952D01*
X286003571Y-10907142D01*
X285941666Y-10845238D01*
X285817857Y-10783333D01*
X285570238Y-10783333D01*
X285446428Y-10845238D01*
X285384523Y-10907142D01*
X285322619Y-11030952D01*
D10*
D11*
X60000000Y-198007200D02*
X60000000Y-200007200D01*
D10*
D11*
X110000000Y-198007200D02*
X110000000Y-200007200D01*
D10*
D11*
X160000000Y-198007200D02*
X160000000Y-200007200D01*
D10*
D11*
X210000000Y-198007200D02*
X210000000Y-200007200D01*
D10*
D11*
X260000000Y-198007200D02*
X260000000Y-200007200D01*
D10*
D11*
X36065476Y-199595295D02*
X35322619Y-199595295D01*
X35694047Y-199595295D02*
X35694047Y-198295295D01*
X35570238Y-198481009D01*
X35446428Y-198604819D01*
X35322619Y-198666723D01*
D10*
D11*
X85322619Y-198419104D02*
X85384523Y-198357200D01*
X85508333Y-198295295D01*
X85817857Y-198295295D01*
X85941666Y-198357200D01*
X86003571Y-198419104D01*
X86065476Y-198542914D01*
X86065476Y-198666723D01*
X86003571Y-198852438D01*
X85260714Y-199595295D01*
X86065476Y-199595295D01*
D10*
D11*
X135260714Y-198295295D02*
X136065476Y-198295295D01*
X135632142Y-198790533D01*
X135817857Y-198790533D01*
X135941666Y-198852438D01*
X136003571Y-198914342D01*
X136065476Y-199038152D01*
X136065476Y-199347676D01*
X136003571Y-199471485D01*
X135941666Y-199533390D01*
X135817857Y-199595295D01*
X135446428Y-199595295D01*
X135322619Y-199533390D01*
X135260714Y-199471485D01*
D10*
D11*
X185941666Y-198728628D02*
X185941666Y-199595295D01*
X185632142Y-198233390D02*
X185322619Y-199161961D01*
X186127380Y-199161961D01*
D10*
D11*
X236003571Y-198295295D02*
X235384523Y-198295295D01*
X235322619Y-198914342D01*
X235384523Y-198852438D01*
X235508333Y-198790533D01*
X235817857Y-198790533D01*
X235941666Y-198852438D01*
X236003571Y-198914342D01*
X236065476Y-199038152D01*
X236065476Y-199347676D01*
X236003571Y-199471485D01*
X235941666Y-199533390D01*
X235817857Y-199595295D01*
X235508333Y-199595295D01*
X235384523Y-199533390D01*
X235322619Y-199471485D01*
D10*
D11*
X285941666Y-198295295D02*
X285694047Y-198295295D01*
X285570238Y-198357200D01*
X285508333Y-198419104D01*
X285384523Y-198604819D01*
X285322619Y-198852438D01*
X285322619Y-199347676D01*
X285384523Y-199471485D01*
X285446428Y-199533390D01*
X285570238Y-199595295D01*
X285817857Y-199595295D01*
X285941666Y-199533390D01*
X286003571Y-199471485D01*
X286065476Y-199347676D01*
X286065476Y-199038152D01*
X286003571Y-198914342D01*
X285941666Y-198852438D01*
X285817857Y-198790533D01*
X285570238Y-198790533D01*
X285446428Y-198852438D01*
X285384523Y-198914342D01*
X285322619Y-199038152D01*
D10*
D11*
X10000000Y-60000000D02*
X12000000Y-60000000D01*
D10*
D11*
X10000000Y-110000000D02*
X12000000Y-110000000D01*
D10*
D11*
X10000000Y-160000000D02*
X12000000Y-160000000D01*
D10*
D11*
X10690476Y-35216666D02*
X11309523Y-35216666D01*
X10566666Y-35588095D02*
X11000000Y-34288095D01*
X11433333Y-35588095D01*
D10*
D11*
X11092857Y-84907142D02*
X11278571Y-84969047D01*
X11340476Y-85030952D01*
X11402380Y-85154761D01*
X11402380Y-85340476D01*
X11340476Y-85464285D01*
X11278571Y-85526190D01*
X11154761Y-85588095D01*
X10659523Y-85588095D01*
X10659523Y-84288095D01*
X11092857Y-84288095D01*
X11216666Y-84350000D01*
X11278571Y-84411904D01*
X11340476Y-84535714D01*
X11340476Y-84659523D01*
X11278571Y-84783333D01*
X11216666Y-84845238D01*
X11092857Y-84907142D01*
X10659523Y-84907142D01*
D10*
D11*
X11402380Y-135464285D02*
X11340476Y-135526190D01*
X11154761Y-135588095D01*
X11030952Y-135588095D01*
X10845238Y-135526190D01*
X10721428Y-135402380D01*
X10659523Y-135278571D01*
X10597619Y-135030952D01*
X10597619Y-134845238D01*
X10659523Y-134597619D01*
X10721428Y-134473809D01*
X10845238Y-134350000D01*
X11030952Y-134288095D01*
X11154761Y-134288095D01*
X11340476Y-134350000D01*
X11402380Y-134411904D01*
D10*
D11*
X10659523Y-185588095D02*
X10659523Y-184288095D01*
X10969047Y-184288095D01*
X11154761Y-184350000D01*
X11278571Y-184473809D01*
X11340476Y-184597619D01*
X11402380Y-184845238D01*
X11402380Y-185030952D01*
X11340476Y-185278571D01*
X11278571Y-185402380D01*
X11154761Y-185526190D01*
X10969047Y-185588095D01*
X10659523Y-185588095D01*
D10*
D11*
X287002200Y-60000000D02*
X285002200Y-60000000D01*
D10*
D11*
X287002200Y-110000000D02*
X285002200Y-110000000D01*
D10*
D11*
X287002200Y-160000000D02*
X285002200Y-160000000D01*
D10*
D11*
X285692676Y-35216666D02*
X286311723Y-35216666D01*
X285568866Y-35588095D02*
X286002200Y-34288095D01*
X286435533Y-35588095D01*
D10*
D11*
X286095057Y-84907142D02*
X286280771Y-84969047D01*
X286342676Y-85030952D01*
X286404580Y-85154761D01*
X286404580Y-85340476D01*
X286342676Y-85464285D01*
X286280771Y-85526190D01*
X286156961Y-85588095D01*
X285661723Y-85588095D01*
X285661723Y-84288095D01*
X286095057Y-84288095D01*
X286218866Y-84350000D01*
X286280771Y-84411904D01*
X286342676Y-84535714D01*
X286342676Y-84659523D01*
X286280771Y-84783333D01*
X286218866Y-84845238D01*
X286095057Y-84907142D01*
X285661723Y-84907142D01*
D10*
D11*
X286404580Y-135464285D02*
X286342676Y-135526190D01*
X286156961Y-135588095D01*
X286033152Y-135588095D01*
X285847438Y-135526190D01*
X285723628Y-135402380D01*
X285661723Y-135278571D01*
X285599819Y-135030952D01*
X285599819Y-134845238D01*
X285661723Y-134597619D01*
X285723628Y-134473809D01*
X285847438Y-134350000D01*
X286033152Y-134288095D01*
X286156961Y-134288095D01*
X286342676Y-134350000D01*
X286404580Y-134411904D01*
D10*
D11*
X285661723Y-185588095D02*
X285661723Y-184288095D01*
X285971247Y-184288095D01*
X286156961Y-184350000D01*
X286280771Y-184473809D01*
X286342676Y-184597619D01*
X286404580Y-184845238D01*
X286404580Y-185030952D01*
X286342676Y-185278571D01*
X286280771Y-185402380D01*
X286156961Y-185526190D01*
X285971247Y-185588095D01*
X285661723Y-185588095D01*
D10*
D11*
X200434342Y-193785771D02*
X200434342Y-192285771D01*
X200791485Y-192285771D01*
X201005771Y-192357200D01*
X201148628Y-192500057D01*
X201220057Y-192642914D01*
X201291485Y-192928628D01*
X201291485Y-193142914D01*
X201220057Y-193428628D01*
X201148628Y-193571485D01*
X201005771Y-193714342D01*
X200791485Y-193785771D01*
X200434342Y-193785771D01*
X202577200Y-193785771D02*
X202577200Y-193000057D01*
X202505771Y-192857200D01*
X202362914Y-192785771D01*
X202077200Y-192785771D01*
X201934342Y-192857200D01*
X202577200Y-193714342D02*
X202434342Y-193785771D01*
X202077200Y-193785771D01*
X201934342Y-193714342D01*
X201862914Y-193571485D01*
X201862914Y-193428628D01*
X201934342Y-193285771D01*
X202077200Y-193214342D01*
X202434342Y-193214342D01*
X202577200Y-193142914D01*
X203077200Y-192785771D02*
X203648628Y-192785771D01*
X203291485Y-192285771D02*
X203291485Y-193571485D01*
X203362914Y-193714342D01*
X203505771Y-193785771D01*
X203648628Y-193785771D01*
X204720057Y-193714342D02*
X204577200Y-193785771D01*
X204291485Y-193785771D01*
X204148628Y-193714342D01*
X204077200Y-193571485D01*
X204077200Y-193000057D01*
X204148628Y-192857200D01*
X204291485Y-192785771D01*
X204577200Y-192785771D01*
X204720057Y-192857200D01*
X204791485Y-193000057D01*
X204791485Y-193142914D01*
X204077200Y-193285771D01*
X205434342Y-193642914D02*
X205505771Y-193714342D01*
X205434342Y-193785771D01*
X205362914Y-193714342D01*
X205434342Y-193642914D01*
X205434342Y-193785771D01*
X205434342Y-192857200D02*
X205505771Y-192928628D01*
X205434342Y-193000057D01*
X205362914Y-192928628D01*
X205434342Y-192857200D01*
X205434342Y-193000057D01*
X207220057Y-192428628D02*
X207291485Y-192357200D01*
X207434342Y-192285771D01*
X207791485Y-192285771D01*
X207934342Y-192357200D01*
X208005771Y-192428628D01*
X208077200Y-192571485D01*
X208077200Y-192714342D01*
X208005771Y-192928628D01*
X207148628Y-193785771D01*
X208077200Y-193785771D01*
X209005771Y-192285771D02*
X209148628Y-192285771D01*
X209291485Y-192357200D01*
X209362914Y-192428628D01*
X209434342Y-192571485D01*
X209505771Y-192857200D01*
X209505771Y-193214342D01*
X209434342Y-193500057D01*
X209362914Y-193642914D01*
X209291485Y-193714342D01*
X209148628Y-193785771D01*
X209005771Y-193785771D01*
X208862914Y-193714342D01*
X208791485Y-193642914D01*
X208720057Y-193500057D01*
X208648628Y-193214342D01*
X208648628Y-192857200D01*
X208720057Y-192571485D01*
X208791485Y-192428628D01*
X208862914Y-192357200D01*
X209005771Y-192285771D01*
X210077200Y-192428628D02*
X210148628Y-192357200D01*
X210291485Y-192285771D01*
X210648628Y-192285771D01*
X210791485Y-192357200D01*
X210862914Y-192428628D01*
X210934342Y-192571485D01*
X210934342Y-192714342D01*
X210862914Y-192928628D01*
X210005771Y-193785771D01*
X210934342Y-193785771D01*
X212362914Y-193785771D02*
X211505771Y-193785771D01*
X211934342Y-193785771D02*
X211934342Y-192285771D01*
X211791485Y-192500057D01*
X211648628Y-192642914D01*
X211505771Y-192714342D01*
X213005771Y-193214342D02*
X214148628Y-193214342D01*
X215648628Y-193785771D02*
X214791485Y-193785771D01*
X215220057Y-193785771D02*
X215220057Y-192285771D01*
X215077200Y-192500057D01*
X214934342Y-192642914D01*
X214791485Y-192714342D01*
X216577200Y-192285771D02*
X216720057Y-192285771D01*
X216862914Y-192357200D01*
X216934342Y-192428628D01*
X217005771Y-192571485D01*
X217077200Y-192857200D01*
X217077200Y-193214342D01*
X217005771Y-193500057D01*
X216934342Y-193642914D01*
X216862914Y-193714342D01*
X216720057Y-193785771D01*
X216577200Y-193785771D01*
X216434342Y-193714342D01*
X216362914Y-193642914D01*
X216291485Y-193500057D01*
X216220057Y-193214342D01*
X216220057Y-192857200D01*
X216291485Y-192571485D01*
X216362914Y-192428628D01*
X216434342Y-192357200D01*
X216577200Y-192285771D01*
X217720057Y-193214342D02*
X218862914Y-193214342D01*
X220362914Y-193785771D02*
X219505771Y-193785771D01*
X219934342Y-193785771D02*
X219934342Y-192285771D01*
X219791485Y-192500057D01*
X219648628Y-192642914D01*
X219505771Y-192714342D01*
X220862914Y-192285771D02*
X221791485Y-192285771D01*
X221291485Y-192857200D01*
X221505771Y-192857200D01*
X221648628Y-192928628D01*
X221720057Y-193000057D01*
X221791485Y-193142914D01*
X221791485Y-193500057D01*
X221720057Y-193642914D01*
X221648628Y-193714342D01*
X221505771Y-193785771D01*
X221077200Y-193785771D01*
X220934342Y-193714342D01*
X220862914Y-193642914D01*
D10*
D11*
X177002200Y-194507200D02*
X285002200Y-194507200D01*
D10*
D11*
X178434342Y-196585771D02*
X178434342Y-195085771D01*
X179291485Y-196585771D02*
X178648628Y-195728628D01*
X179291485Y-195085771D02*
X178434342Y-195942914D01*
X179934342Y-196585771D02*
X179934342Y-195585771D01*
X179934342Y-195085771D02*
X179862914Y-195157200D01*
X179934342Y-195228628D01*
X180005771Y-195157200D01*
X179934342Y-195085771D01*
X179934342Y-195228628D01*
X181505771Y-196442914D02*
X181434342Y-196514342D01*
X181220057Y-196585771D01*
X181077200Y-196585771D01*
X180862914Y-196514342D01*
X180720057Y-196371485D01*
X180648628Y-196228628D01*
X180577200Y-195942914D01*
X180577200Y-195728628D01*
X180648628Y-195442914D01*
X180720057Y-195300057D01*
X180862914Y-195157200D01*
X181077200Y-195085771D01*
X181220057Y-195085771D01*
X181434342Y-195157200D01*
X181505771Y-195228628D01*
X182791485Y-196585771D02*
X182791485Y-195800057D01*
X182720057Y-195657200D01*
X182577200Y-195585771D01*
X182291485Y-195585771D01*
X182148628Y-195657200D01*
X182791485Y-196514342D02*
X182648628Y-196585771D01*
X182291485Y-196585771D01*
X182148628Y-196514342D01*
X182077200Y-196371485D01*
X182077200Y-196228628D01*
X182148628Y-196085771D01*
X182291485Y-196014342D01*
X182648628Y-196014342D01*
X182791485Y-195942914D01*
X184148628Y-196585771D02*
X184148628Y-195085771D01*
X184148628Y-196514342D02*
X184005771Y-196585771D01*
X183720057Y-196585771D01*
X183577200Y-196514342D01*
X183505771Y-196442914D01*
X183434342Y-196300057D01*
X183434342Y-195871485D01*
X183505771Y-195728628D01*
X183577200Y-195657200D01*
X183720057Y-195585771D01*
X184005771Y-195585771D01*
X184148628Y-195657200D01*
X186005771Y-195800057D02*
X186505771Y-195800057D01*
X186720057Y-196585771D02*
X186005771Y-196585771D01*
X186005771Y-195085771D01*
X186720057Y-195085771D01*
X187362914Y-196442914D02*
X187434342Y-196514342D01*
X187362914Y-196585771D01*
X187291485Y-196514342D01*
X187362914Y-196442914D01*
X187362914Y-196585771D01*
X188077200Y-196585771D02*
X188077200Y-195085771D01*
X188434342Y-195085771D01*
X188648628Y-195157200D01*
X188791485Y-195300057D01*
X188862914Y-195442914D01*
X188934342Y-195728628D01*
X188934342Y-195942914D01*
X188862914Y-196228628D01*
X188791485Y-196371485D01*
X188648628Y-196514342D01*
X188434342Y-196585771D01*
X188077200Y-196585771D01*
X189577200Y-196442914D02*
X189648628Y-196514342D01*
X189577200Y-196585771D01*
X189505771Y-196514342D01*
X189577200Y-196442914D01*
X189577200Y-196585771D01*
X190220057Y-196157200D02*
X190934342Y-196157200D01*
X190077200Y-196585771D02*
X190577200Y-195085771D01*
X191077200Y-196585771D01*
X191577200Y-196442914D02*
X191648628Y-196514342D01*
X191577200Y-196585771D01*
X191505771Y-196514342D01*
X191577200Y-196442914D01*
X191577200Y-196585771D01*
X194577200Y-196585771D02*
X194577200Y-195085771D01*
X194720057Y-196014342D02*
X195148628Y-196585771D01*
X195148628Y-195585771D02*
X194577200Y-196157200D01*
X195791485Y-196585771D02*
X195791485Y-195585771D01*
X195791485Y-195085771D02*
X195720057Y-195157200D01*
X195791485Y-195228628D01*
X195862914Y-195157200D01*
X195791485Y-195085771D01*
X195791485Y-195228628D01*
X197148628Y-196514342D02*
X197005771Y-196585771D01*
X196720057Y-196585771D01*
X196577200Y-196514342D01*
X196505771Y-196442914D01*
X196434342Y-196300057D01*
X196434342Y-195871485D01*
X196505771Y-195728628D01*
X196577200Y-195657200D01*
X196720057Y-195585771D01*
X197005771Y-195585771D01*
X197148628Y-195657200D01*
X198434342Y-196585771D02*
X198434342Y-195800057D01*
X198362914Y-195657200D01*
X198220057Y-195585771D01*
X197934342Y-195585771D01*
X197791485Y-195657200D01*
X198434342Y-196514342D02*
X198291485Y-196585771D01*
X197934342Y-196585771D01*
X197791485Y-196514342D01*
X197720057Y-196371485D01*
X197720057Y-196228628D01*
X197791485Y-196085771D01*
X197934342Y-196014342D01*
X198291485Y-196014342D01*
X198434342Y-195942914D01*
X199791485Y-196585771D02*
X199791485Y-195085771D01*
X199791485Y-196514342D02*
X199648628Y-196585771D01*
X199362914Y-196585771D01*
X199220057Y-196514342D01*
X199148628Y-196442914D01*
X199077200Y-196300057D01*
X199077200Y-195871485D01*
X199148628Y-195728628D01*
X199220057Y-195657200D01*
X199362914Y-195585771D01*
X199648628Y-195585771D01*
X199791485Y-195657200D01*
X202362914Y-195085771D02*
X201648628Y-195085771D01*
X201577200Y-195800057D01*
X201648628Y-195728628D01*
X201791485Y-195657200D01*
X202148628Y-195657200D01*
X202291485Y-195728628D01*
X202362914Y-195800057D01*
X202434342Y-195942914D01*
X202434342Y-196300057D01*
X202362914Y-196442914D01*
X202291485Y-196514342D01*
X202148628Y-196585771D01*
X201791485Y-196585771D01*
X201648628Y-196514342D01*
X201577200Y-196442914D01*
X203077200Y-196442914D02*
X203148628Y-196514342D01*
X203077200Y-196585771D01*
X203005771Y-196514342D01*
X203077200Y-196442914D01*
X203077200Y-196585771D01*
X204577200Y-196585771D02*
X203720057Y-196585771D01*
X204148628Y-196585771D02*
X204148628Y-195085771D01*
X204005771Y-195300057D01*
X203862914Y-195442914D01*
X203720057Y-195514342D01*
X205220057Y-196442914D02*
X205291485Y-196514342D01*
X205220057Y-196585771D01*
X205148628Y-196514342D01*
X205220057Y-196442914D01*
X205220057Y-196585771D01*
X206720057Y-196585771D02*
X205862914Y-196585771D01*
X206291485Y-196585771D02*
X206291485Y-195085771D01*
X206148628Y-195300057D01*
X206005771Y-195442914D01*
X205862914Y-195514342D01*
X207648628Y-195085771D02*
X207791485Y-195085771D01*
X207934342Y-195157200D01*
X208005771Y-195228628D01*
X208077200Y-195371485D01*
X208148628Y-195657200D01*
X208148628Y-196014342D01*
X208077200Y-196300057D01*
X208005771Y-196442914D01*
X207934342Y-196514342D01*
X207791485Y-196585771D01*
X207648628Y-196585771D01*
X207505771Y-196514342D01*
X207434342Y-196442914D01*
X207362914Y-196300057D01*
X207291485Y-196014342D01*
X207291485Y-195657200D01*
X207362914Y-195371485D01*
X207434342Y-195228628D01*
X207505771Y-195157200D01*
X207648628Y-195085771D01*
X208791485Y-196014342D02*
X209934342Y-196014342D01*
X210862914Y-195728628D02*
X210720057Y-195657200D01*
X210648628Y-195585771D01*
X210577200Y-195442914D01*
X210577200Y-195371485D01*
X210648628Y-195228628D01*
X210720057Y-195157200D01*
X210862914Y-195085771D01*
X211148628Y-195085771D01*
X211291485Y-195157200D01*
X211362914Y-195228628D01*
X211434342Y-195371485D01*
X211434342Y-195442914D01*
X211362914Y-195585771D01*
X211291485Y-195657200D01*
X211148628Y-195728628D01*
X210862914Y-195728628D01*
X210720057Y-195800057D01*
X210648628Y-195871485D01*
X210577200Y-196014342D01*
X210577200Y-196300057D01*
X210648628Y-196442914D01*
X210720057Y-196514342D01*
X210862914Y-196585771D01*
X211148628Y-196585771D01*
X211291485Y-196514342D01*
X211362914Y-196442914D01*
X211434342Y-196300057D01*
X211434342Y-196014342D01*
X211362914Y-195871485D01*
X211291485Y-195800057D01*
X211148628Y-195728628D01*
X212291485Y-195728628D02*
X212148628Y-195657200D01*
X212077200Y-195585771D01*
X212005771Y-195442914D01*
X212005771Y-195371485D01*
X212077200Y-195228628D01*
X212148628Y-195157200D01*
X212291485Y-195085771D01*
X212577200Y-195085771D01*
X212720057Y-195157200D01*
X212791485Y-195228628D01*
X212862914Y-195371485D01*
X212862914Y-195442914D01*
X212791485Y-195585771D01*
X212720057Y-195657200D01*
X212577200Y-195728628D01*
X212291485Y-195728628D01*
X212148628Y-195800057D01*
X212077200Y-195871485D01*
X212005771Y-196014342D01*
X212005771Y-196300057D01*
X212077200Y-196442914D01*
X212148628Y-196514342D01*
X212291485Y-196585771D01*
X212577200Y-196585771D01*
X212720057Y-196514342D01*
X212791485Y-196442914D01*
X212862914Y-196300057D01*
X212862914Y-196014342D01*
X212791485Y-195871485D01*
X212720057Y-195800057D01*
X212577200Y-195728628D01*
X214148628Y-196585771D02*
X214148628Y-195800057D01*
X214077200Y-195657200D01*
X213934342Y-195585771D01*
X213648628Y-195585771D01*
X213505771Y-195657200D01*
X214148628Y-196514342D02*
X214005771Y-196585771D01*
X213648628Y-196585771D01*
X213505771Y-196514342D01*
X213434342Y-196371485D01*
X213434342Y-196228628D01*
X213505771Y-196085771D01*
X213648628Y-196014342D01*
X214005771Y-196014342D01*
X214148628Y-195942914D01*
X215648628Y-196585771D02*
X214791485Y-196585771D01*
X215220057Y-196585771D02*
X215220057Y-195085771D01*
X215077200Y-195300057D01*
X214934342Y-195442914D01*
X214791485Y-195514342D01*
X216934342Y-196585771D02*
X216934342Y-195085771D01*
X216934342Y-196514342D02*
X216791485Y-196585771D01*
X216505771Y-196585771D01*
X216362914Y-196514342D01*
X216291485Y-196442914D01*
X216220057Y-196300057D01*
X216220057Y-195871485D01*
X216291485Y-195728628D01*
X216362914Y-195657200D01*
X216505771Y-195585771D01*
X216791485Y-195585771D01*
X216934342Y-195657200D01*
X218291485Y-195085771D02*
X218005771Y-195085771D01*
X217862914Y-195157200D01*
X217791485Y-195228628D01*
X217648628Y-195442914D01*
X217577200Y-195728628D01*
X217577200Y-196300057D01*
X217648628Y-196442914D01*
X217720057Y-196514342D01*
X217862914Y-196585771D01*
X218148628Y-196585771D01*
X218291485Y-196514342D01*
X218362914Y-196442914D01*
X218434342Y-196300057D01*
X218434342Y-195942914D01*
X218362914Y-195800057D01*
X218291485Y-195728628D01*
X218148628Y-195657200D01*
X217862914Y-195657200D01*
X217720057Y-195728628D01*
X217648628Y-195800057D01*
X217577200Y-195942914D01*
X219862914Y-196585771D02*
X219005771Y-196585771D01*
X219434342Y-196585771D02*
X219434342Y-195085771D01*
X219291485Y-195300057D01*
X219148628Y-195442914D01*
X219005771Y-195514342D01*
X221148628Y-196585771D02*
X221148628Y-195085771D01*
X221148628Y-196514342D02*
X221005771Y-196585771D01*
X220720057Y-196585771D01*
X220577200Y-196514342D01*
X220505771Y-196442914D01*
X220434342Y-196300057D01*
X220434342Y-195871485D01*
X220505771Y-195728628D01*
X220577200Y-195657200D01*
X220720057Y-195585771D01*
X221005771Y-195585771D01*
X221148628Y-195657200D01*
X222577200Y-195085771D02*
X221862914Y-195085771D01*
X221791485Y-195800057D01*
X221862914Y-195728628D01*
X222005771Y-195657200D01*
X222362914Y-195657200D01*
X222505771Y-195728628D01*
X222577200Y-195800057D01*
X222648628Y-195942914D01*
X222648628Y-196300057D01*
X222577200Y-196442914D01*
X222505771Y-196514342D01*
X222362914Y-196585771D01*
X222005771Y-196585771D01*
X221862914Y-196514342D01*
X221791485Y-196442914D01*
X223505771Y-195728628D02*
X223362914Y-195657200D01*
X223291485Y-195585771D01*
X223220057Y-195442914D01*
X223220057Y-195371485D01*
X223291485Y-195228628D01*
X223362914Y-195157200D01*
X223505771Y-195085771D01*
X223791485Y-195085771D01*
X223934342Y-195157200D01*
X224005771Y-195228628D01*
X224077200Y-195371485D01*
X224077200Y-195442914D01*
X224005771Y-195585771D01*
X223934342Y-195657200D01*
X223791485Y-195728628D01*
X223505771Y-195728628D01*
X223362914Y-195800057D01*
X223291485Y-195871485D01*
X223220057Y-196014342D01*
X223220057Y-196300057D01*
X223291485Y-196442914D01*
X223362914Y-196514342D01*
X223505771Y-196585771D01*
X223791485Y-196585771D01*
X223934342Y-196514342D01*
X224005771Y-196442914D01*
X224077200Y-196300057D01*
X224077200Y-196014342D01*
X224005771Y-195871485D01*
X223934342Y-195800057D01*
X223791485Y-195728628D01*
X224362914Y-194677200D02*
X225791485Y-194677200D01*
X224791485Y-196585771D02*
X225077200Y-196585771D01*
X225220057Y-196514342D01*
X225291485Y-196442914D01*
X225434342Y-196228628D01*
X225505771Y-195942914D01*
X225505771Y-195371485D01*
X225434342Y-195228628D01*
X225362914Y-195157200D01*
X225220057Y-195085771D01*
X224934342Y-195085771D01*
X224791485Y-195157200D01*
X224720057Y-195228628D01*
X224648628Y-195371485D01*
X224648628Y-195728628D01*
X224720057Y-195871485D01*
X224791485Y-195942914D01*
X224934342Y-196014342D01*
X225220057Y-196014342D01*
X225362914Y-195942914D01*
X225434342Y-195871485D01*
X225505771Y-195728628D01*
X225791485Y-194677200D02*
X227220057Y-194677200D01*
X226434342Y-195085771D02*
X226577199Y-195085771D01*
X226720057Y-195157200D01*
X226791485Y-195228628D01*
X226862914Y-195371485D01*
X226934342Y-195657200D01*
X226934342Y-196014342D01*
X226862914Y-196300057D01*
X226791485Y-196442914D01*
X226720057Y-196514342D01*
X226577199Y-196585771D01*
X226434342Y-196585771D01*
X226291485Y-196514342D01*
X226220057Y-196442914D01*
X226148628Y-196300057D01*
X226077199Y-196014342D01*
X226077199Y-195657200D01*
X226148628Y-195371485D01*
X226220057Y-195228628D01*
X226291485Y-195157200D01*
X226434342Y-195085771D01*
X228220057Y-195585771D02*
X228220057Y-196585771D01*
X227577199Y-195585771D02*
X227577199Y-196371485D01*
X227648628Y-196514342D01*
X227791485Y-196585771D01*
X228005771Y-196585771D01*
X228148628Y-196514342D01*
X228220057Y-196442914D01*
X228934342Y-196585771D02*
X228934342Y-195085771D01*
X228934342Y-195657200D02*
X229077199Y-195585771D01*
X229362914Y-195585771D01*
X229505771Y-195657200D01*
X229577199Y-195728628D01*
X229648628Y-195871485D01*
X229648628Y-196300057D01*
X229577199Y-196442914D01*
X229505771Y-196514342D01*
X229362914Y-196585771D01*
X229077199Y-196585771D01*
X228934342Y-196514342D01*
X230934342Y-195585771D02*
X230934342Y-196585771D01*
X230291485Y-195585771D02*
X230291485Y-196371485D01*
X230362914Y-196514342D01*
X230505771Y-196585771D01*
X230720057Y-196585771D01*
X230862914Y-196514342D01*
X230934342Y-196442914D01*
X231648628Y-195585771D02*
X231648628Y-196585771D01*
X231648628Y-195728628D02*
X231720057Y-195657200D01*
X231862914Y-195585771D01*
X232077199Y-195585771D01*
X232220057Y-195657200D01*
X232291485Y-195800057D01*
X232291485Y-196585771D01*
X232791485Y-195585771D02*
X233362914Y-195585771D01*
X233005771Y-195085771D02*
X233005771Y-196371485D01*
X233077199Y-196514342D01*
X233220057Y-196585771D01*
X233362914Y-196585771D01*
X234505771Y-195585771D02*
X234505771Y-196585771D01*
X233862914Y-195585771D02*
X233862914Y-196371485D01*
X233934342Y-196514342D01*
X234077200Y-196585771D01*
X234291485Y-196585771D01*
X234434342Y-196514342D01*
X234505771Y-196442914D01*
X235148628Y-195228628D02*
X235220057Y-195157200D01*
X235362914Y-195085771D01*
X235720057Y-195085771D01*
X235862914Y-195157200D01*
X235934342Y-195228628D01*
X236005771Y-195371485D01*
X236005771Y-195514342D01*
X235934342Y-195728628D01*
X235077200Y-196585771D01*
X236005771Y-196585771D01*
X236934342Y-195085771D02*
X237077199Y-195085771D01*
X237220057Y-195157200D01*
X237291485Y-195228628D01*
X237362914Y-195371485D01*
X237434342Y-195657200D01*
X237434342Y-196014342D01*
X237362914Y-196300057D01*
X237291485Y-196442914D01*
X237220057Y-196514342D01*
X237077199Y-196585771D01*
X236934342Y-196585771D01*
X236791485Y-196514342D01*
X236720057Y-196442914D01*
X236648628Y-196300057D01*
X236577199Y-196014342D01*
X236577199Y-195657200D01*
X236648628Y-195371485D01*
X236720057Y-195228628D01*
X236791485Y-195157200D01*
X236934342Y-195085771D01*
X238077199Y-196442914D02*
X238148628Y-196514342D01*
X238077199Y-196585771D01*
X238005771Y-196514342D01*
X238077199Y-196442914D01*
X238077199Y-196585771D01*
X239077199Y-195085771D02*
X239220057Y-195085771D01*
X239362914Y-195157200D01*
X239434342Y-195228628D01*
X239505771Y-195371485D01*
X239577199Y-195657200D01*
X239577199Y-196014342D01*
X239505771Y-196300057D01*
X239434342Y-196442914D01*
X239362914Y-196514342D01*
X239220057Y-196585771D01*
X239077199Y-196585771D01*
X238934342Y-196514342D01*
X238862914Y-196442914D01*
X238791485Y-196300057D01*
X238720057Y-196014342D01*
X238720057Y-195657200D01*
X238791485Y-195371485D01*
X238862914Y-195228628D01*
X238934342Y-195157200D01*
X239077199Y-195085771D01*
X240862914Y-195585771D02*
X240862914Y-196585771D01*
X240505771Y-195014342D02*
X240148628Y-196085771D01*
X241077199Y-196085771D01*
X241648628Y-196442914D02*
X241720057Y-196514342D01*
X241648628Y-196585771D01*
X241577199Y-196514342D01*
X241648628Y-196442914D01*
X241648628Y-196585771D01*
X243148628Y-196585771D02*
X242291485Y-196585771D01*
X242720057Y-196585771D02*
X242720057Y-195085771D01*
X242577199Y-195300057D01*
X242434342Y-195442914D01*
X242291485Y-195514342D01*
D10*
D11*
X177002200Y-191507200D02*
X285002200Y-191507200D01*
D10*
D12*
X264411485Y-193785771D02*
X263911485Y-193071485D01*
X263554342Y-193785771D02*
X263554342Y-192285771D01*
X264125771Y-192285771D01*
X264268628Y-192357200D01*
X264340057Y-192428628D01*
X264411485Y-192571485D01*
X264411485Y-192785771D01*
X264340057Y-192928628D01*
X264268628Y-193000057D01*
X264125771Y-193071485D01*
X263554342Y-193071485D01*
X265625771Y-193714342D02*
X265482914Y-193785771D01*
X265197200Y-193785771D01*
X265054342Y-193714342D01*
X264982914Y-193571485D01*
X264982914Y-193000057D01*
X265054342Y-192857200D01*
X265197200Y-192785771D01*
X265482914Y-192785771D01*
X265625771Y-192857200D01*
X265697200Y-193000057D01*
X265697200Y-193142914D01*
X264982914Y-193285771D01*
X266197200Y-192785771D02*
X266554342Y-193785771D01*
X266911485Y-192785771D01*
X267482914Y-193642914D02*
X267554342Y-193714342D01*
X267482914Y-193785771D01*
X267411485Y-193714342D01*
X267482914Y-193642914D01*
X267482914Y-193785771D01*
X267482914Y-192857200D02*
X267554342Y-192928628D01*
X267482914Y-193000057D01*
X267411485Y-192928628D01*
X267482914Y-192857200D01*
X267482914Y-193000057D01*
X270125771Y-193785771D02*
X269268628Y-193785771D01*
X269697200Y-193785771D02*
X269697200Y-192285771D01*
X269554342Y-192500057D01*
X269411485Y-192642914D01*
X269268628Y-192714342D01*
D10*
D11*
X178362914Y-193714342D02*
X178577200Y-193785771D01*
X178934342Y-193785771D01*
X179077200Y-193714342D01*
X179148628Y-193642914D01*
X179220057Y-193500057D01*
X179220057Y-193357200D01*
X179148628Y-193214342D01*
X179077200Y-193142914D01*
X178934342Y-193071485D01*
X178648628Y-193000057D01*
X178505771Y-192928628D01*
X178434342Y-192857200D01*
X178362914Y-192714342D01*
X178362914Y-192571485D01*
X178434342Y-192428628D01*
X178505771Y-192357200D01*
X178648628Y-192285771D01*
X179005771Y-192285771D01*
X179220057Y-192357200D01*
X179862914Y-193785771D02*
X179862914Y-192785771D01*
X179862914Y-192285771D02*
X179791485Y-192357200D01*
X179862914Y-192428628D01*
X179934342Y-192357200D01*
X179862914Y-192285771D01*
X179862914Y-192428628D01*
X180434342Y-192785771D02*
X181220057Y-192785771D01*
X180434342Y-193785771D01*
X181220057Y-193785771D01*
X182362914Y-193714342D02*
X182220057Y-193785771D01*
X181934342Y-193785771D01*
X181791485Y-193714342D01*
X181720057Y-193571485D01*
X181720057Y-193000057D01*
X181791485Y-192857200D01*
X181934342Y-192785771D01*
X182220057Y-192785771D01*
X182362914Y-192857200D01*
X182434342Y-193000057D01*
X182434342Y-193142914D01*
X181720057Y-193285771D01*
X183077200Y-193642914D02*
X183148628Y-193714342D01*
X183077200Y-193785771D01*
X183005771Y-193714342D01*
X183077200Y-193642914D01*
X183077200Y-193785771D01*
X183077200Y-192857200D02*
X183148628Y-192928628D01*
X183077200Y-193000057D01*
X183005771Y-192928628D01*
X183077200Y-192857200D01*
X183077200Y-193000057D01*
X184862914Y-193357200D02*
X185577200Y-193357200D01*
X184720057Y-193785771D02*
X185220057Y-192285771D01*
X185720057Y-193785771D01*
X186862914Y-192785771D02*
X186862914Y-193785771D01*
X186505771Y-192214342D02*
X186148628Y-193285771D01*
X187077200Y-193285771D01*
D10*
D11*
X263434342Y-196585771D02*
X263434342Y-195085771D01*
X264791485Y-196585771D02*
X264791485Y-195085771D01*
X264791485Y-196514342D02*
X264648628Y-196585771D01*
X264362914Y-196585771D01*
X264220057Y-196514342D01*
X264148628Y-196442914D01*
X264077200Y-196300057D01*
X264077200Y-195871485D01*
X264148628Y-195728628D01*
X264220057Y-195657200D01*
X264362914Y-195585771D01*
X264648628Y-195585771D01*
X264791485Y-195657200D01*
X265505771Y-196442914D02*
X265577200Y-196514342D01*
X265505771Y-196585771D01*
X265434342Y-196514342D01*
X265505771Y-196442914D01*
X265505771Y-196585771D01*
X265505771Y-195657200D02*
X265577200Y-195728628D01*
X265505771Y-195800057D01*
X265434342Y-195728628D01*
X265505771Y-195657200D01*
X265505771Y-195800057D01*
X268148628Y-196585771D02*
X267291485Y-196585771D01*
X267720057Y-196585771D02*
X267720057Y-195085771D01*
X267577200Y-195300057D01*
X267434342Y-195442914D01*
X267291485Y-195514342D01*
X269862914Y-195014342D02*
X268577200Y-196942914D01*
X271148628Y-196585771D02*
X270291485Y-196585771D01*
X270720057Y-196585771D02*
X270720057Y-195085771D01*
X270577200Y-195300057D01*
X270434342Y-195442914D01*
X270291485Y-195514342D01*
D10*
D11*
X177002200Y-187507200D02*
X285002200Y-187507200D01*
D10*
D13*
X178714580Y-188211961D02*
X179857438Y-188211961D01*
X179036009Y-190211961D02*
X179286009Y-188211961D01*
X180274104Y-190211961D02*
X180440771Y-188878628D01*
X180524104Y-188211961D02*
X180416961Y-188307200D01*
X180500295Y-188402438D01*
X180607438Y-188307200D01*
X180524104Y-188211961D01*
X180500295Y-188402438D01*
X181107438Y-188878628D02*
X181869342Y-188878628D01*
X181476485Y-188211961D02*
X181262200Y-189926247D01*
X181333628Y-190116723D01*
X181512200Y-190211961D01*
X181702676Y-190211961D01*
X182655057Y-190211961D02*
X182476485Y-190116723D01*
X182405057Y-189926247D01*
X182619342Y-188211961D01*
X184190771Y-190116723D02*
X183988390Y-190211961D01*
X183607438Y-190211961D01*
X183428866Y-190116723D01*
X183357438Y-189926247D01*
X183452676Y-189164342D01*
X183571723Y-188973866D01*
X183774104Y-188878628D01*
X184155057Y-188878628D01*
X184333628Y-188973866D01*
X184405057Y-189164342D01*
X184381247Y-189354819D01*
X183405057Y-189545295D01*
X185155057Y-190021485D02*
X185238390Y-190116723D01*
X185131247Y-190211961D01*
X185047914Y-190116723D01*
X185155057Y-190021485D01*
X185131247Y-190211961D01*
X185286009Y-188973866D02*
X185369342Y-189069104D01*
X185262200Y-189164342D01*
X185178866Y-189069104D01*
X185286009Y-188973866D01*
X185262200Y-189164342D01*
X187583628Y-189640533D02*
X188536009Y-189640533D01*
X187321723Y-190211961D02*
X188238390Y-188211961D01*
X188655057Y-190211961D01*
X189321723Y-190211961D02*
X189488390Y-188878628D01*
X189440771Y-189259580D02*
X189559819Y-189069104D01*
X189666961Y-188973866D01*
X189869342Y-188878628D01*
X190059819Y-188878628D01*
X191416961Y-190211961D02*
X191666961Y-188211961D01*
X191428866Y-190116723D02*
X191226485Y-190211961D01*
X190845533Y-190211961D01*
X190666961Y-190116723D01*
X190583628Y-190021485D01*
X190512200Y-189831009D01*
X190583628Y-189259580D01*
X190702676Y-189069104D01*
X190809819Y-188973866D01*
X191012200Y-188878628D01*
X191393152Y-188878628D01*
X191571723Y-188973866D01*
X193393152Y-188878628D02*
X193226485Y-190211961D01*
X192536009Y-188878628D02*
X192405057Y-189926247D01*
X192476485Y-190116723D01*
X192655057Y-190211961D01*
X192940771Y-190211961D01*
X193143152Y-190116723D01*
X193250295Y-190021485D01*
X194178866Y-190211961D02*
X194345533Y-188878628D01*
X194428866Y-188211961D02*
X194321723Y-188307200D01*
X194405057Y-188402438D01*
X194512200Y-188307200D01*
X194428866Y-188211961D01*
X194405057Y-188402438D01*
X195297914Y-188878628D02*
X195131247Y-190211961D01*
X195274104Y-189069104D02*
X195381247Y-188973866D01*
X195583628Y-188878628D01*
X195869342Y-188878628D01*
X196047914Y-188973866D01*
X196119342Y-189164342D01*
X195988390Y-190211961D01*
X197226485Y-190211961D02*
X197047914Y-190116723D01*
X196964580Y-190021485D01*
X196893152Y-189831009D01*
X196964580Y-189259580D01*
X197083628Y-189069104D01*
X197190771Y-188973866D01*
X197393152Y-188878628D01*
X197678866Y-188878628D01*
X197857438Y-188973866D01*
X197940771Y-189069104D01*
X198012200Y-189259580D01*
X197940771Y-189831009D01*
X197821723Y-190021485D01*
X197714580Y-190116723D01*
X197512200Y-190211961D01*
X197226485Y-190211961D01*
X200274104Y-190211961D02*
X200524104Y-188211961D01*
X201416961Y-190211961D01*
X201666961Y-188211961D01*
X203226485Y-190211961D02*
X203357438Y-189164342D01*
X203286009Y-188973866D01*
X203107438Y-188878628D01*
X202726485Y-188878628D01*
X202524104Y-188973866D01*
X203238390Y-190116723D02*
X203036009Y-190211961D01*
X202559819Y-190211961D01*
X202381247Y-190116723D01*
X202309819Y-189926247D01*
X202333628Y-189735771D01*
X202452676Y-189545295D01*
X202655057Y-189450057D01*
X203131247Y-189450057D01*
X203333628Y-189354819D01*
X204345533Y-188878628D02*
X204178866Y-190211961D01*
X204321723Y-189069104D02*
X204428866Y-188973866D01*
X204631247Y-188878628D01*
X204916961Y-188878628D01*
X205095533Y-188973866D01*
X205166961Y-189164342D01*
X205036009Y-190211961D01*
X206274104Y-190211961D02*
X206095533Y-190116723D01*
X206012200Y-190021485D01*
X205940771Y-189831009D01*
X206012200Y-189259580D01*
X206131247Y-189069104D01*
X206238390Y-188973866D01*
X206440771Y-188878628D01*
X206726485Y-188878628D01*
X206905057Y-188973866D01*
X206988390Y-189069104D01*
X207059819Y-189259580D01*
X206988390Y-189831009D01*
X206869342Y-190021485D01*
X206762200Y-190116723D01*
X206559819Y-190211961D01*
X206274104Y-190211961D01*
D10*
D11*
X178934342Y-185600057D02*
X178434342Y-185600057D01*
X178434342Y-186385771D02*
X178434342Y-184885771D01*
X179148628Y-184885771D01*
X179720057Y-186385771D02*
X179720057Y-185385771D01*
X179720057Y-184885771D02*
X179648628Y-184957200D01*
X179720057Y-185028628D01*
X179791485Y-184957200D01*
X179720057Y-184885771D01*
X179720057Y-185028628D01*
X180648628Y-186385771D02*
X180505771Y-186314342D01*
X180434342Y-186171485D01*
X180434342Y-184885771D01*
X181791485Y-186314342D02*
X181648628Y-186385771D01*
X181362914Y-186385771D01*
X181220057Y-186314342D01*
X181148628Y-186171485D01*
X181148628Y-185600057D01*
X181220057Y-185457200D01*
X181362914Y-185385771D01*
X181648628Y-185385771D01*
X181791485Y-185457200D01*
X181862914Y-185600057D01*
X181862914Y-185742914D01*
X181148628Y-185885771D01*
X182505771Y-186242914D02*
X182577200Y-186314342D01*
X182505771Y-186385771D01*
X182434342Y-186314342D01*
X182505771Y-186242914D01*
X182505771Y-186385771D01*
X182505771Y-185457200D02*
X182577200Y-185528628D01*
X182505771Y-185600057D01*
X182434342Y-185528628D01*
X182505771Y-185457200D01*
X182505771Y-185600057D01*
X184291485Y-185957200D02*
X185005771Y-185957200D01*
X184148628Y-186385771D02*
X184648628Y-184885771D01*
X185148628Y-186385771D01*
X185648628Y-186385771D02*
X185648628Y-185385771D01*
X185648628Y-185671485D02*
X185720057Y-185528628D01*
X185791485Y-185457200D01*
X185934342Y-185385771D01*
X186077200Y-185385771D01*
X187220057Y-186385771D02*
X187220057Y-184885771D01*
X187220057Y-186314342D02*
X187077200Y-186385771D01*
X186791485Y-186385771D01*
X186648628Y-186314342D01*
X186577200Y-186242914D01*
X186505771Y-186100057D01*
X186505771Y-185671485D01*
X186577200Y-185528628D01*
X186648628Y-185457200D01*
X186791485Y-185385771D01*
X187077200Y-185385771D01*
X187220057Y-185457200D01*
X188577200Y-185385771D02*
X188577200Y-186385771D01*
X187934342Y-185385771D02*
X187934342Y-186171485D01*
X188005771Y-186314342D01*
X188148628Y-186385771D01*
X188362914Y-186385771D01*
X188505771Y-186314342D01*
X188577200Y-186242914D01*
X189291485Y-186385771D02*
X189291485Y-185385771D01*
X189291485Y-184885771D02*
X189220057Y-184957200D01*
X189291485Y-185028628D01*
X189362914Y-184957200D01*
X189291485Y-184885771D01*
X189291485Y-185028628D01*
X190005771Y-185385771D02*
X190005771Y-186385771D01*
X190005771Y-185528628D02*
X190077200Y-185457200D01*
X190220057Y-185385771D01*
X190434342Y-185385771D01*
X190577200Y-185457200D01*
X190648628Y-185600057D01*
X190648628Y-186385771D01*
X191577200Y-186385771D02*
X191434342Y-186314342D01*
X191362914Y-186242914D01*
X191291485Y-186100057D01*
X191291485Y-185671485D01*
X191362914Y-185528628D01*
X191434342Y-185457200D01*
X191577200Y-185385771D01*
X191791485Y-185385771D01*
X191934342Y-185457200D01*
X192005771Y-185528628D01*
X192077200Y-185671485D01*
X192077200Y-186100057D01*
X192005771Y-186242914D01*
X191934342Y-186314342D01*
X191791485Y-186385771D01*
X191577200Y-186385771D01*
X192362914Y-186528628D02*
X193505771Y-186528628D01*
X193862914Y-186385771D02*
X193862914Y-184885771D01*
X194720057Y-186385771D01*
X194720057Y-184885771D01*
X196077200Y-186385771D02*
X196077200Y-185600057D01*
X196005771Y-185457200D01*
X195862914Y-185385771D01*
X195577200Y-185385771D01*
X195434342Y-185457200D01*
X196077200Y-186314342D02*
X195934342Y-186385771D01*
X195577200Y-186385771D01*
X195434342Y-186314342D01*
X195362914Y-186171485D01*
X195362914Y-186028628D01*
X195434342Y-185885771D01*
X195577200Y-185814342D01*
X195934342Y-185814342D01*
X196077200Y-185742914D01*
X196791485Y-185385771D02*
X196791485Y-186385771D01*
X196791485Y-185528628D02*
X196862914Y-185457200D01*
X197005771Y-185385771D01*
X197220057Y-185385771D01*
X197362914Y-185457200D01*
X197434342Y-185600057D01*
X197434342Y-186385771D01*
X198362914Y-186385771D02*
X198220057Y-186314342D01*
X198148628Y-186242914D01*
X198077200Y-186100057D01*
X198077200Y-185671485D01*
X198148628Y-185528628D01*
X198220057Y-185457200D01*
X198362914Y-185385771D01*
X198577200Y-185385771D01*
X198720057Y-185457200D01*
X198791485Y-185528628D01*
X198862914Y-185671485D01*
X198862914Y-186100057D01*
X198791485Y-186242914D01*
X198720057Y-186314342D01*
X198577200Y-186385771D01*
X198362914Y-186385771D01*
X199148628Y-186528628D02*
X200291485Y-186528628D01*
X200648628Y-185600057D02*
X201148628Y-185600057D01*
X201362914Y-186385771D02*
X200648628Y-186385771D01*
X200648628Y-184885771D01*
X201362914Y-184885771D01*
X201862914Y-186385771D02*
X202648628Y-185385771D01*
X201862914Y-185385771D02*
X202648628Y-186385771D01*
X203862914Y-186385771D02*
X203862914Y-185600057D01*
X203791485Y-185457200D01*
X203648628Y-185385771D01*
X203362914Y-185385771D01*
X203220057Y-185457200D01*
X203862914Y-186314342D02*
X203720057Y-186385771D01*
X203362914Y-186385771D01*
X203220057Y-186314342D01*
X203148628Y-186171485D01*
X203148628Y-186028628D01*
X203220057Y-185885771D01*
X203362914Y-185814342D01*
X203720057Y-185814342D01*
X203862914Y-185742914D01*
X204577200Y-186385771D02*
X204577200Y-185385771D01*
X204577200Y-185528628D02*
X204648628Y-185457200D01*
X204791485Y-185385771D01*
X205005771Y-185385771D01*
X205148628Y-185457200D01*
X205220057Y-185600057D01*
X205220057Y-186385771D01*
X205220057Y-185600057D02*
X205291485Y-185457200D01*
X205434342Y-185385771D01*
X205648628Y-185385771D01*
X205791485Y-185457200D01*
X205862914Y-185600057D01*
X205862914Y-186385771D01*
X206577200Y-185385771D02*
X206577200Y-186885771D01*
X206577200Y-185457200D02*
X206720057Y-185385771D01*
X207005771Y-185385771D01*
X207148628Y-185457200D01*
X207220057Y-185528628D01*
X207291485Y-185671485D01*
X207291485Y-186100057D01*
X207220057Y-186242914D01*
X207148628Y-186314342D01*
X207005771Y-186385771D01*
X206720057Y-186385771D01*
X206577200Y-186314342D01*
X208148628Y-186385771D02*
X208005771Y-186314342D01*
X207934342Y-186171485D01*
X207934342Y-184885771D01*
X209291485Y-186314342D02*
X209148628Y-186385771D01*
X208862914Y-186385771D01*
X208720057Y-186314342D01*
X208648628Y-186171485D01*
X208648628Y-185600057D01*
X208720057Y-185457200D01*
X208862914Y-185385771D01*
X209148628Y-185385771D01*
X209291485Y-185457200D01*
X209362914Y-185600057D01*
X209362914Y-185742914D01*
X208648628Y-185885771D01*
X210005771Y-186242914D02*
X210077200Y-186314342D01*
X210005771Y-186385771D01*
X209934342Y-186314342D01*
X210005771Y-186242914D01*
X210005771Y-186385771D01*
X210720057Y-186385771D02*
X210720057Y-184885771D01*
X210862914Y-185814342D02*
X211291485Y-186385771D01*
X211291485Y-185385771D02*
X210720057Y-185957200D01*
X211934342Y-186385771D02*
X211934342Y-185385771D01*
X211934342Y-184885771D02*
X211862914Y-184957200D01*
X211934342Y-185028628D01*
X212005771Y-184957200D01*
X211934342Y-184885771D01*
X211934342Y-185028628D01*
X213291485Y-186314342D02*
X213148628Y-186385771D01*
X212862914Y-186385771D01*
X212720057Y-186314342D01*
X212648628Y-186242914D01*
X212577200Y-186100057D01*
X212577200Y-185671485D01*
X212648628Y-185528628D01*
X212720057Y-185457200D01*
X212862914Y-185385771D01*
X213148628Y-185385771D01*
X213291485Y-185457200D01*
X214577200Y-186385771D02*
X214577200Y-185600057D01*
X214505771Y-185457200D01*
X214362914Y-185385771D01*
X214077200Y-185385771D01*
X213934342Y-185457200D01*
X214577200Y-186314342D02*
X214434342Y-186385771D01*
X214077200Y-186385771D01*
X213934342Y-186314342D01*
X213862914Y-186171485D01*
X213862914Y-186028628D01*
X213934342Y-185885771D01*
X214077200Y-185814342D01*
X214434342Y-185814342D01*
X214577200Y-185742914D01*
X215934342Y-186385771D02*
X215934342Y-184885771D01*
X215934342Y-186314342D02*
X215791485Y-186385771D01*
X215505771Y-186385771D01*
X215362914Y-186314342D01*
X215291485Y-186242914D01*
X215220057Y-186100057D01*
X215220057Y-185671485D01*
X215291485Y-185528628D01*
X215362914Y-185457200D01*
X215505771Y-185385771D01*
X215791485Y-185385771D01*
X215934342Y-185457200D01*
X216291485Y-186528628D02*
X217434342Y-186528628D01*
X217791485Y-185385771D02*
X217791485Y-186885771D01*
X217791485Y-185457200D02*
X217934342Y-185385771D01*
X218220057Y-185385771D01*
X218362914Y-185457200D01*
X218434342Y-185528628D01*
X218505771Y-185671485D01*
X218505771Y-186100057D01*
X218434342Y-186242914D01*
X218362914Y-186314342D01*
X218220057Y-186385771D01*
X217934342Y-186385771D01*
X217791485Y-186314342D01*
X219791485Y-186314342D02*
X219648628Y-186385771D01*
X219362914Y-186385771D01*
X219220057Y-186314342D01*
X219148628Y-186242914D01*
X219077200Y-186100057D01*
X219077200Y-185671485D01*
X219148628Y-185528628D01*
X219220057Y-185457200D01*
X219362914Y-185385771D01*
X219648628Y-185385771D01*
X219791485Y-185457200D01*
X220434342Y-186385771D02*
X220434342Y-184885771D01*
X220434342Y-185457200D02*
X220577200Y-185385771D01*
X220862914Y-185385771D01*
X221005771Y-185457200D01*
X221077200Y-185528628D01*
X221148628Y-185671485D01*
X221148628Y-186100057D01*
X221077200Y-186242914D01*
X221005771Y-186314342D01*
X220862914Y-186385771D01*
X220577200Y-186385771D01*
X220434342Y-186314342D01*
D10*
D11*
X177002200Y-181507200D02*
X285002200Y-181507200D01*
D10*
D11*
X178362914Y-183614342D02*
X178577200Y-183685771D01*
X178934342Y-183685771D01*
X179077200Y-183614342D01*
X179148628Y-183542914D01*
X179220057Y-183400057D01*
X179220057Y-183257200D01*
X179148628Y-183114342D01*
X179077200Y-183042914D01*
X178934342Y-182971485D01*
X178648628Y-182900057D01*
X178505771Y-182828628D01*
X178434342Y-182757200D01*
X178362914Y-182614342D01*
X178362914Y-182471485D01*
X178434342Y-182328628D01*
X178505771Y-182257200D01*
X178648628Y-182185771D01*
X179005771Y-182185771D01*
X179220057Y-182257200D01*
X179862914Y-183685771D02*
X179862914Y-182185771D01*
X180505771Y-183685771D02*
X180505771Y-182900057D01*
X180434342Y-182757200D01*
X180291485Y-182685771D01*
X180077200Y-182685771D01*
X179934342Y-182757200D01*
X179862914Y-182828628D01*
X181791485Y-183614342D02*
X181648628Y-183685771D01*
X181362914Y-183685771D01*
X181220057Y-183614342D01*
X181148628Y-183471485D01*
X181148628Y-182900057D01*
X181220057Y-182757200D01*
X181362914Y-182685771D01*
X181648628Y-182685771D01*
X181791485Y-182757200D01*
X181862914Y-182900057D01*
X181862914Y-183042914D01*
X181148628Y-183185771D01*
X183077200Y-183614342D02*
X182934342Y-183685771D01*
X182648628Y-183685771D01*
X182505771Y-183614342D01*
X182434342Y-183471485D01*
X182434342Y-182900057D01*
X182505771Y-182757200D01*
X182648628Y-182685771D01*
X182934342Y-182685771D01*
X183077200Y-182757200D01*
X183148628Y-182900057D01*
X183148628Y-183042914D01*
X182434342Y-183185771D01*
X183577200Y-182685771D02*
X184148628Y-182685771D01*
X183791485Y-182185771D02*
X183791485Y-183471485D01*
X183862914Y-183614342D01*
X184005771Y-183685771D01*
X184148628Y-183685771D01*
X184648628Y-183542914D02*
X184720057Y-183614342D01*
X184648628Y-183685771D01*
X184577200Y-183614342D01*
X184648628Y-183542914D01*
X184648628Y-183685771D01*
X184648628Y-182757200D02*
X184720057Y-182828628D01*
X184648628Y-182900057D01*
X184577200Y-182828628D01*
X184648628Y-182757200D01*
X184648628Y-182900057D01*
D10*
D12*
X178554342Y-180685771D02*
X178554342Y-179185771D01*
X179054342Y-180257200D01*
X179554342Y-179185771D01*
X179554342Y-180685771D01*
X180197200Y-180257200D02*
X180911485Y-180257200D01*
X180054342Y-180685771D02*
X180554342Y-179185771D01*
X181054342Y-180685771D01*
X181482914Y-180257200D02*
X182197200Y-180257200D01*
X181340057Y-180685771D02*
X181840057Y-179185771D01*
X182340057Y-180685771D01*
X183554342Y-180685771D02*
X182840057Y-180685771D01*
X182840057Y-179185771D01*
X184125771Y-179185771D02*
X183982914Y-179471485D01*
X184697200Y-180614342D02*
X184840057Y-180685771D01*
X185125771Y-180685771D01*
X185268628Y-180614342D01*
X185340057Y-180471485D01*
X185340057Y-180400057D01*
X185268628Y-180257200D01*
X185125771Y-180185771D01*
X184911485Y-180185771D01*
X184768628Y-180114342D01*
X184697200Y-179971485D01*
X184697200Y-179900057D01*
X184768628Y-179757200D01*
X184911485Y-179685771D01*
X185125771Y-179685771D01*
X185268628Y-179757200D01*
X187840057Y-180685771D02*
X187125771Y-180685771D01*
X187125771Y-179185771D01*
X188268628Y-180257200D02*
X188982914Y-180257200D01*
X188125771Y-180685771D02*
X188625771Y-179185771D01*
X189125771Y-180685771D01*
X190125771Y-179900057D02*
X190340057Y-179971485D01*
X190411485Y-180042914D01*
X190482914Y-180185771D01*
X190482914Y-180400057D01*
X190411485Y-180542914D01*
X190340057Y-180614342D01*
X190197200Y-180685771D01*
X189625771Y-180685771D01*
X189625771Y-179185771D01*
X190125771Y-179185771D01*
X190268628Y-179257200D01*
X190340057Y-179328628D01*
X190411485Y-179471485D01*
X190411485Y-179614342D01*
X190340057Y-179757200D01*
X190268628Y-179828628D01*
X190125771Y-179900057D01*
X189625771Y-179900057D01*
D10*
D11*
X178434342Y-177685771D02*
X178434342Y-176185771D01*
X178791485Y-176185771D01*
X179005771Y-176257200D01*
X179148628Y-176400057D01*
X179220057Y-176542914D01*
X179291485Y-176828628D01*
X179291485Y-177042914D01*
X179220057Y-177328628D01*
X179148628Y-177471485D01*
X179005771Y-177614342D01*
X178791485Y-177685771D01*
X178434342Y-177685771D01*
X180505771Y-177614342D02*
X180362914Y-177685771D01*
X180077200Y-177685771D01*
X179934342Y-177614342D01*
X179862914Y-177471485D01*
X179862914Y-176900057D01*
X179934342Y-176757200D01*
X180077200Y-176685771D01*
X180362914Y-176685771D01*
X180505771Y-176757200D01*
X180577200Y-176900057D01*
X180577200Y-177042914D01*
X179862914Y-177185771D01*
X181148628Y-177614342D02*
X181291485Y-177685771D01*
X181577200Y-177685771D01*
X181720057Y-177614342D01*
X181791485Y-177471485D01*
X181791485Y-177400057D01*
X181720057Y-177257200D01*
X181577200Y-177185771D01*
X181362914Y-177185771D01*
X181220057Y-177114342D01*
X181148628Y-176971485D01*
X181148628Y-176900057D01*
X181220057Y-176757200D01*
X181362914Y-176685771D01*
X181577200Y-176685771D01*
X181720057Y-176757200D01*
X182434342Y-177685771D02*
X182434342Y-176685771D01*
X182434342Y-176185771D02*
X182362914Y-176257200D01*
X182434342Y-176328628D01*
X182505771Y-176257200D01*
X182434342Y-176185771D01*
X182434342Y-176328628D01*
X183791485Y-176685771D02*
X183791485Y-177900057D01*
X183720057Y-178042914D01*
X183648628Y-178114342D01*
X183505771Y-178185771D01*
X183291485Y-178185771D01*
X183148628Y-178114342D01*
X183791485Y-177614342D02*
X183648628Y-177685771D01*
X183362914Y-177685771D01*
X183220057Y-177614342D01*
X183148628Y-177542914D01*
X183077200Y-177400057D01*
X183077200Y-176971485D01*
X183148628Y-176828628D01*
X183220057Y-176757200D01*
X183362914Y-176685771D01*
X183648628Y-176685771D01*
X183791485Y-176757200D01*
X184505771Y-176685771D02*
X184505771Y-177685771D01*
X184505771Y-176828628D02*
X184577200Y-176757200D01*
X184720057Y-176685771D01*
X184934342Y-176685771D01*
X185077200Y-176757200D01*
X185148628Y-176900057D01*
X185148628Y-177685771D01*
X186434342Y-177614342D02*
X186291485Y-177685771D01*
X186005771Y-177685771D01*
X185862914Y-177614342D01*
X185791485Y-177471485D01*
X185791485Y-176900057D01*
X185862914Y-176757200D01*
X186005771Y-176685771D01*
X186291485Y-176685771D01*
X186434342Y-176757200D01*
X186505771Y-176900057D01*
X186505771Y-177042914D01*
X185791485Y-177185771D01*
X187148628Y-177685771D02*
X187148628Y-176685771D01*
X187148628Y-176971485D02*
X187220057Y-176828628D01*
X187291485Y-176757200D01*
X187434342Y-176685771D01*
X187577200Y-176685771D01*
X188077200Y-177542914D02*
X188148628Y-177614342D01*
X188077200Y-177685771D01*
X188005771Y-177614342D01*
X188077200Y-177542914D01*
X188077200Y-177685771D01*
X188077200Y-176757200D02*
X188148628Y-176828628D01*
X188077200Y-176900057D01*
X188005771Y-176828628D01*
X188077200Y-176757200D01*
X188077200Y-176900057D01*
X189934342Y-177685771D02*
X189934342Y-176185771D01*
X190434342Y-177257200D01*
X190934342Y-176185771D01*
X190934342Y-177685771D01*
X191862914Y-177685771D02*
X191720057Y-177614342D01*
X191648628Y-177542914D01*
X191577200Y-177400057D01*
X191577200Y-176971485D01*
X191648628Y-176828628D01*
X191720057Y-176757200D01*
X191862914Y-176685771D01*
X192077200Y-176685771D01*
X192220057Y-176757200D01*
X192291485Y-176828628D01*
X192362914Y-176971485D01*
X192362914Y-177400057D01*
X192291485Y-177542914D01*
X192220057Y-177614342D01*
X192077200Y-177685771D01*
X191862914Y-177685771D01*
X193005771Y-177685771D02*
X193005771Y-176185771D01*
X193648628Y-177685771D02*
X193648628Y-176900057D01*
X193577200Y-176757200D01*
X193434342Y-176685771D01*
X193220057Y-176685771D01*
X193077200Y-176757200D01*
X193005771Y-176828628D01*
X195005771Y-177685771D02*
X195005771Y-176900057D01*
X194934342Y-176757200D01*
X194791485Y-176685771D01*
X194505771Y-176685771D01*
X194362914Y-176757200D01*
X195005771Y-177614342D02*
X194862914Y-177685771D01*
X194505771Y-177685771D01*
X194362914Y-177614342D01*
X194291485Y-177471485D01*
X194291485Y-177328628D01*
X194362914Y-177185771D01*
X194505771Y-177114342D01*
X194862914Y-177114342D01*
X195005771Y-177042914D01*
X195720057Y-177685771D02*
X195720057Y-176685771D01*
X195720057Y-176828628D02*
X195791485Y-176757200D01*
X195934342Y-176685771D01*
X196148628Y-176685771D01*
X196291485Y-176757200D01*
X196362914Y-176900057D01*
X196362914Y-177685771D01*
X196362914Y-176900057D02*
X196434342Y-176757200D01*
X196577200Y-176685771D01*
X196791485Y-176685771D01*
X196934342Y-176757200D01*
X197005771Y-176900057D01*
X197005771Y-177685771D01*
X197720057Y-177685771D02*
X197720057Y-176685771D01*
X197720057Y-176828628D02*
X197791485Y-176757200D01*
X197934342Y-176685771D01*
X198148628Y-176685771D01*
X198291485Y-176757200D01*
X198362914Y-176900057D01*
X198362914Y-177685771D01*
X198362914Y-176900057D02*
X198434342Y-176757200D01*
X198577200Y-176685771D01*
X198791485Y-176685771D01*
X198934342Y-176757200D01*
X199005771Y-176900057D01*
X199005771Y-177685771D01*
X200362914Y-177685771D02*
X200362914Y-176900057D01*
X200291485Y-176757200D01*
X200148628Y-176685771D01*
X199862914Y-176685771D01*
X199720057Y-176757200D01*
X200362914Y-177614342D02*
X200220057Y-177685771D01*
X199862914Y-177685771D01*
X199720057Y-177614342D01*
X199648628Y-177471485D01*
X199648628Y-177328628D01*
X199720057Y-177185771D01*
X199862914Y-177114342D01*
X200220057Y-177114342D01*
X200362914Y-177042914D01*
X201720057Y-177685771D02*
X201720057Y-176185771D01*
X201720057Y-177614342D02*
X201577200Y-177685771D01*
X201291485Y-177685771D01*
X201148628Y-177614342D01*
X201077200Y-177542914D01*
X201005771Y-177400057D01*
X201005771Y-176971485D01*
X201077200Y-176828628D01*
X201148628Y-176757200D01*
X201291485Y-176685771D01*
X201577200Y-176685771D01*
X201720057Y-176757200D01*
X203505771Y-177257200D02*
X204220057Y-177257200D01*
X203362914Y-177685771D02*
X203862914Y-176185771D01*
X204362914Y-177685771D01*
X204862914Y-177685771D02*
X204862914Y-176185771D01*
X205505771Y-177685771D02*
X205505771Y-176900057D01*
X205434342Y-176757200D01*
X205291485Y-176685771D01*
X205077200Y-176685771D01*
X204934342Y-176757200D01*
X204862914Y-176828628D01*
X206220057Y-177685771D02*
X206220057Y-176685771D01*
X206220057Y-176828628D02*
X206291485Y-176757200D01*
X206434342Y-176685771D01*
X206648628Y-176685771D01*
X206791485Y-176757200D01*
X206862914Y-176900057D01*
X206862914Y-177685771D01*
X206862914Y-176900057D02*
X206934342Y-176757200D01*
X207077200Y-176685771D01*
X207291485Y-176685771D01*
X207434342Y-176757200D01*
X207505771Y-176900057D01*
X207505771Y-177685771D01*
X208862914Y-177685771D02*
X208862914Y-176900057D01*
X208791485Y-176757200D01*
X208648628Y-176685771D01*
X208362914Y-176685771D01*
X208220057Y-176757200D01*
X208862914Y-177614342D02*
X208720057Y-177685771D01*
X208362914Y-177685771D01*
X208220057Y-177614342D01*
X208148628Y-177471485D01*
X208148628Y-177328628D01*
X208220057Y-177185771D01*
X208362914Y-177114342D01*
X208720057Y-177114342D01*
X208862914Y-177042914D01*
X210220057Y-177685771D02*
X210220057Y-176185771D01*
X210220057Y-177614342D02*
X210077200Y-177685771D01*
X209791485Y-177685771D01*
X209648628Y-177614342D01*
X209577200Y-177542914D01*
X209505771Y-177400057D01*
X209505771Y-176971485D01*
X209577200Y-176828628D01*
X209648628Y-176757200D01*
X209791485Y-176685771D01*
X210077200Y-176685771D01*
X210220057Y-176757200D01*
X212005771Y-177257200D02*
X212720057Y-177257200D01*
X211862914Y-177685771D02*
X212362914Y-176185771D01*
X212862914Y-177685771D01*
X214077200Y-177685771D02*
X213362914Y-177685771D01*
X213362914Y-176185771D01*
X214577200Y-177685771D02*
X214577200Y-176185771D01*
X215220057Y-177685771D02*
X215220057Y-176900057D01*
X215148628Y-176757200D01*
X215005771Y-176685771D01*
X214791485Y-176685771D01*
X214648628Y-176757200D01*
X214577200Y-176828628D01*
X216577200Y-177685771D02*
X216577200Y-176900057D01*
X216505771Y-176757200D01*
X216362914Y-176685771D01*
X216077200Y-176685771D01*
X215934342Y-176757200D01*
X216577200Y-177614342D02*
X216434342Y-177685771D01*
X216077200Y-177685771D01*
X215934342Y-177614342D01*
X215862914Y-177471485D01*
X215862914Y-177328628D01*
X215934342Y-177185771D01*
X216077200Y-177114342D01*
X216434342Y-177114342D01*
X216577200Y-177042914D01*
X217291485Y-177685771D02*
X217291485Y-176685771D01*
X217291485Y-176828628D02*
X217362914Y-176757200D01*
X217505771Y-176685771D01*
X217720057Y-176685771D01*
X217862914Y-176757200D01*
X217934342Y-176900057D01*
X217934342Y-177685771D01*
X217934342Y-176900057D02*
X218005771Y-176757200D01*
X218148628Y-176685771D01*
X218362914Y-176685771D01*
X218505771Y-176757200D01*
X218577200Y-176900057D01*
X218577200Y-177685771D01*
X219934342Y-177685771D02*
X219934342Y-176900057D01*
X219862914Y-176757200D01*
X219720057Y-176685771D01*
X219434342Y-176685771D01*
X219291485Y-176757200D01*
X219934342Y-177614342D02*
X219791485Y-177685771D01*
X219434342Y-177685771D01*
X219291485Y-177614342D01*
X219220057Y-177471485D01*
X219220057Y-177328628D01*
X219291485Y-177185771D01*
X219434342Y-177114342D01*
X219791485Y-177114342D01*
X219934342Y-177042914D01*
X221291485Y-177685771D02*
X221291485Y-176185771D01*
X221291485Y-177614342D02*
X221148628Y-177685771D01*
X220862914Y-177685771D01*
X220720057Y-177614342D01*
X220648628Y-177542914D01*
X220577200Y-177400057D01*
X220577200Y-176971485D01*
X220648628Y-176828628D01*
X220720057Y-176757200D01*
X220862914Y-176685771D01*
X221148628Y-176685771D01*
X221291485Y-176757200D01*
D10*
D11*
X197002200Y-191507200D02*
X197002200Y-194507200D01*
D10*
D11*
X261002200Y-191507200D02*
X261002200Y-198007200D01*
D14*
X116666666Y-64000000D02*
G75*
G03*
X116666666Y-64000000I-1666666J0D01*
G01*
X112500000Y-64000000D02*
X117500000Y-64000000D01*
X115000000Y-61500000D02*
X115000000Y-66500000D01*
X191666666Y-64000000D02*
G75*
G03*
X191666666Y-64000000I-1666666J0D01*
G01*
X187500000Y-64000000D02*
X192500000Y-64000000D01*
X190000000Y-61500000D02*
X190000000Y-66500000D01*
X154666666Y-64000000D02*
G75*
G03*
X154666666Y-64000000I-1666666J0D01*
G01*
X150500000Y-64000000D02*
X155500000Y-64000000D01*
X153000000Y-61500000D02*
X153000000Y-66500000D01*
X154666666Y-125000000D02*
G75*
G03*
X154666666Y-125000000I-1666666J0D01*
G01*
X150500000Y-125000000D02*
X155500000Y-125000000D01*
X153000000Y-122500000D02*
X153000000Y-127500000D01*
X197666666Y-125000000D02*
G75*
G03*
X197666666Y-125000000I-1666666J0D01*
G01*
X193500000Y-125000000D02*
X198500000Y-125000000D01*
X196000000Y-122500000D02*
X196000000Y-127500000D01*
X116666666Y-125000000D02*
G75*
G03*
X116666666Y-125000000I-1666666J0D01*
G01*
X112500000Y-125000000D02*
X117500000Y-125000000D01*
X115000000Y-122500000D02*
X115000000Y-127500000D01*
X196000000Y-119000000D02*
X196000000Y-71000000D01*
X113000000Y-122000000D02*
X193000000Y-122000000D01*
X110000000Y-71000000D02*
X110000000Y-119000000D01*
X193000000Y-68000000D02*
X113000000Y-68000000D01*
X193000000Y-68000000D02*
G75*
G02*
X196000000Y-71000000I0J-3000000D01*
G01*
X196000000Y-119000000D02*
G75*
G02*
X193000000Y-122000000I-3000000J0D01*
G01*
X113000000Y-122000000D02*
G75*
G02*
X110000000Y-119000000I0J3000000D01*
G01*
X110000000Y-71000000D02*
G75*
G02*
X113000000Y-68000000I3000000J0D01*
G01*
D10*
%TO.C,C10*%
X157037500Y-94025000D02*
X157037500Y-92775000D01*
X157037500Y-92775000D02*
X159037500Y-92775000D01*
X159037500Y-92775000D02*
X159037500Y-94025000D01*
X159037500Y-94025000D02*
X157037500Y-94025000D01*
%TO.C,J7*%
X155270000Y-69365000D02*
X155270000Y-71270000D01*
X155270000Y-71270000D02*
X132410000Y-71270000D01*
X132410000Y-71270000D02*
X132410000Y-68730000D01*
X132410000Y-68730000D02*
X154635000Y-68730000D01*
X154635000Y-68730000D02*
X155270000Y-69365000D01*
%TO.C,J6*%
X173460000Y-90230000D02*
X177270000Y-90230000D01*
X177270000Y-90230000D02*
X177270000Y-97850000D01*
X177270000Y-97850000D02*
X172190000Y-97850000D01*
X172190000Y-97850000D02*
X172190000Y-91500000D01*
X172190000Y-91500000D02*
X173460000Y-90230000D01*
D11*
%TO.C,U1*%
X177900000Y-108650000D02*
X177900000Y-104350000D01*
X177900000Y-104350000D02*
X188100000Y-104350000D01*
X188100000Y-104350000D02*
X188100000Y-109650000D01*
X188100000Y-109650000D02*
X178900000Y-109650000D01*
X178900000Y-109650000D02*
X177900000Y-108650000D01*
D10*
%TO.C,R1*%
X175625000Y-115000000D02*
X174375000Y-115000000D01*
X174375000Y-115000000D02*
X174375000Y-113000000D01*
X174375000Y-113000000D02*
X175625000Y-113000000D01*
X175625000Y-113000000D02*
X175625000Y-115000000D01*
%TO.C,D2*%
X185000000Y-118250000D02*
X185000000Y-118750000D01*
X185000000Y-118750000D02*
X184000000Y-118750000D01*
X184000000Y-118750000D02*
X184000000Y-118250000D01*
X184000000Y-118250000D02*
X185000000Y-118250000D01*
X184900000Y-118250000D02*
X184900000Y-118750000D01*
X184800000Y-118250000D02*
X184800000Y-118750000D01*
%TO.C,J8*%
X188760000Y-92760000D02*
X190030000Y-94030000D01*
X182410000Y-92760000D02*
X188760000Y-92760000D01*
X182410000Y-97840000D02*
X182410000Y-92760000D01*
X190030000Y-97840000D02*
X182410000Y-97840000D01*
X190030000Y-94030000D02*
X190030000Y-97840000D01*
%TO.C,C6*%
X164200000Y-87850000D02*
X165800000Y-87850000D01*
X164200000Y-84650000D02*
X164200000Y-87850000D01*
X165400000Y-84650000D02*
X164200000Y-84650000D01*
X165800000Y-85050000D02*
X165400000Y-84650000D01*
X165800000Y-87850000D02*
X165800000Y-85050000D01*
%TO.C,C5*%
X177700000Y-87600000D02*
X179300000Y-87600000D01*
X177700000Y-84400000D02*
X177700000Y-87600000D01*
X178900000Y-84400000D02*
X177700000Y-84400000D01*
X179300000Y-84800000D02*
X178900000Y-84400000D01*
X179300000Y-87600000D02*
X179300000Y-84800000D01*
%TO.C,D6*%
X172340000Y-73350000D02*
X172340000Y-70650000D01*
X172140000Y-73350000D02*
X172140000Y-70650000D01*
X172240000Y-73350000D02*
X172240000Y-70650000D01*
X165340000Y-72000000D02*
X167820000Y-72000000D01*
X175500000Y-72000000D02*
X173020000Y-72000000D01*
X167820000Y-73350000D02*
X173020000Y-73350000D01*
X167820000Y-70650000D02*
X167820000Y-73350000D01*
X173020000Y-70650000D02*
X167820000Y-70650000D01*
X173020000Y-73350000D02*
X173020000Y-70650000D01*
%TO.C,Y1*%
X155000000Y-91500000D02*
X156600000Y-91500000D01*
X156600000Y-91500000D02*
X156600000Y-88500000D01*
X155000000Y-89000000D02*
X155500000Y-88500000D01*
X155000000Y-89000000D02*
X155000000Y-91500000D01*
X155500000Y-88500000D02*
X156600000Y-88500000D01*
D11*
%TO.C,U3*%
X151900000Y-97500000D02*
X150900000Y-98500000D01*
X151900000Y-91500000D02*
X151900000Y-97500000D01*
X144900000Y-91500000D02*
X151900000Y-91500000D01*
X144900000Y-98500000D02*
X144900000Y-91500000D01*
X150900000Y-98500000D02*
X144900000Y-98500000D01*
D10*
%TO.C,U2*%
X172350000Y-81350000D02*
X171350000Y-82350000D01*
X172350000Y-81350000D02*
X172350000Y-75650000D01*
X171350000Y-82350000D02*
X168650000Y-82350000D01*
X172350000Y-75650000D02*
X168650000Y-75650000D01*
X168650000Y-82350000D02*
X168650000Y-75650000D01*
%TO.C,SW1*%
X165700000Y-114400000D02*
X165200000Y-114400000D01*
X161500000Y-114400000D02*
X162000000Y-114400000D01*
X165700000Y-120800000D02*
X165200000Y-120800000D01*
X161500000Y-120800000D02*
X162000000Y-120800000D01*
X161500000Y-114900000D02*
X162000000Y-114900000D01*
X161500000Y-115900000D02*
X161500000Y-114400000D01*
X162000000Y-114400000D02*
X162000000Y-115400000D01*
X161500000Y-120300000D02*
X162000000Y-120300000D01*
X161500000Y-119300000D02*
X161500000Y-120800000D01*
X162000000Y-120800000D02*
X162000000Y-119800000D01*
X165700000Y-120300000D02*
X165200000Y-120300000D01*
X165200000Y-120800000D02*
X165200000Y-119800000D01*
X165700000Y-119300000D02*
X165700000Y-120800000D01*
X165700000Y-115900000D02*
X165700000Y-114400000D01*
X165700000Y-114900000D02*
X165200000Y-114900000D01*
X165200000Y-114400000D02*
X165200000Y-115400000D01*
X162600000Y-119600000D02*
X161600000Y-118600000D01*
X161600000Y-118600000D02*
X161600000Y-116600000D01*
X161600000Y-116600000D02*
X162600000Y-115600000D01*
X162600000Y-115600000D02*
X164600000Y-115600000D01*
X164600000Y-115600000D02*
X165600000Y-116600000D01*
X165600000Y-116600000D02*
X165600000Y-118600000D01*
X165600000Y-118600000D02*
X164600000Y-119600000D01*
X164600000Y-119600000D02*
X162600000Y-119600000D01*
X162400000Y-120200000D02*
X164800000Y-120200000D01*
X164800000Y-120200000D02*
X166200000Y-118800000D01*
X166200000Y-118800000D02*
X166200000Y-116400000D01*
X166200000Y-116400000D02*
X164800000Y-115000000D01*
X164800000Y-115000000D02*
X162400000Y-115000000D01*
X162400000Y-115000000D02*
X161000000Y-116400000D01*
X161000000Y-116400000D02*
X161000000Y-118800000D01*
X161000000Y-118800000D02*
X162400000Y-120200000D01*
X164600000Y-117600000D02*
G75*
G03*
X164600000Y-117600000I-1000000J0D01*
G01*
%TO.C,R7*%
X114000000Y-90625000D02*
X114000000Y-89375000D01*
X114000000Y-89375000D02*
X116000000Y-89375000D01*
X116000000Y-89375000D02*
X116000000Y-90625000D01*
X116000000Y-90625000D02*
X114000000Y-90625000D01*
%TO.C,R6*%
X158000000Y-102775000D02*
X158000000Y-104025000D01*
X158000000Y-104025000D02*
X156000000Y-104025000D01*
X156000000Y-104025000D02*
X156000000Y-102775000D01*
X156000000Y-102775000D02*
X158000000Y-102775000D01*
%TO.C,R5*%
X158000000Y-105175000D02*
X158000000Y-106425000D01*
X158000000Y-106425000D02*
X156000000Y-106425000D01*
X156000000Y-106425000D02*
X156000000Y-105175000D01*
X156000000Y-105175000D02*
X158000000Y-105175000D01*
%TO.C,R4*%
X162225000Y-109600000D02*
X160975000Y-109600000D01*
X160975000Y-109600000D02*
X160975000Y-107600000D01*
X160975000Y-107600000D02*
X162225000Y-107600000D01*
X162225000Y-107600000D02*
X162225000Y-109600000D01*
%TO.C,R3*%
X168125000Y-85000000D02*
X168125000Y-87000000D01*
X166875000Y-85000000D02*
X168125000Y-85000000D01*
X166875000Y-87000000D02*
X166875000Y-85000000D01*
X168125000Y-87000000D02*
X166875000Y-87000000D01*
%TO.C,R2*%
X177625000Y-115000000D02*
X176375000Y-115000000D01*
X176375000Y-115000000D02*
X176375000Y-113000000D01*
X176375000Y-113000000D02*
X177625000Y-113000000D01*
X177625000Y-113000000D02*
X177625000Y-115000000D01*
%TO.C,J5*%
X132230000Y-120635000D02*
X132230000Y-118730000D01*
X132230000Y-118730000D02*
X152550000Y-118730000D01*
X152550000Y-118730000D02*
X152550000Y-121270000D01*
X152550000Y-121270000D02*
X132865000Y-121270000D01*
X132865000Y-121270000D02*
X132230000Y-120635000D01*
%TO.C,J4*%
X112565000Y-99250000D02*
X114470000Y-99250000D01*
X114470000Y-99250000D02*
X114470000Y-111950000D01*
X114470000Y-111950000D02*
X111930000Y-111950000D01*
X111930000Y-111950000D02*
X111930000Y-99885000D01*
X111930000Y-99885000D02*
X112565000Y-99250000D01*
%TO.C,J3*%
X195600000Y-85500000D02*
X182100000Y-85500000D01*
X195600000Y-76500000D02*
X195600000Y-85500000D01*
X181100000Y-76500000D02*
X195600000Y-76500000D01*
X181100000Y-76500000D02*
X181100000Y-84500000D01*
X182100000Y-85500000D02*
X181100000Y-84500000D01*
%TO.C,J2*%
X196725000Y-103250000D02*
X196725000Y-110750000D01*
X191725000Y-103250000D02*
X196725000Y-103250000D01*
X191725000Y-110750000D02*
X191725000Y-103250000D01*
X196725000Y-110750000D02*
X191725000Y-110750000D01*
X196025000Y-110250000D02*
X196025000Y-103750000D01*
%TO.C,J1*%
X114125000Y-86270000D02*
X112220000Y-86270000D01*
X112220000Y-86270000D02*
X112220000Y-78650000D01*
X112220000Y-78650000D02*
X114760000Y-78650000D01*
X114760000Y-78650000D02*
X114760000Y-85635000D01*
X114760000Y-85635000D02*
X114125000Y-86270000D01*
X119120000Y-85320000D02*
X114760000Y-85320000D01*
X119120000Y-85320000D02*
X119120000Y-84680000D01*
X119120000Y-84680000D02*
X114760000Y-84680000D01*
X112220000Y-85320000D02*
X106220000Y-85320000D01*
X106220000Y-85320000D02*
X106220000Y-84680000D01*
X112220000Y-84680000D02*
X106220000Y-84680000D01*
X119120000Y-82780000D02*
X114760000Y-82780000D01*
X119120000Y-82780000D02*
X119120000Y-82140000D01*
X119120000Y-82140000D02*
X114760000Y-82140000D01*
X112220000Y-82780000D02*
X106220000Y-82780000D01*
X106220000Y-82780000D02*
X106220000Y-82140000D01*
X112220000Y-82140000D02*
X106220000Y-82140000D01*
X119120000Y-80240000D02*
X114760000Y-80240000D01*
X119120000Y-80240000D02*
X119120000Y-79600000D01*
X119120000Y-79600000D02*
X114760000Y-79600000D01*
X112220000Y-80240000D02*
X106220000Y-80240000D01*
X106220000Y-80240000D02*
X106220000Y-79600000D01*
X112220000Y-79600000D02*
X106220000Y-79600000D01*
%TO.C,F1*%
X192590000Y-97500000D02*
X193790000Y-97500000D01*
X193790000Y-97500000D02*
X193790000Y-99500000D01*
X193790000Y-99500000D02*
X192590000Y-99500000D01*
X192590000Y-99500000D02*
X192590000Y-97500000D01*
%TO.C,D5*%
X112050000Y-94900000D02*
X111550000Y-94900000D01*
X111550000Y-94900000D02*
X111550000Y-93900000D01*
X111550000Y-93900000D02*
X112050000Y-93900000D01*
X112050000Y-93900000D02*
X112050000Y-94900000D01*
X112050000Y-94800000D02*
X111550000Y-94800000D01*
X112050000Y-94700000D02*
X111550000Y-94700000D01*
%TO.C,D4*%
X172250000Y-85500000D02*
X172750000Y-85500000D01*
X172750000Y-85500000D02*
X172750000Y-86500000D01*
X172750000Y-86500000D02*
X172250000Y-86500000D01*
X172250000Y-86500000D02*
X172250000Y-85500000D01*
X172250000Y-85600000D02*
X172750000Y-85600000D01*
X172250000Y-85700000D02*
X172750000Y-85700000D01*
%TO.C,D3*%
X181000000Y-118750000D02*
X181000000Y-118250000D01*
X181000000Y-118250000D02*
X182000000Y-118250000D01*
X182000000Y-118250000D02*
X182000000Y-118750000D01*
X182000000Y-118750000D02*
X181000000Y-118750000D01*
X181100000Y-118750000D02*
X181100000Y-118250000D01*
X181200000Y-118750000D02*
X181200000Y-118250000D01*
%TO.C,D1*%
X187200000Y-87850000D02*
X187200000Y-89150000D01*
X187200000Y-89150000D02*
X185300000Y-89150000D01*
X185300000Y-89150000D02*
X185300000Y-87850000D01*
X185300000Y-87850000D02*
X187200000Y-87850000D01*
X186450000Y-88500000D02*
X186700000Y-88500000D01*
X186450000Y-88850000D02*
X185950000Y-88500000D01*
X186450000Y-88150000D02*
X186450000Y-88850000D01*
X185950000Y-88500000D02*
X186450000Y-88150000D01*
X185950000Y-88500000D02*
X185750000Y-88500000D01*
X185950000Y-88150000D02*
X185950000Y-88850000D01*
%TO.C,C9*%
X158600000Y-94975000D02*
X157300000Y-94975000D01*
X157300000Y-94975000D02*
X157000000Y-95275000D01*
X157000000Y-95275000D02*
X157000000Y-95825000D01*
X157000000Y-95825000D02*
X158600000Y-95825000D01*
X158600000Y-95825000D02*
X158600000Y-94975000D01*
%TO.C,C8*%
X138475000Y-94637500D02*
X139725000Y-94637500D01*
X139725000Y-94637500D02*
X139725000Y-96637500D01*
X139725000Y-96637500D02*
X138475000Y-96637500D01*
X138475000Y-96637500D02*
X138475000Y-94637500D01*
%TO.C,C7*%
X136425000Y-94650000D02*
X137675000Y-94650000D01*
X137675000Y-94650000D02*
X137675000Y-96650000D01*
X137675000Y-96650000D02*
X136425000Y-96650000D01*
X136425000Y-96650000D02*
X136425000Y-94650000D01*
%TO.C,C4*%
X179625000Y-115000000D02*
X178375000Y-115000000D01*
X178375000Y-115000000D02*
X178375000Y-113000000D01*
X178375000Y-113000000D02*
X179625000Y-113000000D01*
X179625000Y-113000000D02*
X179625000Y-115000000D01*
%TO.C,C3*%
X185487500Y-100275000D02*
X185487500Y-99025000D01*
X185487500Y-99025000D02*
X187487500Y-99025000D01*
X187487500Y-99025000D02*
X187487500Y-100275000D01*
X187487500Y-100275000D02*
X185487500Y-100275000D01*
%TO.C,C2*%
X194000000Y-88500000D02*
G75*
G03*
X194000000Y-88500000I-2000000J0D01*
G01*
X194150000Y-86350000D02*
X194150000Y-90650000D01*
X190850000Y-86350000D02*
X194150000Y-86350000D01*
X190850000Y-90650000D02*
X194150000Y-90650000D01*
X189850000Y-87350000D02*
X189850000Y-89650000D01*
X189850000Y-87350000D02*
X190850000Y-86350000D01*
X189850000Y-89650000D02*
X190850000Y-90650000D01*
X190425227Y-87500000D02*
X190825227Y-87500000D01*
X190625227Y-87300000D02*
X190625227Y-87700000D01*
%TO.C,C1*%
X192250000Y-94125000D02*
X192250000Y-92875000D01*
X192250000Y-92875000D02*
X194250000Y-92875000D01*
X194250000Y-92875000D02*
X194250000Y-94125000D01*
X194250000Y-94125000D02*
X192250000Y-94125000D01*
%TD*%
%TO.C,C10*%
D11*
X157442261Y-95532380D02*
X156870833Y-95532380D01*
X157156547Y-95532380D02*
X157156547Y-94532380D01*
X157061309Y-94675238D01*
X156966071Y-94770476D01*
X156870833Y-94818095D01*
X158299404Y-94865714D02*
X158299404Y-95532380D01*
X157870833Y-94865714D02*
X157870833Y-95389523D01*
X157918452Y-95484761D01*
X158013690Y-95532380D01*
X158156547Y-95532380D01*
X158251785Y-95484761D01*
X158299404Y-95437142D01*
X159108928Y-95008571D02*
X158775595Y-95008571D01*
X158775595Y-95532380D02*
X158775595Y-94532380D01*
X159251785Y-94532380D01*
D15*
X157716071Y-93578571D02*
X157692261Y-93602380D01*
X157620833Y-93626190D01*
X157573214Y-93626190D01*
X157501785Y-93602380D01*
X157454166Y-93554761D01*
X157430357Y-93507142D01*
X157406547Y-93411904D01*
X157406547Y-93340476D01*
X157430357Y-93245238D01*
X157454166Y-93197619D01*
X157501785Y-93150000D01*
X157573214Y-93126190D01*
X157620833Y-93126190D01*
X157692261Y-93150000D01*
X157716071Y-93173809D01*
X158192261Y-93626190D02*
X157906547Y-93626190D01*
X158049404Y-93626190D02*
X158049404Y-93126190D01*
X158001785Y-93197619D01*
X157954166Y-93245238D01*
X157906547Y-93269047D01*
X158501785Y-93126190D02*
X158549404Y-93126190D01*
X158597023Y-93150000D01*
X158620833Y-93173809D01*
X158644642Y-93221428D01*
X158668452Y-93316666D01*
X158668452Y-93435714D01*
X158644642Y-93530952D01*
X158620833Y-93578571D01*
X158597023Y-93602380D01*
X158549404Y-93626190D01*
X158501785Y-93626190D01*
X158454166Y-93602380D01*
X158430357Y-93578571D01*
X158406547Y-93530952D01*
X158382738Y-93435714D01*
X158382738Y-93316666D01*
X158406547Y-93221428D01*
X158430357Y-93173809D01*
X158454166Y-93150000D01*
X158501785Y-93126190D01*
%TO.C,J7*%
D11*
X131802380Y-74119047D02*
X130802380Y-74119047D01*
X130802380Y-73880952D01*
X130850000Y-73738095D01*
X130945238Y-73642857D01*
X131040476Y-73595238D01*
X131230952Y-73547619D01*
X131373809Y-73547619D01*
X131564285Y-73595238D01*
X131659523Y-73642857D01*
X131754761Y-73738095D01*
X131802380Y-73880952D01*
X131802380Y-74119047D01*
X131802380Y-73119047D02*
X131135714Y-73119047D01*
X130802380Y-73119047D02*
X130850000Y-73166666D01*
X130897619Y-73119047D01*
X130850000Y-73071428D01*
X130802380Y-73119047D01*
X130897619Y-73119047D01*
X131135714Y-72214285D02*
X131945238Y-72214285D01*
X132040476Y-72261904D01*
X132088095Y-72309523D01*
X132135714Y-72404761D01*
X132135714Y-72547619D01*
X132088095Y-72642857D01*
X131754761Y-72214285D02*
X131802380Y-72309523D01*
X131802380Y-72500000D01*
X131754761Y-72595238D01*
X131707142Y-72642857D01*
X131611904Y-72690476D01*
X131326190Y-72690476D01*
X131230952Y-72642857D01*
X131183333Y-72595238D01*
X131135714Y-72500000D01*
X131135714Y-72309523D01*
X131183333Y-72214285D01*
X131802380Y-71738095D02*
X131135714Y-71738095D01*
X130802380Y-71738095D02*
X130850000Y-71785714D01*
X130897619Y-71738095D01*
X130850000Y-71690476D01*
X130802380Y-71738095D01*
X130897619Y-71738095D01*
X131135714Y-71404761D02*
X131135714Y-71023809D01*
X130802380Y-71261904D02*
X131659523Y-71261904D01*
X131754761Y-71214285D01*
X131802380Y-71119047D01*
X131802380Y-71023809D01*
X131802380Y-70261904D02*
X131278571Y-70261904D01*
X131183333Y-70309523D01*
X131135714Y-70404761D01*
X131135714Y-70595238D01*
X131183333Y-70690476D01*
X131754761Y-70261904D02*
X131802380Y-70357142D01*
X131802380Y-70595238D01*
X131754761Y-70690476D01*
X131659523Y-70738095D01*
X131564285Y-70738095D01*
X131469047Y-70690476D01*
X131421428Y-70595238D01*
X131421428Y-70357142D01*
X131373809Y-70261904D01*
X131802380Y-69642857D02*
X131754761Y-69738095D01*
X131659523Y-69785714D01*
X130802380Y-69785714D01*
X131802380Y-68500000D02*
X130802380Y-68500000D01*
X130802380Y-68119047D01*
X130850000Y-68023809D01*
X130897619Y-67976190D01*
X130992857Y-67928571D01*
X131135714Y-67928571D01*
X131230952Y-67976190D01*
X131278571Y-68023809D01*
X131326190Y-68119047D01*
X131326190Y-68500000D01*
X131802380Y-67357142D02*
X131754761Y-67452380D01*
X131707142Y-67500000D01*
X131611904Y-67547619D01*
X131326190Y-67547619D01*
X131230952Y-67500000D01*
X131183333Y-67452380D01*
X131135714Y-67357142D01*
X131135714Y-67214285D01*
X131183333Y-67119047D01*
X131230952Y-67071428D01*
X131326190Y-67023809D01*
X131611904Y-67023809D01*
X131707142Y-67071428D01*
X131754761Y-67119047D01*
X131802380Y-67214285D01*
X131802380Y-67357142D01*
X131802380Y-66595238D02*
X131135714Y-66595238D01*
X131326190Y-66595238D02*
X131230952Y-66547619D01*
X131183333Y-66500000D01*
X131135714Y-66404761D01*
X131135714Y-66309523D01*
X131135714Y-66119047D02*
X131135714Y-65738095D01*
X130802380Y-65976190D02*
X131659523Y-65976190D01*
X131754761Y-65928571D01*
X131802380Y-65833333D01*
X131802380Y-65738095D01*
X143506666Y-69452380D02*
X143506666Y-70166666D01*
X143459047Y-70309523D01*
X143363809Y-70404761D01*
X143220952Y-70452380D01*
X143125714Y-70452380D01*
X143887619Y-69452380D02*
X144554285Y-69452380D01*
X144125714Y-70452380D01*
%TO.C,J6*%
X167087142Y-99267142D02*
X167039523Y-99314761D01*
X166896666Y-99362380D01*
X166801428Y-99362380D01*
X166658571Y-99314761D01*
X166563333Y-99219523D01*
X166515714Y-99124285D01*
X166468095Y-98933809D01*
X166468095Y-98790952D01*
X166515714Y-98600476D01*
X166563333Y-98505238D01*
X166658571Y-98410000D01*
X166801428Y-98362380D01*
X166896666Y-98362380D01*
X167039523Y-98410000D01*
X167087142Y-98457619D01*
X167658571Y-99362380D02*
X167563333Y-99314761D01*
X167515714Y-99267142D01*
X167468095Y-99171904D01*
X167468095Y-98886190D01*
X167515714Y-98790952D01*
X167563333Y-98743333D01*
X167658571Y-98695714D01*
X167801428Y-98695714D01*
X167896666Y-98743333D01*
X167944285Y-98790952D01*
X167991904Y-98886190D01*
X167991904Y-99171904D01*
X167944285Y-99267142D01*
X167896666Y-99314761D01*
X167801428Y-99362380D01*
X167658571Y-99362380D01*
X168420476Y-98695714D02*
X168420476Y-99362380D01*
X168420476Y-98790952D02*
X168468095Y-98743333D01*
X168563333Y-98695714D01*
X168706190Y-98695714D01*
X168801428Y-98743333D01*
X168849047Y-98838571D01*
X168849047Y-99362380D01*
X169325238Y-98695714D02*
X169325238Y-99362380D01*
X169325238Y-98790952D02*
X169372857Y-98743333D01*
X169468095Y-98695714D01*
X169610952Y-98695714D01*
X169706190Y-98743333D01*
X169753809Y-98838571D01*
X169753809Y-99362380D01*
X169991904Y-99457619D02*
X170753809Y-99457619D01*
X171182380Y-98362380D02*
X171277619Y-98362380D01*
X171372857Y-98410000D01*
X171420476Y-98457619D01*
X171468095Y-98552857D01*
X171515714Y-98743333D01*
X171515714Y-98981428D01*
X171468095Y-99171904D01*
X171420476Y-99267142D01*
X171372857Y-99314761D01*
X171277619Y-99362380D01*
X171182380Y-99362380D01*
X171087142Y-99314761D01*
X171039523Y-99267142D01*
X170991904Y-99171904D01*
X170944285Y-98981428D01*
X170944285Y-98743333D01*
X170991904Y-98552857D01*
X171039523Y-98457619D01*
X171087142Y-98410000D01*
X171182380Y-98362380D01*
X171896666Y-98457619D02*
X171944285Y-98410000D01*
X172039523Y-98362380D01*
X172277619Y-98362380D01*
X172372857Y-98410000D01*
X172420476Y-98457619D01*
X172468095Y-98552857D01*
X172468095Y-98648095D01*
X172420476Y-98790952D01*
X171849047Y-99362380D01*
X172468095Y-99362380D01*
X172801428Y-99362380D02*
X173325238Y-98695714D01*
X172801428Y-98695714D02*
X173325238Y-99362380D01*
X173896666Y-98362380D02*
X173991904Y-98362380D01*
X174087142Y-98410000D01*
X174134761Y-98457619D01*
X174182380Y-98552857D01*
X174230000Y-98743333D01*
X174230000Y-98981428D01*
X174182380Y-99171904D01*
X174134761Y-99267142D01*
X174087142Y-99314761D01*
X173991904Y-99362380D01*
X173896666Y-99362380D01*
X173801428Y-99314761D01*
X173753809Y-99267142D01*
X173706190Y-99171904D01*
X173658571Y-98981428D01*
X173658571Y-98743333D01*
X173706190Y-98552857D01*
X173753809Y-98457619D01*
X173801428Y-98410000D01*
X173896666Y-98362380D01*
X174563333Y-98362380D02*
X175182380Y-98362380D01*
X174849047Y-98743333D01*
X174991904Y-98743333D01*
X175087142Y-98790952D01*
X175134761Y-98838571D01*
X175182380Y-98933809D01*
X175182380Y-99171904D01*
X175134761Y-99267142D01*
X175087142Y-99314761D01*
X174991904Y-99362380D01*
X174706190Y-99362380D01*
X174610952Y-99314761D01*
X174563333Y-99267142D01*
X175372857Y-99457619D02*
X176134761Y-99457619D01*
X176563333Y-98362380D02*
X176753809Y-98362380D01*
X176849047Y-98410000D01*
X176944285Y-98505238D01*
X176991904Y-98695714D01*
X176991904Y-99029047D01*
X176944285Y-99219523D01*
X176849047Y-99314761D01*
X176753809Y-99362380D01*
X176563333Y-99362380D01*
X176468095Y-99314761D01*
X176372857Y-99219523D01*
X176325238Y-99029047D01*
X176325238Y-98695714D01*
X176372857Y-98505238D01*
X176468095Y-98410000D01*
X176563333Y-98362380D01*
X177849047Y-99362380D02*
X177849047Y-98362380D01*
X177849047Y-99314761D02*
X177753809Y-99362380D01*
X177563333Y-99362380D01*
X177468095Y-99314761D01*
X177420476Y-99267142D01*
X177372857Y-99171904D01*
X177372857Y-98886190D01*
X177420476Y-98790952D01*
X177468095Y-98743333D01*
X177563333Y-98695714D01*
X177753809Y-98695714D01*
X177849047Y-98743333D01*
X178753809Y-99362380D02*
X178753809Y-98362380D01*
X178753809Y-99314761D02*
X178658571Y-99362380D01*
X178468095Y-99362380D01*
X178372857Y-99314761D01*
X178325238Y-99267142D01*
X178277619Y-99171904D01*
X178277619Y-98886190D01*
X178325238Y-98790952D01*
X178372857Y-98743333D01*
X178468095Y-98695714D01*
X178658571Y-98695714D01*
X178753809Y-98743333D01*
X178991904Y-99457619D02*
X179753809Y-99457619D01*
X179991904Y-98838571D02*
X180325238Y-98838571D01*
X180468095Y-99362380D02*
X179991904Y-99362380D01*
X179991904Y-98362380D01*
X180468095Y-98362380D01*
X180801428Y-98695714D02*
X181039523Y-99362380D01*
X181277619Y-98695714D01*
X182039523Y-99314761D02*
X181944285Y-99362380D01*
X181753809Y-99362380D01*
X181658571Y-99314761D01*
X181610952Y-99219523D01*
X181610952Y-98838571D01*
X181658571Y-98743333D01*
X181753809Y-98695714D01*
X181944285Y-98695714D01*
X182039523Y-98743333D01*
X182087142Y-98838571D01*
X182087142Y-98933809D01*
X181610952Y-99029047D01*
X182515714Y-98695714D02*
X182515714Y-99362380D01*
X182515714Y-98790952D02*
X182563333Y-98743333D01*
X182658571Y-98695714D01*
X182801428Y-98695714D01*
X182896666Y-98743333D01*
X182944285Y-98838571D01*
X182944285Y-99362380D01*
X174182380Y-94373333D02*
X174896666Y-94373333D01*
X175039523Y-94420952D01*
X175134761Y-94516190D01*
X175182380Y-94659047D01*
X175182380Y-94754285D01*
X174182380Y-93468571D02*
X174182380Y-93659047D01*
X174230000Y-93754285D01*
X174277619Y-93801904D01*
X174420476Y-93897142D01*
X174610952Y-93944761D01*
X174991904Y-93944761D01*
X175087142Y-93897142D01*
X175134761Y-93849523D01*
X175182380Y-93754285D01*
X175182380Y-93563809D01*
X175134761Y-93468571D01*
X175087142Y-93420952D01*
X174991904Y-93373333D01*
X174753809Y-93373333D01*
X174658571Y-93420952D01*
X174610952Y-93468571D01*
X174563333Y-93563809D01*
X174563333Y-93754285D01*
X174610952Y-93849523D01*
X174658571Y-93897142D01*
X174753809Y-93944761D01*
%TO.C,U1*%
X189178571Y-109571428D02*
X189178571Y-109904761D01*
X189702380Y-109904761D02*
X188702380Y-109904761D01*
X188702380Y-109428571D01*
X188702380Y-109190476D02*
X188702380Y-108619047D01*
X189702380Y-108904761D02*
X188702380Y-108904761D01*
X188797619Y-108333333D02*
X188750000Y-108285714D01*
X188702380Y-108190476D01*
X188702380Y-107952380D01*
X188750000Y-107857142D01*
X188797619Y-107809523D01*
X188892857Y-107761904D01*
X188988095Y-107761904D01*
X189130952Y-107809523D01*
X189702380Y-108380952D01*
X189702380Y-107761904D01*
X188702380Y-107428571D02*
X188702380Y-106809523D01*
X189083333Y-107142857D01*
X189083333Y-107000000D01*
X189130952Y-106904761D01*
X189178571Y-106857142D01*
X189273809Y-106809523D01*
X189511904Y-106809523D01*
X189607142Y-106857142D01*
X189654761Y-106904761D01*
X189702380Y-107000000D01*
X189702380Y-107285714D01*
X189654761Y-107380952D01*
X189607142Y-107428571D01*
X188797619Y-106428571D02*
X188750000Y-106380952D01*
X188702380Y-106285714D01*
X188702380Y-106047619D01*
X188750000Y-105952380D01*
X188797619Y-105904761D01*
X188892857Y-105857142D01*
X188988095Y-105857142D01*
X189130952Y-105904761D01*
X189702380Y-106476190D01*
X189702380Y-105857142D01*
X189702380Y-104857142D02*
X189226190Y-105190476D01*
X189702380Y-105428571D02*
X188702380Y-105428571D01*
X188702380Y-105047619D01*
X188750000Y-104952380D01*
X188797619Y-104904761D01*
X188892857Y-104857142D01*
X189035714Y-104857142D01*
X189130952Y-104904761D01*
X189178571Y-104952380D01*
X189226190Y-105047619D01*
X189226190Y-105428571D01*
X189702380Y-103952380D02*
X189702380Y-104428571D01*
X188702380Y-104428571D01*
X182561904Y-107609523D02*
X183209523Y-107609523D01*
X183285714Y-107571428D01*
X183323809Y-107533333D01*
X183361904Y-107457142D01*
X183361904Y-107304761D01*
X183323809Y-107228571D01*
X183285714Y-107190476D01*
X183209523Y-107152380D01*
X182561904Y-107152380D01*
X183361904Y-106352380D02*
X183361904Y-106809523D01*
X183361904Y-106580952D02*
X182561904Y-106580952D01*
X182676190Y-106657142D01*
X182752380Y-106733333D01*
X182790476Y-106809523D01*
%TO.C,R1*%
X177102380Y-114119047D02*
X177102380Y-114690476D01*
X177102380Y-114404761D02*
X176102380Y-114404761D01*
X176245238Y-114500000D01*
X176340476Y-114595238D01*
X176388095Y-114690476D01*
X177102380Y-113690476D02*
X176102380Y-113690476D01*
X176721428Y-113595238D02*
X177102380Y-113309523D01*
X176435714Y-113309523D02*
X176816666Y-113690476D01*
D15*
X175226190Y-114083333D02*
X174988095Y-114250000D01*
X175226190Y-114369047D02*
X174726190Y-114369047D01*
X174726190Y-114178571D01*
X174750000Y-114130952D01*
X174773809Y-114107142D01*
X174821428Y-114083333D01*
X174892857Y-114083333D01*
X174940476Y-114107142D01*
X174964285Y-114130952D01*
X174988095Y-114178571D01*
X174988095Y-114369047D01*
X175226190Y-113607142D02*
X175226190Y-113892857D01*
X175226190Y-113750000D02*
X174726190Y-113750000D01*
X174797619Y-113797619D01*
X174845238Y-113845238D01*
X174869047Y-113892857D01*
%TO.C,D2*%
D11*
X183928571Y-117782380D02*
X183595238Y-117306190D01*
X183357142Y-117782380D02*
X183357142Y-116782380D01*
X183738095Y-116782380D01*
X183833333Y-116830000D01*
X183880952Y-116877619D01*
X183928571Y-116972857D01*
X183928571Y-117115714D01*
X183880952Y-117210952D01*
X183833333Y-117258571D01*
X183738095Y-117306190D01*
X183357142Y-117306190D01*
X184738095Y-117734761D02*
X184642857Y-117782380D01*
X184452380Y-117782380D01*
X184357142Y-117734761D01*
X184309523Y-117639523D01*
X184309523Y-117258571D01*
X184357142Y-117163333D01*
X184452380Y-117115714D01*
X184642857Y-117115714D01*
X184738095Y-117163333D01*
X184785714Y-117258571D01*
X184785714Y-117353809D01*
X184309523Y-117449047D01*
X185642857Y-117782380D02*
X185642857Y-116782380D01*
X185642857Y-117734761D02*
X185547619Y-117782380D01*
X185357142Y-117782380D01*
X185261904Y-117734761D01*
X185214285Y-117687142D01*
X185166666Y-117591904D01*
X185166666Y-117306190D01*
X185214285Y-117210952D01*
X185261904Y-117163333D01*
X185357142Y-117115714D01*
X185547619Y-117115714D01*
X185642857Y-117163333D01*
D16*
X184315476Y-118613095D02*
X184315476Y-118363095D01*
X184375000Y-118363095D01*
X184410714Y-118375000D01*
X184434523Y-118398809D01*
X184446428Y-118422619D01*
X184458333Y-118470238D01*
X184458333Y-118505952D01*
X184446428Y-118553571D01*
X184434523Y-118577380D01*
X184410714Y-118601190D01*
X184375000Y-118613095D01*
X184315476Y-118613095D01*
X184553571Y-118386904D02*
X184565476Y-118375000D01*
X184589285Y-118363095D01*
X184648809Y-118363095D01*
X184672619Y-118375000D01*
X184684523Y-118386904D01*
X184696428Y-118410714D01*
X184696428Y-118434523D01*
X184684523Y-118470238D01*
X184541666Y-118613095D01*
X184696428Y-118613095D01*
%TO.C,J8*%
D11*
X181707142Y-102942857D02*
X181754761Y-102990476D01*
X181802380Y-103133333D01*
X181802380Y-103228571D01*
X181754761Y-103371428D01*
X181659523Y-103466666D01*
X181564285Y-103514285D01*
X181373809Y-103561904D01*
X181230952Y-103561904D01*
X181040476Y-103514285D01*
X180945238Y-103466666D01*
X180850000Y-103371428D01*
X180802380Y-103228571D01*
X180802380Y-103133333D01*
X180850000Y-102990476D01*
X180897619Y-102942857D01*
X181802380Y-102371428D02*
X181754761Y-102466666D01*
X181707142Y-102514285D01*
X181611904Y-102561904D01*
X181326190Y-102561904D01*
X181230952Y-102514285D01*
X181183333Y-102466666D01*
X181135714Y-102371428D01*
X181135714Y-102228571D01*
X181183333Y-102133333D01*
X181230952Y-102085714D01*
X181326190Y-102038095D01*
X181611904Y-102038095D01*
X181707142Y-102085714D01*
X181754761Y-102133333D01*
X181802380Y-102228571D01*
X181802380Y-102371428D01*
X181135714Y-101609523D02*
X181802380Y-101609523D01*
X181230952Y-101609523D02*
X181183333Y-101561904D01*
X181135714Y-101466666D01*
X181135714Y-101323809D01*
X181183333Y-101228571D01*
X181278571Y-101180952D01*
X181802380Y-101180952D01*
X181135714Y-100704761D02*
X181802380Y-100704761D01*
X181230952Y-100704761D02*
X181183333Y-100657142D01*
X181135714Y-100561904D01*
X181135714Y-100419047D01*
X181183333Y-100323809D01*
X181278571Y-100276190D01*
X181802380Y-100276190D01*
X181897619Y-100038095D02*
X181897619Y-99276190D01*
X180802380Y-98847619D02*
X180802380Y-98752380D01*
X180850000Y-98657142D01*
X180897619Y-98609523D01*
X180992857Y-98561904D01*
X181183333Y-98514285D01*
X181421428Y-98514285D01*
X181611904Y-98561904D01*
X181707142Y-98609523D01*
X181754761Y-98657142D01*
X181802380Y-98752380D01*
X181802380Y-98847619D01*
X181754761Y-98942857D01*
X181707142Y-98990476D01*
X181611904Y-99038095D01*
X181421428Y-99085714D01*
X181183333Y-99085714D01*
X180992857Y-99038095D01*
X180897619Y-98990476D01*
X180850000Y-98942857D01*
X180802380Y-98847619D01*
X180897619Y-98133333D02*
X180850000Y-98085714D01*
X180802380Y-97990476D01*
X180802380Y-97752380D01*
X180850000Y-97657142D01*
X180897619Y-97609523D01*
X180992857Y-97561904D01*
X181088095Y-97561904D01*
X181230952Y-97609523D01*
X181802380Y-98180952D01*
X181802380Y-97561904D01*
X181802380Y-97228571D02*
X181135714Y-96704761D01*
X181135714Y-97228571D02*
X181802380Y-96704761D01*
X180802380Y-96133333D02*
X180802380Y-96038095D01*
X180850000Y-95942857D01*
X180897619Y-95895238D01*
X180992857Y-95847619D01*
X181183333Y-95800000D01*
X181421428Y-95800000D01*
X181611904Y-95847619D01*
X181707142Y-95895238D01*
X181754761Y-95942857D01*
X181802380Y-96038095D01*
X181802380Y-96133333D01*
X181754761Y-96228571D01*
X181707142Y-96276190D01*
X181611904Y-96323809D01*
X181421428Y-96371428D01*
X181183333Y-96371428D01*
X180992857Y-96323809D01*
X180897619Y-96276190D01*
X180850000Y-96228571D01*
X180802380Y-96133333D01*
X180802380Y-95466666D02*
X180802380Y-94847619D01*
X181183333Y-95180952D01*
X181183333Y-95038095D01*
X181230952Y-94942857D01*
X181278571Y-94895238D01*
X181373809Y-94847619D01*
X181611904Y-94847619D01*
X181707142Y-94895238D01*
X181754761Y-94942857D01*
X181802380Y-95038095D01*
X181802380Y-95323809D01*
X181754761Y-95419047D01*
X181707142Y-95466666D01*
X181897619Y-94657142D02*
X181897619Y-93895238D01*
X180802380Y-93466666D02*
X180802380Y-93276190D01*
X180850000Y-93180952D01*
X180945238Y-93085714D01*
X181135714Y-93038095D01*
X181469047Y-93038095D01*
X181659523Y-93085714D01*
X181754761Y-93180952D01*
X181802380Y-93276190D01*
X181802380Y-93466666D01*
X181754761Y-93561904D01*
X181659523Y-93657142D01*
X181469047Y-93704761D01*
X181135714Y-93704761D01*
X180945238Y-93657142D01*
X180850000Y-93561904D01*
X180802380Y-93466666D01*
X181802380Y-92180952D02*
X180802380Y-92180952D01*
X181754761Y-92180952D02*
X181802380Y-92276190D01*
X181802380Y-92466666D01*
X181754761Y-92561904D01*
X181707142Y-92609523D01*
X181611904Y-92657142D01*
X181326190Y-92657142D01*
X181230952Y-92609523D01*
X181183333Y-92561904D01*
X181135714Y-92466666D01*
X181135714Y-92276190D01*
X181183333Y-92180952D01*
X181802380Y-91276190D02*
X180802380Y-91276190D01*
X181754761Y-91276190D02*
X181802380Y-91371428D01*
X181802380Y-91561904D01*
X181754761Y-91657142D01*
X181707142Y-91704761D01*
X181611904Y-91752380D01*
X181326190Y-91752380D01*
X181230952Y-91704761D01*
X181183333Y-91657142D01*
X181135714Y-91561904D01*
X181135714Y-91371428D01*
X181183333Y-91276190D01*
X181897619Y-91038095D02*
X181897619Y-90276190D01*
X181278571Y-90038095D02*
X181278571Y-89704761D01*
X181802380Y-89561904D02*
X181802380Y-90038095D01*
X180802380Y-90038095D01*
X180802380Y-89561904D01*
X181135714Y-89228571D02*
X181802380Y-88990476D01*
X181135714Y-88752380D01*
X181754761Y-87990476D02*
X181802380Y-88085714D01*
X181802380Y-88276190D01*
X181754761Y-88371428D01*
X181659523Y-88419047D01*
X181278571Y-88419047D01*
X181183333Y-88371428D01*
X181135714Y-88276190D01*
X181135714Y-88085714D01*
X181183333Y-87990476D01*
X181278571Y-87942857D01*
X181373809Y-87942857D01*
X181469047Y-88419047D01*
X181135714Y-87514285D02*
X181802380Y-87514285D01*
X181230952Y-87514285D02*
X181183333Y-87466666D01*
X181135714Y-87371428D01*
X181135714Y-87228571D01*
X181183333Y-87133333D01*
X181278571Y-87085714D01*
X181802380Y-87085714D01*
X185886666Y-94752380D02*
X185886666Y-95466666D01*
X185839047Y-95609523D01*
X185743809Y-95704761D01*
X185600952Y-95752380D01*
X185505714Y-95752380D01*
X186505714Y-95180952D02*
X186410476Y-95133333D01*
X186362857Y-95085714D01*
X186315238Y-94990476D01*
X186315238Y-94942857D01*
X186362857Y-94847619D01*
X186410476Y-94800000D01*
X186505714Y-94752380D01*
X186696190Y-94752380D01*
X186791428Y-94800000D01*
X186839047Y-94847619D01*
X186886666Y-94942857D01*
X186886666Y-94990476D01*
X186839047Y-95085714D01*
X186791428Y-95133333D01*
X186696190Y-95180952D01*
X186505714Y-95180952D01*
X186410476Y-95228571D01*
X186362857Y-95276190D01*
X186315238Y-95371428D01*
X186315238Y-95561904D01*
X186362857Y-95657142D01*
X186410476Y-95704761D01*
X186505714Y-95752380D01*
X186696190Y-95752380D01*
X186791428Y-95704761D01*
X186839047Y-95657142D01*
X186886666Y-95561904D01*
X186886666Y-95371428D01*
X186839047Y-95276190D01*
X186791428Y-95228571D01*
X186696190Y-95180952D01*
%TO.C,C6*%
X163702380Y-87321428D02*
X163702380Y-87892857D01*
X163702380Y-87607142D02*
X162702380Y-87607142D01*
X162845238Y-87702380D01*
X162940476Y-87797619D01*
X162988095Y-87892857D01*
X162702380Y-86702380D02*
X162702380Y-86607142D01*
X162750000Y-86511904D01*
X162797619Y-86464285D01*
X162892857Y-86416666D01*
X163083333Y-86369047D01*
X163321428Y-86369047D01*
X163511904Y-86416666D01*
X163607142Y-86464285D01*
X163654761Y-86511904D01*
X163702380Y-86607142D01*
X163702380Y-86702380D01*
X163654761Y-86797619D01*
X163607142Y-86845238D01*
X163511904Y-86892857D01*
X163321428Y-86940476D01*
X163083333Y-86940476D01*
X162892857Y-86892857D01*
X162797619Y-86845238D01*
X162750000Y-86797619D01*
X162702380Y-86702380D01*
X163035714Y-85511904D02*
X163702380Y-85511904D01*
X163035714Y-85940476D02*
X163559523Y-85940476D01*
X163654761Y-85892857D01*
X163702380Y-85797619D01*
X163702380Y-85654761D01*
X163654761Y-85559523D01*
X163607142Y-85511904D01*
X163178571Y-84702380D02*
X163178571Y-85035714D01*
X163702380Y-85035714D02*
X162702380Y-85035714D01*
X162702380Y-84559523D01*
D17*
X165285714Y-86383333D02*
X165323809Y-86421428D01*
X165361904Y-86535714D01*
X165361904Y-86611904D01*
X165323809Y-86726190D01*
X165247619Y-86802380D01*
X165171428Y-86840476D01*
X165019047Y-86878571D01*
X164904761Y-86878571D01*
X164752380Y-86840476D01*
X164676190Y-86802380D01*
X164600000Y-86726190D01*
X164561904Y-86611904D01*
X164561904Y-86535714D01*
X164600000Y-86421428D01*
X164638095Y-86383333D01*
X164561904Y-85697619D02*
X164561904Y-85850000D01*
X164600000Y-85926190D01*
X164638095Y-85964285D01*
X164752380Y-86040476D01*
X164904761Y-86078571D01*
X165209523Y-86078571D01*
X165285714Y-86040476D01*
X165323809Y-86002380D01*
X165361904Y-85926190D01*
X165361904Y-85773809D01*
X165323809Y-85697619D01*
X165285714Y-85659523D01*
X165209523Y-85621428D01*
X165019047Y-85621428D01*
X164942857Y-85659523D01*
X164904761Y-85697619D01*
X164866666Y-85773809D01*
X164866666Y-85926190D01*
X164904761Y-86002380D01*
X164942857Y-86040476D01*
X165019047Y-86078571D01*
%TO.C,C5*%
D11*
X177202380Y-87071428D02*
X177202380Y-87642857D01*
X177202380Y-87357142D02*
X176202380Y-87357142D01*
X176345238Y-87452380D01*
X176440476Y-87547619D01*
X176488095Y-87642857D01*
X176202380Y-86452380D02*
X176202380Y-86357142D01*
X176250000Y-86261904D01*
X176297619Y-86214285D01*
X176392857Y-86166666D01*
X176583333Y-86119047D01*
X176821428Y-86119047D01*
X177011904Y-86166666D01*
X177107142Y-86214285D01*
X177154761Y-86261904D01*
X177202380Y-86357142D01*
X177202380Y-86452380D01*
X177154761Y-86547619D01*
X177107142Y-86595238D01*
X177011904Y-86642857D01*
X176821428Y-86690476D01*
X176583333Y-86690476D01*
X176392857Y-86642857D01*
X176297619Y-86595238D01*
X176250000Y-86547619D01*
X176202380Y-86452380D01*
X176535714Y-85261904D02*
X177202380Y-85261904D01*
X176535714Y-85690476D02*
X177059523Y-85690476D01*
X177154761Y-85642857D01*
X177202380Y-85547619D01*
X177202380Y-85404761D01*
X177154761Y-85309523D01*
X177107142Y-85261904D01*
X176678571Y-84452380D02*
X176678571Y-84785714D01*
X177202380Y-84785714D02*
X176202380Y-84785714D01*
X176202380Y-84309523D01*
D17*
X178785714Y-86133333D02*
X178823809Y-86171428D01*
X178861904Y-86285714D01*
X178861904Y-86361904D01*
X178823809Y-86476190D01*
X178747619Y-86552380D01*
X178671428Y-86590476D01*
X178519047Y-86628571D01*
X178404761Y-86628571D01*
X178252380Y-86590476D01*
X178176190Y-86552380D01*
X178100000Y-86476190D01*
X178061904Y-86361904D01*
X178061904Y-86285714D01*
X178100000Y-86171428D01*
X178138095Y-86133333D01*
X178061904Y-85409523D02*
X178061904Y-85790476D01*
X178442857Y-85828571D01*
X178404761Y-85790476D01*
X178366666Y-85714285D01*
X178366666Y-85523809D01*
X178404761Y-85447619D01*
X178442857Y-85409523D01*
X178519047Y-85371428D01*
X178709523Y-85371428D01*
X178785714Y-85409523D01*
X178823809Y-85447619D01*
X178861904Y-85523809D01*
X178861904Y-85714285D01*
X178823809Y-85790476D01*
X178785714Y-85828571D01*
%TO.C,D6*%
D11*
X168277142Y-69982380D02*
X167705714Y-69982380D01*
X167991428Y-69982380D02*
X167991428Y-68982380D01*
X167896190Y-69125238D01*
X167800952Y-69220476D01*
X167705714Y-69268095D01*
X168705714Y-69982380D02*
X168705714Y-68982380D01*
X169277142Y-69982380D01*
X169277142Y-68982380D01*
X170181904Y-69315714D02*
X170181904Y-69982380D01*
X169943809Y-68934761D02*
X169705714Y-69649047D01*
X170324761Y-69649047D01*
X170896190Y-68982380D02*
X170991428Y-68982380D01*
X171086666Y-69030000D01*
X171134285Y-69077619D01*
X171181904Y-69172857D01*
X171229523Y-69363333D01*
X171229523Y-69601428D01*
X171181904Y-69791904D01*
X171134285Y-69887142D01*
X171086666Y-69934761D01*
X170991428Y-69982380D01*
X170896190Y-69982380D01*
X170800952Y-69934761D01*
X170753333Y-69887142D01*
X170705714Y-69791904D01*
X170658095Y-69601428D01*
X170658095Y-69363333D01*
X170705714Y-69172857D01*
X170753333Y-69077619D01*
X170800952Y-69030000D01*
X170896190Y-68982380D01*
X171848571Y-68982380D02*
X171943809Y-68982380D01*
X172039047Y-69030000D01*
X172086666Y-69077619D01*
X172134285Y-69172857D01*
X172181904Y-69363333D01*
X172181904Y-69601428D01*
X172134285Y-69791904D01*
X172086666Y-69887142D01*
X172039047Y-69934761D01*
X171943809Y-69982380D01*
X171848571Y-69982380D01*
X171753333Y-69934761D01*
X171705714Y-69887142D01*
X171658095Y-69791904D01*
X171610476Y-69601428D01*
X171610476Y-69363333D01*
X171658095Y-69172857D01*
X171705714Y-69077619D01*
X171753333Y-69030000D01*
X171848571Y-68982380D01*
X172515238Y-68982380D02*
X173181904Y-68982380D01*
X172753333Y-69982380D01*
X175238095Y-74552380D02*
X175238095Y-73552380D01*
X175809523Y-74552380D02*
X175380952Y-73980952D01*
X175809523Y-73552380D02*
X175238095Y-74123809D01*
X169291904Y-72452380D02*
X169291904Y-71452380D01*
X169530000Y-71452380D01*
X169672857Y-71500000D01*
X169768095Y-71595238D01*
X169815714Y-71690476D01*
X169863333Y-71880952D01*
X169863333Y-72023809D01*
X169815714Y-72214285D01*
X169768095Y-72309523D01*
X169672857Y-72404761D01*
X169530000Y-72452380D01*
X169291904Y-72452380D01*
X170720476Y-71452380D02*
X170530000Y-71452380D01*
X170434761Y-71500000D01*
X170387142Y-71547619D01*
X170291904Y-71690476D01*
X170244285Y-71880952D01*
X170244285Y-72261904D01*
X170291904Y-72357142D01*
X170339523Y-72404761D01*
X170434761Y-72452380D01*
X170625238Y-72452380D01*
X170720476Y-72404761D01*
X170768095Y-72357142D01*
X170815714Y-72261904D01*
X170815714Y-72023809D01*
X170768095Y-71928571D01*
X170720476Y-71880952D01*
X170625238Y-71833333D01*
X170434761Y-71833333D01*
X170339523Y-71880952D01*
X170291904Y-71928571D01*
X170244285Y-72023809D01*
%TO.C,Y1*%
D18*
X154090476Y-90338095D02*
X154090476Y-90452380D01*
X154090476Y-90395238D02*
X153890476Y-90395238D01*
X153919047Y-90414285D01*
X153938095Y-90433333D01*
X153947619Y-90452380D01*
X153890476Y-90166666D02*
X153890476Y-90204761D01*
X153900000Y-90223809D01*
X153909523Y-90233333D01*
X153938095Y-90252380D01*
X153976190Y-90261904D01*
X154052380Y-90261904D01*
X154071428Y-90252380D01*
X154080952Y-90242857D01*
X154090476Y-90223809D01*
X154090476Y-90185714D01*
X154080952Y-90166666D01*
X154071428Y-90157142D01*
X154052380Y-90147619D01*
X154004761Y-90147619D01*
X153985714Y-90157142D01*
X153976190Y-90166666D01*
X153966666Y-90185714D01*
X153966666Y-90223809D01*
X153976190Y-90242857D01*
X153985714Y-90252380D01*
X154004761Y-90261904D01*
X154090476Y-90061904D02*
X153890476Y-90061904D01*
X154033333Y-89995238D01*
X153890476Y-89928571D01*
X154090476Y-89928571D01*
X154090476Y-89833333D02*
X153890476Y-89833333D01*
X153985714Y-89833333D02*
X153985714Y-89719047D01*
X154090476Y-89719047D02*
X153890476Y-89719047D01*
X153957142Y-89642857D02*
X153957142Y-89538095D01*
X154090476Y-89642857D01*
X154090476Y-89538095D01*
D15*
X155835714Y-90385714D02*
X156121428Y-90385714D01*
X155521428Y-90585714D02*
X155835714Y-90385714D01*
X155521428Y-90185714D01*
X156121428Y-89671428D02*
X156121428Y-90014285D01*
X156121428Y-89842857D02*
X155521428Y-89842857D01*
X155607142Y-89900000D01*
X155664285Y-89957142D01*
X155692857Y-90014285D01*
%TO.C,U3*%
D11*
X142280952Y-89116666D02*
X142757142Y-89116666D01*
X142185714Y-89402380D02*
X142519047Y-88402380D01*
X142852380Y-89402380D01*
X143042857Y-88402380D02*
X143614285Y-88402380D01*
X143328571Y-89402380D02*
X143328571Y-88402380D01*
X143947619Y-89402380D02*
X143947619Y-88735714D01*
X143947619Y-88830952D02*
X143995238Y-88783333D01*
X144090476Y-88735714D01*
X144233333Y-88735714D01*
X144328571Y-88783333D01*
X144376190Y-88878571D01*
X144376190Y-89402380D01*
X144376190Y-88878571D02*
X144423809Y-88783333D01*
X144519047Y-88735714D01*
X144661904Y-88735714D01*
X144757142Y-88783333D01*
X144804761Y-88878571D01*
X144804761Y-89402380D01*
X145661904Y-89354761D02*
X145566666Y-89402380D01*
X145376190Y-89402380D01*
X145280952Y-89354761D01*
X145233333Y-89259523D01*
X145233333Y-88878571D01*
X145280952Y-88783333D01*
X145376190Y-88735714D01*
X145566666Y-88735714D01*
X145661904Y-88783333D01*
X145709523Y-88878571D01*
X145709523Y-88973809D01*
X145233333Y-89069047D01*
X146566666Y-88735714D02*
X146566666Y-89545238D01*
X146519047Y-89640476D01*
X146471428Y-89688095D01*
X146376190Y-89735714D01*
X146233333Y-89735714D01*
X146138095Y-89688095D01*
X146566666Y-89354761D02*
X146471428Y-89402380D01*
X146280952Y-89402380D01*
X146185714Y-89354761D01*
X146138095Y-89307142D01*
X146090476Y-89211904D01*
X146090476Y-88926190D01*
X146138095Y-88830952D01*
X146185714Y-88783333D01*
X146280952Y-88735714D01*
X146471428Y-88735714D01*
X146566666Y-88783333D01*
X147471428Y-89402380D02*
X147471428Y-88878571D01*
X147423809Y-88783333D01*
X147328571Y-88735714D01*
X147138095Y-88735714D01*
X147042857Y-88783333D01*
X147471428Y-89354761D02*
X147376190Y-89402380D01*
X147138095Y-89402380D01*
X147042857Y-89354761D01*
X146995238Y-89259523D01*
X146995238Y-89164285D01*
X147042857Y-89069047D01*
X147138095Y-89021428D01*
X147376190Y-89021428D01*
X147471428Y-88973809D01*
X147852380Y-88402380D02*
X148471428Y-88402380D01*
X148138095Y-88783333D01*
X148280952Y-88783333D01*
X148376190Y-88830952D01*
X148423809Y-88878571D01*
X148471428Y-88973809D01*
X148471428Y-89211904D01*
X148423809Y-89307142D01*
X148376190Y-89354761D01*
X148280952Y-89402380D01*
X147995238Y-89402380D01*
X147900000Y-89354761D01*
X147852380Y-89307142D01*
X148852380Y-88497619D02*
X148900000Y-88450000D01*
X148995238Y-88402380D01*
X149233333Y-88402380D01*
X149328571Y-88450000D01*
X149376190Y-88497619D01*
X149423809Y-88592857D01*
X149423809Y-88688095D01*
X149376190Y-88830952D01*
X148804761Y-89402380D01*
X149423809Y-89402380D01*
X149995238Y-88830952D02*
X149900000Y-88783333D01*
X149852380Y-88735714D01*
X149804761Y-88640476D01*
X149804761Y-88592857D01*
X149852380Y-88497619D01*
X149900000Y-88450000D01*
X149995238Y-88402380D01*
X150185714Y-88402380D01*
X150280952Y-88450000D01*
X150328571Y-88497619D01*
X150376190Y-88592857D01*
X150376190Y-88640476D01*
X150328571Y-88735714D01*
X150280952Y-88783333D01*
X150185714Y-88830952D01*
X149995238Y-88830952D01*
X149900000Y-88878571D01*
X149852380Y-88926190D01*
X149804761Y-89021428D01*
X149804761Y-89211904D01*
X149852380Y-89307142D01*
X149900000Y-89354761D01*
X149995238Y-89402380D01*
X150185714Y-89402380D01*
X150280952Y-89354761D01*
X150328571Y-89307142D01*
X150376190Y-89211904D01*
X150376190Y-89021428D01*
X150328571Y-88926190D01*
X150280952Y-88878571D01*
X150185714Y-88830952D01*
X150804761Y-89402380D02*
X150804761Y-88402380D01*
X151185714Y-88402380D01*
X151280952Y-88450000D01*
X151328571Y-88497619D01*
X151376190Y-88592857D01*
X151376190Y-88735714D01*
X151328571Y-88830952D01*
X151280952Y-88878571D01*
X151185714Y-88926190D01*
X150804761Y-88926190D01*
X151804761Y-89021428D02*
X152566666Y-89021428D01*
X152995238Y-89116666D02*
X153471428Y-89116666D01*
X152900000Y-89402380D02*
X153233333Y-88402380D01*
X153566666Y-89402380D01*
X153900000Y-88402380D02*
X153900000Y-89211904D01*
X153947619Y-89307142D01*
X153995238Y-89354761D01*
X154090476Y-89402380D01*
X154280952Y-89402380D01*
X154376190Y-89354761D01*
X154423809Y-89307142D01*
X154471428Y-89211904D01*
X154471428Y-88402380D01*
X147638095Y-94452380D02*
X147638095Y-95261904D01*
X147685714Y-95357142D01*
X147733333Y-95404761D01*
X147828571Y-95452380D01*
X148019047Y-95452380D01*
X148114285Y-95404761D01*
X148161904Y-95357142D01*
X148209523Y-95261904D01*
X148209523Y-94452380D01*
X148590476Y-94452380D02*
X149209523Y-94452380D01*
X148876190Y-94833333D01*
X149019047Y-94833333D01*
X149114285Y-94880952D01*
X149161904Y-94928571D01*
X149209523Y-95023809D01*
X149209523Y-95261904D01*
X149161904Y-95357142D01*
X149114285Y-95404761D01*
X149019047Y-95452380D01*
X148733333Y-95452380D01*
X148638095Y-95404761D01*
X148590476Y-95357142D01*
%TO.C,U2*%
X166523809Y-74952380D02*
X166047619Y-74952380D01*
X166047619Y-73952380D01*
X166857142Y-74952380D02*
X166857142Y-73952380D01*
X167190476Y-74666666D01*
X167523809Y-73952380D01*
X167523809Y-74952380D01*
X168523809Y-74952380D02*
X167952380Y-74952380D01*
X168238095Y-74952380D02*
X168238095Y-73952380D01*
X168142857Y-74095238D01*
X168047619Y-74190476D01*
X167952380Y-74238095D01*
X169476190Y-74952380D02*
X168904761Y-74952380D01*
X169190476Y-74952380D02*
X169190476Y-73952380D01*
X169095238Y-74095238D01*
X169000000Y-74190476D01*
X168904761Y-74238095D01*
X170428571Y-74952380D02*
X169857142Y-74952380D01*
X170142857Y-74952380D02*
X170142857Y-73952380D01*
X170047619Y-74095238D01*
X169952380Y-74190476D01*
X169857142Y-74238095D01*
X170761904Y-73952380D02*
X171428571Y-73952380D01*
X171000000Y-74952380D01*
X171809523Y-74571428D02*
X172571428Y-74571428D01*
X173523809Y-73952380D02*
X173047619Y-73952380D01*
X173000000Y-74428571D01*
X173047619Y-74380952D01*
X173142857Y-74333333D01*
X173380952Y-74333333D01*
X173476190Y-74380952D01*
X173523809Y-74428571D01*
X173571428Y-74523809D01*
X173571428Y-74761904D01*
X173523809Y-74857142D01*
X173476190Y-74904761D01*
X173380952Y-74952380D01*
X173142857Y-74952380D01*
X173047619Y-74904761D01*
X173000000Y-74857142D01*
X174000000Y-74857142D02*
X174047619Y-74904761D01*
X174000000Y-74952380D01*
X173952380Y-74904761D01*
X174000000Y-74857142D01*
X174000000Y-74952380D01*
X174666666Y-73952380D02*
X174761904Y-73952380D01*
X174857142Y-74000000D01*
X174904761Y-74047619D01*
X174952380Y-74142857D01*
X175000000Y-74333333D01*
X175000000Y-74571428D01*
X174952380Y-74761904D01*
X174904761Y-74857142D01*
X174857142Y-74904761D01*
X174761904Y-74952380D01*
X174666666Y-74952380D01*
X174571428Y-74904761D01*
X174523809Y-74857142D01*
X174476190Y-74761904D01*
X174428571Y-74571428D01*
X174428571Y-74333333D01*
X174476190Y-74142857D01*
X174523809Y-74047619D01*
X174571428Y-74000000D01*
X174666666Y-73952380D01*
D17*
X170061904Y-79609523D02*
X170709523Y-79609523D01*
X170785714Y-79571428D01*
X170823809Y-79533333D01*
X170861904Y-79457142D01*
X170861904Y-79304761D01*
X170823809Y-79228571D01*
X170785714Y-79190476D01*
X170709523Y-79152380D01*
X170061904Y-79152380D01*
X170138095Y-78809523D02*
X170100000Y-78771428D01*
X170061904Y-78695238D01*
X170061904Y-78504761D01*
X170100000Y-78428571D01*
X170138095Y-78390476D01*
X170214285Y-78352380D01*
X170290476Y-78352380D01*
X170404761Y-78390476D01*
X170861904Y-78847619D01*
X170861904Y-78352380D01*
%TO.C,TP2*%
D11*
X188719047Y-101152380D02*
X188719047Y-100152380D01*
X188957142Y-100152380D01*
X189100000Y-100200000D01*
X189195238Y-100295238D01*
X189242857Y-100390476D01*
X189290476Y-100580952D01*
X189290476Y-100723809D01*
X189242857Y-100914285D01*
X189195238Y-101009523D01*
X189100000Y-101104761D01*
X188957142Y-101152380D01*
X188719047Y-101152380D01*
X189719047Y-100771428D02*
X190480952Y-100771428D01*
X185638095Y-101702380D02*
X186209523Y-101702380D01*
X185923809Y-102702380D02*
X185923809Y-101702380D01*
X186542857Y-102702380D02*
X186542857Y-101702380D01*
X186923809Y-101702380D01*
X187019047Y-101750000D01*
X187066666Y-101797619D01*
X187114285Y-101892857D01*
X187114285Y-102035714D01*
X187066666Y-102130952D01*
X187019047Y-102178571D01*
X186923809Y-102226190D01*
X186542857Y-102226190D01*
X187495238Y-101797619D02*
X187542857Y-101750000D01*
X187638095Y-101702380D01*
X187876190Y-101702380D01*
X187971428Y-101750000D01*
X188019047Y-101797619D01*
X188066666Y-101892857D01*
X188066666Y-101988095D01*
X188019047Y-102130952D01*
X187447619Y-102702380D01*
X188066666Y-102702380D01*
%TO.C,TP1*%
X188719047Y-104402380D02*
X188719047Y-103402380D01*
X188957142Y-103402380D01*
X189100000Y-103450000D01*
X189195238Y-103545238D01*
X189242857Y-103640476D01*
X189290476Y-103830952D01*
X189290476Y-103973809D01*
X189242857Y-104164285D01*
X189195238Y-104259523D01*
X189100000Y-104354761D01*
X188957142Y-104402380D01*
X188719047Y-104402380D01*
X189719047Y-104021428D02*
X190480952Y-104021428D01*
X190100000Y-104402380D02*
X190100000Y-103640476D01*
X185638095Y-104952380D02*
X186209523Y-104952380D01*
X185923809Y-105952380D02*
X185923809Y-104952380D01*
X186542857Y-105952380D02*
X186542857Y-104952380D01*
X186923809Y-104952380D01*
X187019047Y-105000000D01*
X187066666Y-105047619D01*
X187114285Y-105142857D01*
X187114285Y-105285714D01*
X187066666Y-105380952D01*
X187019047Y-105428571D01*
X186923809Y-105476190D01*
X186542857Y-105476190D01*
X188066666Y-105952380D02*
X187495238Y-105952380D01*
X187780952Y-105952380D02*
X187780952Y-104952380D01*
X187685714Y-105095238D01*
X187590476Y-105190476D01*
X187495238Y-105238095D01*
%TO.C,SW1*%
X167802380Y-119052380D02*
X167326190Y-119385714D01*
X167802380Y-119623809D02*
X166802380Y-119623809D01*
X166802380Y-119242857D01*
X166850000Y-119147619D01*
X166897619Y-119100000D01*
X166992857Y-119052380D01*
X167135714Y-119052380D01*
X167230952Y-119100000D01*
X167278571Y-119147619D01*
X167326190Y-119242857D01*
X167326190Y-119623809D01*
X167278571Y-118623809D02*
X167278571Y-118290476D01*
X167802380Y-118147619D02*
X167802380Y-118623809D01*
X166802380Y-118623809D01*
X166802380Y-118147619D01*
X167754761Y-117766666D02*
X167802380Y-117623809D01*
X167802380Y-117385714D01*
X167754761Y-117290476D01*
X167707142Y-117242857D01*
X167611904Y-117195238D01*
X167516666Y-117195238D01*
X167421428Y-117242857D01*
X167373809Y-117290476D01*
X167326190Y-117385714D01*
X167278571Y-117576190D01*
X167230952Y-117671428D01*
X167183333Y-117719047D01*
X167088095Y-117766666D01*
X166992857Y-117766666D01*
X166897619Y-117719047D01*
X166850000Y-117671428D01*
X166802380Y-117576190D01*
X166802380Y-117338095D01*
X166850000Y-117195238D01*
X167278571Y-116766666D02*
X167278571Y-116433333D01*
X167802380Y-116290476D02*
X167802380Y-116766666D01*
X166802380Y-116766666D01*
X166802380Y-116290476D01*
X166802380Y-116004761D02*
X166802380Y-115433333D01*
X167802380Y-115719047D02*
X166802380Y-115719047D01*
X160254761Y-118933333D02*
X160302380Y-118790476D01*
X160302380Y-118552380D01*
X160254761Y-118457142D01*
X160207142Y-118409523D01*
X160111904Y-118361904D01*
X160016666Y-118361904D01*
X159921428Y-118409523D01*
X159873809Y-118457142D01*
X159826190Y-118552380D01*
X159778571Y-118742857D01*
X159730952Y-118838095D01*
X159683333Y-118885714D01*
X159588095Y-118933333D01*
X159492857Y-118933333D01*
X159397619Y-118885714D01*
X159350000Y-118838095D01*
X159302380Y-118742857D01*
X159302380Y-118504761D01*
X159350000Y-118361904D01*
X159302380Y-118028571D02*
X160302380Y-117790476D01*
X159588095Y-117600000D01*
X160302380Y-117409523D01*
X159302380Y-117171428D01*
X160302380Y-116266666D02*
X160302380Y-116838095D01*
X160302380Y-116552380D02*
X159302380Y-116552380D01*
X159445238Y-116647619D01*
X159540476Y-116742857D01*
X159588095Y-116838095D01*
%TO.C,R7*%
X114880952Y-92102380D02*
X114309523Y-92102380D01*
X114595238Y-92102380D02*
X114595238Y-91102380D01*
X114500000Y-91245238D01*
X114404761Y-91340476D01*
X114309523Y-91388095D01*
X115309523Y-92102380D02*
X115309523Y-91102380D01*
X115404761Y-91721428D02*
X115690476Y-92102380D01*
X115690476Y-91435714D02*
X115309523Y-91816666D01*
D15*
X114916666Y-90226190D02*
X114750000Y-89988095D01*
X114630952Y-90226190D02*
X114630952Y-89726190D01*
X114821428Y-89726190D01*
X114869047Y-89750000D01*
X114892857Y-89773809D01*
X114916666Y-89821428D01*
X114916666Y-89892857D01*
X114892857Y-89940476D01*
X114869047Y-89964285D01*
X114821428Y-89988095D01*
X114630952Y-89988095D01*
X115083333Y-89726190D02*
X115416666Y-89726190D01*
X115202380Y-90226190D01*
%TO.C,R6*%
D11*
X156880952Y-102202380D02*
X156309523Y-102202380D01*
X156595238Y-102202380D02*
X156595238Y-101202380D01*
X156500000Y-101345238D01*
X156404761Y-101440476D01*
X156309523Y-101488095D01*
X157309523Y-102202380D02*
X157309523Y-101202380D01*
X157404761Y-101821428D02*
X157690476Y-102202380D01*
X157690476Y-101535714D02*
X157309523Y-101916666D01*
D15*
X156916666Y-103626190D02*
X156750000Y-103388095D01*
X156630952Y-103626190D02*
X156630952Y-103126190D01*
X156821428Y-103126190D01*
X156869047Y-103150000D01*
X156892857Y-103173809D01*
X156916666Y-103221428D01*
X156916666Y-103292857D01*
X156892857Y-103340476D01*
X156869047Y-103364285D01*
X156821428Y-103388095D01*
X156630952Y-103388095D01*
X157345238Y-103126190D02*
X157250000Y-103126190D01*
X157202380Y-103150000D01*
X157178571Y-103173809D01*
X157130952Y-103245238D01*
X157107142Y-103340476D01*
X157107142Y-103530952D01*
X157130952Y-103578571D01*
X157154761Y-103602380D01*
X157202380Y-103626190D01*
X157297619Y-103626190D01*
X157345238Y-103602380D01*
X157369047Y-103578571D01*
X157392857Y-103530952D01*
X157392857Y-103411904D01*
X157369047Y-103364285D01*
X157345238Y-103340476D01*
X157297619Y-103316666D01*
X157202380Y-103316666D01*
X157154761Y-103340476D01*
X157130952Y-103364285D01*
X157107142Y-103411904D01*
%TO.C,R5*%
D11*
X156880952Y-104602380D02*
X156309523Y-104602380D01*
X156595238Y-104602380D02*
X156595238Y-103602380D01*
X156500000Y-103745238D01*
X156404761Y-103840476D01*
X156309523Y-103888095D01*
X157309523Y-104602380D02*
X157309523Y-103602380D01*
X157404761Y-104221428D02*
X157690476Y-104602380D01*
X157690476Y-103935714D02*
X157309523Y-104316666D01*
D15*
X156916666Y-106026190D02*
X156750000Y-105788095D01*
X156630952Y-106026190D02*
X156630952Y-105526190D01*
X156821428Y-105526190D01*
X156869047Y-105550000D01*
X156892857Y-105573809D01*
X156916666Y-105621428D01*
X156916666Y-105692857D01*
X156892857Y-105740476D01*
X156869047Y-105764285D01*
X156821428Y-105788095D01*
X156630952Y-105788095D01*
X157369047Y-105526190D02*
X157130952Y-105526190D01*
X157107142Y-105764285D01*
X157130952Y-105740476D01*
X157178571Y-105716666D01*
X157297619Y-105716666D01*
X157345238Y-105740476D01*
X157369047Y-105764285D01*
X157392857Y-105811904D01*
X157392857Y-105930952D01*
X157369047Y-105978571D01*
X157345238Y-106002380D01*
X157297619Y-106026190D01*
X157178571Y-106026190D01*
X157130952Y-106002380D01*
X157107142Y-105978571D01*
%TO.C,R4*%
D11*
X163702380Y-108719047D02*
X163702380Y-109290476D01*
X163702380Y-109004761D02*
X162702380Y-109004761D01*
X162845238Y-109100000D01*
X162940476Y-109195238D01*
X162988095Y-109290476D01*
X163702380Y-108290476D02*
X162702380Y-108290476D01*
X163321428Y-108195238D02*
X163702380Y-107909523D01*
X163035714Y-107909523D02*
X163416666Y-108290476D01*
D15*
X161826190Y-108683333D02*
X161588095Y-108850000D01*
X161826190Y-108969047D02*
X161326190Y-108969047D01*
X161326190Y-108778571D01*
X161350000Y-108730952D01*
X161373809Y-108707142D01*
X161421428Y-108683333D01*
X161492857Y-108683333D01*
X161540476Y-108707142D01*
X161564285Y-108730952D01*
X161588095Y-108778571D01*
X161588095Y-108969047D01*
X161492857Y-108254761D02*
X161826190Y-108254761D01*
X161302380Y-108373809D02*
X161659523Y-108492857D01*
X161659523Y-108183333D01*
%TO.C,R3*%
D11*
X169602380Y-86119047D02*
X169602380Y-86690476D01*
X169602380Y-86404761D02*
X168602380Y-86404761D01*
X168745238Y-86500000D01*
X168840476Y-86595238D01*
X168888095Y-86690476D01*
X169602380Y-85690476D02*
X168602380Y-85690476D01*
X169221428Y-85595238D02*
X169602380Y-85309523D01*
X168935714Y-85309523D02*
X169316666Y-85690476D01*
D15*
X167726190Y-86083333D02*
X167488095Y-86250000D01*
X167726190Y-86369047D02*
X167226190Y-86369047D01*
X167226190Y-86178571D01*
X167250000Y-86130952D01*
X167273809Y-86107142D01*
X167321428Y-86083333D01*
X167392857Y-86083333D01*
X167440476Y-86107142D01*
X167464285Y-86130952D01*
X167488095Y-86178571D01*
X167488095Y-86369047D01*
X167226190Y-85916666D02*
X167226190Y-85607142D01*
X167416666Y-85773809D01*
X167416666Y-85702380D01*
X167440476Y-85654761D01*
X167464285Y-85630952D01*
X167511904Y-85607142D01*
X167630952Y-85607142D01*
X167678571Y-85630952D01*
X167702380Y-85654761D01*
X167726190Y-85702380D01*
X167726190Y-85845238D01*
X167702380Y-85892857D01*
X167678571Y-85916666D01*
%TO.C,R2*%
D11*
X179102380Y-114119047D02*
X179102380Y-114690476D01*
X179102380Y-114404761D02*
X178102380Y-114404761D01*
X178245238Y-114500000D01*
X178340476Y-114595238D01*
X178388095Y-114690476D01*
X179102380Y-113690476D02*
X178102380Y-113690476D01*
X178721428Y-113595238D02*
X179102380Y-113309523D01*
X178435714Y-113309523D02*
X178816666Y-113690476D01*
D15*
X177226190Y-114083333D02*
X176988095Y-114250000D01*
X177226190Y-114369047D02*
X176726190Y-114369047D01*
X176726190Y-114178571D01*
X176750000Y-114130952D01*
X176773809Y-114107142D01*
X176821428Y-114083333D01*
X176892857Y-114083333D01*
X176940476Y-114107142D01*
X176964285Y-114130952D01*
X176988095Y-114178571D01*
X176988095Y-114369047D01*
X176773809Y-113892857D02*
X176750000Y-113869047D01*
X176726190Y-113821428D01*
X176726190Y-113702380D01*
X176750000Y-113654761D01*
X176773809Y-113630952D01*
X176821428Y-113607142D01*
X176869047Y-113607142D01*
X176940476Y-113630952D01*
X177226190Y-113916666D01*
X177226190Y-113607142D01*
%TO.C,J5*%
D11*
X153776666Y-124690476D02*
X153776666Y-124214285D01*
X154062380Y-124785714D02*
X153062380Y-124452380D01*
X154062380Y-124119047D01*
X153395714Y-123785714D02*
X154062380Y-123785714D01*
X153490952Y-123785714D02*
X153443333Y-123738095D01*
X153395714Y-123642857D01*
X153395714Y-123500000D01*
X153443333Y-123404761D01*
X153538571Y-123357142D01*
X154062380Y-123357142D01*
X154062380Y-122452380D02*
X153538571Y-122452380D01*
X153443333Y-122500000D01*
X153395714Y-122595238D01*
X153395714Y-122785714D01*
X153443333Y-122880952D01*
X154014761Y-122452380D02*
X154062380Y-122547619D01*
X154062380Y-122785714D01*
X154014761Y-122880952D01*
X153919523Y-122928571D01*
X153824285Y-122928571D01*
X153729047Y-122880952D01*
X153681428Y-122785714D01*
X153681428Y-122547619D01*
X153633809Y-122452380D01*
X153395714Y-121976190D02*
X154062380Y-121976190D01*
X153490952Y-121976190D02*
X153443333Y-121928571D01*
X153395714Y-121833333D01*
X153395714Y-121690476D01*
X153443333Y-121595238D01*
X153538571Y-121547619D01*
X154062380Y-121547619D01*
X154062380Y-120928571D02*
X154014761Y-121023809D01*
X153919523Y-121071428D01*
X153062380Y-121071428D01*
X154062380Y-120404761D02*
X154014761Y-120500000D01*
X153967142Y-120547619D01*
X153871904Y-120595238D01*
X153586190Y-120595238D01*
X153490952Y-120547619D01*
X153443333Y-120500000D01*
X153395714Y-120404761D01*
X153395714Y-120261904D01*
X153443333Y-120166666D01*
X153490952Y-120119047D01*
X153586190Y-120071428D01*
X153871904Y-120071428D01*
X153967142Y-120119047D01*
X154014761Y-120166666D01*
X154062380Y-120261904D01*
X154062380Y-120404761D01*
X153395714Y-119214285D02*
X154205238Y-119214285D01*
X154300476Y-119261904D01*
X154348095Y-119309523D01*
X154395714Y-119404761D01*
X154395714Y-119547619D01*
X154348095Y-119642857D01*
X154014761Y-119214285D02*
X154062380Y-119309523D01*
X154062380Y-119500000D01*
X154014761Y-119595238D01*
X153967142Y-119642857D01*
X153871904Y-119690476D01*
X153586190Y-119690476D01*
X153490952Y-119642857D01*
X153443333Y-119595238D01*
X153395714Y-119500000D01*
X153395714Y-119309523D01*
X153443333Y-119214285D01*
X154062380Y-117976190D02*
X153062380Y-117976190D01*
X153062380Y-117595238D01*
X153110000Y-117500000D01*
X153157619Y-117452380D01*
X153252857Y-117404761D01*
X153395714Y-117404761D01*
X153490952Y-117452380D01*
X153538571Y-117500000D01*
X153586190Y-117595238D01*
X153586190Y-117976190D01*
X154062380Y-116833333D02*
X154014761Y-116928571D01*
X153967142Y-116976190D01*
X153871904Y-117023809D01*
X153586190Y-117023809D01*
X153490952Y-116976190D01*
X153443333Y-116928571D01*
X153395714Y-116833333D01*
X153395714Y-116690476D01*
X153443333Y-116595238D01*
X153490952Y-116547619D01*
X153586190Y-116500000D01*
X153871904Y-116500000D01*
X153967142Y-116547619D01*
X154014761Y-116595238D01*
X154062380Y-116690476D01*
X154062380Y-116833333D01*
X154062380Y-116071428D02*
X153395714Y-116071428D01*
X153586190Y-116071428D02*
X153490952Y-116023809D01*
X153443333Y-115976190D01*
X153395714Y-115880952D01*
X153395714Y-115785714D01*
X153395714Y-115595238D02*
X153395714Y-115214285D01*
X153062380Y-115452380D02*
X153919523Y-115452380D01*
X154014761Y-115404761D01*
X154062380Y-115309523D01*
X154062380Y-115214285D01*
X142056666Y-119452380D02*
X142056666Y-120166666D01*
X142009047Y-120309523D01*
X141913809Y-120404761D01*
X141770952Y-120452380D01*
X141675714Y-120452380D01*
X143009047Y-119452380D02*
X142532857Y-119452380D01*
X142485238Y-119928571D01*
X142532857Y-119880952D01*
X142628095Y-119833333D01*
X142866190Y-119833333D01*
X142961428Y-119880952D01*
X143009047Y-119928571D01*
X143056666Y-120023809D01*
X143056666Y-120261904D01*
X143009047Y-120357142D01*
X142961428Y-120404761D01*
X142866190Y-120452380D01*
X142628095Y-120452380D01*
X142532857Y-120404761D01*
X142485238Y-120357142D01*
%TO.C,J4*%
X110485714Y-113414761D02*
X110628571Y-113462380D01*
X110866666Y-113462380D01*
X110961904Y-113414761D01*
X111009523Y-113367142D01*
X111057142Y-113271904D01*
X111057142Y-113176666D01*
X111009523Y-113081428D01*
X110961904Y-113033809D01*
X110866666Y-112986190D01*
X110676190Y-112938571D01*
X110580952Y-112890952D01*
X110533333Y-112843333D01*
X110485714Y-112748095D01*
X110485714Y-112652857D01*
X110533333Y-112557619D01*
X110580952Y-112510000D01*
X110676190Y-112462380D01*
X110914285Y-112462380D01*
X111057142Y-112510000D01*
X111485714Y-113462380D02*
X111485714Y-112462380D01*
X111866666Y-112462380D01*
X111961904Y-112510000D01*
X112009523Y-112557619D01*
X112057142Y-112652857D01*
X112057142Y-112795714D01*
X112009523Y-112890952D01*
X111961904Y-112938571D01*
X111866666Y-112986190D01*
X111485714Y-112986190D01*
X112485714Y-113462380D02*
X112485714Y-112462380D01*
X113200000Y-113795714D02*
X113200000Y-112367142D01*
X113914285Y-113462380D02*
X113914285Y-112462380D01*
X114342857Y-112557619D02*
X114390476Y-112510000D01*
X114485714Y-112462380D01*
X114723809Y-112462380D01*
X114819047Y-112510000D01*
X114866666Y-112557619D01*
X114914285Y-112652857D01*
X114914285Y-112748095D01*
X114866666Y-112890952D01*
X114295238Y-113462380D01*
X114914285Y-113462380D01*
X115914285Y-113367142D02*
X115866666Y-113414761D01*
X115723809Y-113462380D01*
X115628571Y-113462380D01*
X115485714Y-113414761D01*
X115390476Y-113319523D01*
X115342857Y-113224285D01*
X115295238Y-113033809D01*
X115295238Y-112890952D01*
X115342857Y-112700476D01*
X115390476Y-112605238D01*
X115485714Y-112510000D01*
X115628571Y-112462380D01*
X115723809Y-112462380D01*
X115866666Y-112510000D01*
X115914285Y-112557619D01*
X112652380Y-105933333D02*
X113366666Y-105933333D01*
X113509523Y-105980952D01*
X113604761Y-106076190D01*
X113652380Y-106219047D01*
X113652380Y-106314285D01*
X112985714Y-105028571D02*
X113652380Y-105028571D01*
X112604761Y-105266666D02*
X113319047Y-105504761D01*
X113319047Y-104885714D01*
%TO.C,J3*%
X197428571Y-87523809D02*
X197476190Y-87380952D01*
X197523809Y-87333333D01*
X197619047Y-87285714D01*
X197761904Y-87285714D01*
X197857142Y-87333333D01*
X197904761Y-87380952D01*
X197952380Y-87476190D01*
X197952380Y-87857142D01*
X196952380Y-87857142D01*
X196952380Y-87523809D01*
X197000000Y-87428571D01*
X197047619Y-87380952D01*
X197142857Y-87333333D01*
X197238095Y-87333333D01*
X197333333Y-87380952D01*
X197380952Y-87428571D01*
X197428571Y-87523809D01*
X197428571Y-87857142D01*
X197952380Y-86428571D02*
X197428571Y-86428571D01*
X197333333Y-86476190D01*
X197285714Y-86571428D01*
X197285714Y-86761904D01*
X197333333Y-86857142D01*
X197904761Y-86428571D02*
X197952380Y-86523809D01*
X197952380Y-86761904D01*
X197904761Y-86857142D01*
X197809523Y-86904761D01*
X197714285Y-86904761D01*
X197619047Y-86857142D01*
X197571428Y-86761904D01*
X197571428Y-86523809D01*
X197523809Y-86428571D01*
X197952380Y-85952380D02*
X197285714Y-85952380D01*
X197476190Y-85952380D02*
X197380952Y-85904761D01*
X197333333Y-85857142D01*
X197285714Y-85761904D01*
X197285714Y-85666666D01*
X197952380Y-85333333D02*
X197285714Y-85333333D01*
X197476190Y-85333333D02*
X197380952Y-85285714D01*
X197333333Y-85238095D01*
X197285714Y-85142857D01*
X197285714Y-85047619D01*
X197904761Y-84333333D02*
X197952380Y-84428571D01*
X197952380Y-84619047D01*
X197904761Y-84714285D01*
X197809523Y-84761904D01*
X197428571Y-84761904D01*
X197333333Y-84714285D01*
X197285714Y-84619047D01*
X197285714Y-84428571D01*
X197333333Y-84333333D01*
X197428571Y-84285714D01*
X197523809Y-84285714D01*
X197619047Y-84761904D01*
X197952380Y-83714285D02*
X197904761Y-83809523D01*
X197809523Y-83857142D01*
X196952380Y-83857142D01*
X198047619Y-83571428D02*
X198047619Y-82809523D01*
X196952380Y-82285714D02*
X197666666Y-82285714D01*
X197809523Y-82333333D01*
X197904761Y-82428571D01*
X197952380Y-82571428D01*
X197952380Y-82666666D01*
X197952380Y-81380952D02*
X197428571Y-81380952D01*
X197333333Y-81428571D01*
X197285714Y-81523809D01*
X197285714Y-81714285D01*
X197333333Y-81809523D01*
X197904761Y-81380952D02*
X197952380Y-81476190D01*
X197952380Y-81714285D01*
X197904761Y-81809523D01*
X197809523Y-81857142D01*
X197714285Y-81857142D01*
X197619047Y-81809523D01*
X197571428Y-81714285D01*
X197571428Y-81476190D01*
X197523809Y-81380952D01*
X197904761Y-80476190D02*
X197952380Y-80571428D01*
X197952380Y-80761904D01*
X197904761Y-80857142D01*
X197857142Y-80904761D01*
X197761904Y-80952380D01*
X197476190Y-80952380D01*
X197380952Y-80904761D01*
X197333333Y-80857142D01*
X197285714Y-80761904D01*
X197285714Y-80571428D01*
X197333333Y-80476190D01*
X197952380Y-80047619D02*
X196952380Y-80047619D01*
X197571428Y-79952380D02*
X197952380Y-79666666D01*
X197285714Y-79666666D02*
X197666666Y-80047619D01*
X198047619Y-79476190D02*
X198047619Y-78714285D01*
X197904761Y-78523809D02*
X197952380Y-78380952D01*
X197952380Y-78142857D01*
X197904761Y-78047619D01*
X197857142Y-78000000D01*
X197761904Y-77952380D01*
X197666666Y-77952380D01*
X197571428Y-78000000D01*
X197523809Y-78047619D01*
X197476190Y-78142857D01*
X197428571Y-78333333D01*
X197380952Y-78428571D01*
X197333333Y-78476190D01*
X197238095Y-78523809D01*
X197142857Y-78523809D01*
X197047619Y-78476190D01*
X197000000Y-78428571D01*
X196952380Y-78333333D01*
X196952380Y-78095238D01*
X197000000Y-77952380D01*
X197285714Y-77619047D02*
X197952380Y-77428571D01*
X197476190Y-77238095D01*
X197952380Y-77047619D01*
X197285714Y-76857142D01*
X197952380Y-76476190D02*
X197285714Y-76476190D01*
X196952380Y-76476190D02*
X197000000Y-76523809D01*
X197047619Y-76476190D01*
X197000000Y-76428571D01*
X196952380Y-76476190D01*
X197047619Y-76476190D01*
X197285714Y-76142857D02*
X197285714Y-75761904D01*
X196952380Y-76000000D02*
X197809523Y-76000000D01*
X197904761Y-75952380D01*
X197952380Y-75857142D01*
X197952380Y-75761904D01*
X197904761Y-75000000D02*
X197952380Y-75095238D01*
X197952380Y-75285714D01*
X197904761Y-75380952D01*
X197857142Y-75428571D01*
X197761904Y-75476190D01*
X197476190Y-75476190D01*
X197380952Y-75428571D01*
X197333333Y-75380952D01*
X197285714Y-75285714D01*
X197285714Y-75095238D01*
X197333333Y-75000000D01*
X197952380Y-74571428D02*
X196952380Y-74571428D01*
X197952380Y-74142857D02*
X197428571Y-74142857D01*
X197333333Y-74190476D01*
X197285714Y-74285714D01*
X197285714Y-74428571D01*
X197333333Y-74523809D01*
X197380952Y-74571428D01*
X188952380Y-81333333D02*
X189666666Y-81333333D01*
X189809523Y-81380952D01*
X189904761Y-81476190D01*
X189952380Y-81619047D01*
X189952380Y-81714285D01*
X188952380Y-80952380D02*
X188952380Y-80333333D01*
X189333333Y-80666666D01*
X189333333Y-80523809D01*
X189380952Y-80428571D01*
X189428571Y-80380952D01*
X189523809Y-80333333D01*
X189761904Y-80333333D01*
X189857142Y-80380952D01*
X189904761Y-80428571D01*
X189952380Y-80523809D01*
X189952380Y-80809523D01*
X189904761Y-80904761D01*
X189857142Y-80952380D01*
%TO.C,J2*%
X198427380Y-114166666D02*
X197427380Y-114166666D01*
X198141666Y-113833333D01*
X197427380Y-113500000D01*
X198427380Y-113500000D01*
X198427380Y-112880952D02*
X198379761Y-112976190D01*
X198332142Y-113023809D01*
X198236904Y-113071428D01*
X197951190Y-113071428D01*
X197855952Y-113023809D01*
X197808333Y-112976190D01*
X197760714Y-112880952D01*
X197760714Y-112738095D01*
X197808333Y-112642857D01*
X197855952Y-112595238D01*
X197951190Y-112547619D01*
X198236904Y-112547619D01*
X198332142Y-112595238D01*
X198379761Y-112642857D01*
X198427380Y-112738095D01*
X198427380Y-112880952D01*
X198427380Y-111976190D02*
X198379761Y-112071428D01*
X198284523Y-112119047D01*
X197427380Y-112119047D01*
X198379761Y-111214285D02*
X198427380Y-111309523D01*
X198427380Y-111500000D01*
X198379761Y-111595238D01*
X198284523Y-111642857D01*
X197903571Y-111642857D01*
X197808333Y-111595238D01*
X197760714Y-111500000D01*
X197760714Y-111309523D01*
X197808333Y-111214285D01*
X197903571Y-111166666D01*
X197998809Y-111166666D01*
X198094047Y-111642857D01*
X198427380Y-110833333D02*
X197760714Y-110309523D01*
X197760714Y-110833333D02*
X198427380Y-110309523D01*
X198522619Y-110166666D02*
X198522619Y-109404761D01*
X197760714Y-108738095D02*
X198427380Y-108738095D01*
X197379761Y-108976190D02*
X198094047Y-109214285D01*
X198094047Y-108595238D01*
X197427380Y-108309523D02*
X197427380Y-107642857D01*
X198427380Y-108071428D01*
X197427380Y-107357142D02*
X197427380Y-106738095D01*
X197808333Y-107071428D01*
X197808333Y-106928571D01*
X197855952Y-106833333D01*
X197903571Y-106785714D01*
X197998809Y-106738095D01*
X198236904Y-106738095D01*
X198332142Y-106785714D01*
X198379761Y-106833333D01*
X198427380Y-106928571D01*
X198427380Y-107214285D01*
X198379761Y-107309523D01*
X198332142Y-107357142D01*
X197760714Y-105880952D02*
X198427380Y-105880952D01*
X197379761Y-106119047D02*
X198094047Y-106357142D01*
X198094047Y-105738095D01*
X197427380Y-104928571D02*
X197427380Y-105119047D01*
X197475000Y-105214285D01*
X197522619Y-105261904D01*
X197665476Y-105357142D01*
X197855952Y-105404761D01*
X198236904Y-105404761D01*
X198332142Y-105357142D01*
X198379761Y-105309523D01*
X198427380Y-105214285D01*
X198427380Y-105023809D01*
X198379761Y-104928571D01*
X198332142Y-104880952D01*
X198236904Y-104833333D01*
X197998809Y-104833333D01*
X197903571Y-104880952D01*
X197855952Y-104928571D01*
X197808333Y-105023809D01*
X197808333Y-105214285D01*
X197855952Y-105309523D01*
X197903571Y-105357142D01*
X197998809Y-105404761D01*
X198046428Y-104404761D02*
X198046428Y-103642857D01*
X197427380Y-102976190D02*
X197427380Y-102880952D01*
X197475000Y-102785714D01*
X197522619Y-102738095D01*
X197617857Y-102690476D01*
X197808333Y-102642857D01*
X198046428Y-102642857D01*
X198236904Y-102690476D01*
X198332142Y-102738095D01*
X198379761Y-102785714D01*
X198427380Y-102880952D01*
X198427380Y-102976190D01*
X198379761Y-103071428D01*
X198332142Y-103119047D01*
X198236904Y-103166666D01*
X198046428Y-103214285D01*
X197808333Y-103214285D01*
X197617857Y-103166666D01*
X197522619Y-103119047D01*
X197475000Y-103071428D01*
X197427380Y-102976190D01*
X197427380Y-102023809D02*
X197427380Y-101928571D01*
X197475000Y-101833333D01*
X197522619Y-101785714D01*
X197617857Y-101738095D01*
X197808333Y-101690476D01*
X198046428Y-101690476D01*
X198236904Y-101738095D01*
X198332142Y-101785714D01*
X198379761Y-101833333D01*
X198427380Y-101928571D01*
X198427380Y-102023809D01*
X198379761Y-102119047D01*
X198332142Y-102166666D01*
X198236904Y-102214285D01*
X198046428Y-102261904D01*
X197808333Y-102261904D01*
X197617857Y-102214285D01*
X197522619Y-102166666D01*
X197475000Y-102119047D01*
X197427380Y-102023809D01*
X197427380Y-101071428D02*
X197427380Y-100976190D01*
X197475000Y-100880952D01*
X197522619Y-100833333D01*
X197617857Y-100785714D01*
X197808333Y-100738095D01*
X198046428Y-100738095D01*
X198236904Y-100785714D01*
X198332142Y-100833333D01*
X198379761Y-100880952D01*
X198427380Y-100976190D01*
X198427380Y-101071428D01*
X198379761Y-101166666D01*
X198332142Y-101214285D01*
X198236904Y-101261904D01*
X198046428Y-101309523D01*
X197808333Y-101309523D01*
X197617857Y-101261904D01*
X197522619Y-101214285D01*
X197475000Y-101166666D01*
X197427380Y-101071428D01*
X198427380Y-99785714D02*
X198427380Y-100357142D01*
X198427380Y-100071428D02*
X197427380Y-100071428D01*
X197570238Y-100166666D01*
X197665476Y-100261904D01*
X197713095Y-100357142D01*
X194027380Y-107333333D02*
X194741666Y-107333333D01*
X194884523Y-107380952D01*
X194979761Y-107476190D01*
X195027380Y-107619047D01*
X195027380Y-107714285D01*
X194122619Y-106904761D02*
X194075000Y-106857142D01*
X194027380Y-106761904D01*
X194027380Y-106523809D01*
X194075000Y-106428571D01*
X194122619Y-106380952D01*
X194217857Y-106333333D01*
X194313095Y-106333333D01*
X194455952Y-106380952D01*
X195027380Y-106952380D01*
X195027380Y-106333333D01*
%TO.C,J1*%
X105502142Y-78007142D02*
X105454523Y-78054761D01*
X105311666Y-78102380D01*
X105216428Y-78102380D01*
X105073571Y-78054761D01*
X104978333Y-77959523D01*
X104930714Y-77864285D01*
X104883095Y-77673809D01*
X104883095Y-77530952D01*
X104930714Y-77340476D01*
X104978333Y-77245238D01*
X105073571Y-77150000D01*
X105216428Y-77102380D01*
X105311666Y-77102380D01*
X105454523Y-77150000D01*
X105502142Y-77197619D01*
X106073571Y-78102380D02*
X105978333Y-78054761D01*
X105930714Y-78007142D01*
X105883095Y-77911904D01*
X105883095Y-77626190D01*
X105930714Y-77530952D01*
X105978333Y-77483333D01*
X106073571Y-77435714D01*
X106216428Y-77435714D01*
X106311666Y-77483333D01*
X106359285Y-77530952D01*
X106406904Y-77626190D01*
X106406904Y-77911904D01*
X106359285Y-78007142D01*
X106311666Y-78054761D01*
X106216428Y-78102380D01*
X106073571Y-78102380D01*
X106835476Y-77435714D02*
X106835476Y-78102380D01*
X106835476Y-77530952D02*
X106883095Y-77483333D01*
X106978333Y-77435714D01*
X107121190Y-77435714D01*
X107216428Y-77483333D01*
X107264047Y-77578571D01*
X107264047Y-78102380D01*
X107740238Y-77435714D02*
X107740238Y-78102380D01*
X107740238Y-77530952D02*
X107787857Y-77483333D01*
X107883095Y-77435714D01*
X108025952Y-77435714D01*
X108121190Y-77483333D01*
X108168809Y-77578571D01*
X108168809Y-78102380D01*
X108406904Y-78197619D02*
X109168809Y-78197619D01*
X109597380Y-77102380D02*
X109692619Y-77102380D01*
X109787857Y-77150000D01*
X109835476Y-77197619D01*
X109883095Y-77292857D01*
X109930714Y-77483333D01*
X109930714Y-77721428D01*
X109883095Y-77911904D01*
X109835476Y-78007142D01*
X109787857Y-78054761D01*
X109692619Y-78102380D01*
X109597380Y-78102380D01*
X109502142Y-78054761D01*
X109454523Y-78007142D01*
X109406904Y-77911904D01*
X109359285Y-77721428D01*
X109359285Y-77483333D01*
X109406904Y-77292857D01*
X109454523Y-77197619D01*
X109502142Y-77150000D01*
X109597380Y-77102380D01*
X110311666Y-77197619D02*
X110359285Y-77150000D01*
X110454523Y-77102380D01*
X110692619Y-77102380D01*
X110787857Y-77150000D01*
X110835476Y-77197619D01*
X110883095Y-77292857D01*
X110883095Y-77388095D01*
X110835476Y-77530952D01*
X110264047Y-78102380D01*
X110883095Y-78102380D01*
X111216428Y-78102380D02*
X111740238Y-77435714D01*
X111216428Y-77435714D02*
X111740238Y-78102380D01*
X112311666Y-77102380D02*
X112406904Y-77102380D01*
X112502142Y-77150000D01*
X112549761Y-77197619D01*
X112597380Y-77292857D01*
X112645000Y-77483333D01*
X112645000Y-77721428D01*
X112597380Y-77911904D01*
X112549761Y-78007142D01*
X112502142Y-78054761D01*
X112406904Y-78102380D01*
X112311666Y-78102380D01*
X112216428Y-78054761D01*
X112168809Y-78007142D01*
X112121190Y-77911904D01*
X112073571Y-77721428D01*
X112073571Y-77483333D01*
X112121190Y-77292857D01*
X112168809Y-77197619D01*
X112216428Y-77150000D01*
X112311666Y-77102380D01*
X112978333Y-77102380D02*
X113597380Y-77102380D01*
X113264047Y-77483333D01*
X113406904Y-77483333D01*
X113502142Y-77530952D01*
X113549761Y-77578571D01*
X113597380Y-77673809D01*
X113597380Y-77911904D01*
X113549761Y-78007142D01*
X113502142Y-78054761D01*
X113406904Y-78102380D01*
X113121190Y-78102380D01*
X113025952Y-78054761D01*
X112978333Y-78007142D01*
X113787857Y-78197619D02*
X114549761Y-78197619D01*
X114978333Y-77102380D02*
X115168809Y-77102380D01*
X115264047Y-77150000D01*
X115359285Y-77245238D01*
X115406904Y-77435714D01*
X115406904Y-77769047D01*
X115359285Y-77959523D01*
X115264047Y-78054761D01*
X115168809Y-78102380D01*
X114978333Y-78102380D01*
X114883095Y-78054761D01*
X114787857Y-77959523D01*
X114740238Y-77769047D01*
X114740238Y-77435714D01*
X114787857Y-77245238D01*
X114883095Y-77150000D01*
X114978333Y-77102380D01*
X116264047Y-78102380D02*
X116264047Y-77102380D01*
X116264047Y-78054761D02*
X116168809Y-78102380D01*
X115978333Y-78102380D01*
X115883095Y-78054761D01*
X115835476Y-78007142D01*
X115787857Y-77911904D01*
X115787857Y-77626190D01*
X115835476Y-77530952D01*
X115883095Y-77483333D01*
X115978333Y-77435714D01*
X116168809Y-77435714D01*
X116264047Y-77483333D01*
X117168809Y-78102380D02*
X117168809Y-77102380D01*
X117168809Y-78054761D02*
X117073571Y-78102380D01*
X116883095Y-78102380D01*
X116787857Y-78054761D01*
X116740238Y-78007142D01*
X116692619Y-77911904D01*
X116692619Y-77626190D01*
X116740238Y-77530952D01*
X116787857Y-77483333D01*
X116883095Y-77435714D01*
X117073571Y-77435714D01*
X117168809Y-77483333D01*
X117406904Y-78197619D02*
X118168809Y-78197619D01*
X118406904Y-77578571D02*
X118740238Y-77578571D01*
X118883095Y-78102380D02*
X118406904Y-78102380D01*
X118406904Y-77102380D01*
X118883095Y-77102380D01*
X119216428Y-77435714D02*
X119454523Y-78102380D01*
X119692619Y-77435714D01*
X120454523Y-78054761D02*
X120359285Y-78102380D01*
X120168809Y-78102380D01*
X120073571Y-78054761D01*
X120025952Y-77959523D01*
X120025952Y-77578571D01*
X120073571Y-77483333D01*
X120168809Y-77435714D01*
X120359285Y-77435714D01*
X120454523Y-77483333D01*
X120502142Y-77578571D01*
X120502142Y-77673809D01*
X120025952Y-77769047D01*
X120930714Y-77435714D02*
X120930714Y-78102380D01*
X120930714Y-77530952D02*
X120978333Y-77483333D01*
X121073571Y-77435714D01*
X121216428Y-77435714D01*
X121311666Y-77483333D01*
X121359285Y-77578571D01*
X121359285Y-78102380D01*
X112942380Y-82793333D02*
X113656666Y-82793333D01*
X113799523Y-82840952D01*
X113894761Y-82936190D01*
X113942380Y-83079047D01*
X113942380Y-83174285D01*
X113942380Y-81793333D02*
X113942380Y-82364761D01*
X113942380Y-82079047D02*
X112942380Y-82079047D01*
X113085238Y-82174285D01*
X113180476Y-82269523D01*
X113228095Y-82364761D01*
%TO.C,H4*%
X108714285Y-75152380D02*
X108714285Y-74152380D01*
X109047619Y-74866666D01*
X109380952Y-74152380D01*
X109380952Y-75152380D01*
X110000000Y-75152380D02*
X109904761Y-75104761D01*
X109857142Y-75057142D01*
X109809523Y-74961904D01*
X109809523Y-74676190D01*
X109857142Y-74580952D01*
X109904761Y-74533333D01*
X110000000Y-74485714D01*
X110142857Y-74485714D01*
X110238095Y-74533333D01*
X110285714Y-74580952D01*
X110333333Y-74676190D01*
X110333333Y-74961904D01*
X110285714Y-75057142D01*
X110238095Y-75104761D01*
X110142857Y-75152380D01*
X110000000Y-75152380D01*
X111190476Y-74485714D02*
X111190476Y-75152380D01*
X110761904Y-74485714D02*
X110761904Y-75009523D01*
X110809523Y-75104761D01*
X110904761Y-75152380D01*
X111047619Y-75152380D01*
X111142857Y-75104761D01*
X111190476Y-75057142D01*
X111666666Y-74485714D02*
X111666666Y-75152380D01*
X111666666Y-74580952D02*
X111714285Y-74533333D01*
X111809523Y-74485714D01*
X111952380Y-74485714D01*
X112047619Y-74533333D01*
X112095238Y-74628571D01*
X112095238Y-75152380D01*
X112428571Y-74485714D02*
X112809523Y-74485714D01*
X112571428Y-74152380D02*
X112571428Y-75009523D01*
X112619047Y-75104761D01*
X112714285Y-75152380D01*
X112809523Y-75152380D01*
X113142857Y-75152380D02*
X113142857Y-74485714D01*
X113142857Y-74152380D02*
X113095238Y-74200000D01*
X113142857Y-74247619D01*
X113190476Y-74200000D01*
X113142857Y-74152380D01*
X113142857Y-74247619D01*
X113619047Y-74485714D02*
X113619047Y-75152380D01*
X113619047Y-74580952D02*
X113666666Y-74533333D01*
X113761904Y-74485714D01*
X113904761Y-74485714D01*
X114000000Y-74533333D01*
X114047619Y-74628571D01*
X114047619Y-75152380D01*
X114952380Y-74485714D02*
X114952380Y-75295238D01*
X114904761Y-75390476D01*
X114857142Y-75438095D01*
X114761904Y-75485714D01*
X114619047Y-75485714D01*
X114523809Y-75438095D01*
X114952380Y-75104761D02*
X114857142Y-75152380D01*
X114666666Y-75152380D01*
X114571428Y-75104761D01*
X114523809Y-75057142D01*
X114476190Y-74961904D01*
X114476190Y-74676190D01*
X114523809Y-74580952D01*
X114571428Y-74533333D01*
X114666666Y-74485714D01*
X114857142Y-74485714D01*
X114952380Y-74533333D01*
X115428571Y-75152380D02*
X115428571Y-74152380D01*
X115428571Y-74628571D02*
X116000000Y-74628571D01*
X116000000Y-75152380D02*
X116000000Y-74152380D01*
X116619047Y-75152380D02*
X116523809Y-75104761D01*
X116476190Y-75057142D01*
X116428571Y-74961904D01*
X116428571Y-74676190D01*
X116476190Y-74580952D01*
X116523809Y-74533333D01*
X116619047Y-74485714D01*
X116761904Y-74485714D01*
X116857142Y-74533333D01*
X116904761Y-74580952D01*
X116952380Y-74676190D01*
X116952380Y-74961904D01*
X116904761Y-75057142D01*
X116857142Y-75104761D01*
X116761904Y-75152380D01*
X116619047Y-75152380D01*
X117523809Y-75152380D02*
X117428571Y-75104761D01*
X117380952Y-75009523D01*
X117380952Y-74152380D01*
X118285714Y-75104761D02*
X118190476Y-75152380D01*
X118000000Y-75152380D01*
X117904761Y-75104761D01*
X117857142Y-75009523D01*
X117857142Y-74628571D01*
X117904761Y-74533333D01*
X118000000Y-74485714D01*
X118190476Y-74485714D01*
X118285714Y-74533333D01*
X118333333Y-74628571D01*
X118333333Y-74723809D01*
X117857142Y-74819047D01*
X113038095Y-71952380D02*
X113038095Y-70952380D01*
X113038095Y-71428571D02*
X113609523Y-71428571D01*
X113609523Y-71952380D02*
X113609523Y-70952380D01*
X114514285Y-71285714D02*
X114514285Y-71952380D01*
X114276190Y-70904761D02*
X114038095Y-71619047D01*
X114657142Y-71619047D01*
%TO.C,H3*%
X187714285Y-75152380D02*
X187714285Y-74152380D01*
X188047619Y-74866666D01*
X188380952Y-74152380D01*
X188380952Y-75152380D01*
X189000000Y-75152380D02*
X188904761Y-75104761D01*
X188857142Y-75057142D01*
X188809523Y-74961904D01*
X188809523Y-74676190D01*
X188857142Y-74580952D01*
X188904761Y-74533333D01*
X189000000Y-74485714D01*
X189142857Y-74485714D01*
X189238095Y-74533333D01*
X189285714Y-74580952D01*
X189333333Y-74676190D01*
X189333333Y-74961904D01*
X189285714Y-75057142D01*
X189238095Y-75104761D01*
X189142857Y-75152380D01*
X189000000Y-75152380D01*
X190190476Y-74485714D02*
X190190476Y-75152380D01*
X189761904Y-74485714D02*
X189761904Y-75009523D01*
X189809523Y-75104761D01*
X189904761Y-75152380D01*
X190047619Y-75152380D01*
X190142857Y-75104761D01*
X190190476Y-75057142D01*
X190666666Y-74485714D02*
X190666666Y-75152380D01*
X190666666Y-74580952D02*
X190714285Y-74533333D01*
X190809523Y-74485714D01*
X190952380Y-74485714D01*
X191047619Y-74533333D01*
X191095238Y-74628571D01*
X191095238Y-75152380D01*
X191428571Y-74485714D02*
X191809523Y-74485714D01*
X191571428Y-74152380D02*
X191571428Y-75009523D01*
X191619047Y-75104761D01*
X191714285Y-75152380D01*
X191809523Y-75152380D01*
X192142857Y-75152380D02*
X192142857Y-74485714D01*
X192142857Y-74152380D02*
X192095238Y-74200000D01*
X192142857Y-74247619D01*
X192190476Y-74200000D01*
X192142857Y-74152380D01*
X192142857Y-74247619D01*
X192619047Y-74485714D02*
X192619047Y-75152380D01*
X192619047Y-74580952D02*
X192666666Y-74533333D01*
X192761904Y-74485714D01*
X192904761Y-74485714D01*
X193000000Y-74533333D01*
X193047619Y-74628571D01*
X193047619Y-75152380D01*
X193952380Y-74485714D02*
X193952380Y-75295238D01*
X193904761Y-75390476D01*
X193857142Y-75438095D01*
X193761904Y-75485714D01*
X193619047Y-75485714D01*
X193523809Y-75438095D01*
X193952380Y-75104761D02*
X193857142Y-75152380D01*
X193666666Y-75152380D01*
X193571428Y-75104761D01*
X193523809Y-75057142D01*
X193476190Y-74961904D01*
X193476190Y-74676190D01*
X193523809Y-74580952D01*
X193571428Y-74533333D01*
X193666666Y-74485714D01*
X193857142Y-74485714D01*
X193952380Y-74533333D01*
X194428571Y-75152380D02*
X194428571Y-74152380D01*
X194428571Y-74628571D02*
X195000000Y-74628571D01*
X195000000Y-75152380D02*
X195000000Y-74152380D01*
X195619047Y-75152380D02*
X195523809Y-75104761D01*
X195476190Y-75057142D01*
X195428571Y-74961904D01*
X195428571Y-74676190D01*
X195476190Y-74580952D01*
X195523809Y-74533333D01*
X195619047Y-74485714D01*
X195761904Y-74485714D01*
X195857142Y-74533333D01*
X195904761Y-74580952D01*
X195952380Y-74676190D01*
X195952380Y-74961904D01*
X195904761Y-75057142D01*
X195857142Y-75104761D01*
X195761904Y-75152380D01*
X195619047Y-75152380D01*
X196523809Y-75152380D02*
X196428571Y-75104761D01*
X196380952Y-75009523D01*
X196380952Y-74152380D01*
X197285714Y-75104761D02*
X197190476Y-75152380D01*
X197000000Y-75152380D01*
X196904761Y-75104761D01*
X196857142Y-75009523D01*
X196857142Y-74628571D01*
X196904761Y-74533333D01*
X197000000Y-74485714D01*
X197190476Y-74485714D01*
X197285714Y-74533333D01*
X197333333Y-74628571D01*
X197333333Y-74723809D01*
X196857142Y-74819047D01*
X192038095Y-71952380D02*
X192038095Y-70952380D01*
X192038095Y-71428571D02*
X192609523Y-71428571D01*
X192609523Y-71952380D02*
X192609523Y-70952380D01*
X192990476Y-70952380D02*
X193609523Y-70952380D01*
X193276190Y-71333333D01*
X193419047Y-71333333D01*
X193514285Y-71380952D01*
X193561904Y-71428571D01*
X193609523Y-71523809D01*
X193609523Y-71761904D01*
X193561904Y-71857142D01*
X193514285Y-71904761D01*
X193419047Y-71952380D01*
X193133333Y-71952380D01*
X193038095Y-71904761D01*
X192990476Y-71857142D01*
%TO.C,H2*%
X187714285Y-122152380D02*
X187714285Y-121152380D01*
X188047619Y-121866666D01*
X188380952Y-121152380D01*
X188380952Y-122152380D01*
X189000000Y-122152380D02*
X188904761Y-122104761D01*
X188857142Y-122057142D01*
X188809523Y-121961904D01*
X188809523Y-121676190D01*
X188857142Y-121580952D01*
X188904761Y-121533333D01*
X189000000Y-121485714D01*
X189142857Y-121485714D01*
X189238095Y-121533333D01*
X189285714Y-121580952D01*
X189333333Y-121676190D01*
X189333333Y-121961904D01*
X189285714Y-122057142D01*
X189238095Y-122104761D01*
X189142857Y-122152380D01*
X189000000Y-122152380D01*
X190190476Y-121485714D02*
X190190476Y-122152380D01*
X189761904Y-121485714D02*
X189761904Y-122009523D01*
X189809523Y-122104761D01*
X189904761Y-122152380D01*
X190047619Y-122152380D01*
X190142857Y-122104761D01*
X190190476Y-122057142D01*
X190666666Y-121485714D02*
X190666666Y-122152380D01*
X190666666Y-121580952D02*
X190714285Y-121533333D01*
X190809523Y-121485714D01*
X190952380Y-121485714D01*
X191047619Y-121533333D01*
X191095238Y-121628571D01*
X191095238Y-122152380D01*
X191428571Y-121485714D02*
X191809523Y-121485714D01*
X191571428Y-121152380D02*
X191571428Y-122009523D01*
X191619047Y-122104761D01*
X191714285Y-122152380D01*
X191809523Y-122152380D01*
X192142857Y-122152380D02*
X192142857Y-121485714D01*
X192142857Y-121152380D02*
X192095238Y-121200000D01*
X192142857Y-121247619D01*
X192190476Y-121200000D01*
X192142857Y-121152380D01*
X192142857Y-121247619D01*
X192619047Y-121485714D02*
X192619047Y-122152380D01*
X192619047Y-121580952D02*
X192666666Y-121533333D01*
X192761904Y-121485714D01*
X192904761Y-121485714D01*
X193000000Y-121533333D01*
X193047619Y-121628571D01*
X193047619Y-122152380D01*
X193952380Y-121485714D02*
X193952380Y-122295238D01*
X193904761Y-122390476D01*
X193857142Y-122438095D01*
X193761904Y-122485714D01*
X193619047Y-122485714D01*
X193523809Y-122438095D01*
X193952380Y-122104761D02*
X193857142Y-122152380D01*
X193666666Y-122152380D01*
X193571428Y-122104761D01*
X193523809Y-122057142D01*
X193476190Y-121961904D01*
X193476190Y-121676190D01*
X193523809Y-121580952D01*
X193571428Y-121533333D01*
X193666666Y-121485714D01*
X193857142Y-121485714D01*
X193952380Y-121533333D01*
X194428571Y-122152380D02*
X194428571Y-121152380D01*
X194428571Y-121628571D02*
X195000000Y-121628571D01*
X195000000Y-122152380D02*
X195000000Y-121152380D01*
X195619047Y-122152380D02*
X195523809Y-122104761D01*
X195476190Y-122057142D01*
X195428571Y-121961904D01*
X195428571Y-121676190D01*
X195476190Y-121580952D01*
X195523809Y-121533333D01*
X195619047Y-121485714D01*
X195761904Y-121485714D01*
X195857142Y-121533333D01*
X195904761Y-121580952D01*
X195952380Y-121676190D01*
X195952380Y-121961904D01*
X195904761Y-122057142D01*
X195857142Y-122104761D01*
X195761904Y-122152380D01*
X195619047Y-122152380D01*
X196523809Y-122152380D02*
X196428571Y-122104761D01*
X196380952Y-122009523D01*
X196380952Y-121152380D01*
X197285714Y-122104761D02*
X197190476Y-122152380D01*
X197000000Y-122152380D01*
X196904761Y-122104761D01*
X196857142Y-122009523D01*
X196857142Y-121628571D01*
X196904761Y-121533333D01*
X197000000Y-121485714D01*
X197190476Y-121485714D01*
X197285714Y-121533333D01*
X197333333Y-121628571D01*
X197333333Y-121723809D01*
X196857142Y-121819047D01*
X192038095Y-118952380D02*
X192038095Y-117952380D01*
X192038095Y-118428571D02*
X192609523Y-118428571D01*
X192609523Y-118952380D02*
X192609523Y-117952380D01*
X193038095Y-118047619D02*
X193085714Y-118000000D01*
X193180952Y-117952380D01*
X193419047Y-117952380D01*
X193514285Y-118000000D01*
X193561904Y-118047619D01*
X193609523Y-118142857D01*
X193609523Y-118238095D01*
X193561904Y-118380952D01*
X192990476Y-118952380D01*
X193609523Y-118952380D01*
%TO.C,H1*%
X108714285Y-122152380D02*
X108714285Y-121152380D01*
X109047619Y-121866666D01*
X109380952Y-121152380D01*
X109380952Y-122152380D01*
X110000000Y-122152380D02*
X109904761Y-122104761D01*
X109857142Y-122057142D01*
X109809523Y-121961904D01*
X109809523Y-121676190D01*
X109857142Y-121580952D01*
X109904761Y-121533333D01*
X110000000Y-121485714D01*
X110142857Y-121485714D01*
X110238095Y-121533333D01*
X110285714Y-121580952D01*
X110333333Y-121676190D01*
X110333333Y-121961904D01*
X110285714Y-122057142D01*
X110238095Y-122104761D01*
X110142857Y-122152380D01*
X110000000Y-122152380D01*
X111190476Y-121485714D02*
X111190476Y-122152380D01*
X110761904Y-121485714D02*
X110761904Y-122009523D01*
X110809523Y-122104761D01*
X110904761Y-122152380D01*
X111047619Y-122152380D01*
X111142857Y-122104761D01*
X111190476Y-122057142D01*
X111666666Y-121485714D02*
X111666666Y-122152380D01*
X111666666Y-121580952D02*
X111714285Y-121533333D01*
X111809523Y-121485714D01*
X111952380Y-121485714D01*
X112047619Y-121533333D01*
X112095238Y-121628571D01*
X112095238Y-122152380D01*
X112428571Y-121485714D02*
X112809523Y-121485714D01*
X112571428Y-121152380D02*
X112571428Y-122009523D01*
X112619047Y-122104761D01*
X112714285Y-122152380D01*
X112809523Y-122152380D01*
X113142857Y-122152380D02*
X113142857Y-121485714D01*
X113142857Y-121152380D02*
X113095238Y-121200000D01*
X113142857Y-121247619D01*
X113190476Y-121200000D01*
X113142857Y-121152380D01*
X113142857Y-121247619D01*
X113619047Y-121485714D02*
X113619047Y-122152380D01*
X113619047Y-121580952D02*
X113666666Y-121533333D01*
X113761904Y-121485714D01*
X113904761Y-121485714D01*
X114000000Y-121533333D01*
X114047619Y-121628571D01*
X114047619Y-122152380D01*
X114952380Y-121485714D02*
X114952380Y-122295238D01*
X114904761Y-122390476D01*
X114857142Y-122438095D01*
X114761904Y-122485714D01*
X114619047Y-122485714D01*
X114523809Y-122438095D01*
X114952380Y-122104761D02*
X114857142Y-122152380D01*
X114666666Y-122152380D01*
X114571428Y-122104761D01*
X114523809Y-122057142D01*
X114476190Y-121961904D01*
X114476190Y-121676190D01*
X114523809Y-121580952D01*
X114571428Y-121533333D01*
X114666666Y-121485714D01*
X114857142Y-121485714D01*
X114952380Y-121533333D01*
X115428571Y-122152380D02*
X115428571Y-121152380D01*
X115428571Y-121628571D02*
X116000000Y-121628571D01*
X116000000Y-122152380D02*
X116000000Y-121152380D01*
X116619047Y-122152380D02*
X116523809Y-122104761D01*
X116476190Y-122057142D01*
X116428571Y-121961904D01*
X116428571Y-121676190D01*
X116476190Y-121580952D01*
X116523809Y-121533333D01*
X116619047Y-121485714D01*
X116761904Y-121485714D01*
X116857142Y-121533333D01*
X116904761Y-121580952D01*
X116952380Y-121676190D01*
X116952380Y-121961904D01*
X116904761Y-122057142D01*
X116857142Y-122104761D01*
X116761904Y-122152380D01*
X116619047Y-122152380D01*
X117523809Y-122152380D02*
X117428571Y-122104761D01*
X117380952Y-122009523D01*
X117380952Y-121152380D01*
X118285714Y-122104761D02*
X118190476Y-122152380D01*
X118000000Y-122152380D01*
X117904761Y-122104761D01*
X117857142Y-122009523D01*
X117857142Y-121628571D01*
X117904761Y-121533333D01*
X118000000Y-121485714D01*
X118190476Y-121485714D01*
X118285714Y-121533333D01*
X118333333Y-121628571D01*
X118333333Y-121723809D01*
X117857142Y-121819047D01*
X113038095Y-118952380D02*
X113038095Y-117952380D01*
X113038095Y-118428571D02*
X113609523Y-118428571D01*
X113609523Y-118952380D02*
X113609523Y-117952380D01*
X114609523Y-118952380D02*
X114038095Y-118952380D01*
X114323809Y-118952380D02*
X114323809Y-117952380D01*
X114228571Y-118095238D01*
X114133333Y-118190476D01*
X114038095Y-118238095D01*
%TO.C,F1*%
X191944761Y-104500000D02*
X191992380Y-104357142D01*
X191992380Y-104119047D01*
X191944761Y-104023809D01*
X191897142Y-103976190D01*
X191801904Y-103928571D01*
X191706666Y-103928571D01*
X191611428Y-103976190D01*
X191563809Y-104023809D01*
X191516190Y-104119047D01*
X191468571Y-104309523D01*
X191420952Y-104404761D01*
X191373333Y-104452380D01*
X191278095Y-104500000D01*
X191182857Y-104500000D01*
X191087619Y-104452380D01*
X191040000Y-104404761D01*
X190992380Y-104309523D01*
X190992380Y-104071428D01*
X191040000Y-103928571D01*
X191992380Y-103500000D02*
X190992380Y-103500000D01*
X191706666Y-103166666D01*
X190992380Y-102833333D01*
X191992380Y-102833333D01*
X191992380Y-102357142D02*
X190992380Y-102357142D01*
X190992380Y-102119047D01*
X191040000Y-101976190D01*
X191135238Y-101880952D01*
X191230476Y-101833333D01*
X191420952Y-101785714D01*
X191563809Y-101785714D01*
X191754285Y-101833333D01*
X191849523Y-101880952D01*
X191944761Y-101976190D01*
X191992380Y-102119047D01*
X191992380Y-102357142D01*
X190992380Y-101166666D02*
X190992380Y-101071428D01*
X191040000Y-100976190D01*
X191087619Y-100928571D01*
X191182857Y-100880952D01*
X191373333Y-100833333D01*
X191611428Y-100833333D01*
X191801904Y-100880952D01*
X191897142Y-100928571D01*
X191944761Y-100976190D01*
X191992380Y-101071428D01*
X191992380Y-101166666D01*
X191944761Y-101261904D01*
X191897142Y-101309523D01*
X191801904Y-101357142D01*
X191611428Y-101404761D01*
X191373333Y-101404761D01*
X191182857Y-101357142D01*
X191087619Y-101309523D01*
X191040000Y-101261904D01*
X190992380Y-101166666D01*
X190992380Y-99976190D02*
X190992380Y-100166666D01*
X191040000Y-100261904D01*
X191087619Y-100309523D01*
X191230476Y-100404761D01*
X191420952Y-100452380D01*
X191801904Y-100452380D01*
X191897142Y-100404761D01*
X191944761Y-100357142D01*
X191992380Y-100261904D01*
X191992380Y-100071428D01*
X191944761Y-99976190D01*
X191897142Y-99928571D01*
X191801904Y-99880952D01*
X191563809Y-99880952D01*
X191468571Y-99928571D01*
X191420952Y-99976190D01*
X191373333Y-100071428D01*
X191373333Y-100261904D01*
X191420952Y-100357142D01*
X191468571Y-100404761D01*
X191563809Y-100452380D01*
X190992380Y-99261904D02*
X190992380Y-99166666D01*
X191040000Y-99071428D01*
X191087619Y-99023809D01*
X191182857Y-98976190D01*
X191373333Y-98928571D01*
X191611428Y-98928571D01*
X191801904Y-98976190D01*
X191897142Y-99023809D01*
X191944761Y-99071428D01*
X191992380Y-99166666D01*
X191992380Y-99261904D01*
X191944761Y-99357142D01*
X191897142Y-99404761D01*
X191801904Y-99452380D01*
X191611428Y-99500000D01*
X191373333Y-99500000D01*
X191182857Y-99452380D01*
X191087619Y-99404761D01*
X191040000Y-99357142D01*
X190992380Y-99261904D01*
X190992380Y-98595238D02*
X190992380Y-97976190D01*
X191373333Y-98309523D01*
X191373333Y-98166666D01*
X191420952Y-98071428D01*
X191468571Y-98023809D01*
X191563809Y-97976190D01*
X191801904Y-97976190D01*
X191897142Y-98023809D01*
X191944761Y-98071428D01*
X191992380Y-98166666D01*
X191992380Y-98452380D01*
X191944761Y-98547619D01*
X191897142Y-98595238D01*
X191992380Y-97547619D02*
X190992380Y-97547619D01*
X190992380Y-97166666D01*
X191040000Y-97071428D01*
X191087619Y-97023809D01*
X191182857Y-96976190D01*
X191325714Y-96976190D01*
X191420952Y-97023809D01*
X191468571Y-97071428D01*
X191516190Y-97166666D01*
X191516190Y-97547619D01*
X190992380Y-96357142D02*
X190992380Y-96261904D01*
X191040000Y-96166666D01*
X191087619Y-96119047D01*
X191182857Y-96071428D01*
X191373333Y-96023809D01*
X191611428Y-96023809D01*
X191801904Y-96071428D01*
X191897142Y-96119047D01*
X191944761Y-96166666D01*
X191992380Y-96261904D01*
X191992380Y-96357142D01*
X191944761Y-96452380D01*
X191897142Y-96500000D01*
X191801904Y-96547619D01*
X191611428Y-96595238D01*
X191373333Y-96595238D01*
X191182857Y-96547619D01*
X191087619Y-96500000D01*
X191040000Y-96452380D01*
X190992380Y-96357142D01*
X190992380Y-95119047D02*
X190992380Y-95595238D01*
X191468571Y-95642857D01*
X191420952Y-95595238D01*
X191373333Y-95500000D01*
X191373333Y-95261904D01*
X191420952Y-95166666D01*
X191468571Y-95119047D01*
X191563809Y-95071428D01*
X191801904Y-95071428D01*
X191897142Y-95119047D01*
X191944761Y-95166666D01*
X191992380Y-95261904D01*
X191992380Y-95500000D01*
X191944761Y-95595238D01*
X191897142Y-95642857D01*
X190992380Y-94452380D02*
X190992380Y-94357142D01*
X191040000Y-94261904D01*
X191087619Y-94214285D01*
X191182857Y-94166666D01*
X191373333Y-94119047D01*
X191611428Y-94119047D01*
X191801904Y-94166666D01*
X191897142Y-94214285D01*
X191944761Y-94261904D01*
X191992380Y-94357142D01*
X191992380Y-94452380D01*
X191944761Y-94547619D01*
X191897142Y-94595238D01*
X191801904Y-94642857D01*
X191611428Y-94690476D01*
X191373333Y-94690476D01*
X191182857Y-94642857D01*
X191087619Y-94595238D01*
X191040000Y-94547619D01*
X190992380Y-94452380D01*
X190992380Y-93833333D02*
X190992380Y-93261904D01*
X191992380Y-93547619D02*
X190992380Y-93547619D01*
X191468571Y-92595238D02*
X191468571Y-92928571D01*
X191992380Y-92928571D02*
X190992380Y-92928571D01*
X190992380Y-92452380D01*
D15*
X193154285Y-98666666D02*
X193154285Y-98833333D01*
X193416190Y-98833333D02*
X192916190Y-98833333D01*
X192916190Y-98595238D01*
X193416190Y-98142857D02*
X193416190Y-98428571D01*
X193416190Y-98285714D02*
X192916190Y-98285714D01*
X192987619Y-98333333D01*
X193035238Y-98380952D01*
X193059047Y-98428571D01*
%TO.C,D5*%
D11*
X112946190Y-96328571D02*
X113422380Y-96328571D01*
X112422380Y-96661904D02*
X112946190Y-96328571D01*
X112422380Y-95995238D01*
X113374761Y-95280952D02*
X113422380Y-95376190D01*
X113422380Y-95566666D01*
X113374761Y-95661904D01*
X113279523Y-95709523D01*
X112898571Y-95709523D01*
X112803333Y-95661904D01*
X112755714Y-95566666D01*
X112755714Y-95376190D01*
X112803333Y-95280952D01*
X112898571Y-95233333D01*
X112993809Y-95233333D01*
X113089047Y-95709523D01*
X113422380Y-94661904D02*
X113374761Y-94757142D01*
X113279523Y-94804761D01*
X112422380Y-94804761D01*
X113422380Y-94138095D02*
X113374761Y-94233333D01*
X113279523Y-94280952D01*
X112422380Y-94280952D01*
X113422380Y-93614285D02*
X113374761Y-93709523D01*
X113327142Y-93757142D01*
X113231904Y-93804761D01*
X112946190Y-93804761D01*
X112850952Y-93757142D01*
X112803333Y-93709523D01*
X112755714Y-93614285D01*
X112755714Y-93471428D01*
X112803333Y-93376190D01*
X112850952Y-93328571D01*
X112946190Y-93280952D01*
X113231904Y-93280952D01*
X113327142Y-93328571D01*
X113374761Y-93376190D01*
X113422380Y-93471428D01*
X113422380Y-93614285D01*
X112755714Y-92947619D02*
X113422380Y-92757142D01*
X112946190Y-92566666D01*
X113422380Y-92376190D01*
X112755714Y-92185714D01*
D16*
X111913095Y-94584523D02*
X111663095Y-94584523D01*
X111663095Y-94525000D01*
X111675000Y-94489285D01*
X111698809Y-94465476D01*
X111722619Y-94453571D01*
X111770238Y-94441666D01*
X111805952Y-94441666D01*
X111853571Y-94453571D01*
X111877380Y-94465476D01*
X111901190Y-94489285D01*
X111913095Y-94525000D01*
X111913095Y-94584523D01*
X111663095Y-94215476D02*
X111663095Y-94334523D01*
X111782142Y-94346428D01*
X111770238Y-94334523D01*
X111758333Y-94310714D01*
X111758333Y-94251190D01*
X111770238Y-94227380D01*
X111782142Y-94215476D01*
X111805952Y-94203571D01*
X111865476Y-94203571D01*
X111889285Y-94215476D01*
X111901190Y-94227380D01*
X111913095Y-94251190D01*
X111913095Y-94310714D01*
X111901190Y-94334523D01*
X111889285Y-94346428D01*
%TO.C,D4*%
D11*
X170830000Y-87357142D02*
X170782380Y-87452380D01*
X170782380Y-87595238D01*
X170830000Y-87738095D01*
X170925238Y-87833333D01*
X171020476Y-87880952D01*
X171210952Y-87928571D01*
X171353809Y-87928571D01*
X171544285Y-87880952D01*
X171639523Y-87833333D01*
X171734761Y-87738095D01*
X171782380Y-87595238D01*
X171782380Y-87500000D01*
X171734761Y-87357142D01*
X171687142Y-87309523D01*
X171353809Y-87309523D01*
X171353809Y-87500000D01*
X171782380Y-86880952D02*
X171115714Y-86880952D01*
X171306190Y-86880952D02*
X171210952Y-86833333D01*
X171163333Y-86785714D01*
X171115714Y-86690476D01*
X171115714Y-86595238D01*
X171734761Y-85880952D02*
X171782380Y-85976190D01*
X171782380Y-86166666D01*
X171734761Y-86261904D01*
X171639523Y-86309523D01*
X171258571Y-86309523D01*
X171163333Y-86261904D01*
X171115714Y-86166666D01*
X171115714Y-85976190D01*
X171163333Y-85880952D01*
X171258571Y-85833333D01*
X171353809Y-85833333D01*
X171449047Y-86309523D01*
X171734761Y-85023809D02*
X171782380Y-85119047D01*
X171782380Y-85309523D01*
X171734761Y-85404761D01*
X171639523Y-85452380D01*
X171258571Y-85452380D01*
X171163333Y-85404761D01*
X171115714Y-85309523D01*
X171115714Y-85119047D01*
X171163333Y-85023809D01*
X171258571Y-84976190D01*
X171353809Y-84976190D01*
X171449047Y-85452380D01*
X171115714Y-84547619D02*
X171782380Y-84547619D01*
X171210952Y-84547619D02*
X171163333Y-84500000D01*
X171115714Y-84404761D01*
X171115714Y-84261904D01*
X171163333Y-84166666D01*
X171258571Y-84119047D01*
X171782380Y-84119047D01*
D16*
X172613095Y-86184523D02*
X172363095Y-86184523D01*
X172363095Y-86125000D01*
X172375000Y-86089285D01*
X172398809Y-86065476D01*
X172422619Y-86053571D01*
X172470238Y-86041666D01*
X172505952Y-86041666D01*
X172553571Y-86053571D01*
X172577380Y-86065476D01*
X172601190Y-86089285D01*
X172613095Y-86125000D01*
X172613095Y-86184523D01*
X172446428Y-85827380D02*
X172613095Y-85827380D01*
X172351190Y-85886904D02*
X172529761Y-85946428D01*
X172529761Y-85791666D01*
%TO.C,D3*%
D11*
X180142857Y-119170000D02*
X180047619Y-119122380D01*
X179904761Y-119122380D01*
X179761904Y-119170000D01*
X179666666Y-119265238D01*
X179619047Y-119360476D01*
X179571428Y-119550952D01*
X179571428Y-119693809D01*
X179619047Y-119884285D01*
X179666666Y-119979523D01*
X179761904Y-120074761D01*
X179904761Y-120122380D01*
X180000000Y-120122380D01*
X180142857Y-120074761D01*
X180190476Y-120027142D01*
X180190476Y-119693809D01*
X180000000Y-119693809D01*
X180619047Y-120122380D02*
X180619047Y-119455714D01*
X180619047Y-119646190D02*
X180666666Y-119550952D01*
X180714285Y-119503333D01*
X180809523Y-119455714D01*
X180904761Y-119455714D01*
X181619047Y-120074761D02*
X181523809Y-120122380D01*
X181333333Y-120122380D01*
X181238095Y-120074761D01*
X181190476Y-119979523D01*
X181190476Y-119598571D01*
X181238095Y-119503333D01*
X181333333Y-119455714D01*
X181523809Y-119455714D01*
X181619047Y-119503333D01*
X181666666Y-119598571D01*
X181666666Y-119693809D01*
X181190476Y-119789047D01*
X182476190Y-120074761D02*
X182380952Y-120122380D01*
X182190476Y-120122380D01*
X182095238Y-120074761D01*
X182047619Y-119979523D01*
X182047619Y-119598571D01*
X182095238Y-119503333D01*
X182190476Y-119455714D01*
X182380952Y-119455714D01*
X182476190Y-119503333D01*
X182523809Y-119598571D01*
X182523809Y-119693809D01*
X182047619Y-119789047D01*
X182952380Y-119455714D02*
X182952380Y-120122380D01*
X182952380Y-119550952D02*
X183000000Y-119503333D01*
X183095238Y-119455714D01*
X183238095Y-119455714D01*
X183333333Y-119503333D01*
X183380952Y-119598571D01*
X183380952Y-120122380D01*
D16*
X181315476Y-118613095D02*
X181315476Y-118363095D01*
X181375000Y-118363095D01*
X181410714Y-118375000D01*
X181434523Y-118398809D01*
X181446428Y-118422619D01*
X181458333Y-118470238D01*
X181458333Y-118505952D01*
X181446428Y-118553571D01*
X181434523Y-118577380D01*
X181410714Y-118601190D01*
X181375000Y-118613095D01*
X181315476Y-118613095D01*
X181541666Y-118363095D02*
X181696428Y-118363095D01*
X181613095Y-118458333D01*
X181648809Y-118458333D01*
X181672619Y-118470238D01*
X181684523Y-118482142D01*
X181696428Y-118505952D01*
X181696428Y-118565476D01*
X181684523Y-118589285D01*
X181672619Y-118601190D01*
X181648809Y-118613095D01*
X181577380Y-118613095D01*
X181553571Y-118601190D01*
X181541666Y-118589285D01*
%TO.C,D1*%
D11*
X183630952Y-90604761D02*
X183773809Y-90652380D01*
X184011904Y-90652380D01*
X184107142Y-90604761D01*
X184154761Y-90557142D01*
X184202380Y-90461904D01*
X184202380Y-90366666D01*
X184154761Y-90271428D01*
X184107142Y-90223809D01*
X184011904Y-90176190D01*
X183821428Y-90128571D01*
X183726190Y-90080952D01*
X183678571Y-90033333D01*
X183630952Y-89938095D01*
X183630952Y-89842857D01*
X183678571Y-89747619D01*
X183726190Y-89700000D01*
X183821428Y-89652380D01*
X184059523Y-89652380D01*
X184202380Y-89700000D01*
X184583333Y-90604761D02*
X184726190Y-90652380D01*
X184964285Y-90652380D01*
X185059523Y-90604761D01*
X185107142Y-90557142D01*
X185154761Y-90461904D01*
X185154761Y-90366666D01*
X185107142Y-90271428D01*
X185059523Y-90223809D01*
X184964285Y-90176190D01*
X184773809Y-90128571D01*
X184678571Y-90080952D01*
X184630952Y-90033333D01*
X184583333Y-89938095D01*
X184583333Y-89842857D01*
X184630952Y-89747619D01*
X184678571Y-89700000D01*
X184773809Y-89652380D01*
X185011904Y-89652380D01*
X185154761Y-89700000D01*
X186107142Y-90652380D02*
X185535714Y-90652380D01*
X185821428Y-90652380D02*
X185821428Y-89652380D01*
X185726190Y-89795238D01*
X185630952Y-89890476D01*
X185535714Y-89938095D01*
X186535714Y-90652380D02*
X186535714Y-89652380D01*
X186916666Y-89652380D01*
X187011904Y-89700000D01*
X187059523Y-89747619D01*
X187107142Y-89842857D01*
X187107142Y-89985714D01*
X187059523Y-90080952D01*
X187011904Y-90128571D01*
X186916666Y-90176190D01*
X186535714Y-90176190D01*
X187440476Y-89652380D02*
X188059523Y-89652380D01*
X187726190Y-90033333D01*
X187869047Y-90033333D01*
X187964285Y-90080952D01*
X188011904Y-90128571D01*
X188059523Y-90223809D01*
X188059523Y-90461904D01*
X188011904Y-90557142D01*
X187964285Y-90604761D01*
X187869047Y-90652380D01*
X187583333Y-90652380D01*
X187488095Y-90604761D01*
X187440476Y-90557142D01*
X188964285Y-90652380D02*
X188488095Y-90652380D01*
X188488095Y-89652380D01*
X182511904Y-88952380D02*
X182511904Y-87952380D01*
X182750000Y-87952380D01*
X182892857Y-88000000D01*
X182988095Y-88095238D01*
X183035714Y-88190476D01*
X183083333Y-88380952D01*
X183083333Y-88523809D01*
X183035714Y-88714285D01*
X182988095Y-88809523D01*
X182892857Y-88904761D01*
X182750000Y-88952380D01*
X182511904Y-88952380D01*
X184035714Y-88952380D02*
X183464285Y-88952380D01*
X183750000Y-88952380D02*
X183750000Y-87952380D01*
X183654761Y-88095238D01*
X183559523Y-88190476D01*
X183464285Y-88238095D01*
%TO.C,C9*%
X156395238Y-96665714D02*
X156395238Y-97332380D01*
X156157142Y-96284761D02*
X155919047Y-96999047D01*
X156538095Y-96999047D01*
X156919047Y-97237142D02*
X156966666Y-97284761D01*
X156919047Y-97332380D01*
X156871428Y-97284761D01*
X156919047Y-97237142D01*
X156919047Y-97332380D01*
X157300000Y-96332380D02*
X157966666Y-96332380D01*
X157538095Y-97332380D01*
X158776190Y-96665714D02*
X158776190Y-97332380D01*
X158347619Y-96665714D02*
X158347619Y-97189523D01*
X158395238Y-97284761D01*
X158490476Y-97332380D01*
X158633333Y-97332380D01*
X158728571Y-97284761D01*
X158776190Y-97237142D01*
X159585714Y-96808571D02*
X159252380Y-96808571D01*
X159252380Y-97332380D02*
X159252380Y-96332380D01*
X159728571Y-96332380D01*
D19*
X157733333Y-95542857D02*
X157714285Y-95561904D01*
X157657142Y-95580952D01*
X157619047Y-95580952D01*
X157561904Y-95561904D01*
X157523809Y-95523809D01*
X157504761Y-95485714D01*
X157485714Y-95409523D01*
X157485714Y-95352380D01*
X157504761Y-95276190D01*
X157523809Y-95238095D01*
X157561904Y-95200000D01*
X157619047Y-95180952D01*
X157657142Y-95180952D01*
X157714285Y-95200000D01*
X157733333Y-95219047D01*
X157923809Y-95580952D02*
X158000000Y-95580952D01*
X158038095Y-95561904D01*
X158057142Y-95542857D01*
X158095238Y-95485714D01*
X158114285Y-95409523D01*
X158114285Y-95257142D01*
X158095238Y-95219047D01*
X158076190Y-95200000D01*
X158038095Y-95180952D01*
X157961904Y-95180952D01*
X157923809Y-95200000D01*
X157904761Y-95219047D01*
X157885714Y-95257142D01*
X157885714Y-95352380D01*
X157904761Y-95390476D01*
X157923809Y-95409523D01*
X157961904Y-95428571D01*
X158038095Y-95428571D01*
X158076190Y-95409523D01*
X158095238Y-95390476D01*
X158114285Y-95352380D01*
%TO.C,C8*%
D11*
X137872380Y-97185119D02*
X137872380Y-97756547D01*
X137872380Y-97470833D02*
X136872380Y-97470833D01*
X137015238Y-97566071D01*
X137110476Y-97661309D01*
X137158095Y-97756547D01*
X136872380Y-96566071D02*
X136872380Y-96470833D01*
X136920000Y-96375595D01*
X136967619Y-96327976D01*
X137062857Y-96280357D01*
X137253333Y-96232738D01*
X137491428Y-96232738D01*
X137681904Y-96280357D01*
X137777142Y-96327976D01*
X137824761Y-96375595D01*
X137872380Y-96470833D01*
X137872380Y-96566071D01*
X137824761Y-96661309D01*
X137777142Y-96708928D01*
X137681904Y-96756547D01*
X137491428Y-96804166D01*
X137253333Y-96804166D01*
X137062857Y-96756547D01*
X136967619Y-96708928D01*
X136920000Y-96661309D01*
X136872380Y-96566071D01*
X136872380Y-95613690D02*
X136872380Y-95518452D01*
X136920000Y-95423214D01*
X136967619Y-95375595D01*
X137062857Y-95327976D01*
X137253333Y-95280357D01*
X137491428Y-95280357D01*
X137681904Y-95327976D01*
X137777142Y-95375595D01*
X137824761Y-95423214D01*
X137872380Y-95518452D01*
X137872380Y-95613690D01*
X137824761Y-95708928D01*
X137777142Y-95756547D01*
X137681904Y-95804166D01*
X137491428Y-95851785D01*
X137253333Y-95851785D01*
X137062857Y-95804166D01*
X136967619Y-95756547D01*
X136920000Y-95708928D01*
X136872380Y-95613690D01*
X137205714Y-94851785D02*
X137872380Y-94851785D01*
X137300952Y-94851785D02*
X137253333Y-94804166D01*
X137205714Y-94708928D01*
X137205714Y-94566071D01*
X137253333Y-94470833D01*
X137348571Y-94423214D01*
X137872380Y-94423214D01*
X137348571Y-93613690D02*
X137348571Y-93947023D01*
X137872380Y-93947023D02*
X136872380Y-93947023D01*
X136872380Y-93470833D01*
D15*
X139278571Y-95720833D02*
X139302380Y-95744642D01*
X139326190Y-95816071D01*
X139326190Y-95863690D01*
X139302380Y-95935119D01*
X139254761Y-95982738D01*
X139207142Y-96006547D01*
X139111904Y-96030357D01*
X139040476Y-96030357D01*
X138945238Y-96006547D01*
X138897619Y-95982738D01*
X138850000Y-95935119D01*
X138826190Y-95863690D01*
X138826190Y-95816071D01*
X138850000Y-95744642D01*
X138873809Y-95720833D01*
X139040476Y-95435119D02*
X139016666Y-95482738D01*
X138992857Y-95506547D01*
X138945238Y-95530357D01*
X138921428Y-95530357D01*
X138873809Y-95506547D01*
X138850000Y-95482738D01*
X138826190Y-95435119D01*
X138826190Y-95339880D01*
X138850000Y-95292261D01*
X138873809Y-95268452D01*
X138921428Y-95244642D01*
X138945238Y-95244642D01*
X138992857Y-95268452D01*
X139016666Y-95292261D01*
X139040476Y-95339880D01*
X139040476Y-95435119D01*
X139064285Y-95482738D01*
X139088095Y-95506547D01*
X139135714Y-95530357D01*
X139230952Y-95530357D01*
X139278571Y-95506547D01*
X139302380Y-95482738D01*
X139326190Y-95435119D01*
X139326190Y-95339880D01*
X139302380Y-95292261D01*
X139278571Y-95268452D01*
X139230952Y-95244642D01*
X139135714Y-95244642D01*
X139088095Y-95268452D01*
X139064285Y-95292261D01*
X139040476Y-95339880D01*
%TO.C,C7*%
D11*
X135822380Y-96245238D02*
X135822380Y-96816666D01*
X135822380Y-96530952D02*
X134822380Y-96530952D01*
X134965238Y-96626190D01*
X135060476Y-96721428D01*
X135108095Y-96816666D01*
X135155714Y-95388095D02*
X135822380Y-95388095D01*
X135155714Y-95816666D02*
X135679523Y-95816666D01*
X135774761Y-95769047D01*
X135822380Y-95673809D01*
X135822380Y-95530952D01*
X135774761Y-95435714D01*
X135727142Y-95388095D01*
X135298571Y-94578571D02*
X135298571Y-94911904D01*
X135822380Y-94911904D02*
X134822380Y-94911904D01*
X134822380Y-94435714D01*
D15*
X137228571Y-95733333D02*
X137252380Y-95757142D01*
X137276190Y-95828571D01*
X137276190Y-95876190D01*
X137252380Y-95947619D01*
X137204761Y-95995238D01*
X137157142Y-96019047D01*
X137061904Y-96042857D01*
X136990476Y-96042857D01*
X136895238Y-96019047D01*
X136847619Y-95995238D01*
X136800000Y-95947619D01*
X136776190Y-95876190D01*
X136776190Y-95828571D01*
X136800000Y-95757142D01*
X136823809Y-95733333D01*
X136776190Y-95566666D02*
X136776190Y-95233333D01*
X137276190Y-95447619D01*
%TO.C,C4*%
D11*
X181132380Y-115547619D02*
X181132380Y-116119047D01*
X181132380Y-115833333D02*
X180132380Y-115833333D01*
X180275238Y-115928571D01*
X180370476Y-116023809D01*
X180418095Y-116119047D01*
X180132380Y-114928571D02*
X180132380Y-114833333D01*
X180180000Y-114738095D01*
X180227619Y-114690476D01*
X180322857Y-114642857D01*
X180513333Y-114595238D01*
X180751428Y-114595238D01*
X180941904Y-114642857D01*
X181037142Y-114690476D01*
X181084761Y-114738095D01*
X181132380Y-114833333D01*
X181132380Y-114928571D01*
X181084761Y-115023809D01*
X181037142Y-115071428D01*
X180941904Y-115119047D01*
X180751428Y-115166666D01*
X180513333Y-115166666D01*
X180322857Y-115119047D01*
X180227619Y-115071428D01*
X180180000Y-115023809D01*
X180132380Y-114928571D01*
X180132380Y-113976190D02*
X180132380Y-113880952D01*
X180180000Y-113785714D01*
X180227619Y-113738095D01*
X180322857Y-113690476D01*
X180513333Y-113642857D01*
X180751428Y-113642857D01*
X180941904Y-113690476D01*
X181037142Y-113738095D01*
X181084761Y-113785714D01*
X181132380Y-113880952D01*
X181132380Y-113976190D01*
X181084761Y-114071428D01*
X181037142Y-114119047D01*
X180941904Y-114166666D01*
X180751428Y-114214285D01*
X180513333Y-114214285D01*
X180322857Y-114166666D01*
X180227619Y-114119047D01*
X180180000Y-114071428D01*
X180132380Y-113976190D01*
X180465714Y-113214285D02*
X181132380Y-113214285D01*
X180560952Y-113214285D02*
X180513333Y-113166666D01*
X180465714Y-113071428D01*
X180465714Y-112928571D01*
X180513333Y-112833333D01*
X180608571Y-112785714D01*
X181132380Y-112785714D01*
X180608571Y-111976190D02*
X180608571Y-112309523D01*
X181132380Y-112309523D02*
X180132380Y-112309523D01*
X180132380Y-111833333D01*
D15*
X179178571Y-114083333D02*
X179202380Y-114107142D01*
X179226190Y-114178571D01*
X179226190Y-114226190D01*
X179202380Y-114297619D01*
X179154761Y-114345238D01*
X179107142Y-114369047D01*
X179011904Y-114392857D01*
X178940476Y-114392857D01*
X178845238Y-114369047D01*
X178797619Y-114345238D01*
X178750000Y-114297619D01*
X178726190Y-114226190D01*
X178726190Y-114178571D01*
X178750000Y-114107142D01*
X178773809Y-114083333D01*
X178892857Y-113654761D02*
X179226190Y-113654761D01*
X178702380Y-113773809D02*
X179059523Y-113892857D01*
X179059523Y-113583333D01*
%TO.C,C3*%
D11*
X184939880Y-101782380D02*
X184368452Y-101782380D01*
X184654166Y-101782380D02*
X184654166Y-100782380D01*
X184558928Y-100925238D01*
X184463690Y-101020476D01*
X184368452Y-101068095D01*
X185558928Y-100782380D02*
X185654166Y-100782380D01*
X185749404Y-100830000D01*
X185797023Y-100877619D01*
X185844642Y-100972857D01*
X185892261Y-101163333D01*
X185892261Y-101401428D01*
X185844642Y-101591904D01*
X185797023Y-101687142D01*
X185749404Y-101734761D01*
X185654166Y-101782380D01*
X185558928Y-101782380D01*
X185463690Y-101734761D01*
X185416071Y-101687142D01*
X185368452Y-101591904D01*
X185320833Y-101401428D01*
X185320833Y-101163333D01*
X185368452Y-100972857D01*
X185416071Y-100877619D01*
X185463690Y-100830000D01*
X185558928Y-100782380D01*
X186511309Y-100782380D02*
X186606547Y-100782380D01*
X186701785Y-100830000D01*
X186749404Y-100877619D01*
X186797023Y-100972857D01*
X186844642Y-101163333D01*
X186844642Y-101401428D01*
X186797023Y-101591904D01*
X186749404Y-101687142D01*
X186701785Y-101734761D01*
X186606547Y-101782380D01*
X186511309Y-101782380D01*
X186416071Y-101734761D01*
X186368452Y-101687142D01*
X186320833Y-101591904D01*
X186273214Y-101401428D01*
X186273214Y-101163333D01*
X186320833Y-100972857D01*
X186368452Y-100877619D01*
X186416071Y-100830000D01*
X186511309Y-100782380D01*
X187273214Y-101115714D02*
X187273214Y-101782380D01*
X187273214Y-101210952D02*
X187320833Y-101163333D01*
X187416071Y-101115714D01*
X187558928Y-101115714D01*
X187654166Y-101163333D01*
X187701785Y-101258571D01*
X187701785Y-101782380D01*
X188511309Y-101258571D02*
X188177976Y-101258571D01*
X188177976Y-101782380D02*
X188177976Y-100782380D01*
X188654166Y-100782380D01*
D15*
X186404166Y-99828571D02*
X186380357Y-99852380D01*
X186308928Y-99876190D01*
X186261309Y-99876190D01*
X186189880Y-99852380D01*
X186142261Y-99804761D01*
X186118452Y-99757142D01*
X186094642Y-99661904D01*
X186094642Y-99590476D01*
X186118452Y-99495238D01*
X186142261Y-99447619D01*
X186189880Y-99400000D01*
X186261309Y-99376190D01*
X186308928Y-99376190D01*
X186380357Y-99400000D01*
X186404166Y-99423809D01*
X186570833Y-99376190D02*
X186880357Y-99376190D01*
X186713690Y-99566666D01*
X186785119Y-99566666D01*
X186832738Y-99590476D01*
X186856547Y-99614285D01*
X186880357Y-99661904D01*
X186880357Y-99780952D01*
X186856547Y-99828571D01*
X186832738Y-99852380D01*
X186785119Y-99876190D01*
X186642261Y-99876190D01*
X186594642Y-99852380D01*
X186570833Y-99828571D01*
%TO.C,C2*%
D11*
X190595238Y-91485714D02*
X190595238Y-92152380D01*
X190357142Y-91104761D02*
X190119047Y-91819047D01*
X190738095Y-91819047D01*
X191119047Y-92057142D02*
X191166666Y-92104761D01*
X191119047Y-92152380D01*
X191071428Y-92104761D01*
X191119047Y-92057142D01*
X191119047Y-92152380D01*
X191500000Y-91152380D02*
X192166666Y-91152380D01*
X191738095Y-92152380D01*
X192976190Y-91485714D02*
X192976190Y-92152380D01*
X192547619Y-91485714D02*
X192547619Y-92009523D01*
X192595238Y-92104761D01*
X192690476Y-92152380D01*
X192833333Y-92152380D01*
X192928571Y-92104761D01*
X192976190Y-92057142D01*
X193785714Y-91628571D02*
X193452380Y-91628571D01*
X193452380Y-92152380D02*
X193452380Y-91152380D01*
X193928571Y-91152380D01*
D17*
X191866666Y-88785714D02*
X191828571Y-88823809D01*
X191714285Y-88861904D01*
X191638095Y-88861904D01*
X191523809Y-88823809D01*
X191447619Y-88747619D01*
X191409523Y-88671428D01*
X191371428Y-88519047D01*
X191371428Y-88404761D01*
X191409523Y-88252380D01*
X191447619Y-88176190D01*
X191523809Y-88100000D01*
X191638095Y-88061904D01*
X191714285Y-88061904D01*
X191828571Y-88100000D01*
X191866666Y-88138095D01*
X192171428Y-88138095D02*
X192209523Y-88100000D01*
X192285714Y-88061904D01*
X192476190Y-88061904D01*
X192552380Y-88100000D01*
X192590476Y-88138095D01*
X192628571Y-88214285D01*
X192628571Y-88290476D01*
X192590476Y-88404761D01*
X192133333Y-88861904D01*
X192628571Y-88861904D01*
%TO.C,C1*%
D11*
X191702380Y-95632380D02*
X191130952Y-95632380D01*
X191416666Y-95632380D02*
X191416666Y-94632380D01*
X191321428Y-94775238D01*
X191226190Y-94870476D01*
X191130952Y-94918095D01*
X192321428Y-94632380D02*
X192416666Y-94632380D01*
X192511904Y-94680000D01*
X192559523Y-94727619D01*
X192607142Y-94822857D01*
X192654761Y-95013333D01*
X192654761Y-95251428D01*
X192607142Y-95441904D01*
X192559523Y-95537142D01*
X192511904Y-95584761D01*
X192416666Y-95632380D01*
X192321428Y-95632380D01*
X192226190Y-95584761D01*
X192178571Y-95537142D01*
X192130952Y-95441904D01*
X192083333Y-95251428D01*
X192083333Y-95013333D01*
X192130952Y-94822857D01*
X192178571Y-94727619D01*
X192226190Y-94680000D01*
X192321428Y-94632380D01*
X193273809Y-94632380D02*
X193369047Y-94632380D01*
X193464285Y-94680000D01*
X193511904Y-94727619D01*
X193559523Y-94822857D01*
X193607142Y-95013333D01*
X193607142Y-95251428D01*
X193559523Y-95441904D01*
X193511904Y-95537142D01*
X193464285Y-95584761D01*
X193369047Y-95632380D01*
X193273809Y-95632380D01*
X193178571Y-95584761D01*
X193130952Y-95537142D01*
X193083333Y-95441904D01*
X193035714Y-95251428D01*
X193035714Y-95013333D01*
X193083333Y-94822857D01*
X193130952Y-94727619D01*
X193178571Y-94680000D01*
X193273809Y-94632380D01*
X194035714Y-94965714D02*
X194035714Y-95632380D01*
X194035714Y-95060952D02*
X194083333Y-95013333D01*
X194178571Y-94965714D01*
X194321428Y-94965714D01*
X194416666Y-95013333D01*
X194464285Y-95108571D01*
X194464285Y-95632380D01*
X195273809Y-95108571D02*
X194940476Y-95108571D01*
X194940476Y-95632380D02*
X194940476Y-94632380D01*
X195416666Y-94632380D01*
D15*
X193166666Y-93678571D02*
X193142857Y-93702380D01*
X193071428Y-93726190D01*
X193023809Y-93726190D01*
X192952380Y-93702380D01*
X192904761Y-93654761D01*
X192880952Y-93607142D01*
X192857142Y-93511904D01*
X192857142Y-93440476D01*
X192880952Y-93345238D01*
X192904761Y-93297619D01*
X192952380Y-93250000D01*
X193023809Y-93226190D01*
X193071428Y-93226190D01*
X193142857Y-93250000D01*
X193166666Y-93273809D01*
X193642857Y-93726190D02*
X193357142Y-93726190D01*
X193500000Y-93726190D02*
X193500000Y-93226190D01*
X193452380Y-93297619D01*
X193404761Y-93345238D01*
X193357142Y-93369047D01*
%TD*%
M02*
