%TF.GenerationSoftware,KiCad,Pcbnew,5.1.10-88a1d61d58~90~ubuntu20.04.1*%
%TF.CreationDate,2021-10-13T17:16:21+03:00*%
%TF.ProjectId,Arduino_Nano_Example,41726475-696e-46f5-9f4e-616e6f5f4578,1*%
%TF.SameCoordinates,Original*%
%TF.FileFunction,Copper,L2,Bot*%
%TF.FilePolarity,Positive*%
%FSLAX46Y46*%
G04 Gerber Fmt 4.6, Leading zero omitted, Abs format (unit mm)*
G04 Created by KiCad (PCBNEW 5.1.10-88a1d61d58~90~ubuntu20.04.1) date 2021-10-13 17:16:21*
%MOMM*%
%LPD*%
G01*
G04 APERTURE LIST*
%ADD10C,0.100000*%
%ADD11C,0.150000*%
%ADD12C,0.300000*%
%ADD13C,0.400000*%
%TA.AperFunction,Profile*%
%ADD14C,0.050000*%
%TD*%
%TA.AperFunction,ComponentPad*%
%ADD15O,1.700000X1.700000*%
%TD*%
%TA.AperFunction,ComponentPad*%
%ADD16R,1.700000X1.700000*%
%TD*%
%TA.AperFunction,ComponentPad*%
%ADD17O,2.200000X2.200000*%
%TD*%
%TA.AperFunction,ComponentPad*%
%ADD18R,2.200000X2.200000*%
%TD*%
%TA.AperFunction,ComponentPad*%
%ADD19O,4.000000X1.800000*%
%TD*%
%TA.AperFunction,ComponentPad*%
%ADD20O,1.800000X4.000000*%
%TD*%
%TA.AperFunction,ComponentPad*%
%ADD21R,1.800000X4.400000*%
%TD*%
%TA.AperFunction,ViaPad*%
%ADD22C,0.800000*%
%TD*%
%TA.AperFunction,Conductor*%
%ADD23C,0.400000*%
%TD*%
%TA.AperFunction,Conductor*%
%ADD24C,1.750000*%
%TD*%
%TA.AperFunction,Conductor*%
%ADD25C,1.250000*%
%TD*%
%TA.AperFunction,Conductor*%
%ADD26C,0.254000*%
%TD*%
%TA.AperFunction,Conductor*%
%ADD27C,0.100000*%
%TD*%
G04 APERTURE END LIST*
D10*
D11*
X177002200Y-166007200D02*
X177002200Y-198007200D01*
X285002200Y-198007200D01*
X285002200Y-166007200D01*
X177002200Y-166007200D01*
D10*
D11*
X10000000Y-10000000D02*
X10000000Y-200007200D01*
X287002200Y-200007200D01*
X287002200Y-10000000D01*
X10000000Y-10000000D01*
D10*
D11*
X12000000Y-12000000D02*
X12000000Y-198007200D01*
X285002200Y-198007200D01*
X285002200Y-12000000D01*
X12000000Y-12000000D01*
D10*
D11*
X60000000Y-12000000D02*
X60000000Y-10000000D01*
D10*
D11*
X110000000Y-12000000D02*
X110000000Y-10000000D01*
D10*
D11*
X160000000Y-12000000D02*
X160000000Y-10000000D01*
D10*
D11*
X210000000Y-12000000D02*
X210000000Y-10000000D01*
D10*
D11*
X260000000Y-12000000D02*
X260000000Y-10000000D01*
D10*
D11*
X36065476Y-11588095D02*
X35322619Y-11588095D01*
X35694047Y-11588095D02*
X35694047Y-10288095D01*
X35570238Y-10473809D01*
X35446428Y-10597619D01*
X35322619Y-10659523D01*
D10*
D11*
X85322619Y-10411904D02*
X85384523Y-10350000D01*
X85508333Y-10288095D01*
X85817857Y-10288095D01*
X85941666Y-10350000D01*
X86003571Y-10411904D01*
X86065476Y-10535714D01*
X86065476Y-10659523D01*
X86003571Y-10845238D01*
X85260714Y-11588095D01*
X86065476Y-11588095D01*
D10*
D11*
X135260714Y-10288095D02*
X136065476Y-10288095D01*
X135632142Y-10783333D01*
X135817857Y-10783333D01*
X135941666Y-10845238D01*
X136003571Y-10907142D01*
X136065476Y-11030952D01*
X136065476Y-11340476D01*
X136003571Y-11464285D01*
X135941666Y-11526190D01*
X135817857Y-11588095D01*
X135446428Y-11588095D01*
X135322619Y-11526190D01*
X135260714Y-11464285D01*
D10*
D11*
X185941666Y-10721428D02*
X185941666Y-11588095D01*
X185632142Y-10226190D02*
X185322619Y-11154761D01*
X186127380Y-11154761D01*
D10*
D11*
X236003571Y-10288095D02*
X235384523Y-10288095D01*
X235322619Y-10907142D01*
X235384523Y-10845238D01*
X235508333Y-10783333D01*
X235817857Y-10783333D01*
X235941666Y-10845238D01*
X236003571Y-10907142D01*
X236065476Y-11030952D01*
X236065476Y-11340476D01*
X236003571Y-11464285D01*
X235941666Y-11526190D01*
X235817857Y-11588095D01*
X235508333Y-11588095D01*
X235384523Y-11526190D01*
X235322619Y-11464285D01*
D10*
D11*
X285941666Y-10288095D02*
X285694047Y-10288095D01*
X285570238Y-10350000D01*
X285508333Y-10411904D01*
X285384523Y-10597619D01*
X285322619Y-10845238D01*
X285322619Y-11340476D01*
X285384523Y-11464285D01*
X285446428Y-11526190D01*
X285570238Y-11588095D01*
X285817857Y-11588095D01*
X285941666Y-11526190D01*
X286003571Y-11464285D01*
X286065476Y-11340476D01*
X286065476Y-11030952D01*
X286003571Y-10907142D01*
X285941666Y-10845238D01*
X285817857Y-10783333D01*
X285570238Y-10783333D01*
X285446428Y-10845238D01*
X285384523Y-10907142D01*
X285322619Y-11030952D01*
D10*
D11*
X60000000Y-198007200D02*
X60000000Y-200007200D01*
D10*
D11*
X110000000Y-198007200D02*
X110000000Y-200007200D01*
D10*
D11*
X160000000Y-198007200D02*
X160000000Y-200007200D01*
D10*
D11*
X210000000Y-198007200D02*
X210000000Y-200007200D01*
D10*
D11*
X260000000Y-198007200D02*
X260000000Y-200007200D01*
D10*
D11*
X36065476Y-199595295D02*
X35322619Y-199595295D01*
X35694047Y-199595295D02*
X35694047Y-198295295D01*
X35570238Y-198481009D01*
X35446428Y-198604819D01*
X35322619Y-198666723D01*
D10*
D11*
X85322619Y-198419104D02*
X85384523Y-198357200D01*
X85508333Y-198295295D01*
X85817857Y-198295295D01*
X85941666Y-198357200D01*
X86003571Y-198419104D01*
X86065476Y-198542914D01*
X86065476Y-198666723D01*
X86003571Y-198852438D01*
X85260714Y-199595295D01*
X86065476Y-199595295D01*
D10*
D11*
X135260714Y-198295295D02*
X136065476Y-198295295D01*
X135632142Y-198790533D01*
X135817857Y-198790533D01*
X135941666Y-198852438D01*
X136003571Y-198914342D01*
X136065476Y-199038152D01*
X136065476Y-199347676D01*
X136003571Y-199471485D01*
X135941666Y-199533390D01*
X135817857Y-199595295D01*
X135446428Y-199595295D01*
X135322619Y-199533390D01*
X135260714Y-199471485D01*
D10*
D11*
X185941666Y-198728628D02*
X185941666Y-199595295D01*
X185632142Y-198233390D02*
X185322619Y-199161961D01*
X186127380Y-199161961D01*
D10*
D11*
X236003571Y-198295295D02*
X235384523Y-198295295D01*
X235322619Y-198914342D01*
X235384523Y-198852438D01*
X235508333Y-198790533D01*
X235817857Y-198790533D01*
X235941666Y-198852438D01*
X236003571Y-198914342D01*
X236065476Y-199038152D01*
X236065476Y-199347676D01*
X236003571Y-199471485D01*
X235941666Y-199533390D01*
X235817857Y-199595295D01*
X235508333Y-199595295D01*
X235384523Y-199533390D01*
X235322619Y-199471485D01*
D10*
D11*
X285941666Y-198295295D02*
X285694047Y-198295295D01*
X285570238Y-198357200D01*
X285508333Y-198419104D01*
X285384523Y-198604819D01*
X285322619Y-198852438D01*
X285322619Y-199347676D01*
X285384523Y-199471485D01*
X285446428Y-199533390D01*
X285570238Y-199595295D01*
X285817857Y-199595295D01*
X285941666Y-199533390D01*
X286003571Y-199471485D01*
X286065476Y-199347676D01*
X286065476Y-199038152D01*
X286003571Y-198914342D01*
X285941666Y-198852438D01*
X285817857Y-198790533D01*
X285570238Y-198790533D01*
X285446428Y-198852438D01*
X285384523Y-198914342D01*
X285322619Y-199038152D01*
D10*
D11*
X10000000Y-60000000D02*
X12000000Y-60000000D01*
D10*
D11*
X10000000Y-110000000D02*
X12000000Y-110000000D01*
D10*
D11*
X10000000Y-160000000D02*
X12000000Y-160000000D01*
D10*
D11*
X10690476Y-35216666D02*
X11309523Y-35216666D01*
X10566666Y-35588095D02*
X11000000Y-34288095D01*
X11433333Y-35588095D01*
D10*
D11*
X11092857Y-84907142D02*
X11278571Y-84969047D01*
X11340476Y-85030952D01*
X11402380Y-85154761D01*
X11402380Y-85340476D01*
X11340476Y-85464285D01*
X11278571Y-85526190D01*
X11154761Y-85588095D01*
X10659523Y-85588095D01*
X10659523Y-84288095D01*
X11092857Y-84288095D01*
X11216666Y-84350000D01*
X11278571Y-84411904D01*
X11340476Y-84535714D01*
X11340476Y-84659523D01*
X11278571Y-84783333D01*
X11216666Y-84845238D01*
X11092857Y-84907142D01*
X10659523Y-84907142D01*
D10*
D11*
X11402380Y-135464285D02*
X11340476Y-135526190D01*
X11154761Y-135588095D01*
X11030952Y-135588095D01*
X10845238Y-135526190D01*
X10721428Y-135402380D01*
X10659523Y-135278571D01*
X10597619Y-135030952D01*
X10597619Y-134845238D01*
X10659523Y-134597619D01*
X10721428Y-134473809D01*
X10845238Y-134350000D01*
X11030952Y-134288095D01*
X11154761Y-134288095D01*
X11340476Y-134350000D01*
X11402380Y-134411904D01*
D10*
D11*
X10659523Y-185588095D02*
X10659523Y-184288095D01*
X10969047Y-184288095D01*
X11154761Y-184350000D01*
X11278571Y-184473809D01*
X11340476Y-184597619D01*
X11402380Y-184845238D01*
X11402380Y-185030952D01*
X11340476Y-185278571D01*
X11278571Y-185402380D01*
X11154761Y-185526190D01*
X10969047Y-185588095D01*
X10659523Y-185588095D01*
D10*
D11*
X287002200Y-60000000D02*
X285002200Y-60000000D01*
D10*
D11*
X287002200Y-110000000D02*
X285002200Y-110000000D01*
D10*
D11*
X287002200Y-160000000D02*
X285002200Y-160000000D01*
D10*
D11*
X285692676Y-35216666D02*
X286311723Y-35216666D01*
X285568866Y-35588095D02*
X286002200Y-34288095D01*
X286435533Y-35588095D01*
D10*
D11*
X286095057Y-84907142D02*
X286280771Y-84969047D01*
X286342676Y-85030952D01*
X286404580Y-85154761D01*
X286404580Y-85340476D01*
X286342676Y-85464285D01*
X286280771Y-85526190D01*
X286156961Y-85588095D01*
X285661723Y-85588095D01*
X285661723Y-84288095D01*
X286095057Y-84288095D01*
X286218866Y-84350000D01*
X286280771Y-84411904D01*
X286342676Y-84535714D01*
X286342676Y-84659523D01*
X286280771Y-84783333D01*
X286218866Y-84845238D01*
X286095057Y-84907142D01*
X285661723Y-84907142D01*
D10*
D11*
X286404580Y-135464285D02*
X286342676Y-135526190D01*
X286156961Y-135588095D01*
X286033152Y-135588095D01*
X285847438Y-135526190D01*
X285723628Y-135402380D01*
X285661723Y-135278571D01*
X285599819Y-135030952D01*
X285599819Y-134845238D01*
X285661723Y-134597619D01*
X285723628Y-134473809D01*
X285847438Y-134350000D01*
X286033152Y-134288095D01*
X286156961Y-134288095D01*
X286342676Y-134350000D01*
X286404580Y-134411904D01*
D10*
D11*
X285661723Y-185588095D02*
X285661723Y-184288095D01*
X285971247Y-184288095D01*
X286156961Y-184350000D01*
X286280771Y-184473809D01*
X286342676Y-184597619D01*
X286404580Y-184845238D01*
X286404580Y-185030952D01*
X286342676Y-185278571D01*
X286280771Y-185402380D01*
X286156961Y-185526190D01*
X285971247Y-185588095D01*
X285661723Y-185588095D01*
D10*
D11*
X200434342Y-193785771D02*
X200434342Y-192285771D01*
X200791485Y-192285771D01*
X201005771Y-192357200D01*
X201148628Y-192500057D01*
X201220057Y-192642914D01*
X201291485Y-192928628D01*
X201291485Y-193142914D01*
X201220057Y-193428628D01*
X201148628Y-193571485D01*
X201005771Y-193714342D01*
X200791485Y-193785771D01*
X200434342Y-193785771D01*
X202577200Y-193785771D02*
X202577200Y-193000057D01*
X202505771Y-192857200D01*
X202362914Y-192785771D01*
X202077200Y-192785771D01*
X201934342Y-192857200D01*
X202577200Y-193714342D02*
X202434342Y-193785771D01*
X202077200Y-193785771D01*
X201934342Y-193714342D01*
X201862914Y-193571485D01*
X201862914Y-193428628D01*
X201934342Y-193285771D01*
X202077200Y-193214342D01*
X202434342Y-193214342D01*
X202577200Y-193142914D01*
X203077200Y-192785771D02*
X203648628Y-192785771D01*
X203291485Y-192285771D02*
X203291485Y-193571485D01*
X203362914Y-193714342D01*
X203505771Y-193785771D01*
X203648628Y-193785771D01*
X204720057Y-193714342D02*
X204577200Y-193785771D01*
X204291485Y-193785771D01*
X204148628Y-193714342D01*
X204077200Y-193571485D01*
X204077200Y-193000057D01*
X204148628Y-192857200D01*
X204291485Y-192785771D01*
X204577200Y-192785771D01*
X204720057Y-192857200D01*
X204791485Y-193000057D01*
X204791485Y-193142914D01*
X204077200Y-193285771D01*
X205434342Y-193642914D02*
X205505771Y-193714342D01*
X205434342Y-193785771D01*
X205362914Y-193714342D01*
X205434342Y-193642914D01*
X205434342Y-193785771D01*
X205434342Y-192857200D02*
X205505771Y-192928628D01*
X205434342Y-193000057D01*
X205362914Y-192928628D01*
X205434342Y-192857200D01*
X205434342Y-193000057D01*
X207220057Y-192428628D02*
X207291485Y-192357200D01*
X207434342Y-192285771D01*
X207791485Y-192285771D01*
X207934342Y-192357200D01*
X208005771Y-192428628D01*
X208077200Y-192571485D01*
X208077200Y-192714342D01*
X208005771Y-192928628D01*
X207148628Y-193785771D01*
X208077200Y-193785771D01*
X209005771Y-192285771D02*
X209148628Y-192285771D01*
X209291485Y-192357200D01*
X209362914Y-192428628D01*
X209434342Y-192571485D01*
X209505771Y-192857200D01*
X209505771Y-193214342D01*
X209434342Y-193500057D01*
X209362914Y-193642914D01*
X209291485Y-193714342D01*
X209148628Y-193785771D01*
X209005771Y-193785771D01*
X208862914Y-193714342D01*
X208791485Y-193642914D01*
X208720057Y-193500057D01*
X208648628Y-193214342D01*
X208648628Y-192857200D01*
X208720057Y-192571485D01*
X208791485Y-192428628D01*
X208862914Y-192357200D01*
X209005771Y-192285771D01*
X210077200Y-192428628D02*
X210148628Y-192357200D01*
X210291485Y-192285771D01*
X210648628Y-192285771D01*
X210791485Y-192357200D01*
X210862914Y-192428628D01*
X210934342Y-192571485D01*
X210934342Y-192714342D01*
X210862914Y-192928628D01*
X210005771Y-193785771D01*
X210934342Y-193785771D01*
X212362914Y-193785771D02*
X211505771Y-193785771D01*
X211934342Y-193785771D02*
X211934342Y-192285771D01*
X211791485Y-192500057D01*
X211648628Y-192642914D01*
X211505771Y-192714342D01*
X213005771Y-193214342D02*
X214148628Y-193214342D01*
X215648628Y-193785771D02*
X214791485Y-193785771D01*
X215220057Y-193785771D02*
X215220057Y-192285771D01*
X215077200Y-192500057D01*
X214934342Y-192642914D01*
X214791485Y-192714342D01*
X216577200Y-192285771D02*
X216720057Y-192285771D01*
X216862914Y-192357200D01*
X216934342Y-192428628D01*
X217005771Y-192571485D01*
X217077200Y-192857200D01*
X217077200Y-193214342D01*
X217005771Y-193500057D01*
X216934342Y-193642914D01*
X216862914Y-193714342D01*
X216720057Y-193785771D01*
X216577200Y-193785771D01*
X216434342Y-193714342D01*
X216362914Y-193642914D01*
X216291485Y-193500057D01*
X216220057Y-193214342D01*
X216220057Y-192857200D01*
X216291485Y-192571485D01*
X216362914Y-192428628D01*
X216434342Y-192357200D01*
X216577200Y-192285771D01*
X217720057Y-193214342D02*
X218862914Y-193214342D01*
X220362914Y-193785771D02*
X219505771Y-193785771D01*
X219934342Y-193785771D02*
X219934342Y-192285771D01*
X219791485Y-192500057D01*
X219648628Y-192642914D01*
X219505771Y-192714342D01*
X220862914Y-192285771D02*
X221791485Y-192285771D01*
X221291485Y-192857200D01*
X221505771Y-192857200D01*
X221648628Y-192928628D01*
X221720057Y-193000057D01*
X221791485Y-193142914D01*
X221791485Y-193500057D01*
X221720057Y-193642914D01*
X221648628Y-193714342D01*
X221505771Y-193785771D01*
X221077200Y-193785771D01*
X220934342Y-193714342D01*
X220862914Y-193642914D01*
D10*
D11*
X177002200Y-194507200D02*
X285002200Y-194507200D01*
D10*
D11*
X178434342Y-196585771D02*
X178434342Y-195085771D01*
X179291485Y-196585771D02*
X178648628Y-195728628D01*
X179291485Y-195085771D02*
X178434342Y-195942914D01*
X179934342Y-196585771D02*
X179934342Y-195585771D01*
X179934342Y-195085771D02*
X179862914Y-195157200D01*
X179934342Y-195228628D01*
X180005771Y-195157200D01*
X179934342Y-195085771D01*
X179934342Y-195228628D01*
X181505771Y-196442914D02*
X181434342Y-196514342D01*
X181220057Y-196585771D01*
X181077200Y-196585771D01*
X180862914Y-196514342D01*
X180720057Y-196371485D01*
X180648628Y-196228628D01*
X180577200Y-195942914D01*
X180577200Y-195728628D01*
X180648628Y-195442914D01*
X180720057Y-195300057D01*
X180862914Y-195157200D01*
X181077200Y-195085771D01*
X181220057Y-195085771D01*
X181434342Y-195157200D01*
X181505771Y-195228628D01*
X182791485Y-196585771D02*
X182791485Y-195800057D01*
X182720057Y-195657200D01*
X182577200Y-195585771D01*
X182291485Y-195585771D01*
X182148628Y-195657200D01*
X182791485Y-196514342D02*
X182648628Y-196585771D01*
X182291485Y-196585771D01*
X182148628Y-196514342D01*
X182077200Y-196371485D01*
X182077200Y-196228628D01*
X182148628Y-196085771D01*
X182291485Y-196014342D01*
X182648628Y-196014342D01*
X182791485Y-195942914D01*
X184148628Y-196585771D02*
X184148628Y-195085771D01*
X184148628Y-196514342D02*
X184005771Y-196585771D01*
X183720057Y-196585771D01*
X183577200Y-196514342D01*
X183505771Y-196442914D01*
X183434342Y-196300057D01*
X183434342Y-195871485D01*
X183505771Y-195728628D01*
X183577200Y-195657200D01*
X183720057Y-195585771D01*
X184005771Y-195585771D01*
X184148628Y-195657200D01*
X186005771Y-195800057D02*
X186505771Y-195800057D01*
X186720057Y-196585771D02*
X186005771Y-196585771D01*
X186005771Y-195085771D01*
X186720057Y-195085771D01*
X187362914Y-196442914D02*
X187434342Y-196514342D01*
X187362914Y-196585771D01*
X187291485Y-196514342D01*
X187362914Y-196442914D01*
X187362914Y-196585771D01*
X188077200Y-196585771D02*
X188077200Y-195085771D01*
X188434342Y-195085771D01*
X188648628Y-195157200D01*
X188791485Y-195300057D01*
X188862914Y-195442914D01*
X188934342Y-195728628D01*
X188934342Y-195942914D01*
X188862914Y-196228628D01*
X188791485Y-196371485D01*
X188648628Y-196514342D01*
X188434342Y-196585771D01*
X188077200Y-196585771D01*
X189577200Y-196442914D02*
X189648628Y-196514342D01*
X189577200Y-196585771D01*
X189505771Y-196514342D01*
X189577200Y-196442914D01*
X189577200Y-196585771D01*
X190220057Y-196157200D02*
X190934342Y-196157200D01*
X190077200Y-196585771D02*
X190577200Y-195085771D01*
X191077200Y-196585771D01*
X191577200Y-196442914D02*
X191648628Y-196514342D01*
X191577200Y-196585771D01*
X191505771Y-196514342D01*
X191577200Y-196442914D01*
X191577200Y-196585771D01*
X194577200Y-196585771D02*
X194577200Y-195085771D01*
X194720057Y-196014342D02*
X195148628Y-196585771D01*
X195148628Y-195585771D02*
X194577200Y-196157200D01*
X195791485Y-196585771D02*
X195791485Y-195585771D01*
X195791485Y-195085771D02*
X195720057Y-195157200D01*
X195791485Y-195228628D01*
X195862914Y-195157200D01*
X195791485Y-195085771D01*
X195791485Y-195228628D01*
X197148628Y-196514342D02*
X197005771Y-196585771D01*
X196720057Y-196585771D01*
X196577200Y-196514342D01*
X196505771Y-196442914D01*
X196434342Y-196300057D01*
X196434342Y-195871485D01*
X196505771Y-195728628D01*
X196577200Y-195657200D01*
X196720057Y-195585771D01*
X197005771Y-195585771D01*
X197148628Y-195657200D01*
X198434342Y-196585771D02*
X198434342Y-195800057D01*
X198362914Y-195657200D01*
X198220057Y-195585771D01*
X197934342Y-195585771D01*
X197791485Y-195657200D01*
X198434342Y-196514342D02*
X198291485Y-196585771D01*
X197934342Y-196585771D01*
X197791485Y-196514342D01*
X197720057Y-196371485D01*
X197720057Y-196228628D01*
X197791485Y-196085771D01*
X197934342Y-196014342D01*
X198291485Y-196014342D01*
X198434342Y-195942914D01*
X199791485Y-196585771D02*
X199791485Y-195085771D01*
X199791485Y-196514342D02*
X199648628Y-196585771D01*
X199362914Y-196585771D01*
X199220057Y-196514342D01*
X199148628Y-196442914D01*
X199077200Y-196300057D01*
X199077200Y-195871485D01*
X199148628Y-195728628D01*
X199220057Y-195657200D01*
X199362914Y-195585771D01*
X199648628Y-195585771D01*
X199791485Y-195657200D01*
X202362914Y-195085771D02*
X201648628Y-195085771D01*
X201577200Y-195800057D01*
X201648628Y-195728628D01*
X201791485Y-195657200D01*
X202148628Y-195657200D01*
X202291485Y-195728628D01*
X202362914Y-195800057D01*
X202434342Y-195942914D01*
X202434342Y-196300057D01*
X202362914Y-196442914D01*
X202291485Y-196514342D01*
X202148628Y-196585771D01*
X201791485Y-196585771D01*
X201648628Y-196514342D01*
X201577200Y-196442914D01*
X203077200Y-196442914D02*
X203148628Y-196514342D01*
X203077200Y-196585771D01*
X203005771Y-196514342D01*
X203077200Y-196442914D01*
X203077200Y-196585771D01*
X204577200Y-196585771D02*
X203720057Y-196585771D01*
X204148628Y-196585771D02*
X204148628Y-195085771D01*
X204005771Y-195300057D01*
X203862914Y-195442914D01*
X203720057Y-195514342D01*
X205220057Y-196442914D02*
X205291485Y-196514342D01*
X205220057Y-196585771D01*
X205148628Y-196514342D01*
X205220057Y-196442914D01*
X205220057Y-196585771D01*
X206720057Y-196585771D02*
X205862914Y-196585771D01*
X206291485Y-196585771D02*
X206291485Y-195085771D01*
X206148628Y-195300057D01*
X206005771Y-195442914D01*
X205862914Y-195514342D01*
X207648628Y-195085771D02*
X207791485Y-195085771D01*
X207934342Y-195157200D01*
X208005771Y-195228628D01*
X208077200Y-195371485D01*
X208148628Y-195657200D01*
X208148628Y-196014342D01*
X208077200Y-196300057D01*
X208005771Y-196442914D01*
X207934342Y-196514342D01*
X207791485Y-196585771D01*
X207648628Y-196585771D01*
X207505771Y-196514342D01*
X207434342Y-196442914D01*
X207362914Y-196300057D01*
X207291485Y-196014342D01*
X207291485Y-195657200D01*
X207362914Y-195371485D01*
X207434342Y-195228628D01*
X207505771Y-195157200D01*
X207648628Y-195085771D01*
X208791485Y-196014342D02*
X209934342Y-196014342D01*
X210862914Y-195728628D02*
X210720057Y-195657200D01*
X210648628Y-195585771D01*
X210577200Y-195442914D01*
X210577200Y-195371485D01*
X210648628Y-195228628D01*
X210720057Y-195157200D01*
X210862914Y-195085771D01*
X211148628Y-195085771D01*
X211291485Y-195157200D01*
X211362914Y-195228628D01*
X211434342Y-195371485D01*
X211434342Y-195442914D01*
X211362914Y-195585771D01*
X211291485Y-195657200D01*
X211148628Y-195728628D01*
X210862914Y-195728628D01*
X210720057Y-195800057D01*
X210648628Y-195871485D01*
X210577200Y-196014342D01*
X210577200Y-196300057D01*
X210648628Y-196442914D01*
X210720057Y-196514342D01*
X210862914Y-196585771D01*
X211148628Y-196585771D01*
X211291485Y-196514342D01*
X211362914Y-196442914D01*
X211434342Y-196300057D01*
X211434342Y-196014342D01*
X211362914Y-195871485D01*
X211291485Y-195800057D01*
X211148628Y-195728628D01*
X212291485Y-195728628D02*
X212148628Y-195657200D01*
X212077200Y-195585771D01*
X212005771Y-195442914D01*
X212005771Y-195371485D01*
X212077200Y-195228628D01*
X212148628Y-195157200D01*
X212291485Y-195085771D01*
X212577200Y-195085771D01*
X212720057Y-195157200D01*
X212791485Y-195228628D01*
X212862914Y-195371485D01*
X212862914Y-195442914D01*
X212791485Y-195585771D01*
X212720057Y-195657200D01*
X212577200Y-195728628D01*
X212291485Y-195728628D01*
X212148628Y-195800057D01*
X212077200Y-195871485D01*
X212005771Y-196014342D01*
X212005771Y-196300057D01*
X212077200Y-196442914D01*
X212148628Y-196514342D01*
X212291485Y-196585771D01*
X212577200Y-196585771D01*
X212720057Y-196514342D01*
X212791485Y-196442914D01*
X212862914Y-196300057D01*
X212862914Y-196014342D01*
X212791485Y-195871485D01*
X212720057Y-195800057D01*
X212577200Y-195728628D01*
X214148628Y-196585771D02*
X214148628Y-195800057D01*
X214077200Y-195657200D01*
X213934342Y-195585771D01*
X213648628Y-195585771D01*
X213505771Y-195657200D01*
X214148628Y-196514342D02*
X214005771Y-196585771D01*
X213648628Y-196585771D01*
X213505771Y-196514342D01*
X213434342Y-196371485D01*
X213434342Y-196228628D01*
X213505771Y-196085771D01*
X213648628Y-196014342D01*
X214005771Y-196014342D01*
X214148628Y-195942914D01*
X215648628Y-196585771D02*
X214791485Y-196585771D01*
X215220057Y-196585771D02*
X215220057Y-195085771D01*
X215077200Y-195300057D01*
X214934342Y-195442914D01*
X214791485Y-195514342D01*
X216934342Y-196585771D02*
X216934342Y-195085771D01*
X216934342Y-196514342D02*
X216791485Y-196585771D01*
X216505771Y-196585771D01*
X216362914Y-196514342D01*
X216291485Y-196442914D01*
X216220057Y-196300057D01*
X216220057Y-195871485D01*
X216291485Y-195728628D01*
X216362914Y-195657200D01*
X216505771Y-195585771D01*
X216791485Y-195585771D01*
X216934342Y-195657200D01*
X218291485Y-195085771D02*
X218005771Y-195085771D01*
X217862914Y-195157200D01*
X217791485Y-195228628D01*
X217648628Y-195442914D01*
X217577200Y-195728628D01*
X217577200Y-196300057D01*
X217648628Y-196442914D01*
X217720057Y-196514342D01*
X217862914Y-196585771D01*
X218148628Y-196585771D01*
X218291485Y-196514342D01*
X218362914Y-196442914D01*
X218434342Y-196300057D01*
X218434342Y-195942914D01*
X218362914Y-195800057D01*
X218291485Y-195728628D01*
X218148628Y-195657200D01*
X217862914Y-195657200D01*
X217720057Y-195728628D01*
X217648628Y-195800057D01*
X217577200Y-195942914D01*
X219862914Y-196585771D02*
X219005771Y-196585771D01*
X219434342Y-196585771D02*
X219434342Y-195085771D01*
X219291485Y-195300057D01*
X219148628Y-195442914D01*
X219005771Y-195514342D01*
X221148628Y-196585771D02*
X221148628Y-195085771D01*
X221148628Y-196514342D02*
X221005771Y-196585771D01*
X220720057Y-196585771D01*
X220577200Y-196514342D01*
X220505771Y-196442914D01*
X220434342Y-196300057D01*
X220434342Y-195871485D01*
X220505771Y-195728628D01*
X220577200Y-195657200D01*
X220720057Y-195585771D01*
X221005771Y-195585771D01*
X221148628Y-195657200D01*
X222577200Y-195085771D02*
X221862914Y-195085771D01*
X221791485Y-195800057D01*
X221862914Y-195728628D01*
X222005771Y-195657200D01*
X222362914Y-195657200D01*
X222505771Y-195728628D01*
X222577200Y-195800057D01*
X222648628Y-195942914D01*
X222648628Y-196300057D01*
X222577200Y-196442914D01*
X222505771Y-196514342D01*
X222362914Y-196585771D01*
X222005771Y-196585771D01*
X221862914Y-196514342D01*
X221791485Y-196442914D01*
X223505771Y-195728628D02*
X223362914Y-195657200D01*
X223291485Y-195585771D01*
X223220057Y-195442914D01*
X223220057Y-195371485D01*
X223291485Y-195228628D01*
X223362914Y-195157200D01*
X223505771Y-195085771D01*
X223791485Y-195085771D01*
X223934342Y-195157200D01*
X224005771Y-195228628D01*
X224077200Y-195371485D01*
X224077200Y-195442914D01*
X224005771Y-195585771D01*
X223934342Y-195657200D01*
X223791485Y-195728628D01*
X223505771Y-195728628D01*
X223362914Y-195800057D01*
X223291485Y-195871485D01*
X223220057Y-196014342D01*
X223220057Y-196300057D01*
X223291485Y-196442914D01*
X223362914Y-196514342D01*
X223505771Y-196585771D01*
X223791485Y-196585771D01*
X223934342Y-196514342D01*
X224005771Y-196442914D01*
X224077200Y-196300057D01*
X224077200Y-196014342D01*
X224005771Y-195871485D01*
X223934342Y-195800057D01*
X223791485Y-195728628D01*
X224362914Y-194677200D02*
X225791485Y-194677200D01*
X224791485Y-196585771D02*
X225077200Y-196585771D01*
X225220057Y-196514342D01*
X225291485Y-196442914D01*
X225434342Y-196228628D01*
X225505771Y-195942914D01*
X225505771Y-195371485D01*
X225434342Y-195228628D01*
X225362914Y-195157200D01*
X225220057Y-195085771D01*
X224934342Y-195085771D01*
X224791485Y-195157200D01*
X224720057Y-195228628D01*
X224648628Y-195371485D01*
X224648628Y-195728628D01*
X224720057Y-195871485D01*
X224791485Y-195942914D01*
X224934342Y-196014342D01*
X225220057Y-196014342D01*
X225362914Y-195942914D01*
X225434342Y-195871485D01*
X225505771Y-195728628D01*
X225791485Y-194677200D02*
X227220057Y-194677200D01*
X226434342Y-195085771D02*
X226577199Y-195085771D01*
X226720057Y-195157200D01*
X226791485Y-195228628D01*
X226862914Y-195371485D01*
X226934342Y-195657200D01*
X226934342Y-196014342D01*
X226862914Y-196300057D01*
X226791485Y-196442914D01*
X226720057Y-196514342D01*
X226577199Y-196585771D01*
X226434342Y-196585771D01*
X226291485Y-196514342D01*
X226220057Y-196442914D01*
X226148628Y-196300057D01*
X226077199Y-196014342D01*
X226077199Y-195657200D01*
X226148628Y-195371485D01*
X226220057Y-195228628D01*
X226291485Y-195157200D01*
X226434342Y-195085771D01*
X228220057Y-195585771D02*
X228220057Y-196585771D01*
X227577199Y-195585771D02*
X227577199Y-196371485D01*
X227648628Y-196514342D01*
X227791485Y-196585771D01*
X228005771Y-196585771D01*
X228148628Y-196514342D01*
X228220057Y-196442914D01*
X228934342Y-196585771D02*
X228934342Y-195085771D01*
X228934342Y-195657200D02*
X229077199Y-195585771D01*
X229362914Y-195585771D01*
X229505771Y-195657200D01*
X229577199Y-195728628D01*
X229648628Y-195871485D01*
X229648628Y-196300057D01*
X229577199Y-196442914D01*
X229505771Y-196514342D01*
X229362914Y-196585771D01*
X229077199Y-196585771D01*
X228934342Y-196514342D01*
X230934342Y-195585771D02*
X230934342Y-196585771D01*
X230291485Y-195585771D02*
X230291485Y-196371485D01*
X230362914Y-196514342D01*
X230505771Y-196585771D01*
X230720057Y-196585771D01*
X230862914Y-196514342D01*
X230934342Y-196442914D01*
X231648628Y-195585771D02*
X231648628Y-196585771D01*
X231648628Y-195728628D02*
X231720057Y-195657200D01*
X231862914Y-195585771D01*
X232077199Y-195585771D01*
X232220057Y-195657200D01*
X232291485Y-195800057D01*
X232291485Y-196585771D01*
X232791485Y-195585771D02*
X233362914Y-195585771D01*
X233005771Y-195085771D02*
X233005771Y-196371485D01*
X233077199Y-196514342D01*
X233220057Y-196585771D01*
X233362914Y-196585771D01*
X234505771Y-195585771D02*
X234505771Y-196585771D01*
X233862914Y-195585771D02*
X233862914Y-196371485D01*
X233934342Y-196514342D01*
X234077200Y-196585771D01*
X234291485Y-196585771D01*
X234434342Y-196514342D01*
X234505771Y-196442914D01*
X235148628Y-195228628D02*
X235220057Y-195157200D01*
X235362914Y-195085771D01*
X235720057Y-195085771D01*
X235862914Y-195157200D01*
X235934342Y-195228628D01*
X236005771Y-195371485D01*
X236005771Y-195514342D01*
X235934342Y-195728628D01*
X235077200Y-196585771D01*
X236005771Y-196585771D01*
X236934342Y-195085771D02*
X237077199Y-195085771D01*
X237220057Y-195157200D01*
X237291485Y-195228628D01*
X237362914Y-195371485D01*
X237434342Y-195657200D01*
X237434342Y-196014342D01*
X237362914Y-196300057D01*
X237291485Y-196442914D01*
X237220057Y-196514342D01*
X237077199Y-196585771D01*
X236934342Y-196585771D01*
X236791485Y-196514342D01*
X236720057Y-196442914D01*
X236648628Y-196300057D01*
X236577199Y-196014342D01*
X236577199Y-195657200D01*
X236648628Y-195371485D01*
X236720057Y-195228628D01*
X236791485Y-195157200D01*
X236934342Y-195085771D01*
X238077199Y-196442914D02*
X238148628Y-196514342D01*
X238077199Y-196585771D01*
X238005771Y-196514342D01*
X238077199Y-196442914D01*
X238077199Y-196585771D01*
X239077199Y-195085771D02*
X239220057Y-195085771D01*
X239362914Y-195157200D01*
X239434342Y-195228628D01*
X239505771Y-195371485D01*
X239577199Y-195657200D01*
X239577199Y-196014342D01*
X239505771Y-196300057D01*
X239434342Y-196442914D01*
X239362914Y-196514342D01*
X239220057Y-196585771D01*
X239077199Y-196585771D01*
X238934342Y-196514342D01*
X238862914Y-196442914D01*
X238791485Y-196300057D01*
X238720057Y-196014342D01*
X238720057Y-195657200D01*
X238791485Y-195371485D01*
X238862914Y-195228628D01*
X238934342Y-195157200D01*
X239077199Y-195085771D01*
X240862914Y-195585771D02*
X240862914Y-196585771D01*
X240505771Y-195014342D02*
X240148628Y-196085771D01*
X241077199Y-196085771D01*
X241648628Y-196442914D02*
X241720057Y-196514342D01*
X241648628Y-196585771D01*
X241577199Y-196514342D01*
X241648628Y-196442914D01*
X241648628Y-196585771D01*
X243148628Y-196585771D02*
X242291485Y-196585771D01*
X242720057Y-196585771D02*
X242720057Y-195085771D01*
X242577199Y-195300057D01*
X242434342Y-195442914D01*
X242291485Y-195514342D01*
D10*
D11*
X177002200Y-191507200D02*
X285002200Y-191507200D01*
D10*
D12*
X264411485Y-193785771D02*
X263911485Y-193071485D01*
X263554342Y-193785771D02*
X263554342Y-192285771D01*
X264125771Y-192285771D01*
X264268628Y-192357200D01*
X264340057Y-192428628D01*
X264411485Y-192571485D01*
X264411485Y-192785771D01*
X264340057Y-192928628D01*
X264268628Y-193000057D01*
X264125771Y-193071485D01*
X263554342Y-193071485D01*
X265625771Y-193714342D02*
X265482914Y-193785771D01*
X265197200Y-193785771D01*
X265054342Y-193714342D01*
X264982914Y-193571485D01*
X264982914Y-193000057D01*
X265054342Y-192857200D01*
X265197200Y-192785771D01*
X265482914Y-192785771D01*
X265625771Y-192857200D01*
X265697200Y-193000057D01*
X265697200Y-193142914D01*
X264982914Y-193285771D01*
X266197200Y-192785771D02*
X266554342Y-193785771D01*
X266911485Y-192785771D01*
X267482914Y-193642914D02*
X267554342Y-193714342D01*
X267482914Y-193785771D01*
X267411485Y-193714342D01*
X267482914Y-193642914D01*
X267482914Y-193785771D01*
X267482914Y-192857200D02*
X267554342Y-192928628D01*
X267482914Y-193000057D01*
X267411485Y-192928628D01*
X267482914Y-192857200D01*
X267482914Y-193000057D01*
X270125771Y-193785771D02*
X269268628Y-193785771D01*
X269697200Y-193785771D02*
X269697200Y-192285771D01*
X269554342Y-192500057D01*
X269411485Y-192642914D01*
X269268628Y-192714342D01*
D10*
D11*
X178362914Y-193714342D02*
X178577200Y-193785771D01*
X178934342Y-193785771D01*
X179077200Y-193714342D01*
X179148628Y-193642914D01*
X179220057Y-193500057D01*
X179220057Y-193357200D01*
X179148628Y-193214342D01*
X179077200Y-193142914D01*
X178934342Y-193071485D01*
X178648628Y-193000057D01*
X178505771Y-192928628D01*
X178434342Y-192857200D01*
X178362914Y-192714342D01*
X178362914Y-192571485D01*
X178434342Y-192428628D01*
X178505771Y-192357200D01*
X178648628Y-192285771D01*
X179005771Y-192285771D01*
X179220057Y-192357200D01*
X179862914Y-193785771D02*
X179862914Y-192785771D01*
X179862914Y-192285771D02*
X179791485Y-192357200D01*
X179862914Y-192428628D01*
X179934342Y-192357200D01*
X179862914Y-192285771D01*
X179862914Y-192428628D01*
X180434342Y-192785771D02*
X181220057Y-192785771D01*
X180434342Y-193785771D01*
X181220057Y-193785771D01*
X182362914Y-193714342D02*
X182220057Y-193785771D01*
X181934342Y-193785771D01*
X181791485Y-193714342D01*
X181720057Y-193571485D01*
X181720057Y-193000057D01*
X181791485Y-192857200D01*
X181934342Y-192785771D01*
X182220057Y-192785771D01*
X182362914Y-192857200D01*
X182434342Y-193000057D01*
X182434342Y-193142914D01*
X181720057Y-193285771D01*
X183077200Y-193642914D02*
X183148628Y-193714342D01*
X183077200Y-193785771D01*
X183005771Y-193714342D01*
X183077200Y-193642914D01*
X183077200Y-193785771D01*
X183077200Y-192857200D02*
X183148628Y-192928628D01*
X183077200Y-193000057D01*
X183005771Y-192928628D01*
X183077200Y-192857200D01*
X183077200Y-193000057D01*
X184862914Y-193357200D02*
X185577200Y-193357200D01*
X184720057Y-193785771D02*
X185220057Y-192285771D01*
X185720057Y-193785771D01*
X186862914Y-192785771D02*
X186862914Y-193785771D01*
X186505771Y-192214342D02*
X186148628Y-193285771D01*
X187077200Y-193285771D01*
D10*
D11*
X263434342Y-196585771D02*
X263434342Y-195085771D01*
X264791485Y-196585771D02*
X264791485Y-195085771D01*
X264791485Y-196514342D02*
X264648628Y-196585771D01*
X264362914Y-196585771D01*
X264220057Y-196514342D01*
X264148628Y-196442914D01*
X264077200Y-196300057D01*
X264077200Y-195871485D01*
X264148628Y-195728628D01*
X264220057Y-195657200D01*
X264362914Y-195585771D01*
X264648628Y-195585771D01*
X264791485Y-195657200D01*
X265505771Y-196442914D02*
X265577200Y-196514342D01*
X265505771Y-196585771D01*
X265434342Y-196514342D01*
X265505771Y-196442914D01*
X265505771Y-196585771D01*
X265505771Y-195657200D02*
X265577200Y-195728628D01*
X265505771Y-195800057D01*
X265434342Y-195728628D01*
X265505771Y-195657200D01*
X265505771Y-195800057D01*
X268148628Y-196585771D02*
X267291485Y-196585771D01*
X267720057Y-196585771D02*
X267720057Y-195085771D01*
X267577200Y-195300057D01*
X267434342Y-195442914D01*
X267291485Y-195514342D01*
X269862914Y-195014342D02*
X268577200Y-196942914D01*
X271148628Y-196585771D02*
X270291485Y-196585771D01*
X270720057Y-196585771D02*
X270720057Y-195085771D01*
X270577200Y-195300057D01*
X270434342Y-195442914D01*
X270291485Y-195514342D01*
D10*
D11*
X177002200Y-187507200D02*
X285002200Y-187507200D01*
D10*
D13*
X178714580Y-188211961D02*
X179857438Y-188211961D01*
X179036009Y-190211961D02*
X179286009Y-188211961D01*
X180274104Y-190211961D02*
X180440771Y-188878628D01*
X180524104Y-188211961D02*
X180416961Y-188307200D01*
X180500295Y-188402438D01*
X180607438Y-188307200D01*
X180524104Y-188211961D01*
X180500295Y-188402438D01*
X181107438Y-188878628D02*
X181869342Y-188878628D01*
X181476485Y-188211961D02*
X181262200Y-189926247D01*
X181333628Y-190116723D01*
X181512200Y-190211961D01*
X181702676Y-190211961D01*
X182655057Y-190211961D02*
X182476485Y-190116723D01*
X182405057Y-189926247D01*
X182619342Y-188211961D01*
X184190771Y-190116723D02*
X183988390Y-190211961D01*
X183607438Y-190211961D01*
X183428866Y-190116723D01*
X183357438Y-189926247D01*
X183452676Y-189164342D01*
X183571723Y-188973866D01*
X183774104Y-188878628D01*
X184155057Y-188878628D01*
X184333628Y-188973866D01*
X184405057Y-189164342D01*
X184381247Y-189354819D01*
X183405057Y-189545295D01*
X185155057Y-190021485D02*
X185238390Y-190116723D01*
X185131247Y-190211961D01*
X185047914Y-190116723D01*
X185155057Y-190021485D01*
X185131247Y-190211961D01*
X185286009Y-188973866D02*
X185369342Y-189069104D01*
X185262200Y-189164342D01*
X185178866Y-189069104D01*
X185286009Y-188973866D01*
X185262200Y-189164342D01*
X187583628Y-189640533D02*
X188536009Y-189640533D01*
X187321723Y-190211961D02*
X188238390Y-188211961D01*
X188655057Y-190211961D01*
X189321723Y-190211961D02*
X189488390Y-188878628D01*
X189440771Y-189259580D02*
X189559819Y-189069104D01*
X189666961Y-188973866D01*
X189869342Y-188878628D01*
X190059819Y-188878628D01*
X191416961Y-190211961D02*
X191666961Y-188211961D01*
X191428866Y-190116723D02*
X191226485Y-190211961D01*
X190845533Y-190211961D01*
X190666961Y-190116723D01*
X190583628Y-190021485D01*
X190512200Y-189831009D01*
X190583628Y-189259580D01*
X190702676Y-189069104D01*
X190809819Y-188973866D01*
X191012200Y-188878628D01*
X191393152Y-188878628D01*
X191571723Y-188973866D01*
X193393152Y-188878628D02*
X193226485Y-190211961D01*
X192536009Y-188878628D02*
X192405057Y-189926247D01*
X192476485Y-190116723D01*
X192655057Y-190211961D01*
X192940771Y-190211961D01*
X193143152Y-190116723D01*
X193250295Y-190021485D01*
X194178866Y-190211961D02*
X194345533Y-188878628D01*
X194428866Y-188211961D02*
X194321723Y-188307200D01*
X194405057Y-188402438D01*
X194512200Y-188307200D01*
X194428866Y-188211961D01*
X194405057Y-188402438D01*
X195297914Y-188878628D02*
X195131247Y-190211961D01*
X195274104Y-189069104D02*
X195381247Y-188973866D01*
X195583628Y-188878628D01*
X195869342Y-188878628D01*
X196047914Y-188973866D01*
X196119342Y-189164342D01*
X195988390Y-190211961D01*
X197226485Y-190211961D02*
X197047914Y-190116723D01*
X196964580Y-190021485D01*
X196893152Y-189831009D01*
X196964580Y-189259580D01*
X197083628Y-189069104D01*
X197190771Y-188973866D01*
X197393152Y-188878628D01*
X197678866Y-188878628D01*
X197857438Y-188973866D01*
X197940771Y-189069104D01*
X198012200Y-189259580D01*
X197940771Y-189831009D01*
X197821723Y-190021485D01*
X197714580Y-190116723D01*
X197512200Y-190211961D01*
X197226485Y-190211961D01*
X200274104Y-190211961D02*
X200524104Y-188211961D01*
X201416961Y-190211961D01*
X201666961Y-188211961D01*
X203226485Y-190211961D02*
X203357438Y-189164342D01*
X203286009Y-188973866D01*
X203107438Y-188878628D01*
X202726485Y-188878628D01*
X202524104Y-188973866D01*
X203238390Y-190116723D02*
X203036009Y-190211961D01*
X202559819Y-190211961D01*
X202381247Y-190116723D01*
X202309819Y-189926247D01*
X202333628Y-189735771D01*
X202452676Y-189545295D01*
X202655057Y-189450057D01*
X203131247Y-189450057D01*
X203333628Y-189354819D01*
X204345533Y-188878628D02*
X204178866Y-190211961D01*
X204321723Y-189069104D02*
X204428866Y-188973866D01*
X204631247Y-188878628D01*
X204916961Y-188878628D01*
X205095533Y-188973866D01*
X205166961Y-189164342D01*
X205036009Y-190211961D01*
X206274104Y-190211961D02*
X206095533Y-190116723D01*
X206012200Y-190021485D01*
X205940771Y-189831009D01*
X206012200Y-189259580D01*
X206131247Y-189069104D01*
X206238390Y-188973866D01*
X206440771Y-188878628D01*
X206726485Y-188878628D01*
X206905057Y-188973866D01*
X206988390Y-189069104D01*
X207059819Y-189259580D01*
X206988390Y-189831009D01*
X206869342Y-190021485D01*
X206762200Y-190116723D01*
X206559819Y-190211961D01*
X206274104Y-190211961D01*
D10*
D11*
X178934342Y-185600057D02*
X178434342Y-185600057D01*
X178434342Y-186385771D02*
X178434342Y-184885771D01*
X179148628Y-184885771D01*
X179720057Y-186385771D02*
X179720057Y-185385771D01*
X179720057Y-184885771D02*
X179648628Y-184957200D01*
X179720057Y-185028628D01*
X179791485Y-184957200D01*
X179720057Y-184885771D01*
X179720057Y-185028628D01*
X180648628Y-186385771D02*
X180505771Y-186314342D01*
X180434342Y-186171485D01*
X180434342Y-184885771D01*
X181791485Y-186314342D02*
X181648628Y-186385771D01*
X181362914Y-186385771D01*
X181220057Y-186314342D01*
X181148628Y-186171485D01*
X181148628Y-185600057D01*
X181220057Y-185457200D01*
X181362914Y-185385771D01*
X181648628Y-185385771D01*
X181791485Y-185457200D01*
X181862914Y-185600057D01*
X181862914Y-185742914D01*
X181148628Y-185885771D01*
X182505771Y-186242914D02*
X182577200Y-186314342D01*
X182505771Y-186385771D01*
X182434342Y-186314342D01*
X182505771Y-186242914D01*
X182505771Y-186385771D01*
X182505771Y-185457200D02*
X182577200Y-185528628D01*
X182505771Y-185600057D01*
X182434342Y-185528628D01*
X182505771Y-185457200D01*
X182505771Y-185600057D01*
X184291485Y-185957200D02*
X185005771Y-185957200D01*
X184148628Y-186385771D02*
X184648628Y-184885771D01*
X185148628Y-186385771D01*
X185648628Y-186385771D02*
X185648628Y-185385771D01*
X185648628Y-185671485D02*
X185720057Y-185528628D01*
X185791485Y-185457200D01*
X185934342Y-185385771D01*
X186077200Y-185385771D01*
X187220057Y-186385771D02*
X187220057Y-184885771D01*
X187220057Y-186314342D02*
X187077200Y-186385771D01*
X186791485Y-186385771D01*
X186648628Y-186314342D01*
X186577200Y-186242914D01*
X186505771Y-186100057D01*
X186505771Y-185671485D01*
X186577200Y-185528628D01*
X186648628Y-185457200D01*
X186791485Y-185385771D01*
X187077200Y-185385771D01*
X187220057Y-185457200D01*
X188577200Y-185385771D02*
X188577200Y-186385771D01*
X187934342Y-185385771D02*
X187934342Y-186171485D01*
X188005771Y-186314342D01*
X188148628Y-186385771D01*
X188362914Y-186385771D01*
X188505771Y-186314342D01*
X188577200Y-186242914D01*
X189291485Y-186385771D02*
X189291485Y-185385771D01*
X189291485Y-184885771D02*
X189220057Y-184957200D01*
X189291485Y-185028628D01*
X189362914Y-184957200D01*
X189291485Y-184885771D01*
X189291485Y-185028628D01*
X190005771Y-185385771D02*
X190005771Y-186385771D01*
X190005771Y-185528628D02*
X190077200Y-185457200D01*
X190220057Y-185385771D01*
X190434342Y-185385771D01*
X190577200Y-185457200D01*
X190648628Y-185600057D01*
X190648628Y-186385771D01*
X191577200Y-186385771D02*
X191434342Y-186314342D01*
X191362914Y-186242914D01*
X191291485Y-186100057D01*
X191291485Y-185671485D01*
X191362914Y-185528628D01*
X191434342Y-185457200D01*
X191577200Y-185385771D01*
X191791485Y-185385771D01*
X191934342Y-185457200D01*
X192005771Y-185528628D01*
X192077200Y-185671485D01*
X192077200Y-186100057D01*
X192005771Y-186242914D01*
X191934342Y-186314342D01*
X191791485Y-186385771D01*
X191577200Y-186385771D01*
X192362914Y-186528628D02*
X193505771Y-186528628D01*
X193862914Y-186385771D02*
X193862914Y-184885771D01*
X194720057Y-186385771D01*
X194720057Y-184885771D01*
X196077200Y-186385771D02*
X196077200Y-185600057D01*
X196005771Y-185457200D01*
X195862914Y-185385771D01*
X195577200Y-185385771D01*
X195434342Y-185457200D01*
X196077200Y-186314342D02*
X195934342Y-186385771D01*
X195577200Y-186385771D01*
X195434342Y-186314342D01*
X195362914Y-186171485D01*
X195362914Y-186028628D01*
X195434342Y-185885771D01*
X195577200Y-185814342D01*
X195934342Y-185814342D01*
X196077200Y-185742914D01*
X196791485Y-185385771D02*
X196791485Y-186385771D01*
X196791485Y-185528628D02*
X196862914Y-185457200D01*
X197005771Y-185385771D01*
X197220057Y-185385771D01*
X197362914Y-185457200D01*
X197434342Y-185600057D01*
X197434342Y-186385771D01*
X198362914Y-186385771D02*
X198220057Y-186314342D01*
X198148628Y-186242914D01*
X198077200Y-186100057D01*
X198077200Y-185671485D01*
X198148628Y-185528628D01*
X198220057Y-185457200D01*
X198362914Y-185385771D01*
X198577200Y-185385771D01*
X198720057Y-185457200D01*
X198791485Y-185528628D01*
X198862914Y-185671485D01*
X198862914Y-186100057D01*
X198791485Y-186242914D01*
X198720057Y-186314342D01*
X198577200Y-186385771D01*
X198362914Y-186385771D01*
X199148628Y-186528628D02*
X200291485Y-186528628D01*
X200648628Y-185600057D02*
X201148628Y-185600057D01*
X201362914Y-186385771D02*
X200648628Y-186385771D01*
X200648628Y-184885771D01*
X201362914Y-184885771D01*
X201862914Y-186385771D02*
X202648628Y-185385771D01*
X201862914Y-185385771D02*
X202648628Y-186385771D01*
X203862914Y-186385771D02*
X203862914Y-185600057D01*
X203791485Y-185457200D01*
X203648628Y-185385771D01*
X203362914Y-185385771D01*
X203220057Y-185457200D01*
X203862914Y-186314342D02*
X203720057Y-186385771D01*
X203362914Y-186385771D01*
X203220057Y-186314342D01*
X203148628Y-186171485D01*
X203148628Y-186028628D01*
X203220057Y-185885771D01*
X203362914Y-185814342D01*
X203720057Y-185814342D01*
X203862914Y-185742914D01*
X204577200Y-186385771D02*
X204577200Y-185385771D01*
X204577200Y-185528628D02*
X204648628Y-185457200D01*
X204791485Y-185385771D01*
X205005771Y-185385771D01*
X205148628Y-185457200D01*
X205220057Y-185600057D01*
X205220057Y-186385771D01*
X205220057Y-185600057D02*
X205291485Y-185457200D01*
X205434342Y-185385771D01*
X205648628Y-185385771D01*
X205791485Y-185457200D01*
X205862914Y-185600057D01*
X205862914Y-186385771D01*
X206577200Y-185385771D02*
X206577200Y-186885771D01*
X206577200Y-185457200D02*
X206720057Y-185385771D01*
X207005771Y-185385771D01*
X207148628Y-185457200D01*
X207220057Y-185528628D01*
X207291485Y-185671485D01*
X207291485Y-186100057D01*
X207220057Y-186242914D01*
X207148628Y-186314342D01*
X207005771Y-186385771D01*
X206720057Y-186385771D01*
X206577200Y-186314342D01*
X208148628Y-186385771D02*
X208005771Y-186314342D01*
X207934342Y-186171485D01*
X207934342Y-184885771D01*
X209291485Y-186314342D02*
X209148628Y-186385771D01*
X208862914Y-186385771D01*
X208720057Y-186314342D01*
X208648628Y-186171485D01*
X208648628Y-185600057D01*
X208720057Y-185457200D01*
X208862914Y-185385771D01*
X209148628Y-185385771D01*
X209291485Y-185457200D01*
X209362914Y-185600057D01*
X209362914Y-185742914D01*
X208648628Y-185885771D01*
X210005771Y-186242914D02*
X210077200Y-186314342D01*
X210005771Y-186385771D01*
X209934342Y-186314342D01*
X210005771Y-186242914D01*
X210005771Y-186385771D01*
X210720057Y-186385771D02*
X210720057Y-184885771D01*
X210862914Y-185814342D02*
X211291485Y-186385771D01*
X211291485Y-185385771D02*
X210720057Y-185957200D01*
X211934342Y-186385771D02*
X211934342Y-185385771D01*
X211934342Y-184885771D02*
X211862914Y-184957200D01*
X211934342Y-185028628D01*
X212005771Y-184957200D01*
X211934342Y-184885771D01*
X211934342Y-185028628D01*
X213291485Y-186314342D02*
X213148628Y-186385771D01*
X212862914Y-186385771D01*
X212720057Y-186314342D01*
X212648628Y-186242914D01*
X212577200Y-186100057D01*
X212577200Y-185671485D01*
X212648628Y-185528628D01*
X212720057Y-185457200D01*
X212862914Y-185385771D01*
X213148628Y-185385771D01*
X213291485Y-185457200D01*
X214577200Y-186385771D02*
X214577200Y-185600057D01*
X214505771Y-185457200D01*
X214362914Y-185385771D01*
X214077200Y-185385771D01*
X213934342Y-185457200D01*
X214577200Y-186314342D02*
X214434342Y-186385771D01*
X214077200Y-186385771D01*
X213934342Y-186314342D01*
X213862914Y-186171485D01*
X213862914Y-186028628D01*
X213934342Y-185885771D01*
X214077200Y-185814342D01*
X214434342Y-185814342D01*
X214577200Y-185742914D01*
X215934342Y-186385771D02*
X215934342Y-184885771D01*
X215934342Y-186314342D02*
X215791485Y-186385771D01*
X215505771Y-186385771D01*
X215362914Y-186314342D01*
X215291485Y-186242914D01*
X215220057Y-186100057D01*
X215220057Y-185671485D01*
X215291485Y-185528628D01*
X215362914Y-185457200D01*
X215505771Y-185385771D01*
X215791485Y-185385771D01*
X215934342Y-185457200D01*
X216291485Y-186528628D02*
X217434342Y-186528628D01*
X217791485Y-185385771D02*
X217791485Y-186885771D01*
X217791485Y-185457200D02*
X217934342Y-185385771D01*
X218220057Y-185385771D01*
X218362914Y-185457200D01*
X218434342Y-185528628D01*
X218505771Y-185671485D01*
X218505771Y-186100057D01*
X218434342Y-186242914D01*
X218362914Y-186314342D01*
X218220057Y-186385771D01*
X217934342Y-186385771D01*
X217791485Y-186314342D01*
X219791485Y-186314342D02*
X219648628Y-186385771D01*
X219362914Y-186385771D01*
X219220057Y-186314342D01*
X219148628Y-186242914D01*
X219077200Y-186100057D01*
X219077200Y-185671485D01*
X219148628Y-185528628D01*
X219220057Y-185457200D01*
X219362914Y-185385771D01*
X219648628Y-185385771D01*
X219791485Y-185457200D01*
X220434342Y-186385771D02*
X220434342Y-184885771D01*
X220434342Y-185457200D02*
X220577200Y-185385771D01*
X220862914Y-185385771D01*
X221005771Y-185457200D01*
X221077200Y-185528628D01*
X221148628Y-185671485D01*
X221148628Y-186100057D01*
X221077200Y-186242914D01*
X221005771Y-186314342D01*
X220862914Y-186385771D01*
X220577200Y-186385771D01*
X220434342Y-186314342D01*
D10*
D11*
X177002200Y-181507200D02*
X285002200Y-181507200D01*
D10*
D11*
X178362914Y-183614342D02*
X178577200Y-183685771D01*
X178934342Y-183685771D01*
X179077200Y-183614342D01*
X179148628Y-183542914D01*
X179220057Y-183400057D01*
X179220057Y-183257200D01*
X179148628Y-183114342D01*
X179077200Y-183042914D01*
X178934342Y-182971485D01*
X178648628Y-182900057D01*
X178505771Y-182828628D01*
X178434342Y-182757200D01*
X178362914Y-182614342D01*
X178362914Y-182471485D01*
X178434342Y-182328628D01*
X178505771Y-182257200D01*
X178648628Y-182185771D01*
X179005771Y-182185771D01*
X179220057Y-182257200D01*
X179862914Y-183685771D02*
X179862914Y-182185771D01*
X180505771Y-183685771D02*
X180505771Y-182900057D01*
X180434342Y-182757200D01*
X180291485Y-182685771D01*
X180077200Y-182685771D01*
X179934342Y-182757200D01*
X179862914Y-182828628D01*
X181791485Y-183614342D02*
X181648628Y-183685771D01*
X181362914Y-183685771D01*
X181220057Y-183614342D01*
X181148628Y-183471485D01*
X181148628Y-182900057D01*
X181220057Y-182757200D01*
X181362914Y-182685771D01*
X181648628Y-182685771D01*
X181791485Y-182757200D01*
X181862914Y-182900057D01*
X181862914Y-183042914D01*
X181148628Y-183185771D01*
X183077200Y-183614342D02*
X182934342Y-183685771D01*
X182648628Y-183685771D01*
X182505771Y-183614342D01*
X182434342Y-183471485D01*
X182434342Y-182900057D01*
X182505771Y-182757200D01*
X182648628Y-182685771D01*
X182934342Y-182685771D01*
X183077200Y-182757200D01*
X183148628Y-182900057D01*
X183148628Y-183042914D01*
X182434342Y-183185771D01*
X183577200Y-182685771D02*
X184148628Y-182685771D01*
X183791485Y-182185771D02*
X183791485Y-183471485D01*
X183862914Y-183614342D01*
X184005771Y-183685771D01*
X184148628Y-183685771D01*
X184648628Y-183542914D02*
X184720057Y-183614342D01*
X184648628Y-183685771D01*
X184577200Y-183614342D01*
X184648628Y-183542914D01*
X184648628Y-183685771D01*
X184648628Y-182757200D02*
X184720057Y-182828628D01*
X184648628Y-182900057D01*
X184577200Y-182828628D01*
X184648628Y-182757200D01*
X184648628Y-182900057D01*
D10*
D12*
X178554342Y-180685771D02*
X178554342Y-179185771D01*
X179054342Y-180257200D01*
X179554342Y-179185771D01*
X179554342Y-180685771D01*
X180197200Y-180257200D02*
X180911485Y-180257200D01*
X180054342Y-180685771D02*
X180554342Y-179185771D01*
X181054342Y-180685771D01*
X181482914Y-180257200D02*
X182197200Y-180257200D01*
X181340057Y-180685771D02*
X181840057Y-179185771D01*
X182340057Y-180685771D01*
X183554342Y-180685771D02*
X182840057Y-180685771D01*
X182840057Y-179185771D01*
X184125771Y-179185771D02*
X183982914Y-179471485D01*
X184697200Y-180614342D02*
X184840057Y-180685771D01*
X185125771Y-180685771D01*
X185268628Y-180614342D01*
X185340057Y-180471485D01*
X185340057Y-180400057D01*
X185268628Y-180257200D01*
X185125771Y-180185771D01*
X184911485Y-180185771D01*
X184768628Y-180114342D01*
X184697200Y-179971485D01*
X184697200Y-179900057D01*
X184768628Y-179757200D01*
X184911485Y-179685771D01*
X185125771Y-179685771D01*
X185268628Y-179757200D01*
X187840057Y-180685771D02*
X187125771Y-180685771D01*
X187125771Y-179185771D01*
X188268628Y-180257200D02*
X188982914Y-180257200D01*
X188125771Y-180685771D02*
X188625771Y-179185771D01*
X189125771Y-180685771D01*
X190125771Y-179900057D02*
X190340057Y-179971485D01*
X190411485Y-180042914D01*
X190482914Y-180185771D01*
X190482914Y-180400057D01*
X190411485Y-180542914D01*
X190340057Y-180614342D01*
X190197200Y-180685771D01*
X189625771Y-180685771D01*
X189625771Y-179185771D01*
X190125771Y-179185771D01*
X190268628Y-179257200D01*
X190340057Y-179328628D01*
X190411485Y-179471485D01*
X190411485Y-179614342D01*
X190340057Y-179757200D01*
X190268628Y-179828628D01*
X190125771Y-179900057D01*
X189625771Y-179900057D01*
D10*
D11*
X178434342Y-177685771D02*
X178434342Y-176185771D01*
X178791485Y-176185771D01*
X179005771Y-176257200D01*
X179148628Y-176400057D01*
X179220057Y-176542914D01*
X179291485Y-176828628D01*
X179291485Y-177042914D01*
X179220057Y-177328628D01*
X179148628Y-177471485D01*
X179005771Y-177614342D01*
X178791485Y-177685771D01*
X178434342Y-177685771D01*
X180505771Y-177614342D02*
X180362914Y-177685771D01*
X180077200Y-177685771D01*
X179934342Y-177614342D01*
X179862914Y-177471485D01*
X179862914Y-176900057D01*
X179934342Y-176757200D01*
X180077200Y-176685771D01*
X180362914Y-176685771D01*
X180505771Y-176757200D01*
X180577200Y-176900057D01*
X180577200Y-177042914D01*
X179862914Y-177185771D01*
X181148628Y-177614342D02*
X181291485Y-177685771D01*
X181577200Y-177685771D01*
X181720057Y-177614342D01*
X181791485Y-177471485D01*
X181791485Y-177400057D01*
X181720057Y-177257200D01*
X181577200Y-177185771D01*
X181362914Y-177185771D01*
X181220057Y-177114342D01*
X181148628Y-176971485D01*
X181148628Y-176900057D01*
X181220057Y-176757200D01*
X181362914Y-176685771D01*
X181577200Y-176685771D01*
X181720057Y-176757200D01*
X182434342Y-177685771D02*
X182434342Y-176685771D01*
X182434342Y-176185771D02*
X182362914Y-176257200D01*
X182434342Y-176328628D01*
X182505771Y-176257200D01*
X182434342Y-176185771D01*
X182434342Y-176328628D01*
X183791485Y-176685771D02*
X183791485Y-177900057D01*
X183720057Y-178042914D01*
X183648628Y-178114342D01*
X183505771Y-178185771D01*
X183291485Y-178185771D01*
X183148628Y-178114342D01*
X183791485Y-177614342D02*
X183648628Y-177685771D01*
X183362914Y-177685771D01*
X183220057Y-177614342D01*
X183148628Y-177542914D01*
X183077200Y-177400057D01*
X183077200Y-176971485D01*
X183148628Y-176828628D01*
X183220057Y-176757200D01*
X183362914Y-176685771D01*
X183648628Y-176685771D01*
X183791485Y-176757200D01*
X184505771Y-176685771D02*
X184505771Y-177685771D01*
X184505771Y-176828628D02*
X184577200Y-176757200D01*
X184720057Y-176685771D01*
X184934342Y-176685771D01*
X185077200Y-176757200D01*
X185148628Y-176900057D01*
X185148628Y-177685771D01*
X186434342Y-177614342D02*
X186291485Y-177685771D01*
X186005771Y-177685771D01*
X185862914Y-177614342D01*
X185791485Y-177471485D01*
X185791485Y-176900057D01*
X185862914Y-176757200D01*
X186005771Y-176685771D01*
X186291485Y-176685771D01*
X186434342Y-176757200D01*
X186505771Y-176900057D01*
X186505771Y-177042914D01*
X185791485Y-177185771D01*
X187148628Y-177685771D02*
X187148628Y-176685771D01*
X187148628Y-176971485D02*
X187220057Y-176828628D01*
X187291485Y-176757200D01*
X187434342Y-176685771D01*
X187577200Y-176685771D01*
X188077200Y-177542914D02*
X188148628Y-177614342D01*
X188077200Y-177685771D01*
X188005771Y-177614342D01*
X188077200Y-177542914D01*
X188077200Y-177685771D01*
X188077200Y-176757200D02*
X188148628Y-176828628D01*
X188077200Y-176900057D01*
X188005771Y-176828628D01*
X188077200Y-176757200D01*
X188077200Y-176900057D01*
X189934342Y-177685771D02*
X189934342Y-176185771D01*
X190434342Y-177257200D01*
X190934342Y-176185771D01*
X190934342Y-177685771D01*
X191862914Y-177685771D02*
X191720057Y-177614342D01*
X191648628Y-177542914D01*
X191577200Y-177400057D01*
X191577200Y-176971485D01*
X191648628Y-176828628D01*
X191720057Y-176757200D01*
X191862914Y-176685771D01*
X192077200Y-176685771D01*
X192220057Y-176757200D01*
X192291485Y-176828628D01*
X192362914Y-176971485D01*
X192362914Y-177400057D01*
X192291485Y-177542914D01*
X192220057Y-177614342D01*
X192077200Y-177685771D01*
X191862914Y-177685771D01*
X193005771Y-177685771D02*
X193005771Y-176185771D01*
X193648628Y-177685771D02*
X193648628Y-176900057D01*
X193577200Y-176757200D01*
X193434342Y-176685771D01*
X193220057Y-176685771D01*
X193077200Y-176757200D01*
X193005771Y-176828628D01*
X195005771Y-177685771D02*
X195005771Y-176900057D01*
X194934342Y-176757200D01*
X194791485Y-176685771D01*
X194505771Y-176685771D01*
X194362914Y-176757200D01*
X195005771Y-177614342D02*
X194862914Y-177685771D01*
X194505771Y-177685771D01*
X194362914Y-177614342D01*
X194291485Y-177471485D01*
X194291485Y-177328628D01*
X194362914Y-177185771D01*
X194505771Y-177114342D01*
X194862914Y-177114342D01*
X195005771Y-177042914D01*
X195720057Y-177685771D02*
X195720057Y-176685771D01*
X195720057Y-176828628D02*
X195791485Y-176757200D01*
X195934342Y-176685771D01*
X196148628Y-176685771D01*
X196291485Y-176757200D01*
X196362914Y-176900057D01*
X196362914Y-177685771D01*
X196362914Y-176900057D02*
X196434342Y-176757200D01*
X196577200Y-176685771D01*
X196791485Y-176685771D01*
X196934342Y-176757200D01*
X197005771Y-176900057D01*
X197005771Y-177685771D01*
X197720057Y-177685771D02*
X197720057Y-176685771D01*
X197720057Y-176828628D02*
X197791485Y-176757200D01*
X197934342Y-176685771D01*
X198148628Y-176685771D01*
X198291485Y-176757200D01*
X198362914Y-176900057D01*
X198362914Y-177685771D01*
X198362914Y-176900057D02*
X198434342Y-176757200D01*
X198577200Y-176685771D01*
X198791485Y-176685771D01*
X198934342Y-176757200D01*
X199005771Y-176900057D01*
X199005771Y-177685771D01*
X200362914Y-177685771D02*
X200362914Y-176900057D01*
X200291485Y-176757200D01*
X200148628Y-176685771D01*
X199862914Y-176685771D01*
X199720057Y-176757200D01*
X200362914Y-177614342D02*
X200220057Y-177685771D01*
X199862914Y-177685771D01*
X199720057Y-177614342D01*
X199648628Y-177471485D01*
X199648628Y-177328628D01*
X199720057Y-177185771D01*
X199862914Y-177114342D01*
X200220057Y-177114342D01*
X200362914Y-177042914D01*
X201720057Y-177685771D02*
X201720057Y-176185771D01*
X201720057Y-177614342D02*
X201577200Y-177685771D01*
X201291485Y-177685771D01*
X201148628Y-177614342D01*
X201077200Y-177542914D01*
X201005771Y-177400057D01*
X201005771Y-176971485D01*
X201077200Y-176828628D01*
X201148628Y-176757200D01*
X201291485Y-176685771D01*
X201577200Y-176685771D01*
X201720057Y-176757200D01*
X203505771Y-177257200D02*
X204220057Y-177257200D01*
X203362914Y-177685771D02*
X203862914Y-176185771D01*
X204362914Y-177685771D01*
X204862914Y-177685771D02*
X204862914Y-176185771D01*
X205505771Y-177685771D02*
X205505771Y-176900057D01*
X205434342Y-176757200D01*
X205291485Y-176685771D01*
X205077200Y-176685771D01*
X204934342Y-176757200D01*
X204862914Y-176828628D01*
X206220057Y-177685771D02*
X206220057Y-176685771D01*
X206220057Y-176828628D02*
X206291485Y-176757200D01*
X206434342Y-176685771D01*
X206648628Y-176685771D01*
X206791485Y-176757200D01*
X206862914Y-176900057D01*
X206862914Y-177685771D01*
X206862914Y-176900057D02*
X206934342Y-176757200D01*
X207077200Y-176685771D01*
X207291485Y-176685771D01*
X207434342Y-176757200D01*
X207505771Y-176900057D01*
X207505771Y-177685771D01*
X208862914Y-177685771D02*
X208862914Y-176900057D01*
X208791485Y-176757200D01*
X208648628Y-176685771D01*
X208362914Y-176685771D01*
X208220057Y-176757200D01*
X208862914Y-177614342D02*
X208720057Y-177685771D01*
X208362914Y-177685771D01*
X208220057Y-177614342D01*
X208148628Y-177471485D01*
X208148628Y-177328628D01*
X208220057Y-177185771D01*
X208362914Y-177114342D01*
X208720057Y-177114342D01*
X208862914Y-177042914D01*
X210220057Y-177685771D02*
X210220057Y-176185771D01*
X210220057Y-177614342D02*
X210077200Y-177685771D01*
X209791485Y-177685771D01*
X209648628Y-177614342D01*
X209577200Y-177542914D01*
X209505771Y-177400057D01*
X209505771Y-176971485D01*
X209577200Y-176828628D01*
X209648628Y-176757200D01*
X209791485Y-176685771D01*
X210077200Y-176685771D01*
X210220057Y-176757200D01*
X212005771Y-177257200D02*
X212720057Y-177257200D01*
X211862914Y-177685771D02*
X212362914Y-176185771D01*
X212862914Y-177685771D01*
X214077200Y-177685771D02*
X213362914Y-177685771D01*
X213362914Y-176185771D01*
X214577200Y-177685771D02*
X214577200Y-176185771D01*
X215220057Y-177685771D02*
X215220057Y-176900057D01*
X215148628Y-176757200D01*
X215005771Y-176685771D01*
X214791485Y-176685771D01*
X214648628Y-176757200D01*
X214577200Y-176828628D01*
X216577200Y-177685771D02*
X216577200Y-176900057D01*
X216505771Y-176757200D01*
X216362914Y-176685771D01*
X216077200Y-176685771D01*
X215934342Y-176757200D01*
X216577200Y-177614342D02*
X216434342Y-177685771D01*
X216077200Y-177685771D01*
X215934342Y-177614342D01*
X215862914Y-177471485D01*
X215862914Y-177328628D01*
X215934342Y-177185771D01*
X216077200Y-177114342D01*
X216434342Y-177114342D01*
X216577200Y-177042914D01*
X217291485Y-177685771D02*
X217291485Y-176685771D01*
X217291485Y-176828628D02*
X217362914Y-176757200D01*
X217505771Y-176685771D01*
X217720057Y-176685771D01*
X217862914Y-176757200D01*
X217934342Y-176900057D01*
X217934342Y-177685771D01*
X217934342Y-176900057D02*
X218005771Y-176757200D01*
X218148628Y-176685771D01*
X218362914Y-176685771D01*
X218505771Y-176757200D01*
X218577200Y-176900057D01*
X218577200Y-177685771D01*
X219934342Y-177685771D02*
X219934342Y-176900057D01*
X219862914Y-176757200D01*
X219720057Y-176685771D01*
X219434342Y-176685771D01*
X219291485Y-176757200D01*
X219934342Y-177614342D02*
X219791485Y-177685771D01*
X219434342Y-177685771D01*
X219291485Y-177614342D01*
X219220057Y-177471485D01*
X219220057Y-177328628D01*
X219291485Y-177185771D01*
X219434342Y-177114342D01*
X219791485Y-177114342D01*
X219934342Y-177042914D01*
X221291485Y-177685771D02*
X221291485Y-176185771D01*
X221291485Y-177614342D02*
X221148628Y-177685771D01*
X220862914Y-177685771D01*
X220720057Y-177614342D01*
X220648628Y-177542914D01*
X220577200Y-177400057D01*
X220577200Y-176971485D01*
X220648628Y-176828628D01*
X220720057Y-176757200D01*
X220862914Y-176685771D01*
X221148628Y-176685771D01*
X221291485Y-176757200D01*
D10*
D11*
X197002200Y-191507200D02*
X197002200Y-194507200D01*
D10*
D11*
X261002200Y-191507200D02*
X261002200Y-198007200D01*
D14*
X116666666Y-64000000D02*
G75*
G03*
X116666666Y-64000000I-1666666J0D01*
G01*
X112500000Y-64000000D02*
X117500000Y-64000000D01*
X115000000Y-61500000D02*
X115000000Y-66500000D01*
X191666666Y-64000000D02*
G75*
G03*
X191666666Y-64000000I-1666666J0D01*
G01*
X187500000Y-64000000D02*
X192500000Y-64000000D01*
X190000000Y-61500000D02*
X190000000Y-66500000D01*
X154666666Y-64000000D02*
G75*
G03*
X154666666Y-64000000I-1666666J0D01*
G01*
X150500000Y-64000000D02*
X155500000Y-64000000D01*
X153000000Y-61500000D02*
X153000000Y-66500000D01*
X154666666Y-125000000D02*
G75*
G03*
X154666666Y-125000000I-1666666J0D01*
G01*
X150500000Y-125000000D02*
X155500000Y-125000000D01*
X153000000Y-122500000D02*
X153000000Y-127500000D01*
X197666666Y-125000000D02*
G75*
G03*
X197666666Y-125000000I-1666666J0D01*
G01*
X193500000Y-125000000D02*
X198500000Y-125000000D01*
X196000000Y-122500000D02*
X196000000Y-127500000D01*
X116666666Y-125000000D02*
G75*
G03*
X116666666Y-125000000I-1666666J0D01*
G01*
X112500000Y-125000000D02*
X117500000Y-125000000D01*
X115000000Y-122500000D02*
X115000000Y-127500000D01*
X196000000Y-119000000D02*
X196000000Y-71000000D01*
X113000000Y-122000000D02*
X193000000Y-122000000D01*
X110000000Y-71000000D02*
X110000000Y-119000000D01*
X193000000Y-68000000D02*
X113000000Y-68000000D01*
X193000000Y-68000000D02*
G75*
G02*
X196000000Y-71000000I0J-3000000D01*
G01*
X196000000Y-119000000D02*
G75*
G02*
X193000000Y-122000000I-3000000J0D01*
G01*
X113000000Y-122000000D02*
G75*
G02*
X110000000Y-119000000I0J3000000D01*
G01*
X110000000Y-71000000D02*
G75*
G02*
X113000000Y-68000000I3000000J0D01*
G01*
D15*
%TO.P,J7,9*%
%TO.N,/D10*%
X133680000Y-70000000D03*
%TO.P,J7,8*%
%TO.N,/D9*%
X136220000Y-70000000D03*
%TO.P,J7,7*%
%TO.N,/D8*%
X138760000Y-70000000D03*
%TO.P,J7,6*%
%TO.N,/D7*%
X141300000Y-70000000D03*
%TO.P,J7,5*%
%TO.N,/D6*%
X143840000Y-70000000D03*
%TO.P,J7,4*%
%TO.N,/D5*%
X146380000Y-70000000D03*
%TO.P,J7,3*%
%TO.N,/D4*%
X148920000Y-70000000D03*
%TO.P,J7,2*%
%TO.N,/D3*%
X151460000Y-70000000D03*
D16*
%TO.P,J7,1*%
%TO.N,/D2*%
X154000000Y-70000000D03*
%TD*%
D15*
%TO.P,J6,6*%
%TO.N,+5V*%
X176000000Y-96580000D03*
%TO.P,J6,5*%
%TO.N,GND*%
X173460000Y-96580000D03*
%TO.P,J6,4*%
%TO.N,+5V*%
X176000000Y-94040000D03*
%TO.P,J6,3*%
%TO.N,GND*%
X173460000Y-94040000D03*
%TO.P,J6,2*%
%TO.N,+5V*%
X176000000Y-91500000D03*
D16*
%TO.P,J6,1*%
%TO.N,GND*%
X173460000Y-91500000D03*
%TD*%
D15*
%TO.P,J8,6*%
%TO.N,+3V3*%
X183680000Y-96570000D03*
%TO.P,J8,5*%
%TO.N,GND*%
X183680000Y-94030000D03*
%TO.P,J8,4*%
%TO.N,+3V3*%
X186220000Y-96570000D03*
%TO.P,J8,3*%
%TO.N,GND*%
X186220000Y-94030000D03*
%TO.P,J8,2*%
%TO.N,+3V3*%
X188760000Y-96570000D03*
D16*
%TO.P,J8,1*%
%TO.N,GND*%
X188760000Y-94030000D03*
%TD*%
D17*
%TO.P,D6,2*%
%TO.N,+5V*%
X165340000Y-72000000D03*
D18*
%TO.P,D6,1*%
%TO.N,VDC*%
X175500000Y-72000000D03*
%TD*%
D15*
%TO.P,J5,8*%
%TO.N,/A7*%
X151280000Y-120000000D03*
%TO.P,J5,7*%
%TO.N,/A6*%
X148740000Y-120000000D03*
%TO.P,J5,6*%
%TO.N,/A5*%
X146200000Y-120000000D03*
%TO.P,J5,5*%
%TO.N,/A4*%
X143660000Y-120000000D03*
%TO.P,J5,4*%
%TO.N,/A3*%
X141120000Y-120000000D03*
%TO.P,J5,3*%
%TO.N,/A2*%
X138580000Y-120000000D03*
%TO.P,J5,2*%
%TO.N,/A1*%
X136040000Y-120000000D03*
D16*
%TO.P,J5,1*%
%TO.N,/A0*%
X133500000Y-120000000D03*
%TD*%
D15*
%TO.P,J4,5*%
%TO.N,/A5*%
X113200000Y-110680000D03*
%TO.P,J4,4*%
%TO.N,/A4*%
X113200000Y-108140000D03*
%TO.P,J4,3*%
%TO.N,D13*%
X113200000Y-105600000D03*
%TO.P,J4,2*%
%TO.N,D12*%
X113200000Y-103060000D03*
D16*
%TO.P,J4,1*%
%TO.N,D11*%
X113200000Y-100520000D03*
%TD*%
D19*
%TO.P,J3,3*%
%TO.N,GND*%
X185000000Y-76200000D03*
D20*
%TO.P,J3,2*%
X187800000Y-81000000D03*
D21*
%TO.P,J3,1*%
%TO.N,VDC*%
X182000000Y-81000000D03*
%TD*%
D15*
%TO.P,J1,6*%
%TO.N,GND*%
X116260000Y-79920000D03*
%TO.P,J1,5*%
%TO.N,/~RESET*%
X118800000Y-79920000D03*
%TO.P,J1,4*%
%TO.N,D11*%
X116260000Y-82460000D03*
%TO.P,J1,3*%
%TO.N,D13*%
X118800000Y-82460000D03*
%TO.P,J1,2*%
%TO.N,+5V*%
X116260000Y-85000000D03*
D16*
%TO.P,J1,1*%
%TO.N,D12*%
X118800000Y-85000000D03*
%TD*%
D22*
%TO.N,GND*%
X158400000Y-90000000D03*
X159000000Y-90600000D03*
X159075000Y-91525000D03*
X111800000Y-95800000D03*
X182700000Y-112500000D03*
X180700000Y-101200000D03*
X135600000Y-96700000D03*
X154600000Y-94600000D03*
X165000000Y-89000000D03*
X173500000Y-85500000D03*
X180000000Y-87500000D03*
X166500000Y-114500000D03*
X185200000Y-105200000D03*
X193800000Y-90000000D03*
X194200000Y-92200000D03*
X193400000Y-110200000D03*
%TO.N,/~RESET*%
X179000000Y-116400000D03*
X173200000Y-116400000D03*
X148800000Y-101800000D03*
X139600000Y-101800000D03*
X120400000Y-90800000D03*
%TO.N,+5V*%
X163400000Y-107600000D03*
X163400000Y-101800000D03*
X113200000Y-80000000D03*
X115800000Y-76600000D03*
X114700000Y-77700000D03*
X113700000Y-78700000D03*
X167400000Y-101800000D03*
X166000000Y-101800000D03*
X164600000Y-101800000D03*
X147200000Y-93800000D03*
X148600000Y-93800000D03*
X149800000Y-93800000D03*
%TO.N,/A5*%
X134400000Y-117400000D03*
%TO.N,/A4*%
X130600000Y-118400000D03*
%TO.N,/A7*%
X149600000Y-104800000D03*
X141600000Y-104800000D03*
%TO.N,/A6*%
X148800000Y-103200008D03*
X140599982Y-103200000D03*
X140600000Y-98000000D03*
X140600000Y-93800000D03*
%TO.N,/TXD*%
X178200000Y-110600000D03*
X175800000Y-108200000D03*
%TO.N,/RXD*%
X179200000Y-106000000D03*
X182000000Y-108800000D03*
%TD*%
D23*
%TO.N,/~RESET*%
X179000000Y-116400000D02*
X173200000Y-116400000D01*
X148800000Y-101800000D02*
X139600000Y-101800000D01*
X118800000Y-79920000D02*
X120400000Y-81520000D01*
X120400000Y-81520000D02*
X120400000Y-90800000D01*
%TO.N,+5V*%
X163400000Y-107600000D02*
X163400000Y-101800000D01*
D24*
X165340000Y-72000000D02*
X157800000Y-72000000D01*
X157800000Y-72000000D02*
X156400000Y-73400000D01*
X156400000Y-73400000D02*
X119000000Y-73400000D01*
X113200000Y-79200000D02*
X113200000Y-80000000D01*
X115800000Y-76600000D02*
X113200000Y-79200000D01*
X119000000Y-73400000D02*
X115800000Y-76600000D01*
D25*
X167400000Y-101800000D02*
X163400000Y-101800000D01*
X148600000Y-93800000D02*
X150400000Y-93800000D01*
X150400000Y-93800000D02*
X149800000Y-93800000D01*
X147200000Y-93800000D02*
X146800000Y-93800000D01*
X148600000Y-93800000D02*
X148600000Y-93800000D01*
X149800000Y-93800000D02*
X147200000Y-93800000D01*
X163400000Y-101800000D02*
X159000000Y-101800000D01*
X151000000Y-93800000D02*
X148600000Y-93800000D01*
X159000000Y-101800000D02*
X151000000Y-93800000D01*
D23*
%TO.N,D11*%
X114740000Y-82460000D02*
X116260000Y-82460000D01*
X113200000Y-84000000D02*
X114740000Y-82460000D01*
X113200000Y-100520000D02*
X113200000Y-84000000D01*
%TO.N,D12*%
X115130000Y-88670000D02*
X118800000Y-85000000D01*
X115130000Y-101130000D02*
X115130000Y-88670000D01*
X113200000Y-103060000D02*
X115130000Y-101130000D01*
%TO.N,/A5*%
X146200000Y-120000000D02*
X143600000Y-117400000D01*
X143600000Y-117400000D02*
X134400000Y-117400000D01*
%TO.N,/A4*%
X142060000Y-118400000D02*
X130600000Y-118400000D01*
X143660000Y-120000000D02*
X142060000Y-118400000D01*
%TO.N,/A7*%
X149034315Y-104800000D02*
X141600000Y-104800000D01*
X149600000Y-104800000D02*
X149034315Y-104800000D01*
%TO.N,/A6*%
X148799992Y-103200000D02*
X148800000Y-103200008D01*
X140599982Y-103200000D02*
X148799992Y-103200000D01*
X140600000Y-98000000D02*
X140600000Y-93800000D01*
%TO.N,/TXD*%
X175800000Y-108200000D02*
X178200000Y-110600000D01*
%TO.N,/RXD*%
X179200000Y-106000000D02*
X182000000Y-108800000D01*
%TD*%
D26*
%TO.N,GND*%
X132976589Y-68684010D02*
X132733368Y-68846525D01*
X132526525Y-69053368D01*
X132364010Y-69296589D01*
X132252068Y-69566842D01*
X132195000Y-69853740D01*
X132195000Y-70146260D01*
X132252068Y-70433158D01*
X132364010Y-70703411D01*
X132526525Y-70946632D01*
X132733368Y-71153475D01*
X132976589Y-71315990D01*
X133246842Y-71427932D01*
X133533740Y-71485000D01*
X133826260Y-71485000D01*
X134113158Y-71427932D01*
X134383411Y-71315990D01*
X134626632Y-71153475D01*
X134833475Y-70946632D01*
X134950000Y-70772240D01*
X135066525Y-70946632D01*
X135273368Y-71153475D01*
X135516589Y-71315990D01*
X135786842Y-71427932D01*
X136073740Y-71485000D01*
X136366260Y-71485000D01*
X136653158Y-71427932D01*
X136923411Y-71315990D01*
X137166632Y-71153475D01*
X137373475Y-70946632D01*
X137490000Y-70772240D01*
X137606525Y-70946632D01*
X137813368Y-71153475D01*
X138056589Y-71315990D01*
X138326842Y-71427932D01*
X138613740Y-71485000D01*
X138906260Y-71485000D01*
X139193158Y-71427932D01*
X139463411Y-71315990D01*
X139706632Y-71153475D01*
X139913475Y-70946632D01*
X140030000Y-70772240D01*
X140146525Y-70946632D01*
X140353368Y-71153475D01*
X140596589Y-71315990D01*
X140866842Y-71427932D01*
X141153740Y-71485000D01*
X141446260Y-71485000D01*
X141733158Y-71427932D01*
X142003411Y-71315990D01*
X142246632Y-71153475D01*
X142453475Y-70946632D01*
X142570000Y-70772240D01*
X142686525Y-70946632D01*
X142893368Y-71153475D01*
X143136589Y-71315990D01*
X143406842Y-71427932D01*
X143693740Y-71485000D01*
X143986260Y-71485000D01*
X144273158Y-71427932D01*
X144543411Y-71315990D01*
X144786632Y-71153475D01*
X144993475Y-70946632D01*
X145110000Y-70772240D01*
X145226525Y-70946632D01*
X145433368Y-71153475D01*
X145676589Y-71315990D01*
X145946842Y-71427932D01*
X146233740Y-71485000D01*
X146526260Y-71485000D01*
X146813158Y-71427932D01*
X147083411Y-71315990D01*
X147326632Y-71153475D01*
X147533475Y-70946632D01*
X147650000Y-70772240D01*
X147766525Y-70946632D01*
X147973368Y-71153475D01*
X148216589Y-71315990D01*
X148486842Y-71427932D01*
X148773740Y-71485000D01*
X149066260Y-71485000D01*
X149353158Y-71427932D01*
X149623411Y-71315990D01*
X149866632Y-71153475D01*
X150073475Y-70946632D01*
X150190000Y-70772240D01*
X150306525Y-70946632D01*
X150513368Y-71153475D01*
X150756589Y-71315990D01*
X151026842Y-71427932D01*
X151313740Y-71485000D01*
X151606260Y-71485000D01*
X151893158Y-71427932D01*
X152163411Y-71315990D01*
X152406632Y-71153475D01*
X152538487Y-71021620D01*
X152560498Y-71094180D01*
X152619463Y-71204494D01*
X152698815Y-71301185D01*
X152795506Y-71380537D01*
X152905820Y-71439502D01*
X153025518Y-71475812D01*
X153150000Y-71488072D01*
X154850000Y-71488072D01*
X154974482Y-71475812D01*
X155094180Y-71439502D01*
X155204494Y-71380537D01*
X155301185Y-71301185D01*
X155380537Y-71204494D01*
X155439502Y-71094180D01*
X155475812Y-70974482D01*
X155488072Y-70850000D01*
X155488072Y-69150000D01*
X155475812Y-69025518D01*
X155439502Y-68905820D01*
X155380537Y-68795506D01*
X155301185Y-68698815D01*
X155253889Y-68660000D01*
X192967721Y-68660000D01*
X193453893Y-68707670D01*
X193890498Y-68839489D01*
X194293185Y-69053600D01*
X194646612Y-69341848D01*
X194937327Y-69693261D01*
X195154242Y-70094439D01*
X195289106Y-70530113D01*
X195340001Y-71014353D01*
X195340000Y-118967721D01*
X195292330Y-119453894D01*
X195160512Y-119890497D01*
X194946399Y-120293186D01*
X194658150Y-120646613D01*
X194306739Y-120937327D01*
X193905564Y-121154240D01*
X193469886Y-121289106D01*
X192985664Y-121340000D01*
X151925445Y-121340000D01*
X151983411Y-121315990D01*
X152226632Y-121153475D01*
X152433475Y-120946632D01*
X152595990Y-120703411D01*
X152707932Y-120433158D01*
X152765000Y-120146260D01*
X152765000Y-119853740D01*
X152707932Y-119566842D01*
X152595990Y-119296589D01*
X152433475Y-119053368D01*
X152226632Y-118846525D01*
X151983411Y-118684010D01*
X151713158Y-118572068D01*
X151426260Y-118515000D01*
X151133740Y-118515000D01*
X150846842Y-118572068D01*
X150576589Y-118684010D01*
X150333368Y-118846525D01*
X150126525Y-119053368D01*
X150010000Y-119227760D01*
X149893475Y-119053368D01*
X149686632Y-118846525D01*
X149443411Y-118684010D01*
X149173158Y-118572068D01*
X148886260Y-118515000D01*
X148593740Y-118515000D01*
X148306842Y-118572068D01*
X148036589Y-118684010D01*
X147793368Y-118846525D01*
X147586525Y-119053368D01*
X147470000Y-119227760D01*
X147353475Y-119053368D01*
X147146632Y-118846525D01*
X146903411Y-118684010D01*
X146633158Y-118572068D01*
X146346260Y-118515000D01*
X146053740Y-118515000D01*
X145922061Y-118541193D01*
X145714910Y-118334042D01*
X190815000Y-118334042D01*
X190815000Y-118665958D01*
X190879754Y-118991496D01*
X191006772Y-119298147D01*
X191191175Y-119574125D01*
X191425875Y-119808825D01*
X191701853Y-119993228D01*
X192008504Y-120120246D01*
X192334042Y-120185000D01*
X192665958Y-120185000D01*
X192991496Y-120120246D01*
X193298147Y-119993228D01*
X193574125Y-119808825D01*
X193808825Y-119574125D01*
X193993228Y-119298147D01*
X194120246Y-118991496D01*
X194185000Y-118665958D01*
X194185000Y-118334042D01*
X194120246Y-118008504D01*
X193993228Y-117701853D01*
X193808825Y-117425875D01*
X193574125Y-117191175D01*
X193298147Y-117006772D01*
X192991496Y-116879754D01*
X192665958Y-116815000D01*
X192334042Y-116815000D01*
X192008504Y-116879754D01*
X191701853Y-117006772D01*
X191425875Y-117191175D01*
X191191175Y-117425875D01*
X191006772Y-117701853D01*
X190879754Y-118008504D01*
X190815000Y-118334042D01*
X145714910Y-118334042D01*
X144219446Y-116838579D01*
X144193291Y-116806709D01*
X144066146Y-116702364D01*
X143921087Y-116624828D01*
X143763689Y-116577082D01*
X143641019Y-116565000D01*
X143641018Y-116565000D01*
X143600000Y-116560960D01*
X143558982Y-116565000D01*
X135013285Y-116565000D01*
X134890256Y-116482795D01*
X134701898Y-116404774D01*
X134501939Y-116365000D01*
X134298061Y-116365000D01*
X134098102Y-116404774D01*
X133909744Y-116482795D01*
X133740226Y-116596063D01*
X133596063Y-116740226D01*
X133482795Y-116909744D01*
X133404774Y-117098102D01*
X133365000Y-117298061D01*
X133365000Y-117501939D01*
X133377544Y-117565000D01*
X131213285Y-117565000D01*
X131090256Y-117482795D01*
X130901898Y-117404774D01*
X130701939Y-117365000D01*
X130498061Y-117365000D01*
X130298102Y-117404774D01*
X130109744Y-117482795D01*
X129940226Y-117596063D01*
X129796063Y-117740226D01*
X129682795Y-117909744D01*
X129604774Y-118098102D01*
X129565000Y-118298061D01*
X129565000Y-118501939D01*
X129604774Y-118701898D01*
X129682795Y-118890256D01*
X129796063Y-119059774D01*
X129940226Y-119203937D01*
X130109744Y-119317205D01*
X130298102Y-119395226D01*
X130498061Y-119435000D01*
X130701939Y-119435000D01*
X130901898Y-119395226D01*
X131090256Y-119317205D01*
X131213285Y-119235000D01*
X132011928Y-119235000D01*
X132011928Y-120850000D01*
X132024188Y-120974482D01*
X132060498Y-121094180D01*
X132119463Y-121204494D01*
X132198815Y-121301185D01*
X132246111Y-121340000D01*
X113032279Y-121340000D01*
X112546106Y-121292330D01*
X112109503Y-121160512D01*
X111706814Y-120946399D01*
X111353387Y-120658150D01*
X111062673Y-120306739D01*
X110845760Y-119905564D01*
X110710894Y-119469886D01*
X110660000Y-118985664D01*
X110660000Y-118334042D01*
X111815000Y-118334042D01*
X111815000Y-118665958D01*
X111879754Y-118991496D01*
X112006772Y-119298147D01*
X112191175Y-119574125D01*
X112425875Y-119808825D01*
X112701853Y-119993228D01*
X113008504Y-120120246D01*
X113334042Y-120185000D01*
X113665958Y-120185000D01*
X113991496Y-120120246D01*
X114298147Y-119993228D01*
X114574125Y-119808825D01*
X114808825Y-119574125D01*
X114993228Y-119298147D01*
X115120246Y-118991496D01*
X115185000Y-118665958D01*
X115185000Y-118334042D01*
X115120246Y-118008504D01*
X114993228Y-117701853D01*
X114808825Y-117425875D01*
X114574125Y-117191175D01*
X114298147Y-117006772D01*
X113991496Y-116879754D01*
X113665958Y-116815000D01*
X113334042Y-116815000D01*
X113008504Y-116879754D01*
X112701853Y-117006772D01*
X112425875Y-117191175D01*
X112191175Y-117425875D01*
X112006772Y-117701853D01*
X111879754Y-118008504D01*
X111815000Y-118334042D01*
X110660000Y-118334042D01*
X110660000Y-116298061D01*
X172165000Y-116298061D01*
X172165000Y-116501939D01*
X172204774Y-116701898D01*
X172282795Y-116890256D01*
X172396063Y-117059774D01*
X172540226Y-117203937D01*
X172709744Y-117317205D01*
X172898102Y-117395226D01*
X173098061Y-117435000D01*
X173301939Y-117435000D01*
X173501898Y-117395226D01*
X173690256Y-117317205D01*
X173813285Y-117235000D01*
X178386715Y-117235000D01*
X178509744Y-117317205D01*
X178698102Y-117395226D01*
X178898061Y-117435000D01*
X179101939Y-117435000D01*
X179301898Y-117395226D01*
X179490256Y-117317205D01*
X179659774Y-117203937D01*
X179803937Y-117059774D01*
X179917205Y-116890256D01*
X179995226Y-116701898D01*
X180035000Y-116501939D01*
X180035000Y-116298061D01*
X179995226Y-116098102D01*
X179917205Y-115909744D01*
X179803937Y-115740226D01*
X179659774Y-115596063D01*
X179490256Y-115482795D01*
X179301898Y-115404774D01*
X179101939Y-115365000D01*
X178898061Y-115365000D01*
X178698102Y-115404774D01*
X178509744Y-115482795D01*
X178386715Y-115565000D01*
X173813285Y-115565000D01*
X173690256Y-115482795D01*
X173501898Y-115404774D01*
X173301939Y-115365000D01*
X173098061Y-115365000D01*
X172898102Y-115404774D01*
X172709744Y-115482795D01*
X172540226Y-115596063D01*
X172396063Y-115740226D01*
X172282795Y-115909744D01*
X172204774Y-116098102D01*
X172165000Y-116298061D01*
X110660000Y-116298061D01*
X110660000Y-99670000D01*
X111711928Y-99670000D01*
X111711928Y-101370000D01*
X111724188Y-101494482D01*
X111760498Y-101614180D01*
X111819463Y-101724494D01*
X111898815Y-101821185D01*
X111995506Y-101900537D01*
X112105820Y-101959502D01*
X112178380Y-101981513D01*
X112046525Y-102113368D01*
X111884010Y-102356589D01*
X111772068Y-102626842D01*
X111715000Y-102913740D01*
X111715000Y-103206260D01*
X111772068Y-103493158D01*
X111884010Y-103763411D01*
X112046525Y-104006632D01*
X112253368Y-104213475D01*
X112427760Y-104330000D01*
X112253368Y-104446525D01*
X112046525Y-104653368D01*
X111884010Y-104896589D01*
X111772068Y-105166842D01*
X111715000Y-105453740D01*
X111715000Y-105746260D01*
X111772068Y-106033158D01*
X111884010Y-106303411D01*
X112046525Y-106546632D01*
X112253368Y-106753475D01*
X112427760Y-106870000D01*
X112253368Y-106986525D01*
X112046525Y-107193368D01*
X111884010Y-107436589D01*
X111772068Y-107706842D01*
X111715000Y-107993740D01*
X111715000Y-108286260D01*
X111772068Y-108573158D01*
X111884010Y-108843411D01*
X112046525Y-109086632D01*
X112253368Y-109293475D01*
X112427760Y-109410000D01*
X112253368Y-109526525D01*
X112046525Y-109733368D01*
X111884010Y-109976589D01*
X111772068Y-110246842D01*
X111715000Y-110533740D01*
X111715000Y-110826260D01*
X111772068Y-111113158D01*
X111884010Y-111383411D01*
X112046525Y-111626632D01*
X112253368Y-111833475D01*
X112496589Y-111995990D01*
X112766842Y-112107932D01*
X113053740Y-112165000D01*
X113346260Y-112165000D01*
X113633158Y-112107932D01*
X113903411Y-111995990D01*
X114146632Y-111833475D01*
X114353475Y-111626632D01*
X114515990Y-111383411D01*
X114627932Y-111113158D01*
X114685000Y-110826260D01*
X114685000Y-110533740D01*
X114627932Y-110246842D01*
X114515990Y-109976589D01*
X114353475Y-109733368D01*
X114146632Y-109526525D01*
X113972240Y-109410000D01*
X114146632Y-109293475D01*
X114353475Y-109086632D01*
X114515990Y-108843411D01*
X114627932Y-108573158D01*
X114685000Y-108286260D01*
X114685000Y-107993740D01*
X114627932Y-107706842D01*
X114515990Y-107436589D01*
X114353475Y-107193368D01*
X114146632Y-106986525D01*
X113972240Y-106870000D01*
X114146632Y-106753475D01*
X114353475Y-106546632D01*
X114515990Y-106303411D01*
X114627932Y-106033158D01*
X114685000Y-105746260D01*
X114685000Y-105453740D01*
X114627932Y-105166842D01*
X114515990Y-104896589D01*
X114353475Y-104653368D01*
X114146632Y-104446525D01*
X113972240Y-104330000D01*
X114146632Y-104213475D01*
X114353475Y-104006632D01*
X114515990Y-103763411D01*
X114627932Y-103493158D01*
X114685000Y-103206260D01*
X114685000Y-102913740D01*
X114658807Y-102782060D01*
X115691428Y-101749440D01*
X115723291Y-101723291D01*
X115827636Y-101596146D01*
X115905172Y-101451087D01*
X115952918Y-101293689D01*
X115965000Y-101171019D01*
X115965000Y-101171018D01*
X115969040Y-101130001D01*
X115965000Y-101088982D01*
X115965000Y-100500000D01*
X138473000Y-100500000D01*
X138473000Y-106000000D01*
X138475440Y-106024776D01*
X138482667Y-106048601D01*
X138494403Y-106070557D01*
X138510197Y-106089803D01*
X138529443Y-106105597D01*
X138551399Y-106117333D01*
X138575224Y-106124560D01*
X138600000Y-106127000D01*
X150700000Y-106127000D01*
X150724776Y-106124560D01*
X150748601Y-106117333D01*
X150770557Y-106105597D01*
X150789803Y-106089803D01*
X150805597Y-106070557D01*
X150817333Y-106048601D01*
X150824560Y-106024776D01*
X150827000Y-106000000D01*
X150827000Y-100500000D01*
X150824560Y-100475224D01*
X150817333Y-100451399D01*
X150805597Y-100429443D01*
X150789803Y-100410197D01*
X150770557Y-100394403D01*
X150748601Y-100382667D01*
X150724776Y-100375440D01*
X150700000Y-100373000D01*
X138600000Y-100373000D01*
X138575224Y-100375440D01*
X138551399Y-100382667D01*
X138529443Y-100394403D01*
X138510197Y-100410197D01*
X138494403Y-100429443D01*
X138482667Y-100451399D01*
X138475440Y-100475224D01*
X138473000Y-100500000D01*
X115965000Y-100500000D01*
X115965000Y-93698061D01*
X139565000Y-93698061D01*
X139565000Y-93901939D01*
X139604774Y-94101898D01*
X139682795Y-94290256D01*
X139765001Y-94413286D01*
X139765000Y-97386715D01*
X139682795Y-97509744D01*
X139604774Y-97698102D01*
X139565000Y-97898061D01*
X139565000Y-98101939D01*
X139604774Y-98301898D01*
X139682795Y-98490256D01*
X139796063Y-98659774D01*
X139940226Y-98803937D01*
X140109744Y-98917205D01*
X140298102Y-98995226D01*
X140498061Y-99035000D01*
X140701939Y-99035000D01*
X140901898Y-98995226D01*
X141090256Y-98917205D01*
X141259774Y-98803937D01*
X141403937Y-98659774D01*
X141517205Y-98490256D01*
X141595226Y-98301898D01*
X141635000Y-98101939D01*
X141635000Y-97898061D01*
X141595226Y-97698102D01*
X141517205Y-97509744D01*
X141435000Y-97386715D01*
X141435000Y-94413285D01*
X141517205Y-94290256D01*
X141595226Y-94101898D01*
X141635000Y-93901939D01*
X141635000Y-93800000D01*
X145533904Y-93800000D01*
X145558232Y-94047003D01*
X145630280Y-94284514D01*
X145747280Y-94503405D01*
X145904735Y-94695265D01*
X146096595Y-94852720D01*
X146315486Y-94969720D01*
X146552997Y-95041768D01*
X146738107Y-95060000D01*
X150478092Y-95060000D01*
X158065281Y-102647190D01*
X158104735Y-102695265D01*
X158296595Y-102852720D01*
X158515486Y-102969720D01*
X158752997Y-103041768D01*
X158938107Y-103060000D01*
X158938116Y-103060000D01*
X158999999Y-103066095D01*
X159061882Y-103060000D01*
X162565001Y-103060000D01*
X162565000Y-106986715D01*
X162482795Y-107109744D01*
X162404774Y-107298102D01*
X162365000Y-107498061D01*
X162365000Y-107701939D01*
X162404774Y-107901898D01*
X162482795Y-108090256D01*
X162596063Y-108259774D01*
X162740226Y-108403937D01*
X162909744Y-108517205D01*
X163098102Y-108595226D01*
X163298061Y-108635000D01*
X163501939Y-108635000D01*
X163701898Y-108595226D01*
X163890256Y-108517205D01*
X164059774Y-108403937D01*
X164203937Y-108259774D01*
X164311989Y-108098061D01*
X174765000Y-108098061D01*
X174765000Y-108301939D01*
X174804774Y-108501898D01*
X174882795Y-108690256D01*
X174996063Y-108859774D01*
X175140226Y-109003937D01*
X175309744Y-109117205D01*
X175498102Y-109195226D01*
X175643225Y-109224093D01*
X177175908Y-110756776D01*
X177204774Y-110901898D01*
X177282795Y-111090256D01*
X177396063Y-111259774D01*
X177540226Y-111403937D01*
X177709744Y-111517205D01*
X177898102Y-111595226D01*
X178098061Y-111635000D01*
X178301939Y-111635000D01*
X178501898Y-111595226D01*
X178690256Y-111517205D01*
X178859774Y-111403937D01*
X179003937Y-111259774D01*
X179117205Y-111090256D01*
X179195226Y-110901898D01*
X179235000Y-110701939D01*
X179235000Y-110498061D01*
X179195226Y-110298102D01*
X179117205Y-110109744D01*
X179003937Y-109940226D01*
X178859774Y-109796063D01*
X178690256Y-109682795D01*
X178501898Y-109604774D01*
X178356776Y-109575908D01*
X176824093Y-108043225D01*
X176795226Y-107898102D01*
X176717205Y-107709744D01*
X176603937Y-107540226D01*
X176459774Y-107396063D01*
X176290256Y-107282795D01*
X176101898Y-107204774D01*
X175901939Y-107165000D01*
X175698061Y-107165000D01*
X175498102Y-107204774D01*
X175309744Y-107282795D01*
X175140226Y-107396063D01*
X174996063Y-107540226D01*
X174882795Y-107709744D01*
X174804774Y-107898102D01*
X174765000Y-108098061D01*
X164311989Y-108098061D01*
X164317205Y-108090256D01*
X164395226Y-107901898D01*
X164435000Y-107701939D01*
X164435000Y-107498061D01*
X164395226Y-107298102D01*
X164317205Y-107109744D01*
X164235000Y-106986715D01*
X164235000Y-105898061D01*
X178165000Y-105898061D01*
X178165000Y-106101939D01*
X178204774Y-106301898D01*
X178282795Y-106490256D01*
X178396063Y-106659774D01*
X178540226Y-106803937D01*
X178709744Y-106917205D01*
X178898102Y-106995226D01*
X179043225Y-107024093D01*
X180975908Y-108956775D01*
X181004774Y-109101898D01*
X181082795Y-109290256D01*
X181196063Y-109459774D01*
X181340226Y-109603937D01*
X181509744Y-109717205D01*
X181698102Y-109795226D01*
X181898061Y-109835000D01*
X182101939Y-109835000D01*
X182301898Y-109795226D01*
X182490256Y-109717205D01*
X182659774Y-109603937D01*
X182803937Y-109459774D01*
X182917205Y-109290256D01*
X182995226Y-109101898D01*
X183035000Y-108901939D01*
X183035000Y-108698061D01*
X182995226Y-108498102D01*
X182917205Y-108309744D01*
X182803937Y-108140226D01*
X182659774Y-107996063D01*
X182490256Y-107882795D01*
X182301898Y-107804774D01*
X182156775Y-107775908D01*
X180224093Y-105843225D01*
X180195226Y-105698102D01*
X180117205Y-105509744D01*
X180003937Y-105340226D01*
X179859774Y-105196063D01*
X179690256Y-105082795D01*
X179501898Y-105004774D01*
X179301939Y-104965000D01*
X179098061Y-104965000D01*
X178898102Y-105004774D01*
X178709744Y-105082795D01*
X178540226Y-105196063D01*
X178396063Y-105340226D01*
X178282795Y-105509744D01*
X178204774Y-105698102D01*
X178165000Y-105898061D01*
X164235000Y-105898061D01*
X164235000Y-103060000D01*
X167461893Y-103060000D01*
X167647003Y-103041768D01*
X167884514Y-102969720D01*
X168103405Y-102852720D01*
X168295265Y-102695265D01*
X168452720Y-102503405D01*
X168569720Y-102284514D01*
X168641768Y-102047003D01*
X168666096Y-101800000D01*
X168641768Y-101552997D01*
X168569720Y-101315486D01*
X168452720Y-101096595D01*
X168295265Y-100904735D01*
X168103405Y-100747280D01*
X167884514Y-100630280D01*
X167647003Y-100558232D01*
X167461893Y-100540000D01*
X159521909Y-100540000D01*
X151934724Y-92952816D01*
X151895265Y-92904735D01*
X151703405Y-92747280D01*
X151484514Y-92630280D01*
X151247003Y-92558232D01*
X151061893Y-92540000D01*
X151061883Y-92540000D01*
X151000000Y-92533905D01*
X150938117Y-92540000D01*
X146738107Y-92540000D01*
X146552997Y-92558232D01*
X146315486Y-92630280D01*
X146096595Y-92747280D01*
X145904735Y-92904735D01*
X145747280Y-93096595D01*
X145630280Y-93315486D01*
X145558232Y-93552997D01*
X145533904Y-93800000D01*
X141635000Y-93800000D01*
X141635000Y-93698061D01*
X141595226Y-93498102D01*
X141517205Y-93309744D01*
X141403937Y-93140226D01*
X141259774Y-92996063D01*
X141090256Y-92882795D01*
X140901898Y-92804774D01*
X140701939Y-92765000D01*
X140498061Y-92765000D01*
X140298102Y-92804774D01*
X140109744Y-92882795D01*
X139940226Y-92996063D01*
X139796063Y-93140226D01*
X139682795Y-93309744D01*
X139604774Y-93498102D01*
X139565000Y-93698061D01*
X115965000Y-93698061D01*
X115965000Y-89015867D01*
X118492797Y-86488072D01*
X119565001Y-86488072D01*
X119565001Y-90186714D01*
X119482795Y-90309744D01*
X119404774Y-90498102D01*
X119365000Y-90698061D01*
X119365000Y-90901939D01*
X119404774Y-91101898D01*
X119482795Y-91290256D01*
X119596063Y-91459774D01*
X119740226Y-91603937D01*
X119909744Y-91717205D01*
X120098102Y-91795226D01*
X120298061Y-91835000D01*
X120501939Y-91835000D01*
X120701898Y-91795226D01*
X120890256Y-91717205D01*
X121059774Y-91603937D01*
X121203937Y-91459774D01*
X121274786Y-91353740D01*
X174515000Y-91353740D01*
X174515000Y-91646260D01*
X174572068Y-91933158D01*
X174684010Y-92203411D01*
X174846525Y-92446632D01*
X175053368Y-92653475D01*
X175227760Y-92770000D01*
X175053368Y-92886525D01*
X174846525Y-93093368D01*
X174684010Y-93336589D01*
X174572068Y-93606842D01*
X174515000Y-93893740D01*
X174515000Y-94186260D01*
X174572068Y-94473158D01*
X174684010Y-94743411D01*
X174846525Y-94986632D01*
X175053368Y-95193475D01*
X175227760Y-95310000D01*
X175053368Y-95426525D01*
X174846525Y-95633368D01*
X174684010Y-95876589D01*
X174572068Y-96146842D01*
X174515000Y-96433740D01*
X174515000Y-96726260D01*
X174572068Y-97013158D01*
X174684010Y-97283411D01*
X174846525Y-97526632D01*
X175053368Y-97733475D01*
X175296589Y-97895990D01*
X175566842Y-98007932D01*
X175853740Y-98065000D01*
X176146260Y-98065000D01*
X176433158Y-98007932D01*
X176703411Y-97895990D01*
X176946632Y-97733475D01*
X177153475Y-97526632D01*
X177315990Y-97283411D01*
X177427932Y-97013158D01*
X177485000Y-96726260D01*
X177485000Y-96433740D01*
X177483011Y-96423740D01*
X182195000Y-96423740D01*
X182195000Y-96716260D01*
X182252068Y-97003158D01*
X182364010Y-97273411D01*
X182526525Y-97516632D01*
X182733368Y-97723475D01*
X182976589Y-97885990D01*
X183246842Y-97997932D01*
X183533740Y-98055000D01*
X183826260Y-98055000D01*
X184113158Y-97997932D01*
X184383411Y-97885990D01*
X184626632Y-97723475D01*
X184833475Y-97516632D01*
X184950000Y-97342240D01*
X185066525Y-97516632D01*
X185273368Y-97723475D01*
X185516589Y-97885990D01*
X185786842Y-97997932D01*
X186073740Y-98055000D01*
X186366260Y-98055000D01*
X186653158Y-97997932D01*
X186923411Y-97885990D01*
X187166632Y-97723475D01*
X187373475Y-97516632D01*
X187490000Y-97342240D01*
X187606525Y-97516632D01*
X187813368Y-97723475D01*
X188056589Y-97885990D01*
X188326842Y-97997932D01*
X188613740Y-98055000D01*
X188906260Y-98055000D01*
X189193158Y-97997932D01*
X189463411Y-97885990D01*
X189706632Y-97723475D01*
X189913475Y-97516632D01*
X190075990Y-97273411D01*
X190187932Y-97003158D01*
X190245000Y-96716260D01*
X190245000Y-96423740D01*
X190187932Y-96136842D01*
X190075990Y-95866589D01*
X189913475Y-95623368D01*
X189706632Y-95416525D01*
X189463411Y-95254010D01*
X189193158Y-95142068D01*
X188906260Y-95085000D01*
X188613740Y-95085000D01*
X188326842Y-95142068D01*
X188056589Y-95254010D01*
X187813368Y-95416525D01*
X187606525Y-95623368D01*
X187490000Y-95797760D01*
X187373475Y-95623368D01*
X187166632Y-95416525D01*
X186923411Y-95254010D01*
X186653158Y-95142068D01*
X186366260Y-95085000D01*
X186073740Y-95085000D01*
X185786842Y-95142068D01*
X185516589Y-95254010D01*
X185273368Y-95416525D01*
X185066525Y-95623368D01*
X184950000Y-95797760D01*
X184833475Y-95623368D01*
X184626632Y-95416525D01*
X184383411Y-95254010D01*
X184113158Y-95142068D01*
X183826260Y-95085000D01*
X183533740Y-95085000D01*
X183246842Y-95142068D01*
X182976589Y-95254010D01*
X182733368Y-95416525D01*
X182526525Y-95623368D01*
X182364010Y-95866589D01*
X182252068Y-96136842D01*
X182195000Y-96423740D01*
X177483011Y-96423740D01*
X177427932Y-96146842D01*
X177315990Y-95876589D01*
X177153475Y-95633368D01*
X176946632Y-95426525D01*
X176772240Y-95310000D01*
X176946632Y-95193475D01*
X177153475Y-94986632D01*
X177315990Y-94743411D01*
X177427932Y-94473158D01*
X177485000Y-94186260D01*
X177485000Y-93893740D01*
X177427932Y-93606842D01*
X177315990Y-93336589D01*
X177153475Y-93093368D01*
X176946632Y-92886525D01*
X176772240Y-92770000D01*
X176946632Y-92653475D01*
X177153475Y-92446632D01*
X177315990Y-92203411D01*
X177427932Y-91933158D01*
X177485000Y-91646260D01*
X177485000Y-91353740D01*
X177427932Y-91066842D01*
X177315990Y-90796589D01*
X177153475Y-90553368D01*
X176946632Y-90346525D01*
X176703411Y-90184010D01*
X176433158Y-90072068D01*
X176146260Y-90015000D01*
X175853740Y-90015000D01*
X175566842Y-90072068D01*
X175296589Y-90184010D01*
X175053368Y-90346525D01*
X174846525Y-90553368D01*
X174684010Y-90796589D01*
X174572068Y-91066842D01*
X174515000Y-91353740D01*
X121274786Y-91353740D01*
X121317205Y-91290256D01*
X121395226Y-91101898D01*
X121435000Y-90901939D01*
X121435000Y-90698061D01*
X121395226Y-90498102D01*
X121317205Y-90309744D01*
X121235000Y-90186715D01*
X121235000Y-81561018D01*
X121239040Y-81520000D01*
X121222918Y-81356312D01*
X121207816Y-81306525D01*
X121175172Y-81198913D01*
X121097636Y-81053854D01*
X121079757Y-81032068D01*
X121019439Y-80958570D01*
X121019437Y-80958568D01*
X120993291Y-80926709D01*
X120961433Y-80900564D01*
X120258807Y-80197939D01*
X120285000Y-80066260D01*
X120285000Y-79773740D01*
X120227932Y-79486842D01*
X120115990Y-79216589D01*
X119953475Y-78973368D01*
X119780107Y-78800000D01*
X180461928Y-78800000D01*
X180461928Y-83200000D01*
X180474188Y-83324482D01*
X180510498Y-83444180D01*
X180569463Y-83554494D01*
X180648815Y-83651185D01*
X180745506Y-83730537D01*
X180855820Y-83789502D01*
X180975518Y-83825812D01*
X181100000Y-83838072D01*
X182900000Y-83838072D01*
X183024482Y-83825812D01*
X183144180Y-83789502D01*
X183254494Y-83730537D01*
X183351185Y-83651185D01*
X183430537Y-83554494D01*
X183489502Y-83444180D01*
X183525812Y-83324482D01*
X183538072Y-83200000D01*
X183538072Y-78800000D01*
X183525812Y-78675518D01*
X183489502Y-78555820D01*
X183430537Y-78445506D01*
X183351185Y-78348815D01*
X183254494Y-78269463D01*
X183144180Y-78210498D01*
X183024482Y-78174188D01*
X182900000Y-78161928D01*
X181100000Y-78161928D01*
X180975518Y-78174188D01*
X180855820Y-78210498D01*
X180745506Y-78269463D01*
X180648815Y-78348815D01*
X180569463Y-78445506D01*
X180510498Y-78555820D01*
X180474188Y-78675518D01*
X180461928Y-78800000D01*
X119780107Y-78800000D01*
X119746632Y-78766525D01*
X119503411Y-78604010D01*
X119233158Y-78492068D01*
X118946260Y-78435000D01*
X118653740Y-78435000D01*
X118366842Y-78492068D01*
X118096589Y-78604010D01*
X117853368Y-78766525D01*
X117646525Y-78973368D01*
X117484010Y-79216589D01*
X117372068Y-79486842D01*
X117315000Y-79773740D01*
X117315000Y-80066260D01*
X117372068Y-80353158D01*
X117484010Y-80623411D01*
X117646525Y-80866632D01*
X117853368Y-81073475D01*
X118027760Y-81190000D01*
X117853368Y-81306525D01*
X117646525Y-81513368D01*
X117530000Y-81687760D01*
X117413475Y-81513368D01*
X117206632Y-81306525D01*
X116963411Y-81144010D01*
X116693158Y-81032068D01*
X116406260Y-80975000D01*
X116113740Y-80975000D01*
X115826842Y-81032068D01*
X115556589Y-81144010D01*
X115313368Y-81306525D01*
X115106525Y-81513368D01*
X115031935Y-81625000D01*
X114781018Y-81625000D01*
X114740000Y-81620960D01*
X114698981Y-81625000D01*
X114576311Y-81637082D01*
X114418913Y-81684828D01*
X114273854Y-81762364D01*
X114146709Y-81866709D01*
X114120563Y-81898568D01*
X112638574Y-83380559D01*
X112606710Y-83406709D01*
X112525907Y-83505168D01*
X112502364Y-83533855D01*
X112424828Y-83678914D01*
X112377082Y-83836312D01*
X112360960Y-84000000D01*
X112365001Y-84041029D01*
X112365000Y-99031928D01*
X112350000Y-99031928D01*
X112225518Y-99044188D01*
X112105820Y-99080498D01*
X111995506Y-99139463D01*
X111898815Y-99218815D01*
X111819463Y-99315506D01*
X111760498Y-99425820D01*
X111724188Y-99545518D01*
X111711928Y-99670000D01*
X110660000Y-99670000D01*
X110660000Y-79200000D01*
X111682695Y-79200000D01*
X111690000Y-79274170D01*
X111690000Y-80074178D01*
X111711849Y-80296012D01*
X111798192Y-80580648D01*
X111938406Y-80842970D01*
X112127103Y-81072897D01*
X112357031Y-81261594D01*
X112619353Y-81401808D01*
X112903989Y-81488151D01*
X113200000Y-81517306D01*
X113496012Y-81488151D01*
X113780648Y-81401808D01*
X114042970Y-81261594D01*
X114272897Y-81072897D01*
X114461594Y-80842970D01*
X114601808Y-80580648D01*
X114688151Y-80296012D01*
X114710000Y-80074177D01*
X114710000Y-79825462D01*
X119625462Y-74910000D01*
X156325830Y-74910000D01*
X156400000Y-74917305D01*
X156474170Y-74910000D01*
X156474178Y-74910000D01*
X156696012Y-74888151D01*
X156980648Y-74801808D01*
X157242970Y-74661594D01*
X157472897Y-74472897D01*
X157520183Y-74415279D01*
X158425463Y-73510000D01*
X164476957Y-73510000D01*
X164518169Y-73537537D01*
X164833919Y-73668325D01*
X165169117Y-73735000D01*
X165510883Y-73735000D01*
X165846081Y-73668325D01*
X166161831Y-73537537D01*
X166445998Y-73347663D01*
X166687663Y-73105998D01*
X166877537Y-72821831D01*
X167008325Y-72506081D01*
X167075000Y-72170883D01*
X167075000Y-71829117D01*
X167008325Y-71493919D01*
X166877537Y-71178169D01*
X166691671Y-70900000D01*
X173761928Y-70900000D01*
X173761928Y-73100000D01*
X173774188Y-73224482D01*
X173810498Y-73344180D01*
X173869463Y-73454494D01*
X173948815Y-73551185D01*
X174045506Y-73630537D01*
X174155820Y-73689502D01*
X174275518Y-73725812D01*
X174400000Y-73738072D01*
X176600000Y-73738072D01*
X176724482Y-73725812D01*
X176844180Y-73689502D01*
X176954494Y-73630537D01*
X177051185Y-73551185D01*
X177130537Y-73454494D01*
X177189502Y-73344180D01*
X177225812Y-73224482D01*
X177238072Y-73100000D01*
X177238072Y-71334042D01*
X190815000Y-71334042D01*
X190815000Y-71665958D01*
X190879754Y-71991496D01*
X191006772Y-72298147D01*
X191191175Y-72574125D01*
X191425875Y-72808825D01*
X191701853Y-72993228D01*
X192008504Y-73120246D01*
X192334042Y-73185000D01*
X192665958Y-73185000D01*
X192991496Y-73120246D01*
X193298147Y-72993228D01*
X193574125Y-72808825D01*
X193808825Y-72574125D01*
X193993228Y-72298147D01*
X194120246Y-71991496D01*
X194185000Y-71665958D01*
X194185000Y-71334042D01*
X194120246Y-71008504D01*
X193993228Y-70701853D01*
X193808825Y-70425875D01*
X193574125Y-70191175D01*
X193298147Y-70006772D01*
X192991496Y-69879754D01*
X192665958Y-69815000D01*
X192334042Y-69815000D01*
X192008504Y-69879754D01*
X191701853Y-70006772D01*
X191425875Y-70191175D01*
X191191175Y-70425875D01*
X191006772Y-70701853D01*
X190879754Y-71008504D01*
X190815000Y-71334042D01*
X177238072Y-71334042D01*
X177238072Y-70900000D01*
X177225812Y-70775518D01*
X177189502Y-70655820D01*
X177130537Y-70545506D01*
X177051185Y-70448815D01*
X176954494Y-70369463D01*
X176844180Y-70310498D01*
X176724482Y-70274188D01*
X176600000Y-70261928D01*
X174400000Y-70261928D01*
X174275518Y-70274188D01*
X174155820Y-70310498D01*
X174045506Y-70369463D01*
X173948815Y-70448815D01*
X173869463Y-70545506D01*
X173810498Y-70655820D01*
X173774188Y-70775518D01*
X173761928Y-70900000D01*
X166691671Y-70900000D01*
X166687663Y-70894002D01*
X166445998Y-70652337D01*
X166161831Y-70462463D01*
X165846081Y-70331675D01*
X165510883Y-70265000D01*
X165169117Y-70265000D01*
X164833919Y-70331675D01*
X164518169Y-70462463D01*
X164476957Y-70490000D01*
X157874170Y-70490000D01*
X157800000Y-70482695D01*
X157725829Y-70490000D01*
X157725822Y-70490000D01*
X157503988Y-70511849D01*
X157219352Y-70598192D01*
X156957030Y-70738406D01*
X156860697Y-70817465D01*
X156784720Y-70879817D01*
X156784716Y-70879821D01*
X156727103Y-70927103D01*
X156679821Y-70984716D01*
X155774538Y-71890000D01*
X119074170Y-71890000D01*
X118999999Y-71882695D01*
X118925828Y-71890000D01*
X118925822Y-71890000D01*
X118733689Y-71908924D01*
X118703987Y-71911849D01*
X118617644Y-71938041D01*
X118419352Y-71998192D01*
X118157030Y-72138406D01*
X117927103Y-72327103D01*
X117879817Y-72384721D01*
X112184721Y-78079817D01*
X112127103Y-78127103D01*
X111938406Y-78357031D01*
X111798192Y-78619353D01*
X111711849Y-78903989D01*
X111690000Y-79125823D01*
X111690000Y-79125830D01*
X111682695Y-79200000D01*
X110660000Y-79200000D01*
X110660000Y-71334042D01*
X111815000Y-71334042D01*
X111815000Y-71665958D01*
X111879754Y-71991496D01*
X112006772Y-72298147D01*
X112191175Y-72574125D01*
X112425875Y-72808825D01*
X112701853Y-72993228D01*
X113008504Y-73120246D01*
X113334042Y-73185000D01*
X113665958Y-73185000D01*
X113991496Y-73120246D01*
X114298147Y-72993228D01*
X114574125Y-72808825D01*
X114808825Y-72574125D01*
X114993228Y-72298147D01*
X115120246Y-71991496D01*
X115185000Y-71665958D01*
X115185000Y-71334042D01*
X115120246Y-71008504D01*
X114993228Y-70701853D01*
X114808825Y-70425875D01*
X114574125Y-70191175D01*
X114298147Y-70006772D01*
X113991496Y-69879754D01*
X113665958Y-69815000D01*
X113334042Y-69815000D01*
X113008504Y-69879754D01*
X112701853Y-70006772D01*
X112425875Y-70191175D01*
X112191175Y-70425875D01*
X112006772Y-70701853D01*
X111879754Y-71008504D01*
X111815000Y-71334042D01*
X110660000Y-71334042D01*
X110660000Y-71032279D01*
X110707670Y-70546107D01*
X110839489Y-70109502D01*
X111053600Y-69706815D01*
X111341848Y-69353388D01*
X111693261Y-69062673D01*
X112094439Y-68845758D01*
X112530113Y-68710894D01*
X113014344Y-68660000D01*
X133034555Y-68660000D01*
X132976589Y-68684010D01*
%TA.AperFunction,Conductor*%
D27*
G36*
X132976589Y-68684010D02*
G01*
X132733368Y-68846525D01*
X132526525Y-69053368D01*
X132364010Y-69296589D01*
X132252068Y-69566842D01*
X132195000Y-69853740D01*
X132195000Y-70146260D01*
X132252068Y-70433158D01*
X132364010Y-70703411D01*
X132526525Y-70946632D01*
X132733368Y-71153475D01*
X132976589Y-71315990D01*
X133246842Y-71427932D01*
X133533740Y-71485000D01*
X133826260Y-71485000D01*
X134113158Y-71427932D01*
X134383411Y-71315990D01*
X134626632Y-71153475D01*
X134833475Y-70946632D01*
X134950000Y-70772240D01*
X135066525Y-70946632D01*
X135273368Y-71153475D01*
X135516589Y-71315990D01*
X135786842Y-71427932D01*
X136073740Y-71485000D01*
X136366260Y-71485000D01*
X136653158Y-71427932D01*
X136923411Y-71315990D01*
X137166632Y-71153475D01*
X137373475Y-70946632D01*
X137490000Y-70772240D01*
X137606525Y-70946632D01*
X137813368Y-71153475D01*
X138056589Y-71315990D01*
X138326842Y-71427932D01*
X138613740Y-71485000D01*
X138906260Y-71485000D01*
X139193158Y-71427932D01*
X139463411Y-71315990D01*
X139706632Y-71153475D01*
X139913475Y-70946632D01*
X140030000Y-70772240D01*
X140146525Y-70946632D01*
X140353368Y-71153475D01*
X140596589Y-71315990D01*
X140866842Y-71427932D01*
X141153740Y-71485000D01*
X141446260Y-71485000D01*
X141733158Y-71427932D01*
X142003411Y-71315990D01*
X142246632Y-71153475D01*
X142453475Y-70946632D01*
X142570000Y-70772240D01*
X142686525Y-70946632D01*
X142893368Y-71153475D01*
X143136589Y-71315990D01*
X143406842Y-71427932D01*
X143693740Y-71485000D01*
X143986260Y-71485000D01*
X144273158Y-71427932D01*
X144543411Y-71315990D01*
X144786632Y-71153475D01*
X144993475Y-70946632D01*
X145110000Y-70772240D01*
X145226525Y-70946632D01*
X145433368Y-71153475D01*
X145676589Y-71315990D01*
X145946842Y-71427932D01*
X146233740Y-71485000D01*
X146526260Y-71485000D01*
X146813158Y-71427932D01*
X147083411Y-71315990D01*
X147326632Y-71153475D01*
X147533475Y-70946632D01*
X147650000Y-70772240D01*
X147766525Y-70946632D01*
X147973368Y-71153475D01*
X148216589Y-71315990D01*
X148486842Y-71427932D01*
X148773740Y-71485000D01*
X149066260Y-71485000D01*
X149353158Y-71427932D01*
X149623411Y-71315990D01*
X149866632Y-71153475D01*
X150073475Y-70946632D01*
X150190000Y-70772240D01*
X150306525Y-70946632D01*
X150513368Y-71153475D01*
X150756589Y-71315990D01*
X151026842Y-71427932D01*
X151313740Y-71485000D01*
X151606260Y-71485000D01*
X151893158Y-71427932D01*
X152163411Y-71315990D01*
X152406632Y-71153475D01*
X152538487Y-71021620D01*
X152560498Y-71094180D01*
X152619463Y-71204494D01*
X152698815Y-71301185D01*
X152795506Y-71380537D01*
X152905820Y-71439502D01*
X153025518Y-71475812D01*
X153150000Y-71488072D01*
X154850000Y-71488072D01*
X154974482Y-71475812D01*
X155094180Y-71439502D01*
X155204494Y-71380537D01*
X155301185Y-71301185D01*
X155380537Y-71204494D01*
X155439502Y-71094180D01*
X155475812Y-70974482D01*
X155488072Y-70850000D01*
X155488072Y-69150000D01*
X155475812Y-69025518D01*
X155439502Y-68905820D01*
X155380537Y-68795506D01*
X155301185Y-68698815D01*
X155253889Y-68660000D01*
X192967721Y-68660000D01*
X193453893Y-68707670D01*
X193890498Y-68839489D01*
X194293185Y-69053600D01*
X194646612Y-69341848D01*
X194937327Y-69693261D01*
X195154242Y-70094439D01*
X195289106Y-70530113D01*
X195340001Y-71014353D01*
X195340000Y-118967721D01*
X195292330Y-119453894D01*
X195160512Y-119890497D01*
X194946399Y-120293186D01*
X194658150Y-120646613D01*
X194306739Y-120937327D01*
X193905564Y-121154240D01*
X193469886Y-121289106D01*
X192985664Y-121340000D01*
X151925445Y-121340000D01*
X151983411Y-121315990D01*
X152226632Y-121153475D01*
X152433475Y-120946632D01*
X152595990Y-120703411D01*
X152707932Y-120433158D01*
X152765000Y-120146260D01*
X152765000Y-119853740D01*
X152707932Y-119566842D01*
X152595990Y-119296589D01*
X152433475Y-119053368D01*
X152226632Y-118846525D01*
X151983411Y-118684010D01*
X151713158Y-118572068D01*
X151426260Y-118515000D01*
X151133740Y-118515000D01*
X150846842Y-118572068D01*
X150576589Y-118684010D01*
X150333368Y-118846525D01*
X150126525Y-119053368D01*
X150010000Y-119227760D01*
X149893475Y-119053368D01*
X149686632Y-118846525D01*
X149443411Y-118684010D01*
X149173158Y-118572068D01*
X148886260Y-118515000D01*
X148593740Y-118515000D01*
X148306842Y-118572068D01*
X148036589Y-118684010D01*
X147793368Y-118846525D01*
X147586525Y-119053368D01*
X147470000Y-119227760D01*
X147353475Y-119053368D01*
X147146632Y-118846525D01*
X146903411Y-118684010D01*
X146633158Y-118572068D01*
X146346260Y-118515000D01*
X146053740Y-118515000D01*
X145922061Y-118541193D01*
X145714910Y-118334042D01*
X190815000Y-118334042D01*
X190815000Y-118665958D01*
X190879754Y-118991496D01*
X191006772Y-119298147D01*
X191191175Y-119574125D01*
X191425875Y-119808825D01*
X191701853Y-119993228D01*
X192008504Y-120120246D01*
X192334042Y-120185000D01*
X192665958Y-120185000D01*
X192991496Y-120120246D01*
X193298147Y-119993228D01*
X193574125Y-119808825D01*
X193808825Y-119574125D01*
X193993228Y-119298147D01*
X194120246Y-118991496D01*
X194185000Y-118665958D01*
X194185000Y-118334042D01*
X194120246Y-118008504D01*
X193993228Y-117701853D01*
X193808825Y-117425875D01*
X193574125Y-117191175D01*
X193298147Y-117006772D01*
X192991496Y-116879754D01*
X192665958Y-116815000D01*
X192334042Y-116815000D01*
X192008504Y-116879754D01*
X191701853Y-117006772D01*
X191425875Y-117191175D01*
X191191175Y-117425875D01*
X191006772Y-117701853D01*
X190879754Y-118008504D01*
X190815000Y-118334042D01*
X145714910Y-118334042D01*
X144219446Y-116838579D01*
X144193291Y-116806709D01*
X144066146Y-116702364D01*
X143921087Y-116624828D01*
X143763689Y-116577082D01*
X143641019Y-116565000D01*
X143641018Y-116565000D01*
X143600000Y-116560960D01*
X143558982Y-116565000D01*
X135013285Y-116565000D01*
X134890256Y-116482795D01*
X134701898Y-116404774D01*
X134501939Y-116365000D01*
X134298061Y-116365000D01*
X134098102Y-116404774D01*
X133909744Y-116482795D01*
X133740226Y-116596063D01*
X133596063Y-116740226D01*
X133482795Y-116909744D01*
X133404774Y-117098102D01*
X133365000Y-117298061D01*
X133365000Y-117501939D01*
X133377544Y-117565000D01*
X131213285Y-117565000D01*
X131090256Y-117482795D01*
X130901898Y-117404774D01*
X130701939Y-117365000D01*
X130498061Y-117365000D01*
X130298102Y-117404774D01*
X130109744Y-117482795D01*
X129940226Y-117596063D01*
X129796063Y-117740226D01*
X129682795Y-117909744D01*
X129604774Y-118098102D01*
X129565000Y-118298061D01*
X129565000Y-118501939D01*
X129604774Y-118701898D01*
X129682795Y-118890256D01*
X129796063Y-119059774D01*
X129940226Y-119203937D01*
X130109744Y-119317205D01*
X130298102Y-119395226D01*
X130498061Y-119435000D01*
X130701939Y-119435000D01*
X130901898Y-119395226D01*
X131090256Y-119317205D01*
X131213285Y-119235000D01*
X132011928Y-119235000D01*
X132011928Y-120850000D01*
X132024188Y-120974482D01*
X132060498Y-121094180D01*
X132119463Y-121204494D01*
X132198815Y-121301185D01*
X132246111Y-121340000D01*
X113032279Y-121340000D01*
X112546106Y-121292330D01*
X112109503Y-121160512D01*
X111706814Y-120946399D01*
X111353387Y-120658150D01*
X111062673Y-120306739D01*
X110845760Y-119905564D01*
X110710894Y-119469886D01*
X110660000Y-118985664D01*
X110660000Y-118334042D01*
X111815000Y-118334042D01*
X111815000Y-118665958D01*
X111879754Y-118991496D01*
X112006772Y-119298147D01*
X112191175Y-119574125D01*
X112425875Y-119808825D01*
X112701853Y-119993228D01*
X113008504Y-120120246D01*
X113334042Y-120185000D01*
X113665958Y-120185000D01*
X113991496Y-120120246D01*
X114298147Y-119993228D01*
X114574125Y-119808825D01*
X114808825Y-119574125D01*
X114993228Y-119298147D01*
X115120246Y-118991496D01*
X115185000Y-118665958D01*
X115185000Y-118334042D01*
X115120246Y-118008504D01*
X114993228Y-117701853D01*
X114808825Y-117425875D01*
X114574125Y-117191175D01*
X114298147Y-117006772D01*
X113991496Y-116879754D01*
X113665958Y-116815000D01*
X113334042Y-116815000D01*
X113008504Y-116879754D01*
X112701853Y-117006772D01*
X112425875Y-117191175D01*
X112191175Y-117425875D01*
X112006772Y-117701853D01*
X111879754Y-118008504D01*
X111815000Y-118334042D01*
X110660000Y-118334042D01*
X110660000Y-116298061D01*
X172165000Y-116298061D01*
X172165000Y-116501939D01*
X172204774Y-116701898D01*
X172282795Y-116890256D01*
X172396063Y-117059774D01*
X172540226Y-117203937D01*
X172709744Y-117317205D01*
X172898102Y-117395226D01*
X173098061Y-117435000D01*
X173301939Y-117435000D01*
X173501898Y-117395226D01*
X173690256Y-117317205D01*
X173813285Y-117235000D01*
X178386715Y-117235000D01*
X178509744Y-117317205D01*
X178698102Y-117395226D01*
X178898061Y-117435000D01*
X179101939Y-117435000D01*
X179301898Y-117395226D01*
X179490256Y-117317205D01*
X179659774Y-117203937D01*
X179803937Y-117059774D01*
X179917205Y-116890256D01*
X179995226Y-116701898D01*
X180035000Y-116501939D01*
X180035000Y-116298061D01*
X179995226Y-116098102D01*
X179917205Y-115909744D01*
X179803937Y-115740226D01*
X179659774Y-115596063D01*
X179490256Y-115482795D01*
X179301898Y-115404774D01*
X179101939Y-115365000D01*
X178898061Y-115365000D01*
X178698102Y-115404774D01*
X178509744Y-115482795D01*
X178386715Y-115565000D01*
X173813285Y-115565000D01*
X173690256Y-115482795D01*
X173501898Y-115404774D01*
X173301939Y-115365000D01*
X173098061Y-115365000D01*
X172898102Y-115404774D01*
X172709744Y-115482795D01*
X172540226Y-115596063D01*
X172396063Y-115740226D01*
X172282795Y-115909744D01*
X172204774Y-116098102D01*
X172165000Y-116298061D01*
X110660000Y-116298061D01*
X110660000Y-99670000D01*
X111711928Y-99670000D01*
X111711928Y-101370000D01*
X111724188Y-101494482D01*
X111760498Y-101614180D01*
X111819463Y-101724494D01*
X111898815Y-101821185D01*
X111995506Y-101900537D01*
X112105820Y-101959502D01*
X112178380Y-101981513D01*
X112046525Y-102113368D01*
X111884010Y-102356589D01*
X111772068Y-102626842D01*
X111715000Y-102913740D01*
X111715000Y-103206260D01*
X111772068Y-103493158D01*
X111884010Y-103763411D01*
X112046525Y-104006632D01*
X112253368Y-104213475D01*
X112427760Y-104330000D01*
X112253368Y-104446525D01*
X112046525Y-104653368D01*
X111884010Y-104896589D01*
X111772068Y-105166842D01*
X111715000Y-105453740D01*
X111715000Y-105746260D01*
X111772068Y-106033158D01*
X111884010Y-106303411D01*
X112046525Y-106546632D01*
X112253368Y-106753475D01*
X112427760Y-106870000D01*
X112253368Y-106986525D01*
X112046525Y-107193368D01*
X111884010Y-107436589D01*
X111772068Y-107706842D01*
X111715000Y-107993740D01*
X111715000Y-108286260D01*
X111772068Y-108573158D01*
X111884010Y-108843411D01*
X112046525Y-109086632D01*
X112253368Y-109293475D01*
X112427760Y-109410000D01*
X112253368Y-109526525D01*
X112046525Y-109733368D01*
X111884010Y-109976589D01*
X111772068Y-110246842D01*
X111715000Y-110533740D01*
X111715000Y-110826260D01*
X111772068Y-111113158D01*
X111884010Y-111383411D01*
X112046525Y-111626632D01*
X112253368Y-111833475D01*
X112496589Y-111995990D01*
X112766842Y-112107932D01*
X113053740Y-112165000D01*
X113346260Y-112165000D01*
X113633158Y-112107932D01*
X113903411Y-111995990D01*
X114146632Y-111833475D01*
X114353475Y-111626632D01*
X114515990Y-111383411D01*
X114627932Y-111113158D01*
X114685000Y-110826260D01*
X114685000Y-110533740D01*
X114627932Y-110246842D01*
X114515990Y-109976589D01*
X114353475Y-109733368D01*
X114146632Y-109526525D01*
X113972240Y-109410000D01*
X114146632Y-109293475D01*
X114353475Y-109086632D01*
X114515990Y-108843411D01*
X114627932Y-108573158D01*
X114685000Y-108286260D01*
X114685000Y-107993740D01*
X114627932Y-107706842D01*
X114515990Y-107436589D01*
X114353475Y-107193368D01*
X114146632Y-106986525D01*
X113972240Y-106870000D01*
X114146632Y-106753475D01*
X114353475Y-106546632D01*
X114515990Y-106303411D01*
X114627932Y-106033158D01*
X114685000Y-105746260D01*
X114685000Y-105453740D01*
X114627932Y-105166842D01*
X114515990Y-104896589D01*
X114353475Y-104653368D01*
X114146632Y-104446525D01*
X113972240Y-104330000D01*
X114146632Y-104213475D01*
X114353475Y-104006632D01*
X114515990Y-103763411D01*
X114627932Y-103493158D01*
X114685000Y-103206260D01*
X114685000Y-102913740D01*
X114658807Y-102782060D01*
X115691428Y-101749440D01*
X115723291Y-101723291D01*
X115827636Y-101596146D01*
X115905172Y-101451087D01*
X115952918Y-101293689D01*
X115965000Y-101171019D01*
X115965000Y-101171018D01*
X115969040Y-101130001D01*
X115965000Y-101088982D01*
X115965000Y-100500000D01*
X138473000Y-100500000D01*
X138473000Y-106000000D01*
X138475440Y-106024776D01*
X138482667Y-106048601D01*
X138494403Y-106070557D01*
X138510197Y-106089803D01*
X138529443Y-106105597D01*
X138551399Y-106117333D01*
X138575224Y-106124560D01*
X138600000Y-106127000D01*
X150700000Y-106127000D01*
X150724776Y-106124560D01*
X150748601Y-106117333D01*
X150770557Y-106105597D01*
X150789803Y-106089803D01*
X150805597Y-106070557D01*
X150817333Y-106048601D01*
X150824560Y-106024776D01*
X150827000Y-106000000D01*
X150827000Y-100500000D01*
X150824560Y-100475224D01*
X150817333Y-100451399D01*
X150805597Y-100429443D01*
X150789803Y-100410197D01*
X150770557Y-100394403D01*
X150748601Y-100382667D01*
X150724776Y-100375440D01*
X150700000Y-100373000D01*
X138600000Y-100373000D01*
X138575224Y-100375440D01*
X138551399Y-100382667D01*
X138529443Y-100394403D01*
X138510197Y-100410197D01*
X138494403Y-100429443D01*
X138482667Y-100451399D01*
X138475440Y-100475224D01*
X138473000Y-100500000D01*
X115965000Y-100500000D01*
X115965000Y-93698061D01*
X139565000Y-93698061D01*
X139565000Y-93901939D01*
X139604774Y-94101898D01*
X139682795Y-94290256D01*
X139765001Y-94413286D01*
X139765000Y-97386715D01*
X139682795Y-97509744D01*
X139604774Y-97698102D01*
X139565000Y-97898061D01*
X139565000Y-98101939D01*
X139604774Y-98301898D01*
X139682795Y-98490256D01*
X139796063Y-98659774D01*
X139940226Y-98803937D01*
X140109744Y-98917205D01*
X140298102Y-98995226D01*
X140498061Y-99035000D01*
X140701939Y-99035000D01*
X140901898Y-98995226D01*
X141090256Y-98917205D01*
X141259774Y-98803937D01*
X141403937Y-98659774D01*
X141517205Y-98490256D01*
X141595226Y-98301898D01*
X141635000Y-98101939D01*
X141635000Y-97898061D01*
X141595226Y-97698102D01*
X141517205Y-97509744D01*
X141435000Y-97386715D01*
X141435000Y-94413285D01*
X141517205Y-94290256D01*
X141595226Y-94101898D01*
X141635000Y-93901939D01*
X141635000Y-93800000D01*
X145533904Y-93800000D01*
X145558232Y-94047003D01*
X145630280Y-94284514D01*
X145747280Y-94503405D01*
X145904735Y-94695265D01*
X146096595Y-94852720D01*
X146315486Y-94969720D01*
X146552997Y-95041768D01*
X146738107Y-95060000D01*
X150478092Y-95060000D01*
X158065281Y-102647190D01*
X158104735Y-102695265D01*
X158296595Y-102852720D01*
X158515486Y-102969720D01*
X158752997Y-103041768D01*
X158938107Y-103060000D01*
X158938116Y-103060000D01*
X158999999Y-103066095D01*
X159061882Y-103060000D01*
X162565001Y-103060000D01*
X162565000Y-106986715D01*
X162482795Y-107109744D01*
X162404774Y-107298102D01*
X162365000Y-107498061D01*
X162365000Y-107701939D01*
X162404774Y-107901898D01*
X162482795Y-108090256D01*
X162596063Y-108259774D01*
X162740226Y-108403937D01*
X162909744Y-108517205D01*
X163098102Y-108595226D01*
X163298061Y-108635000D01*
X163501939Y-108635000D01*
X163701898Y-108595226D01*
X163890256Y-108517205D01*
X164059774Y-108403937D01*
X164203937Y-108259774D01*
X164311989Y-108098061D01*
X174765000Y-108098061D01*
X174765000Y-108301939D01*
X174804774Y-108501898D01*
X174882795Y-108690256D01*
X174996063Y-108859774D01*
X175140226Y-109003937D01*
X175309744Y-109117205D01*
X175498102Y-109195226D01*
X175643225Y-109224093D01*
X177175908Y-110756776D01*
X177204774Y-110901898D01*
X177282795Y-111090256D01*
X177396063Y-111259774D01*
X177540226Y-111403937D01*
X177709744Y-111517205D01*
X177898102Y-111595226D01*
X178098061Y-111635000D01*
X178301939Y-111635000D01*
X178501898Y-111595226D01*
X178690256Y-111517205D01*
X178859774Y-111403937D01*
X179003937Y-111259774D01*
X179117205Y-111090256D01*
X179195226Y-110901898D01*
X179235000Y-110701939D01*
X179235000Y-110498061D01*
X179195226Y-110298102D01*
X179117205Y-110109744D01*
X179003937Y-109940226D01*
X178859774Y-109796063D01*
X178690256Y-109682795D01*
X178501898Y-109604774D01*
X178356776Y-109575908D01*
X176824093Y-108043225D01*
X176795226Y-107898102D01*
X176717205Y-107709744D01*
X176603937Y-107540226D01*
X176459774Y-107396063D01*
X176290256Y-107282795D01*
X176101898Y-107204774D01*
X175901939Y-107165000D01*
X175698061Y-107165000D01*
X175498102Y-107204774D01*
X175309744Y-107282795D01*
X175140226Y-107396063D01*
X174996063Y-107540226D01*
X174882795Y-107709744D01*
X174804774Y-107898102D01*
X174765000Y-108098061D01*
X164311989Y-108098061D01*
X164317205Y-108090256D01*
X164395226Y-107901898D01*
X164435000Y-107701939D01*
X164435000Y-107498061D01*
X164395226Y-107298102D01*
X164317205Y-107109744D01*
X164235000Y-106986715D01*
X164235000Y-105898061D01*
X178165000Y-105898061D01*
X178165000Y-106101939D01*
X178204774Y-106301898D01*
X178282795Y-106490256D01*
X178396063Y-106659774D01*
X178540226Y-106803937D01*
X178709744Y-106917205D01*
X178898102Y-106995226D01*
X179043225Y-107024093D01*
X180975908Y-108956775D01*
X181004774Y-109101898D01*
X181082795Y-109290256D01*
X181196063Y-109459774D01*
X181340226Y-109603937D01*
X181509744Y-109717205D01*
X181698102Y-109795226D01*
X181898061Y-109835000D01*
X182101939Y-109835000D01*
X182301898Y-109795226D01*
X182490256Y-109717205D01*
X182659774Y-109603937D01*
X182803937Y-109459774D01*
X182917205Y-109290256D01*
X182995226Y-109101898D01*
X183035000Y-108901939D01*
X183035000Y-108698061D01*
X182995226Y-108498102D01*
X182917205Y-108309744D01*
X182803937Y-108140226D01*
X182659774Y-107996063D01*
X182490256Y-107882795D01*
X182301898Y-107804774D01*
X182156775Y-107775908D01*
X180224093Y-105843225D01*
X180195226Y-105698102D01*
X180117205Y-105509744D01*
X180003937Y-105340226D01*
X179859774Y-105196063D01*
X179690256Y-105082795D01*
X179501898Y-105004774D01*
X179301939Y-104965000D01*
X179098061Y-104965000D01*
X178898102Y-105004774D01*
X178709744Y-105082795D01*
X178540226Y-105196063D01*
X178396063Y-105340226D01*
X178282795Y-105509744D01*
X178204774Y-105698102D01*
X178165000Y-105898061D01*
X164235000Y-105898061D01*
X164235000Y-103060000D01*
X167461893Y-103060000D01*
X167647003Y-103041768D01*
X167884514Y-102969720D01*
X168103405Y-102852720D01*
X168295265Y-102695265D01*
X168452720Y-102503405D01*
X168569720Y-102284514D01*
X168641768Y-102047003D01*
X168666096Y-101800000D01*
X168641768Y-101552997D01*
X168569720Y-101315486D01*
X168452720Y-101096595D01*
X168295265Y-100904735D01*
X168103405Y-100747280D01*
X167884514Y-100630280D01*
X167647003Y-100558232D01*
X167461893Y-100540000D01*
X159521909Y-100540000D01*
X151934724Y-92952816D01*
X151895265Y-92904735D01*
X151703405Y-92747280D01*
X151484514Y-92630280D01*
X151247003Y-92558232D01*
X151061893Y-92540000D01*
X151061883Y-92540000D01*
X151000000Y-92533905D01*
X150938117Y-92540000D01*
X146738107Y-92540000D01*
X146552997Y-92558232D01*
X146315486Y-92630280D01*
X146096595Y-92747280D01*
X145904735Y-92904735D01*
X145747280Y-93096595D01*
X145630280Y-93315486D01*
X145558232Y-93552997D01*
X145533904Y-93800000D01*
X141635000Y-93800000D01*
X141635000Y-93698061D01*
X141595226Y-93498102D01*
X141517205Y-93309744D01*
X141403937Y-93140226D01*
X141259774Y-92996063D01*
X141090256Y-92882795D01*
X140901898Y-92804774D01*
X140701939Y-92765000D01*
X140498061Y-92765000D01*
X140298102Y-92804774D01*
X140109744Y-92882795D01*
X139940226Y-92996063D01*
X139796063Y-93140226D01*
X139682795Y-93309744D01*
X139604774Y-93498102D01*
X139565000Y-93698061D01*
X115965000Y-93698061D01*
X115965000Y-89015867D01*
X118492797Y-86488072D01*
X119565001Y-86488072D01*
X119565001Y-90186714D01*
X119482795Y-90309744D01*
X119404774Y-90498102D01*
X119365000Y-90698061D01*
X119365000Y-90901939D01*
X119404774Y-91101898D01*
X119482795Y-91290256D01*
X119596063Y-91459774D01*
X119740226Y-91603937D01*
X119909744Y-91717205D01*
X120098102Y-91795226D01*
X120298061Y-91835000D01*
X120501939Y-91835000D01*
X120701898Y-91795226D01*
X120890256Y-91717205D01*
X121059774Y-91603937D01*
X121203937Y-91459774D01*
X121274786Y-91353740D01*
X174515000Y-91353740D01*
X174515000Y-91646260D01*
X174572068Y-91933158D01*
X174684010Y-92203411D01*
X174846525Y-92446632D01*
X175053368Y-92653475D01*
X175227760Y-92770000D01*
X175053368Y-92886525D01*
X174846525Y-93093368D01*
X174684010Y-93336589D01*
X174572068Y-93606842D01*
X174515000Y-93893740D01*
X174515000Y-94186260D01*
X174572068Y-94473158D01*
X174684010Y-94743411D01*
X174846525Y-94986632D01*
X175053368Y-95193475D01*
X175227760Y-95310000D01*
X175053368Y-95426525D01*
X174846525Y-95633368D01*
X174684010Y-95876589D01*
X174572068Y-96146842D01*
X174515000Y-96433740D01*
X174515000Y-96726260D01*
X174572068Y-97013158D01*
X174684010Y-97283411D01*
X174846525Y-97526632D01*
X175053368Y-97733475D01*
X175296589Y-97895990D01*
X175566842Y-98007932D01*
X175853740Y-98065000D01*
X176146260Y-98065000D01*
X176433158Y-98007932D01*
X176703411Y-97895990D01*
X176946632Y-97733475D01*
X177153475Y-97526632D01*
X177315990Y-97283411D01*
X177427932Y-97013158D01*
X177485000Y-96726260D01*
X177485000Y-96433740D01*
X177483011Y-96423740D01*
X182195000Y-96423740D01*
X182195000Y-96716260D01*
X182252068Y-97003158D01*
X182364010Y-97273411D01*
X182526525Y-97516632D01*
X182733368Y-97723475D01*
X182976589Y-97885990D01*
X183246842Y-97997932D01*
X183533740Y-98055000D01*
X183826260Y-98055000D01*
X184113158Y-97997932D01*
X184383411Y-97885990D01*
X184626632Y-97723475D01*
X184833475Y-97516632D01*
X184950000Y-97342240D01*
X185066525Y-97516632D01*
X185273368Y-97723475D01*
X185516589Y-97885990D01*
X185786842Y-97997932D01*
X186073740Y-98055000D01*
X186366260Y-98055000D01*
X186653158Y-97997932D01*
X186923411Y-97885990D01*
X187166632Y-97723475D01*
X187373475Y-97516632D01*
X187490000Y-97342240D01*
X187606525Y-97516632D01*
X187813368Y-97723475D01*
X188056589Y-97885990D01*
X188326842Y-97997932D01*
X188613740Y-98055000D01*
X188906260Y-98055000D01*
X189193158Y-97997932D01*
X189463411Y-97885990D01*
X189706632Y-97723475D01*
X189913475Y-97516632D01*
X190075990Y-97273411D01*
X190187932Y-97003158D01*
X190245000Y-96716260D01*
X190245000Y-96423740D01*
X190187932Y-96136842D01*
X190075990Y-95866589D01*
X189913475Y-95623368D01*
X189706632Y-95416525D01*
X189463411Y-95254010D01*
X189193158Y-95142068D01*
X188906260Y-95085000D01*
X188613740Y-95085000D01*
X188326842Y-95142068D01*
X188056589Y-95254010D01*
X187813368Y-95416525D01*
X187606525Y-95623368D01*
X187490000Y-95797760D01*
X187373475Y-95623368D01*
X187166632Y-95416525D01*
X186923411Y-95254010D01*
X186653158Y-95142068D01*
X186366260Y-95085000D01*
X186073740Y-95085000D01*
X185786842Y-95142068D01*
X185516589Y-95254010D01*
X185273368Y-95416525D01*
X185066525Y-95623368D01*
X184950000Y-95797760D01*
X184833475Y-95623368D01*
X184626632Y-95416525D01*
X184383411Y-95254010D01*
X184113158Y-95142068D01*
X183826260Y-95085000D01*
X183533740Y-95085000D01*
X183246842Y-95142068D01*
X182976589Y-95254010D01*
X182733368Y-95416525D01*
X182526525Y-95623368D01*
X182364010Y-95866589D01*
X182252068Y-96136842D01*
X182195000Y-96423740D01*
X177483011Y-96423740D01*
X177427932Y-96146842D01*
X177315990Y-95876589D01*
X177153475Y-95633368D01*
X176946632Y-95426525D01*
X176772240Y-95310000D01*
X176946632Y-95193475D01*
X177153475Y-94986632D01*
X177315990Y-94743411D01*
X177427932Y-94473158D01*
X177485000Y-94186260D01*
X177485000Y-93893740D01*
X177427932Y-93606842D01*
X177315990Y-93336589D01*
X177153475Y-93093368D01*
X176946632Y-92886525D01*
X176772240Y-92770000D01*
X176946632Y-92653475D01*
X177153475Y-92446632D01*
X177315990Y-92203411D01*
X177427932Y-91933158D01*
X177485000Y-91646260D01*
X177485000Y-91353740D01*
X177427932Y-91066842D01*
X177315990Y-90796589D01*
X177153475Y-90553368D01*
X176946632Y-90346525D01*
X176703411Y-90184010D01*
X176433158Y-90072068D01*
X176146260Y-90015000D01*
X175853740Y-90015000D01*
X175566842Y-90072068D01*
X175296589Y-90184010D01*
X175053368Y-90346525D01*
X174846525Y-90553368D01*
X174684010Y-90796589D01*
X174572068Y-91066842D01*
X174515000Y-91353740D01*
X121274786Y-91353740D01*
X121317205Y-91290256D01*
X121395226Y-91101898D01*
X121435000Y-90901939D01*
X121435000Y-90698061D01*
X121395226Y-90498102D01*
X121317205Y-90309744D01*
X121235000Y-90186715D01*
X121235000Y-81561018D01*
X121239040Y-81520000D01*
X121222918Y-81356312D01*
X121207816Y-81306525D01*
X121175172Y-81198913D01*
X121097636Y-81053854D01*
X121079757Y-81032068D01*
X121019439Y-80958570D01*
X121019437Y-80958568D01*
X120993291Y-80926709D01*
X120961433Y-80900564D01*
X120258807Y-80197939D01*
X120285000Y-80066260D01*
X120285000Y-79773740D01*
X120227932Y-79486842D01*
X120115990Y-79216589D01*
X119953475Y-78973368D01*
X119780107Y-78800000D01*
X180461928Y-78800000D01*
X180461928Y-83200000D01*
X180474188Y-83324482D01*
X180510498Y-83444180D01*
X180569463Y-83554494D01*
X180648815Y-83651185D01*
X180745506Y-83730537D01*
X180855820Y-83789502D01*
X180975518Y-83825812D01*
X181100000Y-83838072D01*
X182900000Y-83838072D01*
X183024482Y-83825812D01*
X183144180Y-83789502D01*
X183254494Y-83730537D01*
X183351185Y-83651185D01*
X183430537Y-83554494D01*
X183489502Y-83444180D01*
X183525812Y-83324482D01*
X183538072Y-83200000D01*
X183538072Y-78800000D01*
X183525812Y-78675518D01*
X183489502Y-78555820D01*
X183430537Y-78445506D01*
X183351185Y-78348815D01*
X183254494Y-78269463D01*
X183144180Y-78210498D01*
X183024482Y-78174188D01*
X182900000Y-78161928D01*
X181100000Y-78161928D01*
X180975518Y-78174188D01*
X180855820Y-78210498D01*
X180745506Y-78269463D01*
X180648815Y-78348815D01*
X180569463Y-78445506D01*
X180510498Y-78555820D01*
X180474188Y-78675518D01*
X180461928Y-78800000D01*
X119780107Y-78800000D01*
X119746632Y-78766525D01*
X119503411Y-78604010D01*
X119233158Y-78492068D01*
X118946260Y-78435000D01*
X118653740Y-78435000D01*
X118366842Y-78492068D01*
X118096589Y-78604010D01*
X117853368Y-78766525D01*
X117646525Y-78973368D01*
X117484010Y-79216589D01*
X117372068Y-79486842D01*
X117315000Y-79773740D01*
X117315000Y-80066260D01*
X117372068Y-80353158D01*
X117484010Y-80623411D01*
X117646525Y-80866632D01*
X117853368Y-81073475D01*
X118027760Y-81190000D01*
X117853368Y-81306525D01*
X117646525Y-81513368D01*
X117530000Y-81687760D01*
X117413475Y-81513368D01*
X117206632Y-81306525D01*
X116963411Y-81144010D01*
X116693158Y-81032068D01*
X116406260Y-80975000D01*
X116113740Y-80975000D01*
X115826842Y-81032068D01*
X115556589Y-81144010D01*
X115313368Y-81306525D01*
X115106525Y-81513368D01*
X115031935Y-81625000D01*
X114781018Y-81625000D01*
X114740000Y-81620960D01*
X114698981Y-81625000D01*
X114576311Y-81637082D01*
X114418913Y-81684828D01*
X114273854Y-81762364D01*
X114146709Y-81866709D01*
X114120563Y-81898568D01*
X112638574Y-83380559D01*
X112606710Y-83406709D01*
X112525907Y-83505168D01*
X112502364Y-83533855D01*
X112424828Y-83678914D01*
X112377082Y-83836312D01*
X112360960Y-84000000D01*
X112365001Y-84041029D01*
X112365000Y-99031928D01*
X112350000Y-99031928D01*
X112225518Y-99044188D01*
X112105820Y-99080498D01*
X111995506Y-99139463D01*
X111898815Y-99218815D01*
X111819463Y-99315506D01*
X111760498Y-99425820D01*
X111724188Y-99545518D01*
X111711928Y-99670000D01*
X110660000Y-99670000D01*
X110660000Y-79200000D01*
X111682695Y-79200000D01*
X111690000Y-79274170D01*
X111690000Y-80074178D01*
X111711849Y-80296012D01*
X111798192Y-80580648D01*
X111938406Y-80842970D01*
X112127103Y-81072897D01*
X112357031Y-81261594D01*
X112619353Y-81401808D01*
X112903989Y-81488151D01*
X113200000Y-81517306D01*
X113496012Y-81488151D01*
X113780648Y-81401808D01*
X114042970Y-81261594D01*
X114272897Y-81072897D01*
X114461594Y-80842970D01*
X114601808Y-80580648D01*
X114688151Y-80296012D01*
X114710000Y-80074177D01*
X114710000Y-79825462D01*
X119625462Y-74910000D01*
X156325830Y-74910000D01*
X156400000Y-74917305D01*
X156474170Y-74910000D01*
X156474178Y-74910000D01*
X156696012Y-74888151D01*
X156980648Y-74801808D01*
X157242970Y-74661594D01*
X157472897Y-74472897D01*
X157520183Y-74415279D01*
X158425463Y-73510000D01*
X164476957Y-73510000D01*
X164518169Y-73537537D01*
X164833919Y-73668325D01*
X165169117Y-73735000D01*
X165510883Y-73735000D01*
X165846081Y-73668325D01*
X166161831Y-73537537D01*
X166445998Y-73347663D01*
X166687663Y-73105998D01*
X166877537Y-72821831D01*
X167008325Y-72506081D01*
X167075000Y-72170883D01*
X167075000Y-71829117D01*
X167008325Y-71493919D01*
X166877537Y-71178169D01*
X166691671Y-70900000D01*
X173761928Y-70900000D01*
X173761928Y-73100000D01*
X173774188Y-73224482D01*
X173810498Y-73344180D01*
X173869463Y-73454494D01*
X173948815Y-73551185D01*
X174045506Y-73630537D01*
X174155820Y-73689502D01*
X174275518Y-73725812D01*
X174400000Y-73738072D01*
X176600000Y-73738072D01*
X176724482Y-73725812D01*
X176844180Y-73689502D01*
X176954494Y-73630537D01*
X177051185Y-73551185D01*
X177130537Y-73454494D01*
X177189502Y-73344180D01*
X177225812Y-73224482D01*
X177238072Y-73100000D01*
X177238072Y-71334042D01*
X190815000Y-71334042D01*
X190815000Y-71665958D01*
X190879754Y-71991496D01*
X191006772Y-72298147D01*
X191191175Y-72574125D01*
X191425875Y-72808825D01*
X191701853Y-72993228D01*
X192008504Y-73120246D01*
X192334042Y-73185000D01*
X192665958Y-73185000D01*
X192991496Y-73120246D01*
X193298147Y-72993228D01*
X193574125Y-72808825D01*
X193808825Y-72574125D01*
X193993228Y-72298147D01*
X194120246Y-71991496D01*
X194185000Y-71665958D01*
X194185000Y-71334042D01*
X194120246Y-71008504D01*
X193993228Y-70701853D01*
X193808825Y-70425875D01*
X193574125Y-70191175D01*
X193298147Y-70006772D01*
X192991496Y-69879754D01*
X192665958Y-69815000D01*
X192334042Y-69815000D01*
X192008504Y-69879754D01*
X191701853Y-70006772D01*
X191425875Y-70191175D01*
X191191175Y-70425875D01*
X191006772Y-70701853D01*
X190879754Y-71008504D01*
X190815000Y-71334042D01*
X177238072Y-71334042D01*
X177238072Y-70900000D01*
X177225812Y-70775518D01*
X177189502Y-70655820D01*
X177130537Y-70545506D01*
X177051185Y-70448815D01*
X176954494Y-70369463D01*
X176844180Y-70310498D01*
X176724482Y-70274188D01*
X176600000Y-70261928D01*
X174400000Y-70261928D01*
X174275518Y-70274188D01*
X174155820Y-70310498D01*
X174045506Y-70369463D01*
X173948815Y-70448815D01*
X173869463Y-70545506D01*
X173810498Y-70655820D01*
X173774188Y-70775518D01*
X173761928Y-70900000D01*
X166691671Y-70900000D01*
X166687663Y-70894002D01*
X166445998Y-70652337D01*
X166161831Y-70462463D01*
X165846081Y-70331675D01*
X165510883Y-70265000D01*
X165169117Y-70265000D01*
X164833919Y-70331675D01*
X164518169Y-70462463D01*
X164476957Y-70490000D01*
X157874170Y-70490000D01*
X157800000Y-70482695D01*
X157725829Y-70490000D01*
X157725822Y-70490000D01*
X157503988Y-70511849D01*
X157219352Y-70598192D01*
X156957030Y-70738406D01*
X156860697Y-70817465D01*
X156784720Y-70879817D01*
X156784716Y-70879821D01*
X156727103Y-70927103D01*
X156679821Y-70984716D01*
X155774538Y-71890000D01*
X119074170Y-71890000D01*
X118999999Y-71882695D01*
X118925828Y-71890000D01*
X118925822Y-71890000D01*
X118733689Y-71908924D01*
X118703987Y-71911849D01*
X118617644Y-71938041D01*
X118419352Y-71998192D01*
X118157030Y-72138406D01*
X117927103Y-72327103D01*
X117879817Y-72384721D01*
X112184721Y-78079817D01*
X112127103Y-78127103D01*
X111938406Y-78357031D01*
X111798192Y-78619353D01*
X111711849Y-78903989D01*
X111690000Y-79125823D01*
X111690000Y-79125830D01*
X111682695Y-79200000D01*
X110660000Y-79200000D01*
X110660000Y-71334042D01*
X111815000Y-71334042D01*
X111815000Y-71665958D01*
X111879754Y-71991496D01*
X112006772Y-72298147D01*
X112191175Y-72574125D01*
X112425875Y-72808825D01*
X112701853Y-72993228D01*
X113008504Y-73120246D01*
X113334042Y-73185000D01*
X113665958Y-73185000D01*
X113991496Y-73120246D01*
X114298147Y-72993228D01*
X114574125Y-72808825D01*
X114808825Y-72574125D01*
X114993228Y-72298147D01*
X115120246Y-71991496D01*
X115185000Y-71665958D01*
X115185000Y-71334042D01*
X115120246Y-71008504D01*
X114993228Y-70701853D01*
X114808825Y-70425875D01*
X114574125Y-70191175D01*
X114298147Y-70006772D01*
X113991496Y-69879754D01*
X113665958Y-69815000D01*
X113334042Y-69815000D01*
X113008504Y-69879754D01*
X112701853Y-70006772D01*
X112425875Y-70191175D01*
X112191175Y-70425875D01*
X112006772Y-70701853D01*
X111879754Y-71008504D01*
X111815000Y-71334042D01*
X110660000Y-71334042D01*
X110660000Y-71032279D01*
X110707670Y-70546107D01*
X110839489Y-70109502D01*
X111053600Y-69706815D01*
X111341848Y-69353388D01*
X111693261Y-69062673D01*
X112094439Y-68845758D01*
X112530113Y-68710894D01*
X113014344Y-68660000D01*
X133034555Y-68660000D01*
X132976589Y-68684010D01*
G37*
%TD.AperFunction*%
%TD*%
M02*
