M48
; DRILL file {KiCad 5.1.10-88a1d61d58~90~ubuntu20.04.1} date Wed Oct 13 17:16:15 2021
; FORMAT={-:-/ absolute / metric / decimal}
; #@! TF.CreationDate,2021-10-13T17:16:15+03:00
; #@! TF.GenerationSoftware,Kicad,Pcbnew,5.1.10-88a1d61d58~90~ubuntu20.04.1
; #@! TF.FileFunction,Plated,1,2,PTH
FMAT,2
METRIC
T1C0.400
T2C0.800
T3C1.000
T4C1.100
%
G90
G05
T1
X111.8Y-95.8
X113.2Y-80.0
X113.7Y-78.7
X114.7Y-77.7
X115.8Y-76.6
X120.4Y-90.8
X130.6Y-118.4
X134.4Y-117.4
X135.6Y-96.7
X139.6Y-101.8
X140.6Y-103.2
X140.6Y-93.8
X140.6Y-98.0
X141.6Y-104.8
X147.2Y-93.8
X148.6Y-93.8
X148.8Y-101.8
X148.8Y-103.2
X149.6Y-104.8
X149.8Y-93.8
X154.6Y-94.6
X158.4Y-90.0
X159.0Y-90.6
X159.075Y-91.525
X163.4Y-101.8
X163.4Y-107.6
X164.6Y-101.8
X165.0Y-89.0
X166.0Y-101.8
X166.5Y-114.5
X167.4Y-101.8
X173.2Y-116.4
X173.5Y-85.5
X175.8Y-108.2
X178.2Y-110.6
X179.0Y-116.4
X179.2Y-106.0
X180.0Y-87.5
X180.7Y-101.2
X182.0Y-108.8
X182.7Y-112.5
X185.2Y-105.2
X193.4Y-110.2
X193.8Y-90.0
X194.2Y-92.2
T3
X113.2Y-100.52
X113.2Y-103.06
X113.2Y-105.6
X113.2Y-108.14
X113.2Y-110.68
X116.26Y-79.92
X116.26Y-82.46
X116.26Y-85.0
X118.8Y-79.92
X118.8Y-82.46
X118.8Y-85.0
X133.5Y-120.0
X133.68Y-70.0
X136.04Y-120.0
X136.22Y-70.0
X138.58Y-120.0
X138.76Y-70.0
X141.12Y-120.0
X141.3Y-70.0
X143.66Y-120.0
X143.84Y-70.0
X146.2Y-120.0
X146.38Y-70.0
X148.74Y-120.0
X148.92Y-70.0
X151.28Y-120.0
X151.46Y-70.0
X154.0Y-70.0
X173.46Y-91.5
X173.46Y-94.04
X173.46Y-96.58
X176.0Y-91.5
X176.0Y-94.04
X176.0Y-96.58
X183.68Y-94.03
X183.68Y-96.57
X186.22Y-94.03
X186.22Y-96.57
X188.76Y-94.03
X188.76Y-96.57
T4
X165.34Y-72.0
X175.5Y-72.0
T2
G00X182.0Y-82.3
M15
G01X182.0Y-79.7
M16
G05
G00X186.1Y-76.2
M15
G01X183.9Y-76.2
M16
G05
G00X187.8Y-82.1
M15
G01X187.8Y-79.9
M16
G05
T0
M30
