%TF.GenerationSoftware,KiCad,Pcbnew,5.1.10-88a1d61d58~90~ubuntu20.04.1*%
%TF.CreationDate,2021-10-13T17:16:21+03:00*%
%TF.ProjectId,Arduino_Nano_Example,41726475-696e-46f5-9f4e-616e6f5f4578,1*%
%TF.SameCoordinates,Original*%
%TF.FileFunction,Legend,Bot*%
%TF.FilePolarity,Positive*%
%FSLAX46Y46*%
G04 Gerber Fmt 4.6, Leading zero omitted, Abs format (unit mm)*
G04 Created by KiCad (PCBNEW 5.1.10-88a1d61d58~90~ubuntu20.04.1) date 2021-10-13 17:16:21*
%MOMM*%
%LPD*%
G01*
G04 APERTURE LIST*
%ADD10C,0.100000*%
%ADD11C,0.150000*%
%ADD12C,0.300000*%
%ADD13C,0.400000*%
%TA.AperFunction,Profile*%
%ADD14C,0.050000*%
%TD*%
%ADD15C,0.010000*%
G04 APERTURE END LIST*
D10*
D11*
X177002200Y-166007200D02*
X177002200Y-198007200D01*
X285002200Y-198007200D01*
X285002200Y-166007200D01*
X177002200Y-166007200D01*
D10*
D11*
X10000000Y-10000000D02*
X10000000Y-200007200D01*
X287002200Y-200007200D01*
X287002200Y-10000000D01*
X10000000Y-10000000D01*
D10*
D11*
X12000000Y-12000000D02*
X12000000Y-198007200D01*
X285002200Y-198007200D01*
X285002200Y-12000000D01*
X12000000Y-12000000D01*
D10*
D11*
X60000000Y-12000000D02*
X60000000Y-10000000D01*
D10*
D11*
X110000000Y-12000000D02*
X110000000Y-10000000D01*
D10*
D11*
X160000000Y-12000000D02*
X160000000Y-10000000D01*
D10*
D11*
X210000000Y-12000000D02*
X210000000Y-10000000D01*
D10*
D11*
X260000000Y-12000000D02*
X260000000Y-10000000D01*
D10*
D11*
X36065476Y-11588095D02*
X35322619Y-11588095D01*
X35694047Y-11588095D02*
X35694047Y-10288095D01*
X35570238Y-10473809D01*
X35446428Y-10597619D01*
X35322619Y-10659523D01*
D10*
D11*
X85322619Y-10411904D02*
X85384523Y-10350000D01*
X85508333Y-10288095D01*
X85817857Y-10288095D01*
X85941666Y-10350000D01*
X86003571Y-10411904D01*
X86065476Y-10535714D01*
X86065476Y-10659523D01*
X86003571Y-10845238D01*
X85260714Y-11588095D01*
X86065476Y-11588095D01*
D10*
D11*
X135260714Y-10288095D02*
X136065476Y-10288095D01*
X135632142Y-10783333D01*
X135817857Y-10783333D01*
X135941666Y-10845238D01*
X136003571Y-10907142D01*
X136065476Y-11030952D01*
X136065476Y-11340476D01*
X136003571Y-11464285D01*
X135941666Y-11526190D01*
X135817857Y-11588095D01*
X135446428Y-11588095D01*
X135322619Y-11526190D01*
X135260714Y-11464285D01*
D10*
D11*
X185941666Y-10721428D02*
X185941666Y-11588095D01*
X185632142Y-10226190D02*
X185322619Y-11154761D01*
X186127380Y-11154761D01*
D10*
D11*
X236003571Y-10288095D02*
X235384523Y-10288095D01*
X235322619Y-10907142D01*
X235384523Y-10845238D01*
X235508333Y-10783333D01*
X235817857Y-10783333D01*
X235941666Y-10845238D01*
X236003571Y-10907142D01*
X236065476Y-11030952D01*
X236065476Y-11340476D01*
X236003571Y-11464285D01*
X235941666Y-11526190D01*
X235817857Y-11588095D01*
X235508333Y-11588095D01*
X235384523Y-11526190D01*
X235322619Y-11464285D01*
D10*
D11*
X285941666Y-10288095D02*
X285694047Y-10288095D01*
X285570238Y-10350000D01*
X285508333Y-10411904D01*
X285384523Y-10597619D01*
X285322619Y-10845238D01*
X285322619Y-11340476D01*
X285384523Y-11464285D01*
X285446428Y-11526190D01*
X285570238Y-11588095D01*
X285817857Y-11588095D01*
X285941666Y-11526190D01*
X286003571Y-11464285D01*
X286065476Y-11340476D01*
X286065476Y-11030952D01*
X286003571Y-10907142D01*
X285941666Y-10845238D01*
X285817857Y-10783333D01*
X285570238Y-10783333D01*
X285446428Y-10845238D01*
X285384523Y-10907142D01*
X285322619Y-11030952D01*
D10*
D11*
X60000000Y-198007200D02*
X60000000Y-200007200D01*
D10*
D11*
X110000000Y-198007200D02*
X110000000Y-200007200D01*
D10*
D11*
X160000000Y-198007200D02*
X160000000Y-200007200D01*
D10*
D11*
X210000000Y-198007200D02*
X210000000Y-200007200D01*
D10*
D11*
X260000000Y-198007200D02*
X260000000Y-200007200D01*
D10*
D11*
X36065476Y-199595295D02*
X35322619Y-199595295D01*
X35694047Y-199595295D02*
X35694047Y-198295295D01*
X35570238Y-198481009D01*
X35446428Y-198604819D01*
X35322619Y-198666723D01*
D10*
D11*
X85322619Y-198419104D02*
X85384523Y-198357200D01*
X85508333Y-198295295D01*
X85817857Y-198295295D01*
X85941666Y-198357200D01*
X86003571Y-198419104D01*
X86065476Y-198542914D01*
X86065476Y-198666723D01*
X86003571Y-198852438D01*
X85260714Y-199595295D01*
X86065476Y-199595295D01*
D10*
D11*
X135260714Y-198295295D02*
X136065476Y-198295295D01*
X135632142Y-198790533D01*
X135817857Y-198790533D01*
X135941666Y-198852438D01*
X136003571Y-198914342D01*
X136065476Y-199038152D01*
X136065476Y-199347676D01*
X136003571Y-199471485D01*
X135941666Y-199533390D01*
X135817857Y-199595295D01*
X135446428Y-199595295D01*
X135322619Y-199533390D01*
X135260714Y-199471485D01*
D10*
D11*
X185941666Y-198728628D02*
X185941666Y-199595295D01*
X185632142Y-198233390D02*
X185322619Y-199161961D01*
X186127380Y-199161961D01*
D10*
D11*
X236003571Y-198295295D02*
X235384523Y-198295295D01*
X235322619Y-198914342D01*
X235384523Y-198852438D01*
X235508333Y-198790533D01*
X235817857Y-198790533D01*
X235941666Y-198852438D01*
X236003571Y-198914342D01*
X236065476Y-199038152D01*
X236065476Y-199347676D01*
X236003571Y-199471485D01*
X235941666Y-199533390D01*
X235817857Y-199595295D01*
X235508333Y-199595295D01*
X235384523Y-199533390D01*
X235322619Y-199471485D01*
D10*
D11*
X285941666Y-198295295D02*
X285694047Y-198295295D01*
X285570238Y-198357200D01*
X285508333Y-198419104D01*
X285384523Y-198604819D01*
X285322619Y-198852438D01*
X285322619Y-199347676D01*
X285384523Y-199471485D01*
X285446428Y-199533390D01*
X285570238Y-199595295D01*
X285817857Y-199595295D01*
X285941666Y-199533390D01*
X286003571Y-199471485D01*
X286065476Y-199347676D01*
X286065476Y-199038152D01*
X286003571Y-198914342D01*
X285941666Y-198852438D01*
X285817857Y-198790533D01*
X285570238Y-198790533D01*
X285446428Y-198852438D01*
X285384523Y-198914342D01*
X285322619Y-199038152D01*
D10*
D11*
X10000000Y-60000000D02*
X12000000Y-60000000D01*
D10*
D11*
X10000000Y-110000000D02*
X12000000Y-110000000D01*
D10*
D11*
X10000000Y-160000000D02*
X12000000Y-160000000D01*
D10*
D11*
X10690476Y-35216666D02*
X11309523Y-35216666D01*
X10566666Y-35588095D02*
X11000000Y-34288095D01*
X11433333Y-35588095D01*
D10*
D11*
X11092857Y-84907142D02*
X11278571Y-84969047D01*
X11340476Y-85030952D01*
X11402380Y-85154761D01*
X11402380Y-85340476D01*
X11340476Y-85464285D01*
X11278571Y-85526190D01*
X11154761Y-85588095D01*
X10659523Y-85588095D01*
X10659523Y-84288095D01*
X11092857Y-84288095D01*
X11216666Y-84350000D01*
X11278571Y-84411904D01*
X11340476Y-84535714D01*
X11340476Y-84659523D01*
X11278571Y-84783333D01*
X11216666Y-84845238D01*
X11092857Y-84907142D01*
X10659523Y-84907142D01*
D10*
D11*
X11402380Y-135464285D02*
X11340476Y-135526190D01*
X11154761Y-135588095D01*
X11030952Y-135588095D01*
X10845238Y-135526190D01*
X10721428Y-135402380D01*
X10659523Y-135278571D01*
X10597619Y-135030952D01*
X10597619Y-134845238D01*
X10659523Y-134597619D01*
X10721428Y-134473809D01*
X10845238Y-134350000D01*
X11030952Y-134288095D01*
X11154761Y-134288095D01*
X11340476Y-134350000D01*
X11402380Y-134411904D01*
D10*
D11*
X10659523Y-185588095D02*
X10659523Y-184288095D01*
X10969047Y-184288095D01*
X11154761Y-184350000D01*
X11278571Y-184473809D01*
X11340476Y-184597619D01*
X11402380Y-184845238D01*
X11402380Y-185030952D01*
X11340476Y-185278571D01*
X11278571Y-185402380D01*
X11154761Y-185526190D01*
X10969047Y-185588095D01*
X10659523Y-185588095D01*
D10*
D11*
X287002200Y-60000000D02*
X285002200Y-60000000D01*
D10*
D11*
X287002200Y-110000000D02*
X285002200Y-110000000D01*
D10*
D11*
X287002200Y-160000000D02*
X285002200Y-160000000D01*
D10*
D11*
X285692676Y-35216666D02*
X286311723Y-35216666D01*
X285568866Y-35588095D02*
X286002200Y-34288095D01*
X286435533Y-35588095D01*
D10*
D11*
X286095057Y-84907142D02*
X286280771Y-84969047D01*
X286342676Y-85030952D01*
X286404580Y-85154761D01*
X286404580Y-85340476D01*
X286342676Y-85464285D01*
X286280771Y-85526190D01*
X286156961Y-85588095D01*
X285661723Y-85588095D01*
X285661723Y-84288095D01*
X286095057Y-84288095D01*
X286218866Y-84350000D01*
X286280771Y-84411904D01*
X286342676Y-84535714D01*
X286342676Y-84659523D01*
X286280771Y-84783333D01*
X286218866Y-84845238D01*
X286095057Y-84907142D01*
X285661723Y-84907142D01*
D10*
D11*
X286404580Y-135464285D02*
X286342676Y-135526190D01*
X286156961Y-135588095D01*
X286033152Y-135588095D01*
X285847438Y-135526190D01*
X285723628Y-135402380D01*
X285661723Y-135278571D01*
X285599819Y-135030952D01*
X285599819Y-134845238D01*
X285661723Y-134597619D01*
X285723628Y-134473809D01*
X285847438Y-134350000D01*
X286033152Y-134288095D01*
X286156961Y-134288095D01*
X286342676Y-134350000D01*
X286404580Y-134411904D01*
D10*
D11*
X285661723Y-185588095D02*
X285661723Y-184288095D01*
X285971247Y-184288095D01*
X286156961Y-184350000D01*
X286280771Y-184473809D01*
X286342676Y-184597619D01*
X286404580Y-184845238D01*
X286404580Y-185030952D01*
X286342676Y-185278571D01*
X286280771Y-185402380D01*
X286156961Y-185526190D01*
X285971247Y-185588095D01*
X285661723Y-185588095D01*
D10*
D11*
X200434342Y-193785771D02*
X200434342Y-192285771D01*
X200791485Y-192285771D01*
X201005771Y-192357200D01*
X201148628Y-192500057D01*
X201220057Y-192642914D01*
X201291485Y-192928628D01*
X201291485Y-193142914D01*
X201220057Y-193428628D01*
X201148628Y-193571485D01*
X201005771Y-193714342D01*
X200791485Y-193785771D01*
X200434342Y-193785771D01*
X202577200Y-193785771D02*
X202577200Y-193000057D01*
X202505771Y-192857200D01*
X202362914Y-192785771D01*
X202077200Y-192785771D01*
X201934342Y-192857200D01*
X202577200Y-193714342D02*
X202434342Y-193785771D01*
X202077200Y-193785771D01*
X201934342Y-193714342D01*
X201862914Y-193571485D01*
X201862914Y-193428628D01*
X201934342Y-193285771D01*
X202077200Y-193214342D01*
X202434342Y-193214342D01*
X202577200Y-193142914D01*
X203077200Y-192785771D02*
X203648628Y-192785771D01*
X203291485Y-192285771D02*
X203291485Y-193571485D01*
X203362914Y-193714342D01*
X203505771Y-193785771D01*
X203648628Y-193785771D01*
X204720057Y-193714342D02*
X204577200Y-193785771D01*
X204291485Y-193785771D01*
X204148628Y-193714342D01*
X204077200Y-193571485D01*
X204077200Y-193000057D01*
X204148628Y-192857200D01*
X204291485Y-192785771D01*
X204577200Y-192785771D01*
X204720057Y-192857200D01*
X204791485Y-193000057D01*
X204791485Y-193142914D01*
X204077200Y-193285771D01*
X205434342Y-193642914D02*
X205505771Y-193714342D01*
X205434342Y-193785771D01*
X205362914Y-193714342D01*
X205434342Y-193642914D01*
X205434342Y-193785771D01*
X205434342Y-192857200D02*
X205505771Y-192928628D01*
X205434342Y-193000057D01*
X205362914Y-192928628D01*
X205434342Y-192857200D01*
X205434342Y-193000057D01*
X207220057Y-192428628D02*
X207291485Y-192357200D01*
X207434342Y-192285771D01*
X207791485Y-192285771D01*
X207934342Y-192357200D01*
X208005771Y-192428628D01*
X208077200Y-192571485D01*
X208077200Y-192714342D01*
X208005771Y-192928628D01*
X207148628Y-193785771D01*
X208077200Y-193785771D01*
X209005771Y-192285771D02*
X209148628Y-192285771D01*
X209291485Y-192357200D01*
X209362914Y-192428628D01*
X209434342Y-192571485D01*
X209505771Y-192857200D01*
X209505771Y-193214342D01*
X209434342Y-193500057D01*
X209362914Y-193642914D01*
X209291485Y-193714342D01*
X209148628Y-193785771D01*
X209005771Y-193785771D01*
X208862914Y-193714342D01*
X208791485Y-193642914D01*
X208720057Y-193500057D01*
X208648628Y-193214342D01*
X208648628Y-192857200D01*
X208720057Y-192571485D01*
X208791485Y-192428628D01*
X208862914Y-192357200D01*
X209005771Y-192285771D01*
X210077200Y-192428628D02*
X210148628Y-192357200D01*
X210291485Y-192285771D01*
X210648628Y-192285771D01*
X210791485Y-192357200D01*
X210862914Y-192428628D01*
X210934342Y-192571485D01*
X210934342Y-192714342D01*
X210862914Y-192928628D01*
X210005771Y-193785771D01*
X210934342Y-193785771D01*
X212362914Y-193785771D02*
X211505771Y-193785771D01*
X211934342Y-193785771D02*
X211934342Y-192285771D01*
X211791485Y-192500057D01*
X211648628Y-192642914D01*
X211505771Y-192714342D01*
X213005771Y-193214342D02*
X214148628Y-193214342D01*
X215648628Y-193785771D02*
X214791485Y-193785771D01*
X215220057Y-193785771D02*
X215220057Y-192285771D01*
X215077200Y-192500057D01*
X214934342Y-192642914D01*
X214791485Y-192714342D01*
X216577200Y-192285771D02*
X216720057Y-192285771D01*
X216862914Y-192357200D01*
X216934342Y-192428628D01*
X217005771Y-192571485D01*
X217077200Y-192857200D01*
X217077200Y-193214342D01*
X217005771Y-193500057D01*
X216934342Y-193642914D01*
X216862914Y-193714342D01*
X216720057Y-193785771D01*
X216577200Y-193785771D01*
X216434342Y-193714342D01*
X216362914Y-193642914D01*
X216291485Y-193500057D01*
X216220057Y-193214342D01*
X216220057Y-192857200D01*
X216291485Y-192571485D01*
X216362914Y-192428628D01*
X216434342Y-192357200D01*
X216577200Y-192285771D01*
X217720057Y-193214342D02*
X218862914Y-193214342D01*
X220362914Y-193785771D02*
X219505771Y-193785771D01*
X219934342Y-193785771D02*
X219934342Y-192285771D01*
X219791485Y-192500057D01*
X219648628Y-192642914D01*
X219505771Y-192714342D01*
X220862914Y-192285771D02*
X221791485Y-192285771D01*
X221291485Y-192857200D01*
X221505771Y-192857200D01*
X221648628Y-192928628D01*
X221720057Y-193000057D01*
X221791485Y-193142914D01*
X221791485Y-193500057D01*
X221720057Y-193642914D01*
X221648628Y-193714342D01*
X221505771Y-193785771D01*
X221077200Y-193785771D01*
X220934342Y-193714342D01*
X220862914Y-193642914D01*
D10*
D11*
X177002200Y-194507200D02*
X285002200Y-194507200D01*
D10*
D11*
X178434342Y-196585771D02*
X178434342Y-195085771D01*
X179291485Y-196585771D02*
X178648628Y-195728628D01*
X179291485Y-195085771D02*
X178434342Y-195942914D01*
X179934342Y-196585771D02*
X179934342Y-195585771D01*
X179934342Y-195085771D02*
X179862914Y-195157200D01*
X179934342Y-195228628D01*
X180005771Y-195157200D01*
X179934342Y-195085771D01*
X179934342Y-195228628D01*
X181505771Y-196442914D02*
X181434342Y-196514342D01*
X181220057Y-196585771D01*
X181077200Y-196585771D01*
X180862914Y-196514342D01*
X180720057Y-196371485D01*
X180648628Y-196228628D01*
X180577200Y-195942914D01*
X180577200Y-195728628D01*
X180648628Y-195442914D01*
X180720057Y-195300057D01*
X180862914Y-195157200D01*
X181077200Y-195085771D01*
X181220057Y-195085771D01*
X181434342Y-195157200D01*
X181505771Y-195228628D01*
X182791485Y-196585771D02*
X182791485Y-195800057D01*
X182720057Y-195657200D01*
X182577200Y-195585771D01*
X182291485Y-195585771D01*
X182148628Y-195657200D01*
X182791485Y-196514342D02*
X182648628Y-196585771D01*
X182291485Y-196585771D01*
X182148628Y-196514342D01*
X182077200Y-196371485D01*
X182077200Y-196228628D01*
X182148628Y-196085771D01*
X182291485Y-196014342D01*
X182648628Y-196014342D01*
X182791485Y-195942914D01*
X184148628Y-196585771D02*
X184148628Y-195085771D01*
X184148628Y-196514342D02*
X184005771Y-196585771D01*
X183720057Y-196585771D01*
X183577200Y-196514342D01*
X183505771Y-196442914D01*
X183434342Y-196300057D01*
X183434342Y-195871485D01*
X183505771Y-195728628D01*
X183577200Y-195657200D01*
X183720057Y-195585771D01*
X184005771Y-195585771D01*
X184148628Y-195657200D01*
X186005771Y-195800057D02*
X186505771Y-195800057D01*
X186720057Y-196585771D02*
X186005771Y-196585771D01*
X186005771Y-195085771D01*
X186720057Y-195085771D01*
X187362914Y-196442914D02*
X187434342Y-196514342D01*
X187362914Y-196585771D01*
X187291485Y-196514342D01*
X187362914Y-196442914D01*
X187362914Y-196585771D01*
X188077200Y-196585771D02*
X188077200Y-195085771D01*
X188434342Y-195085771D01*
X188648628Y-195157200D01*
X188791485Y-195300057D01*
X188862914Y-195442914D01*
X188934342Y-195728628D01*
X188934342Y-195942914D01*
X188862914Y-196228628D01*
X188791485Y-196371485D01*
X188648628Y-196514342D01*
X188434342Y-196585771D01*
X188077200Y-196585771D01*
X189577200Y-196442914D02*
X189648628Y-196514342D01*
X189577200Y-196585771D01*
X189505771Y-196514342D01*
X189577200Y-196442914D01*
X189577200Y-196585771D01*
X190220057Y-196157200D02*
X190934342Y-196157200D01*
X190077200Y-196585771D02*
X190577200Y-195085771D01*
X191077200Y-196585771D01*
X191577200Y-196442914D02*
X191648628Y-196514342D01*
X191577200Y-196585771D01*
X191505771Y-196514342D01*
X191577200Y-196442914D01*
X191577200Y-196585771D01*
X194577200Y-196585771D02*
X194577200Y-195085771D01*
X194720057Y-196014342D02*
X195148628Y-196585771D01*
X195148628Y-195585771D02*
X194577200Y-196157200D01*
X195791485Y-196585771D02*
X195791485Y-195585771D01*
X195791485Y-195085771D02*
X195720057Y-195157200D01*
X195791485Y-195228628D01*
X195862914Y-195157200D01*
X195791485Y-195085771D01*
X195791485Y-195228628D01*
X197148628Y-196514342D02*
X197005771Y-196585771D01*
X196720057Y-196585771D01*
X196577200Y-196514342D01*
X196505771Y-196442914D01*
X196434342Y-196300057D01*
X196434342Y-195871485D01*
X196505771Y-195728628D01*
X196577200Y-195657200D01*
X196720057Y-195585771D01*
X197005771Y-195585771D01*
X197148628Y-195657200D01*
X198434342Y-196585771D02*
X198434342Y-195800057D01*
X198362914Y-195657200D01*
X198220057Y-195585771D01*
X197934342Y-195585771D01*
X197791485Y-195657200D01*
X198434342Y-196514342D02*
X198291485Y-196585771D01*
X197934342Y-196585771D01*
X197791485Y-196514342D01*
X197720057Y-196371485D01*
X197720057Y-196228628D01*
X197791485Y-196085771D01*
X197934342Y-196014342D01*
X198291485Y-196014342D01*
X198434342Y-195942914D01*
X199791485Y-196585771D02*
X199791485Y-195085771D01*
X199791485Y-196514342D02*
X199648628Y-196585771D01*
X199362914Y-196585771D01*
X199220057Y-196514342D01*
X199148628Y-196442914D01*
X199077200Y-196300057D01*
X199077200Y-195871485D01*
X199148628Y-195728628D01*
X199220057Y-195657200D01*
X199362914Y-195585771D01*
X199648628Y-195585771D01*
X199791485Y-195657200D01*
X202362914Y-195085771D02*
X201648628Y-195085771D01*
X201577200Y-195800057D01*
X201648628Y-195728628D01*
X201791485Y-195657200D01*
X202148628Y-195657200D01*
X202291485Y-195728628D01*
X202362914Y-195800057D01*
X202434342Y-195942914D01*
X202434342Y-196300057D01*
X202362914Y-196442914D01*
X202291485Y-196514342D01*
X202148628Y-196585771D01*
X201791485Y-196585771D01*
X201648628Y-196514342D01*
X201577200Y-196442914D01*
X203077200Y-196442914D02*
X203148628Y-196514342D01*
X203077200Y-196585771D01*
X203005771Y-196514342D01*
X203077200Y-196442914D01*
X203077200Y-196585771D01*
X204577200Y-196585771D02*
X203720057Y-196585771D01*
X204148628Y-196585771D02*
X204148628Y-195085771D01*
X204005771Y-195300057D01*
X203862914Y-195442914D01*
X203720057Y-195514342D01*
X205220057Y-196442914D02*
X205291485Y-196514342D01*
X205220057Y-196585771D01*
X205148628Y-196514342D01*
X205220057Y-196442914D01*
X205220057Y-196585771D01*
X206720057Y-196585771D02*
X205862914Y-196585771D01*
X206291485Y-196585771D02*
X206291485Y-195085771D01*
X206148628Y-195300057D01*
X206005771Y-195442914D01*
X205862914Y-195514342D01*
X207648628Y-195085771D02*
X207791485Y-195085771D01*
X207934342Y-195157200D01*
X208005771Y-195228628D01*
X208077200Y-195371485D01*
X208148628Y-195657200D01*
X208148628Y-196014342D01*
X208077200Y-196300057D01*
X208005771Y-196442914D01*
X207934342Y-196514342D01*
X207791485Y-196585771D01*
X207648628Y-196585771D01*
X207505771Y-196514342D01*
X207434342Y-196442914D01*
X207362914Y-196300057D01*
X207291485Y-196014342D01*
X207291485Y-195657200D01*
X207362914Y-195371485D01*
X207434342Y-195228628D01*
X207505771Y-195157200D01*
X207648628Y-195085771D01*
X208791485Y-196014342D02*
X209934342Y-196014342D01*
X210862914Y-195728628D02*
X210720057Y-195657200D01*
X210648628Y-195585771D01*
X210577200Y-195442914D01*
X210577200Y-195371485D01*
X210648628Y-195228628D01*
X210720057Y-195157200D01*
X210862914Y-195085771D01*
X211148628Y-195085771D01*
X211291485Y-195157200D01*
X211362914Y-195228628D01*
X211434342Y-195371485D01*
X211434342Y-195442914D01*
X211362914Y-195585771D01*
X211291485Y-195657200D01*
X211148628Y-195728628D01*
X210862914Y-195728628D01*
X210720057Y-195800057D01*
X210648628Y-195871485D01*
X210577200Y-196014342D01*
X210577200Y-196300057D01*
X210648628Y-196442914D01*
X210720057Y-196514342D01*
X210862914Y-196585771D01*
X211148628Y-196585771D01*
X211291485Y-196514342D01*
X211362914Y-196442914D01*
X211434342Y-196300057D01*
X211434342Y-196014342D01*
X211362914Y-195871485D01*
X211291485Y-195800057D01*
X211148628Y-195728628D01*
X212291485Y-195728628D02*
X212148628Y-195657200D01*
X212077200Y-195585771D01*
X212005771Y-195442914D01*
X212005771Y-195371485D01*
X212077200Y-195228628D01*
X212148628Y-195157200D01*
X212291485Y-195085771D01*
X212577200Y-195085771D01*
X212720057Y-195157200D01*
X212791485Y-195228628D01*
X212862914Y-195371485D01*
X212862914Y-195442914D01*
X212791485Y-195585771D01*
X212720057Y-195657200D01*
X212577200Y-195728628D01*
X212291485Y-195728628D01*
X212148628Y-195800057D01*
X212077200Y-195871485D01*
X212005771Y-196014342D01*
X212005771Y-196300057D01*
X212077200Y-196442914D01*
X212148628Y-196514342D01*
X212291485Y-196585771D01*
X212577200Y-196585771D01*
X212720057Y-196514342D01*
X212791485Y-196442914D01*
X212862914Y-196300057D01*
X212862914Y-196014342D01*
X212791485Y-195871485D01*
X212720057Y-195800057D01*
X212577200Y-195728628D01*
X214148628Y-196585771D02*
X214148628Y-195800057D01*
X214077200Y-195657200D01*
X213934342Y-195585771D01*
X213648628Y-195585771D01*
X213505771Y-195657200D01*
X214148628Y-196514342D02*
X214005771Y-196585771D01*
X213648628Y-196585771D01*
X213505771Y-196514342D01*
X213434342Y-196371485D01*
X213434342Y-196228628D01*
X213505771Y-196085771D01*
X213648628Y-196014342D01*
X214005771Y-196014342D01*
X214148628Y-195942914D01*
X215648628Y-196585771D02*
X214791485Y-196585771D01*
X215220057Y-196585771D02*
X215220057Y-195085771D01*
X215077200Y-195300057D01*
X214934342Y-195442914D01*
X214791485Y-195514342D01*
X216934342Y-196585771D02*
X216934342Y-195085771D01*
X216934342Y-196514342D02*
X216791485Y-196585771D01*
X216505771Y-196585771D01*
X216362914Y-196514342D01*
X216291485Y-196442914D01*
X216220057Y-196300057D01*
X216220057Y-195871485D01*
X216291485Y-195728628D01*
X216362914Y-195657200D01*
X216505771Y-195585771D01*
X216791485Y-195585771D01*
X216934342Y-195657200D01*
X218291485Y-195085771D02*
X218005771Y-195085771D01*
X217862914Y-195157200D01*
X217791485Y-195228628D01*
X217648628Y-195442914D01*
X217577200Y-195728628D01*
X217577200Y-196300057D01*
X217648628Y-196442914D01*
X217720057Y-196514342D01*
X217862914Y-196585771D01*
X218148628Y-196585771D01*
X218291485Y-196514342D01*
X218362914Y-196442914D01*
X218434342Y-196300057D01*
X218434342Y-195942914D01*
X218362914Y-195800057D01*
X218291485Y-195728628D01*
X218148628Y-195657200D01*
X217862914Y-195657200D01*
X217720057Y-195728628D01*
X217648628Y-195800057D01*
X217577200Y-195942914D01*
X219862914Y-196585771D02*
X219005771Y-196585771D01*
X219434342Y-196585771D02*
X219434342Y-195085771D01*
X219291485Y-195300057D01*
X219148628Y-195442914D01*
X219005771Y-195514342D01*
X221148628Y-196585771D02*
X221148628Y-195085771D01*
X221148628Y-196514342D02*
X221005771Y-196585771D01*
X220720057Y-196585771D01*
X220577200Y-196514342D01*
X220505771Y-196442914D01*
X220434342Y-196300057D01*
X220434342Y-195871485D01*
X220505771Y-195728628D01*
X220577200Y-195657200D01*
X220720057Y-195585771D01*
X221005771Y-195585771D01*
X221148628Y-195657200D01*
X222577200Y-195085771D02*
X221862914Y-195085771D01*
X221791485Y-195800057D01*
X221862914Y-195728628D01*
X222005771Y-195657200D01*
X222362914Y-195657200D01*
X222505771Y-195728628D01*
X222577200Y-195800057D01*
X222648628Y-195942914D01*
X222648628Y-196300057D01*
X222577200Y-196442914D01*
X222505771Y-196514342D01*
X222362914Y-196585771D01*
X222005771Y-196585771D01*
X221862914Y-196514342D01*
X221791485Y-196442914D01*
X223505771Y-195728628D02*
X223362914Y-195657200D01*
X223291485Y-195585771D01*
X223220057Y-195442914D01*
X223220057Y-195371485D01*
X223291485Y-195228628D01*
X223362914Y-195157200D01*
X223505771Y-195085771D01*
X223791485Y-195085771D01*
X223934342Y-195157200D01*
X224005771Y-195228628D01*
X224077200Y-195371485D01*
X224077200Y-195442914D01*
X224005771Y-195585771D01*
X223934342Y-195657200D01*
X223791485Y-195728628D01*
X223505771Y-195728628D01*
X223362914Y-195800057D01*
X223291485Y-195871485D01*
X223220057Y-196014342D01*
X223220057Y-196300057D01*
X223291485Y-196442914D01*
X223362914Y-196514342D01*
X223505771Y-196585771D01*
X223791485Y-196585771D01*
X223934342Y-196514342D01*
X224005771Y-196442914D01*
X224077200Y-196300057D01*
X224077200Y-196014342D01*
X224005771Y-195871485D01*
X223934342Y-195800057D01*
X223791485Y-195728628D01*
X224362914Y-194677200D02*
X225791485Y-194677200D01*
X224791485Y-196585771D02*
X225077200Y-196585771D01*
X225220057Y-196514342D01*
X225291485Y-196442914D01*
X225434342Y-196228628D01*
X225505771Y-195942914D01*
X225505771Y-195371485D01*
X225434342Y-195228628D01*
X225362914Y-195157200D01*
X225220057Y-195085771D01*
X224934342Y-195085771D01*
X224791485Y-195157200D01*
X224720057Y-195228628D01*
X224648628Y-195371485D01*
X224648628Y-195728628D01*
X224720057Y-195871485D01*
X224791485Y-195942914D01*
X224934342Y-196014342D01*
X225220057Y-196014342D01*
X225362914Y-195942914D01*
X225434342Y-195871485D01*
X225505771Y-195728628D01*
X225791485Y-194677200D02*
X227220057Y-194677200D01*
X226434342Y-195085771D02*
X226577199Y-195085771D01*
X226720057Y-195157200D01*
X226791485Y-195228628D01*
X226862914Y-195371485D01*
X226934342Y-195657200D01*
X226934342Y-196014342D01*
X226862914Y-196300057D01*
X226791485Y-196442914D01*
X226720057Y-196514342D01*
X226577199Y-196585771D01*
X226434342Y-196585771D01*
X226291485Y-196514342D01*
X226220057Y-196442914D01*
X226148628Y-196300057D01*
X226077199Y-196014342D01*
X226077199Y-195657200D01*
X226148628Y-195371485D01*
X226220057Y-195228628D01*
X226291485Y-195157200D01*
X226434342Y-195085771D01*
X228220057Y-195585771D02*
X228220057Y-196585771D01*
X227577199Y-195585771D02*
X227577199Y-196371485D01*
X227648628Y-196514342D01*
X227791485Y-196585771D01*
X228005771Y-196585771D01*
X228148628Y-196514342D01*
X228220057Y-196442914D01*
X228934342Y-196585771D02*
X228934342Y-195085771D01*
X228934342Y-195657200D02*
X229077199Y-195585771D01*
X229362914Y-195585771D01*
X229505771Y-195657200D01*
X229577199Y-195728628D01*
X229648628Y-195871485D01*
X229648628Y-196300057D01*
X229577199Y-196442914D01*
X229505771Y-196514342D01*
X229362914Y-196585771D01*
X229077199Y-196585771D01*
X228934342Y-196514342D01*
X230934342Y-195585771D02*
X230934342Y-196585771D01*
X230291485Y-195585771D02*
X230291485Y-196371485D01*
X230362914Y-196514342D01*
X230505771Y-196585771D01*
X230720057Y-196585771D01*
X230862914Y-196514342D01*
X230934342Y-196442914D01*
X231648628Y-195585771D02*
X231648628Y-196585771D01*
X231648628Y-195728628D02*
X231720057Y-195657200D01*
X231862914Y-195585771D01*
X232077199Y-195585771D01*
X232220057Y-195657200D01*
X232291485Y-195800057D01*
X232291485Y-196585771D01*
X232791485Y-195585771D02*
X233362914Y-195585771D01*
X233005771Y-195085771D02*
X233005771Y-196371485D01*
X233077199Y-196514342D01*
X233220057Y-196585771D01*
X233362914Y-196585771D01*
X234505771Y-195585771D02*
X234505771Y-196585771D01*
X233862914Y-195585771D02*
X233862914Y-196371485D01*
X233934342Y-196514342D01*
X234077200Y-196585771D01*
X234291485Y-196585771D01*
X234434342Y-196514342D01*
X234505771Y-196442914D01*
X235148628Y-195228628D02*
X235220057Y-195157200D01*
X235362914Y-195085771D01*
X235720057Y-195085771D01*
X235862914Y-195157200D01*
X235934342Y-195228628D01*
X236005771Y-195371485D01*
X236005771Y-195514342D01*
X235934342Y-195728628D01*
X235077200Y-196585771D01*
X236005771Y-196585771D01*
X236934342Y-195085771D02*
X237077199Y-195085771D01*
X237220057Y-195157200D01*
X237291485Y-195228628D01*
X237362914Y-195371485D01*
X237434342Y-195657200D01*
X237434342Y-196014342D01*
X237362914Y-196300057D01*
X237291485Y-196442914D01*
X237220057Y-196514342D01*
X237077199Y-196585771D01*
X236934342Y-196585771D01*
X236791485Y-196514342D01*
X236720057Y-196442914D01*
X236648628Y-196300057D01*
X236577199Y-196014342D01*
X236577199Y-195657200D01*
X236648628Y-195371485D01*
X236720057Y-195228628D01*
X236791485Y-195157200D01*
X236934342Y-195085771D01*
X238077199Y-196442914D02*
X238148628Y-196514342D01*
X238077199Y-196585771D01*
X238005771Y-196514342D01*
X238077199Y-196442914D01*
X238077199Y-196585771D01*
X239077199Y-195085771D02*
X239220057Y-195085771D01*
X239362914Y-195157200D01*
X239434342Y-195228628D01*
X239505771Y-195371485D01*
X239577199Y-195657200D01*
X239577199Y-196014342D01*
X239505771Y-196300057D01*
X239434342Y-196442914D01*
X239362914Y-196514342D01*
X239220057Y-196585771D01*
X239077199Y-196585771D01*
X238934342Y-196514342D01*
X238862914Y-196442914D01*
X238791485Y-196300057D01*
X238720057Y-196014342D01*
X238720057Y-195657200D01*
X238791485Y-195371485D01*
X238862914Y-195228628D01*
X238934342Y-195157200D01*
X239077199Y-195085771D01*
X240862914Y-195585771D02*
X240862914Y-196585771D01*
X240505771Y-195014342D02*
X240148628Y-196085771D01*
X241077199Y-196085771D01*
X241648628Y-196442914D02*
X241720057Y-196514342D01*
X241648628Y-196585771D01*
X241577199Y-196514342D01*
X241648628Y-196442914D01*
X241648628Y-196585771D01*
X243148628Y-196585771D02*
X242291485Y-196585771D01*
X242720057Y-196585771D02*
X242720057Y-195085771D01*
X242577199Y-195300057D01*
X242434342Y-195442914D01*
X242291485Y-195514342D01*
D10*
D11*
X177002200Y-191507200D02*
X285002200Y-191507200D01*
D10*
D12*
X264411485Y-193785771D02*
X263911485Y-193071485D01*
X263554342Y-193785771D02*
X263554342Y-192285771D01*
X264125771Y-192285771D01*
X264268628Y-192357200D01*
X264340057Y-192428628D01*
X264411485Y-192571485D01*
X264411485Y-192785771D01*
X264340057Y-192928628D01*
X264268628Y-193000057D01*
X264125771Y-193071485D01*
X263554342Y-193071485D01*
X265625771Y-193714342D02*
X265482914Y-193785771D01*
X265197200Y-193785771D01*
X265054342Y-193714342D01*
X264982914Y-193571485D01*
X264982914Y-193000057D01*
X265054342Y-192857200D01*
X265197200Y-192785771D01*
X265482914Y-192785771D01*
X265625771Y-192857200D01*
X265697200Y-193000057D01*
X265697200Y-193142914D01*
X264982914Y-193285771D01*
X266197200Y-192785771D02*
X266554342Y-193785771D01*
X266911485Y-192785771D01*
X267482914Y-193642914D02*
X267554342Y-193714342D01*
X267482914Y-193785771D01*
X267411485Y-193714342D01*
X267482914Y-193642914D01*
X267482914Y-193785771D01*
X267482914Y-192857200D02*
X267554342Y-192928628D01*
X267482914Y-193000057D01*
X267411485Y-192928628D01*
X267482914Y-192857200D01*
X267482914Y-193000057D01*
X270125771Y-193785771D02*
X269268628Y-193785771D01*
X269697200Y-193785771D02*
X269697200Y-192285771D01*
X269554342Y-192500057D01*
X269411485Y-192642914D01*
X269268628Y-192714342D01*
D10*
D11*
X178362914Y-193714342D02*
X178577200Y-193785771D01*
X178934342Y-193785771D01*
X179077200Y-193714342D01*
X179148628Y-193642914D01*
X179220057Y-193500057D01*
X179220057Y-193357200D01*
X179148628Y-193214342D01*
X179077200Y-193142914D01*
X178934342Y-193071485D01*
X178648628Y-193000057D01*
X178505771Y-192928628D01*
X178434342Y-192857200D01*
X178362914Y-192714342D01*
X178362914Y-192571485D01*
X178434342Y-192428628D01*
X178505771Y-192357200D01*
X178648628Y-192285771D01*
X179005771Y-192285771D01*
X179220057Y-192357200D01*
X179862914Y-193785771D02*
X179862914Y-192785771D01*
X179862914Y-192285771D02*
X179791485Y-192357200D01*
X179862914Y-192428628D01*
X179934342Y-192357200D01*
X179862914Y-192285771D01*
X179862914Y-192428628D01*
X180434342Y-192785771D02*
X181220057Y-192785771D01*
X180434342Y-193785771D01*
X181220057Y-193785771D01*
X182362914Y-193714342D02*
X182220057Y-193785771D01*
X181934342Y-193785771D01*
X181791485Y-193714342D01*
X181720057Y-193571485D01*
X181720057Y-193000057D01*
X181791485Y-192857200D01*
X181934342Y-192785771D01*
X182220057Y-192785771D01*
X182362914Y-192857200D01*
X182434342Y-193000057D01*
X182434342Y-193142914D01*
X181720057Y-193285771D01*
X183077200Y-193642914D02*
X183148628Y-193714342D01*
X183077200Y-193785771D01*
X183005771Y-193714342D01*
X183077200Y-193642914D01*
X183077200Y-193785771D01*
X183077200Y-192857200D02*
X183148628Y-192928628D01*
X183077200Y-193000057D01*
X183005771Y-192928628D01*
X183077200Y-192857200D01*
X183077200Y-193000057D01*
X184862914Y-193357200D02*
X185577200Y-193357200D01*
X184720057Y-193785771D02*
X185220057Y-192285771D01*
X185720057Y-193785771D01*
X186862914Y-192785771D02*
X186862914Y-193785771D01*
X186505771Y-192214342D02*
X186148628Y-193285771D01*
X187077200Y-193285771D01*
D10*
D11*
X263434342Y-196585771D02*
X263434342Y-195085771D01*
X264791485Y-196585771D02*
X264791485Y-195085771D01*
X264791485Y-196514342D02*
X264648628Y-196585771D01*
X264362914Y-196585771D01*
X264220057Y-196514342D01*
X264148628Y-196442914D01*
X264077200Y-196300057D01*
X264077200Y-195871485D01*
X264148628Y-195728628D01*
X264220057Y-195657200D01*
X264362914Y-195585771D01*
X264648628Y-195585771D01*
X264791485Y-195657200D01*
X265505771Y-196442914D02*
X265577200Y-196514342D01*
X265505771Y-196585771D01*
X265434342Y-196514342D01*
X265505771Y-196442914D01*
X265505771Y-196585771D01*
X265505771Y-195657200D02*
X265577200Y-195728628D01*
X265505771Y-195800057D01*
X265434342Y-195728628D01*
X265505771Y-195657200D01*
X265505771Y-195800057D01*
X268148628Y-196585771D02*
X267291485Y-196585771D01*
X267720057Y-196585771D02*
X267720057Y-195085771D01*
X267577200Y-195300057D01*
X267434342Y-195442914D01*
X267291485Y-195514342D01*
X269862914Y-195014342D02*
X268577200Y-196942914D01*
X271148628Y-196585771D02*
X270291485Y-196585771D01*
X270720057Y-196585771D02*
X270720057Y-195085771D01*
X270577200Y-195300057D01*
X270434342Y-195442914D01*
X270291485Y-195514342D01*
D10*
D11*
X177002200Y-187507200D02*
X285002200Y-187507200D01*
D10*
D13*
X178714580Y-188211961D02*
X179857438Y-188211961D01*
X179036009Y-190211961D02*
X179286009Y-188211961D01*
X180274104Y-190211961D02*
X180440771Y-188878628D01*
X180524104Y-188211961D02*
X180416961Y-188307200D01*
X180500295Y-188402438D01*
X180607438Y-188307200D01*
X180524104Y-188211961D01*
X180500295Y-188402438D01*
X181107438Y-188878628D02*
X181869342Y-188878628D01*
X181476485Y-188211961D02*
X181262200Y-189926247D01*
X181333628Y-190116723D01*
X181512200Y-190211961D01*
X181702676Y-190211961D01*
X182655057Y-190211961D02*
X182476485Y-190116723D01*
X182405057Y-189926247D01*
X182619342Y-188211961D01*
X184190771Y-190116723D02*
X183988390Y-190211961D01*
X183607438Y-190211961D01*
X183428866Y-190116723D01*
X183357438Y-189926247D01*
X183452676Y-189164342D01*
X183571723Y-188973866D01*
X183774104Y-188878628D01*
X184155057Y-188878628D01*
X184333628Y-188973866D01*
X184405057Y-189164342D01*
X184381247Y-189354819D01*
X183405057Y-189545295D01*
X185155057Y-190021485D02*
X185238390Y-190116723D01*
X185131247Y-190211961D01*
X185047914Y-190116723D01*
X185155057Y-190021485D01*
X185131247Y-190211961D01*
X185286009Y-188973866D02*
X185369342Y-189069104D01*
X185262200Y-189164342D01*
X185178866Y-189069104D01*
X185286009Y-188973866D01*
X185262200Y-189164342D01*
X187583628Y-189640533D02*
X188536009Y-189640533D01*
X187321723Y-190211961D02*
X188238390Y-188211961D01*
X188655057Y-190211961D01*
X189321723Y-190211961D02*
X189488390Y-188878628D01*
X189440771Y-189259580D02*
X189559819Y-189069104D01*
X189666961Y-188973866D01*
X189869342Y-188878628D01*
X190059819Y-188878628D01*
X191416961Y-190211961D02*
X191666961Y-188211961D01*
X191428866Y-190116723D02*
X191226485Y-190211961D01*
X190845533Y-190211961D01*
X190666961Y-190116723D01*
X190583628Y-190021485D01*
X190512200Y-189831009D01*
X190583628Y-189259580D01*
X190702676Y-189069104D01*
X190809819Y-188973866D01*
X191012200Y-188878628D01*
X191393152Y-188878628D01*
X191571723Y-188973866D01*
X193393152Y-188878628D02*
X193226485Y-190211961D01*
X192536009Y-188878628D02*
X192405057Y-189926247D01*
X192476485Y-190116723D01*
X192655057Y-190211961D01*
X192940771Y-190211961D01*
X193143152Y-190116723D01*
X193250295Y-190021485D01*
X194178866Y-190211961D02*
X194345533Y-188878628D01*
X194428866Y-188211961D02*
X194321723Y-188307200D01*
X194405057Y-188402438D01*
X194512200Y-188307200D01*
X194428866Y-188211961D01*
X194405057Y-188402438D01*
X195297914Y-188878628D02*
X195131247Y-190211961D01*
X195274104Y-189069104D02*
X195381247Y-188973866D01*
X195583628Y-188878628D01*
X195869342Y-188878628D01*
X196047914Y-188973866D01*
X196119342Y-189164342D01*
X195988390Y-190211961D01*
X197226485Y-190211961D02*
X197047914Y-190116723D01*
X196964580Y-190021485D01*
X196893152Y-189831009D01*
X196964580Y-189259580D01*
X197083628Y-189069104D01*
X197190771Y-188973866D01*
X197393152Y-188878628D01*
X197678866Y-188878628D01*
X197857438Y-188973866D01*
X197940771Y-189069104D01*
X198012200Y-189259580D01*
X197940771Y-189831009D01*
X197821723Y-190021485D01*
X197714580Y-190116723D01*
X197512200Y-190211961D01*
X197226485Y-190211961D01*
X200274104Y-190211961D02*
X200524104Y-188211961D01*
X201416961Y-190211961D01*
X201666961Y-188211961D01*
X203226485Y-190211961D02*
X203357438Y-189164342D01*
X203286009Y-188973866D01*
X203107438Y-188878628D01*
X202726485Y-188878628D01*
X202524104Y-188973866D01*
X203238390Y-190116723D02*
X203036009Y-190211961D01*
X202559819Y-190211961D01*
X202381247Y-190116723D01*
X202309819Y-189926247D01*
X202333628Y-189735771D01*
X202452676Y-189545295D01*
X202655057Y-189450057D01*
X203131247Y-189450057D01*
X203333628Y-189354819D01*
X204345533Y-188878628D02*
X204178866Y-190211961D01*
X204321723Y-189069104D02*
X204428866Y-188973866D01*
X204631247Y-188878628D01*
X204916961Y-188878628D01*
X205095533Y-188973866D01*
X205166961Y-189164342D01*
X205036009Y-190211961D01*
X206274104Y-190211961D02*
X206095533Y-190116723D01*
X206012200Y-190021485D01*
X205940771Y-189831009D01*
X206012200Y-189259580D01*
X206131247Y-189069104D01*
X206238390Y-188973866D01*
X206440771Y-188878628D01*
X206726485Y-188878628D01*
X206905057Y-188973866D01*
X206988390Y-189069104D01*
X207059819Y-189259580D01*
X206988390Y-189831009D01*
X206869342Y-190021485D01*
X206762200Y-190116723D01*
X206559819Y-190211961D01*
X206274104Y-190211961D01*
D10*
D11*
X178934342Y-185600057D02*
X178434342Y-185600057D01*
X178434342Y-186385771D02*
X178434342Y-184885771D01*
X179148628Y-184885771D01*
X179720057Y-186385771D02*
X179720057Y-185385771D01*
X179720057Y-184885771D02*
X179648628Y-184957200D01*
X179720057Y-185028628D01*
X179791485Y-184957200D01*
X179720057Y-184885771D01*
X179720057Y-185028628D01*
X180648628Y-186385771D02*
X180505771Y-186314342D01*
X180434342Y-186171485D01*
X180434342Y-184885771D01*
X181791485Y-186314342D02*
X181648628Y-186385771D01*
X181362914Y-186385771D01*
X181220057Y-186314342D01*
X181148628Y-186171485D01*
X181148628Y-185600057D01*
X181220057Y-185457200D01*
X181362914Y-185385771D01*
X181648628Y-185385771D01*
X181791485Y-185457200D01*
X181862914Y-185600057D01*
X181862914Y-185742914D01*
X181148628Y-185885771D01*
X182505771Y-186242914D02*
X182577200Y-186314342D01*
X182505771Y-186385771D01*
X182434342Y-186314342D01*
X182505771Y-186242914D01*
X182505771Y-186385771D01*
X182505771Y-185457200D02*
X182577200Y-185528628D01*
X182505771Y-185600057D01*
X182434342Y-185528628D01*
X182505771Y-185457200D01*
X182505771Y-185600057D01*
X184291485Y-185957200D02*
X185005771Y-185957200D01*
X184148628Y-186385771D02*
X184648628Y-184885771D01*
X185148628Y-186385771D01*
X185648628Y-186385771D02*
X185648628Y-185385771D01*
X185648628Y-185671485D02*
X185720057Y-185528628D01*
X185791485Y-185457200D01*
X185934342Y-185385771D01*
X186077200Y-185385771D01*
X187220057Y-186385771D02*
X187220057Y-184885771D01*
X187220057Y-186314342D02*
X187077200Y-186385771D01*
X186791485Y-186385771D01*
X186648628Y-186314342D01*
X186577200Y-186242914D01*
X186505771Y-186100057D01*
X186505771Y-185671485D01*
X186577200Y-185528628D01*
X186648628Y-185457200D01*
X186791485Y-185385771D01*
X187077200Y-185385771D01*
X187220057Y-185457200D01*
X188577200Y-185385771D02*
X188577200Y-186385771D01*
X187934342Y-185385771D02*
X187934342Y-186171485D01*
X188005771Y-186314342D01*
X188148628Y-186385771D01*
X188362914Y-186385771D01*
X188505771Y-186314342D01*
X188577200Y-186242914D01*
X189291485Y-186385771D02*
X189291485Y-185385771D01*
X189291485Y-184885771D02*
X189220057Y-184957200D01*
X189291485Y-185028628D01*
X189362914Y-184957200D01*
X189291485Y-184885771D01*
X189291485Y-185028628D01*
X190005771Y-185385771D02*
X190005771Y-186385771D01*
X190005771Y-185528628D02*
X190077200Y-185457200D01*
X190220057Y-185385771D01*
X190434342Y-185385771D01*
X190577200Y-185457200D01*
X190648628Y-185600057D01*
X190648628Y-186385771D01*
X191577200Y-186385771D02*
X191434342Y-186314342D01*
X191362914Y-186242914D01*
X191291485Y-186100057D01*
X191291485Y-185671485D01*
X191362914Y-185528628D01*
X191434342Y-185457200D01*
X191577200Y-185385771D01*
X191791485Y-185385771D01*
X191934342Y-185457200D01*
X192005771Y-185528628D01*
X192077200Y-185671485D01*
X192077200Y-186100057D01*
X192005771Y-186242914D01*
X191934342Y-186314342D01*
X191791485Y-186385771D01*
X191577200Y-186385771D01*
X192362914Y-186528628D02*
X193505771Y-186528628D01*
X193862914Y-186385771D02*
X193862914Y-184885771D01*
X194720057Y-186385771D01*
X194720057Y-184885771D01*
X196077200Y-186385771D02*
X196077200Y-185600057D01*
X196005771Y-185457200D01*
X195862914Y-185385771D01*
X195577200Y-185385771D01*
X195434342Y-185457200D01*
X196077200Y-186314342D02*
X195934342Y-186385771D01*
X195577200Y-186385771D01*
X195434342Y-186314342D01*
X195362914Y-186171485D01*
X195362914Y-186028628D01*
X195434342Y-185885771D01*
X195577200Y-185814342D01*
X195934342Y-185814342D01*
X196077200Y-185742914D01*
X196791485Y-185385771D02*
X196791485Y-186385771D01*
X196791485Y-185528628D02*
X196862914Y-185457200D01*
X197005771Y-185385771D01*
X197220057Y-185385771D01*
X197362914Y-185457200D01*
X197434342Y-185600057D01*
X197434342Y-186385771D01*
X198362914Y-186385771D02*
X198220057Y-186314342D01*
X198148628Y-186242914D01*
X198077200Y-186100057D01*
X198077200Y-185671485D01*
X198148628Y-185528628D01*
X198220057Y-185457200D01*
X198362914Y-185385771D01*
X198577200Y-185385771D01*
X198720057Y-185457200D01*
X198791485Y-185528628D01*
X198862914Y-185671485D01*
X198862914Y-186100057D01*
X198791485Y-186242914D01*
X198720057Y-186314342D01*
X198577200Y-186385771D01*
X198362914Y-186385771D01*
X199148628Y-186528628D02*
X200291485Y-186528628D01*
X200648628Y-185600057D02*
X201148628Y-185600057D01*
X201362914Y-186385771D02*
X200648628Y-186385771D01*
X200648628Y-184885771D01*
X201362914Y-184885771D01*
X201862914Y-186385771D02*
X202648628Y-185385771D01*
X201862914Y-185385771D02*
X202648628Y-186385771D01*
X203862914Y-186385771D02*
X203862914Y-185600057D01*
X203791485Y-185457200D01*
X203648628Y-185385771D01*
X203362914Y-185385771D01*
X203220057Y-185457200D01*
X203862914Y-186314342D02*
X203720057Y-186385771D01*
X203362914Y-186385771D01*
X203220057Y-186314342D01*
X203148628Y-186171485D01*
X203148628Y-186028628D01*
X203220057Y-185885771D01*
X203362914Y-185814342D01*
X203720057Y-185814342D01*
X203862914Y-185742914D01*
X204577200Y-186385771D02*
X204577200Y-185385771D01*
X204577200Y-185528628D02*
X204648628Y-185457200D01*
X204791485Y-185385771D01*
X205005771Y-185385771D01*
X205148628Y-185457200D01*
X205220057Y-185600057D01*
X205220057Y-186385771D01*
X205220057Y-185600057D02*
X205291485Y-185457200D01*
X205434342Y-185385771D01*
X205648628Y-185385771D01*
X205791485Y-185457200D01*
X205862914Y-185600057D01*
X205862914Y-186385771D01*
X206577200Y-185385771D02*
X206577200Y-186885771D01*
X206577200Y-185457200D02*
X206720057Y-185385771D01*
X207005771Y-185385771D01*
X207148628Y-185457200D01*
X207220057Y-185528628D01*
X207291485Y-185671485D01*
X207291485Y-186100057D01*
X207220057Y-186242914D01*
X207148628Y-186314342D01*
X207005771Y-186385771D01*
X206720057Y-186385771D01*
X206577200Y-186314342D01*
X208148628Y-186385771D02*
X208005771Y-186314342D01*
X207934342Y-186171485D01*
X207934342Y-184885771D01*
X209291485Y-186314342D02*
X209148628Y-186385771D01*
X208862914Y-186385771D01*
X208720057Y-186314342D01*
X208648628Y-186171485D01*
X208648628Y-185600057D01*
X208720057Y-185457200D01*
X208862914Y-185385771D01*
X209148628Y-185385771D01*
X209291485Y-185457200D01*
X209362914Y-185600057D01*
X209362914Y-185742914D01*
X208648628Y-185885771D01*
X210005771Y-186242914D02*
X210077200Y-186314342D01*
X210005771Y-186385771D01*
X209934342Y-186314342D01*
X210005771Y-186242914D01*
X210005771Y-186385771D01*
X210720057Y-186385771D02*
X210720057Y-184885771D01*
X210862914Y-185814342D02*
X211291485Y-186385771D01*
X211291485Y-185385771D02*
X210720057Y-185957200D01*
X211934342Y-186385771D02*
X211934342Y-185385771D01*
X211934342Y-184885771D02*
X211862914Y-184957200D01*
X211934342Y-185028628D01*
X212005771Y-184957200D01*
X211934342Y-184885771D01*
X211934342Y-185028628D01*
X213291485Y-186314342D02*
X213148628Y-186385771D01*
X212862914Y-186385771D01*
X212720057Y-186314342D01*
X212648628Y-186242914D01*
X212577200Y-186100057D01*
X212577200Y-185671485D01*
X212648628Y-185528628D01*
X212720057Y-185457200D01*
X212862914Y-185385771D01*
X213148628Y-185385771D01*
X213291485Y-185457200D01*
X214577200Y-186385771D02*
X214577200Y-185600057D01*
X214505771Y-185457200D01*
X214362914Y-185385771D01*
X214077200Y-185385771D01*
X213934342Y-185457200D01*
X214577200Y-186314342D02*
X214434342Y-186385771D01*
X214077200Y-186385771D01*
X213934342Y-186314342D01*
X213862914Y-186171485D01*
X213862914Y-186028628D01*
X213934342Y-185885771D01*
X214077200Y-185814342D01*
X214434342Y-185814342D01*
X214577200Y-185742914D01*
X215934342Y-186385771D02*
X215934342Y-184885771D01*
X215934342Y-186314342D02*
X215791485Y-186385771D01*
X215505771Y-186385771D01*
X215362914Y-186314342D01*
X215291485Y-186242914D01*
X215220057Y-186100057D01*
X215220057Y-185671485D01*
X215291485Y-185528628D01*
X215362914Y-185457200D01*
X215505771Y-185385771D01*
X215791485Y-185385771D01*
X215934342Y-185457200D01*
X216291485Y-186528628D02*
X217434342Y-186528628D01*
X217791485Y-185385771D02*
X217791485Y-186885771D01*
X217791485Y-185457200D02*
X217934342Y-185385771D01*
X218220057Y-185385771D01*
X218362914Y-185457200D01*
X218434342Y-185528628D01*
X218505771Y-185671485D01*
X218505771Y-186100057D01*
X218434342Y-186242914D01*
X218362914Y-186314342D01*
X218220057Y-186385771D01*
X217934342Y-186385771D01*
X217791485Y-186314342D01*
X219791485Y-186314342D02*
X219648628Y-186385771D01*
X219362914Y-186385771D01*
X219220057Y-186314342D01*
X219148628Y-186242914D01*
X219077200Y-186100057D01*
X219077200Y-185671485D01*
X219148628Y-185528628D01*
X219220057Y-185457200D01*
X219362914Y-185385771D01*
X219648628Y-185385771D01*
X219791485Y-185457200D01*
X220434342Y-186385771D02*
X220434342Y-184885771D01*
X220434342Y-185457200D02*
X220577200Y-185385771D01*
X220862914Y-185385771D01*
X221005771Y-185457200D01*
X221077200Y-185528628D01*
X221148628Y-185671485D01*
X221148628Y-186100057D01*
X221077200Y-186242914D01*
X221005771Y-186314342D01*
X220862914Y-186385771D01*
X220577200Y-186385771D01*
X220434342Y-186314342D01*
D10*
D11*
X177002200Y-181507200D02*
X285002200Y-181507200D01*
D10*
D11*
X178362914Y-183614342D02*
X178577200Y-183685771D01*
X178934342Y-183685771D01*
X179077200Y-183614342D01*
X179148628Y-183542914D01*
X179220057Y-183400057D01*
X179220057Y-183257200D01*
X179148628Y-183114342D01*
X179077200Y-183042914D01*
X178934342Y-182971485D01*
X178648628Y-182900057D01*
X178505771Y-182828628D01*
X178434342Y-182757200D01*
X178362914Y-182614342D01*
X178362914Y-182471485D01*
X178434342Y-182328628D01*
X178505771Y-182257200D01*
X178648628Y-182185771D01*
X179005771Y-182185771D01*
X179220057Y-182257200D01*
X179862914Y-183685771D02*
X179862914Y-182185771D01*
X180505771Y-183685771D02*
X180505771Y-182900057D01*
X180434342Y-182757200D01*
X180291485Y-182685771D01*
X180077200Y-182685771D01*
X179934342Y-182757200D01*
X179862914Y-182828628D01*
X181791485Y-183614342D02*
X181648628Y-183685771D01*
X181362914Y-183685771D01*
X181220057Y-183614342D01*
X181148628Y-183471485D01*
X181148628Y-182900057D01*
X181220057Y-182757200D01*
X181362914Y-182685771D01*
X181648628Y-182685771D01*
X181791485Y-182757200D01*
X181862914Y-182900057D01*
X181862914Y-183042914D01*
X181148628Y-183185771D01*
X183077200Y-183614342D02*
X182934342Y-183685771D01*
X182648628Y-183685771D01*
X182505771Y-183614342D01*
X182434342Y-183471485D01*
X182434342Y-182900057D01*
X182505771Y-182757200D01*
X182648628Y-182685771D01*
X182934342Y-182685771D01*
X183077200Y-182757200D01*
X183148628Y-182900057D01*
X183148628Y-183042914D01*
X182434342Y-183185771D01*
X183577200Y-182685771D02*
X184148628Y-182685771D01*
X183791485Y-182185771D02*
X183791485Y-183471485D01*
X183862914Y-183614342D01*
X184005771Y-183685771D01*
X184148628Y-183685771D01*
X184648628Y-183542914D02*
X184720057Y-183614342D01*
X184648628Y-183685771D01*
X184577200Y-183614342D01*
X184648628Y-183542914D01*
X184648628Y-183685771D01*
X184648628Y-182757200D02*
X184720057Y-182828628D01*
X184648628Y-182900057D01*
X184577200Y-182828628D01*
X184648628Y-182757200D01*
X184648628Y-182900057D01*
D10*
D12*
X178554342Y-180685771D02*
X178554342Y-179185771D01*
X179054342Y-180257200D01*
X179554342Y-179185771D01*
X179554342Y-180685771D01*
X180197200Y-180257200D02*
X180911485Y-180257200D01*
X180054342Y-180685771D02*
X180554342Y-179185771D01*
X181054342Y-180685771D01*
X181482914Y-180257200D02*
X182197200Y-180257200D01*
X181340057Y-180685771D02*
X181840057Y-179185771D01*
X182340057Y-180685771D01*
X183554342Y-180685771D02*
X182840057Y-180685771D01*
X182840057Y-179185771D01*
X184125771Y-179185771D02*
X183982914Y-179471485D01*
X184697200Y-180614342D02*
X184840057Y-180685771D01*
X185125771Y-180685771D01*
X185268628Y-180614342D01*
X185340057Y-180471485D01*
X185340057Y-180400057D01*
X185268628Y-180257200D01*
X185125771Y-180185771D01*
X184911485Y-180185771D01*
X184768628Y-180114342D01*
X184697200Y-179971485D01*
X184697200Y-179900057D01*
X184768628Y-179757200D01*
X184911485Y-179685771D01*
X185125771Y-179685771D01*
X185268628Y-179757200D01*
X187840057Y-180685771D02*
X187125771Y-180685771D01*
X187125771Y-179185771D01*
X188268628Y-180257200D02*
X188982914Y-180257200D01*
X188125771Y-180685771D02*
X188625771Y-179185771D01*
X189125771Y-180685771D01*
X190125771Y-179900057D02*
X190340057Y-179971485D01*
X190411485Y-180042914D01*
X190482914Y-180185771D01*
X190482914Y-180400057D01*
X190411485Y-180542914D01*
X190340057Y-180614342D01*
X190197200Y-180685771D01*
X189625771Y-180685771D01*
X189625771Y-179185771D01*
X190125771Y-179185771D01*
X190268628Y-179257200D01*
X190340057Y-179328628D01*
X190411485Y-179471485D01*
X190411485Y-179614342D01*
X190340057Y-179757200D01*
X190268628Y-179828628D01*
X190125771Y-179900057D01*
X189625771Y-179900057D01*
D10*
D11*
X178434342Y-177685771D02*
X178434342Y-176185771D01*
X178791485Y-176185771D01*
X179005771Y-176257200D01*
X179148628Y-176400057D01*
X179220057Y-176542914D01*
X179291485Y-176828628D01*
X179291485Y-177042914D01*
X179220057Y-177328628D01*
X179148628Y-177471485D01*
X179005771Y-177614342D01*
X178791485Y-177685771D01*
X178434342Y-177685771D01*
X180505771Y-177614342D02*
X180362914Y-177685771D01*
X180077200Y-177685771D01*
X179934342Y-177614342D01*
X179862914Y-177471485D01*
X179862914Y-176900057D01*
X179934342Y-176757200D01*
X180077200Y-176685771D01*
X180362914Y-176685771D01*
X180505771Y-176757200D01*
X180577200Y-176900057D01*
X180577200Y-177042914D01*
X179862914Y-177185771D01*
X181148628Y-177614342D02*
X181291485Y-177685771D01*
X181577200Y-177685771D01*
X181720057Y-177614342D01*
X181791485Y-177471485D01*
X181791485Y-177400057D01*
X181720057Y-177257200D01*
X181577200Y-177185771D01*
X181362914Y-177185771D01*
X181220057Y-177114342D01*
X181148628Y-176971485D01*
X181148628Y-176900057D01*
X181220057Y-176757200D01*
X181362914Y-176685771D01*
X181577200Y-176685771D01*
X181720057Y-176757200D01*
X182434342Y-177685771D02*
X182434342Y-176685771D01*
X182434342Y-176185771D02*
X182362914Y-176257200D01*
X182434342Y-176328628D01*
X182505771Y-176257200D01*
X182434342Y-176185771D01*
X182434342Y-176328628D01*
X183791485Y-176685771D02*
X183791485Y-177900057D01*
X183720057Y-178042914D01*
X183648628Y-178114342D01*
X183505771Y-178185771D01*
X183291485Y-178185771D01*
X183148628Y-178114342D01*
X183791485Y-177614342D02*
X183648628Y-177685771D01*
X183362914Y-177685771D01*
X183220057Y-177614342D01*
X183148628Y-177542914D01*
X183077200Y-177400057D01*
X183077200Y-176971485D01*
X183148628Y-176828628D01*
X183220057Y-176757200D01*
X183362914Y-176685771D01*
X183648628Y-176685771D01*
X183791485Y-176757200D01*
X184505771Y-176685771D02*
X184505771Y-177685771D01*
X184505771Y-176828628D02*
X184577200Y-176757200D01*
X184720057Y-176685771D01*
X184934342Y-176685771D01*
X185077200Y-176757200D01*
X185148628Y-176900057D01*
X185148628Y-177685771D01*
X186434342Y-177614342D02*
X186291485Y-177685771D01*
X186005771Y-177685771D01*
X185862914Y-177614342D01*
X185791485Y-177471485D01*
X185791485Y-176900057D01*
X185862914Y-176757200D01*
X186005771Y-176685771D01*
X186291485Y-176685771D01*
X186434342Y-176757200D01*
X186505771Y-176900057D01*
X186505771Y-177042914D01*
X185791485Y-177185771D01*
X187148628Y-177685771D02*
X187148628Y-176685771D01*
X187148628Y-176971485D02*
X187220057Y-176828628D01*
X187291485Y-176757200D01*
X187434342Y-176685771D01*
X187577200Y-176685771D01*
X188077200Y-177542914D02*
X188148628Y-177614342D01*
X188077200Y-177685771D01*
X188005771Y-177614342D01*
X188077200Y-177542914D01*
X188077200Y-177685771D01*
X188077200Y-176757200D02*
X188148628Y-176828628D01*
X188077200Y-176900057D01*
X188005771Y-176828628D01*
X188077200Y-176757200D01*
X188077200Y-176900057D01*
X189934342Y-177685771D02*
X189934342Y-176185771D01*
X190434342Y-177257200D01*
X190934342Y-176185771D01*
X190934342Y-177685771D01*
X191862914Y-177685771D02*
X191720057Y-177614342D01*
X191648628Y-177542914D01*
X191577200Y-177400057D01*
X191577200Y-176971485D01*
X191648628Y-176828628D01*
X191720057Y-176757200D01*
X191862914Y-176685771D01*
X192077200Y-176685771D01*
X192220057Y-176757200D01*
X192291485Y-176828628D01*
X192362914Y-176971485D01*
X192362914Y-177400057D01*
X192291485Y-177542914D01*
X192220057Y-177614342D01*
X192077200Y-177685771D01*
X191862914Y-177685771D01*
X193005771Y-177685771D02*
X193005771Y-176185771D01*
X193648628Y-177685771D02*
X193648628Y-176900057D01*
X193577200Y-176757200D01*
X193434342Y-176685771D01*
X193220057Y-176685771D01*
X193077200Y-176757200D01*
X193005771Y-176828628D01*
X195005771Y-177685771D02*
X195005771Y-176900057D01*
X194934342Y-176757200D01*
X194791485Y-176685771D01*
X194505771Y-176685771D01*
X194362914Y-176757200D01*
X195005771Y-177614342D02*
X194862914Y-177685771D01*
X194505771Y-177685771D01*
X194362914Y-177614342D01*
X194291485Y-177471485D01*
X194291485Y-177328628D01*
X194362914Y-177185771D01*
X194505771Y-177114342D01*
X194862914Y-177114342D01*
X195005771Y-177042914D01*
X195720057Y-177685771D02*
X195720057Y-176685771D01*
X195720057Y-176828628D02*
X195791485Y-176757200D01*
X195934342Y-176685771D01*
X196148628Y-176685771D01*
X196291485Y-176757200D01*
X196362914Y-176900057D01*
X196362914Y-177685771D01*
X196362914Y-176900057D02*
X196434342Y-176757200D01*
X196577200Y-176685771D01*
X196791485Y-176685771D01*
X196934342Y-176757200D01*
X197005771Y-176900057D01*
X197005771Y-177685771D01*
X197720057Y-177685771D02*
X197720057Y-176685771D01*
X197720057Y-176828628D02*
X197791485Y-176757200D01*
X197934342Y-176685771D01*
X198148628Y-176685771D01*
X198291485Y-176757200D01*
X198362914Y-176900057D01*
X198362914Y-177685771D01*
X198362914Y-176900057D02*
X198434342Y-176757200D01*
X198577200Y-176685771D01*
X198791485Y-176685771D01*
X198934342Y-176757200D01*
X199005771Y-176900057D01*
X199005771Y-177685771D01*
X200362914Y-177685771D02*
X200362914Y-176900057D01*
X200291485Y-176757200D01*
X200148628Y-176685771D01*
X199862914Y-176685771D01*
X199720057Y-176757200D01*
X200362914Y-177614342D02*
X200220057Y-177685771D01*
X199862914Y-177685771D01*
X199720057Y-177614342D01*
X199648628Y-177471485D01*
X199648628Y-177328628D01*
X199720057Y-177185771D01*
X199862914Y-177114342D01*
X200220057Y-177114342D01*
X200362914Y-177042914D01*
X201720057Y-177685771D02*
X201720057Y-176185771D01*
X201720057Y-177614342D02*
X201577200Y-177685771D01*
X201291485Y-177685771D01*
X201148628Y-177614342D01*
X201077200Y-177542914D01*
X201005771Y-177400057D01*
X201005771Y-176971485D01*
X201077200Y-176828628D01*
X201148628Y-176757200D01*
X201291485Y-176685771D01*
X201577200Y-176685771D01*
X201720057Y-176757200D01*
X203505771Y-177257200D02*
X204220057Y-177257200D01*
X203362914Y-177685771D02*
X203862914Y-176185771D01*
X204362914Y-177685771D01*
X204862914Y-177685771D02*
X204862914Y-176185771D01*
X205505771Y-177685771D02*
X205505771Y-176900057D01*
X205434342Y-176757200D01*
X205291485Y-176685771D01*
X205077200Y-176685771D01*
X204934342Y-176757200D01*
X204862914Y-176828628D01*
X206220057Y-177685771D02*
X206220057Y-176685771D01*
X206220057Y-176828628D02*
X206291485Y-176757200D01*
X206434342Y-176685771D01*
X206648628Y-176685771D01*
X206791485Y-176757200D01*
X206862914Y-176900057D01*
X206862914Y-177685771D01*
X206862914Y-176900057D02*
X206934342Y-176757200D01*
X207077200Y-176685771D01*
X207291485Y-176685771D01*
X207434342Y-176757200D01*
X207505771Y-176900057D01*
X207505771Y-177685771D01*
X208862914Y-177685771D02*
X208862914Y-176900057D01*
X208791485Y-176757200D01*
X208648628Y-176685771D01*
X208362914Y-176685771D01*
X208220057Y-176757200D01*
X208862914Y-177614342D02*
X208720057Y-177685771D01*
X208362914Y-177685771D01*
X208220057Y-177614342D01*
X208148628Y-177471485D01*
X208148628Y-177328628D01*
X208220057Y-177185771D01*
X208362914Y-177114342D01*
X208720057Y-177114342D01*
X208862914Y-177042914D01*
X210220057Y-177685771D02*
X210220057Y-176185771D01*
X210220057Y-177614342D02*
X210077200Y-177685771D01*
X209791485Y-177685771D01*
X209648628Y-177614342D01*
X209577200Y-177542914D01*
X209505771Y-177400057D01*
X209505771Y-176971485D01*
X209577200Y-176828628D01*
X209648628Y-176757200D01*
X209791485Y-176685771D01*
X210077200Y-176685771D01*
X210220057Y-176757200D01*
X212005771Y-177257200D02*
X212720057Y-177257200D01*
X211862914Y-177685771D02*
X212362914Y-176185771D01*
X212862914Y-177685771D01*
X214077200Y-177685771D02*
X213362914Y-177685771D01*
X213362914Y-176185771D01*
X214577200Y-177685771D02*
X214577200Y-176185771D01*
X215220057Y-177685771D02*
X215220057Y-176900057D01*
X215148628Y-176757200D01*
X215005771Y-176685771D01*
X214791485Y-176685771D01*
X214648628Y-176757200D01*
X214577200Y-176828628D01*
X216577200Y-177685771D02*
X216577200Y-176900057D01*
X216505771Y-176757200D01*
X216362914Y-176685771D01*
X216077200Y-176685771D01*
X215934342Y-176757200D01*
X216577200Y-177614342D02*
X216434342Y-177685771D01*
X216077200Y-177685771D01*
X215934342Y-177614342D01*
X215862914Y-177471485D01*
X215862914Y-177328628D01*
X215934342Y-177185771D01*
X216077200Y-177114342D01*
X216434342Y-177114342D01*
X216577200Y-177042914D01*
X217291485Y-177685771D02*
X217291485Y-176685771D01*
X217291485Y-176828628D02*
X217362914Y-176757200D01*
X217505771Y-176685771D01*
X217720057Y-176685771D01*
X217862914Y-176757200D01*
X217934342Y-176900057D01*
X217934342Y-177685771D01*
X217934342Y-176900057D02*
X218005771Y-176757200D01*
X218148628Y-176685771D01*
X218362914Y-176685771D01*
X218505771Y-176757200D01*
X218577200Y-176900057D01*
X218577200Y-177685771D01*
X219934342Y-177685771D02*
X219934342Y-176900057D01*
X219862914Y-176757200D01*
X219720057Y-176685771D01*
X219434342Y-176685771D01*
X219291485Y-176757200D01*
X219934342Y-177614342D02*
X219791485Y-177685771D01*
X219434342Y-177685771D01*
X219291485Y-177614342D01*
X219220057Y-177471485D01*
X219220057Y-177328628D01*
X219291485Y-177185771D01*
X219434342Y-177114342D01*
X219791485Y-177114342D01*
X219934342Y-177042914D01*
X221291485Y-177685771D02*
X221291485Y-176185771D01*
X221291485Y-177614342D02*
X221148628Y-177685771D01*
X220862914Y-177685771D01*
X220720057Y-177614342D01*
X220648628Y-177542914D01*
X220577200Y-177400057D01*
X220577200Y-176971485D01*
X220648628Y-176828628D01*
X220720057Y-176757200D01*
X220862914Y-176685771D01*
X221148628Y-176685771D01*
X221291485Y-176757200D01*
D10*
D11*
X197002200Y-191507200D02*
X197002200Y-194507200D01*
D10*
D11*
X261002200Y-191507200D02*
X261002200Y-198007200D01*
D14*
X116666666Y-64000000D02*
G75*
G03*
X116666666Y-64000000I-1666666J0D01*
G01*
X112500000Y-64000000D02*
X117500000Y-64000000D01*
X115000000Y-61500000D02*
X115000000Y-66500000D01*
D12*
X193924047Y-110183333D02*
X192971666Y-110183333D01*
X194114523Y-110754761D02*
X193447857Y-108754761D01*
X192781190Y-110754761D01*
X192114523Y-110754761D02*
X192114523Y-109421428D01*
X192114523Y-109802380D02*
X192019285Y-109611904D01*
X191924047Y-109516666D01*
X191733571Y-109421428D01*
X191543095Y-109421428D01*
X190019285Y-110754761D02*
X190019285Y-108754761D01*
X190019285Y-110659523D02*
X190209761Y-110754761D01*
X190590714Y-110754761D01*
X190781190Y-110659523D01*
X190876428Y-110564285D01*
X190971666Y-110373809D01*
X190971666Y-109802380D01*
X190876428Y-109611904D01*
X190781190Y-109516666D01*
X190590714Y-109421428D01*
X190209761Y-109421428D01*
X190019285Y-109516666D01*
X188209761Y-109421428D02*
X188209761Y-110754761D01*
X189066904Y-109421428D02*
X189066904Y-110469047D01*
X188971666Y-110659523D01*
X188781190Y-110754761D01*
X188495476Y-110754761D01*
X188305000Y-110659523D01*
X188209761Y-110564285D01*
X187257380Y-110754761D02*
X187257380Y-109421428D01*
X187257380Y-108754761D02*
X187352619Y-108850000D01*
X187257380Y-108945238D01*
X187162142Y-108850000D01*
X187257380Y-108754761D01*
X187257380Y-108945238D01*
X186305000Y-109421428D02*
X186305000Y-110754761D01*
X186305000Y-109611904D02*
X186209761Y-109516666D01*
X186019285Y-109421428D01*
X185733571Y-109421428D01*
X185543095Y-109516666D01*
X185447857Y-109707142D01*
X185447857Y-110754761D01*
X184209761Y-110754761D02*
X184400238Y-110659523D01*
X184495476Y-110564285D01*
X184590714Y-110373809D01*
X184590714Y-109802380D01*
X184495476Y-109611904D01*
X184400238Y-109516666D01*
X184209761Y-109421428D01*
X183924047Y-109421428D01*
X183733571Y-109516666D01*
X183638333Y-109611904D01*
X183543095Y-109802380D01*
X183543095Y-110373809D01*
X183638333Y-110564285D01*
X183733571Y-110659523D01*
X183924047Y-110754761D01*
X184209761Y-110754761D01*
X181162142Y-110754761D02*
X181162142Y-108754761D01*
X180019285Y-110754761D01*
X180019285Y-108754761D01*
X178209761Y-110754761D02*
X178209761Y-109707142D01*
X178305000Y-109516666D01*
X178495476Y-109421428D01*
X178876428Y-109421428D01*
X179066904Y-109516666D01*
X178209761Y-110659523D02*
X178400238Y-110754761D01*
X178876428Y-110754761D01*
X179066904Y-110659523D01*
X179162142Y-110469047D01*
X179162142Y-110278571D01*
X179066904Y-110088095D01*
X178876428Y-109992857D01*
X178400238Y-109992857D01*
X178209761Y-109897619D01*
X177257380Y-109421428D02*
X177257380Y-110754761D01*
X177257380Y-109611904D02*
X177162142Y-109516666D01*
X176971666Y-109421428D01*
X176685952Y-109421428D01*
X176495476Y-109516666D01*
X176400238Y-109707142D01*
X176400238Y-110754761D01*
X175162142Y-110754761D02*
X175352619Y-110659523D01*
X175447857Y-110564285D01*
X175543095Y-110373809D01*
X175543095Y-109802380D01*
X175447857Y-109611904D01*
X175352619Y-109516666D01*
X175162142Y-109421428D01*
X174876428Y-109421428D01*
X174685952Y-109516666D01*
X174590714Y-109611904D01*
X174495476Y-109802380D01*
X174495476Y-110373809D01*
X174590714Y-110564285D01*
X174685952Y-110659523D01*
X174876428Y-110754761D01*
X175162142Y-110754761D01*
X170971666Y-110754761D02*
X171638333Y-109802380D01*
X172114523Y-110754761D02*
X172114523Y-108754761D01*
X171352619Y-108754761D01*
X171162142Y-108850000D01*
X171066904Y-108945238D01*
X170971666Y-109135714D01*
X170971666Y-109421428D01*
X171066904Y-109611904D01*
X171162142Y-109707142D01*
X171352619Y-109802380D01*
X172114523Y-109802380D01*
X169352619Y-110659523D02*
X169543095Y-110754761D01*
X169924047Y-110754761D01*
X170114523Y-110659523D01*
X170209761Y-110469047D01*
X170209761Y-109707142D01*
X170114523Y-109516666D01*
X169924047Y-109421428D01*
X169543095Y-109421428D01*
X169352619Y-109516666D01*
X169257380Y-109707142D01*
X169257380Y-109897619D01*
X170209761Y-110088095D01*
X168400238Y-109421428D02*
X168400238Y-111421428D01*
X168400238Y-109516666D02*
X168209761Y-109421428D01*
X167828809Y-109421428D01*
X167638333Y-109516666D01*
X167543095Y-109611904D01*
X167447857Y-109802380D01*
X167447857Y-110373809D01*
X167543095Y-110564285D01*
X167638333Y-110659523D01*
X167828809Y-110754761D01*
X168209761Y-110754761D01*
X168400238Y-110659523D01*
X166305000Y-110754761D02*
X166495476Y-110659523D01*
X166590714Y-110469047D01*
X166590714Y-108754761D01*
X165543095Y-110754761D02*
X165543095Y-109421428D01*
X165543095Y-108754761D02*
X165638333Y-108850000D01*
X165543095Y-108945238D01*
X165447857Y-108850000D01*
X165543095Y-108754761D01*
X165543095Y-108945238D01*
X163733571Y-110659523D02*
X163924047Y-110754761D01*
X164305000Y-110754761D01*
X164495476Y-110659523D01*
X164590714Y-110564285D01*
X164685952Y-110373809D01*
X164685952Y-109802380D01*
X164590714Y-109611904D01*
X164495476Y-109516666D01*
X164305000Y-109421428D01*
X163924047Y-109421428D01*
X163733571Y-109516666D01*
X162019285Y-110754761D02*
X162019285Y-109707142D01*
X162114523Y-109516666D01*
X162305000Y-109421428D01*
X162685952Y-109421428D01*
X162876428Y-109516666D01*
X162019285Y-110659523D02*
X162209761Y-110754761D01*
X162685952Y-110754761D01*
X162876428Y-110659523D01*
X162971666Y-110469047D01*
X162971666Y-110278571D01*
X162876428Y-110088095D01*
X162685952Y-109992857D01*
X162209761Y-109992857D01*
X162019285Y-109897619D01*
X193828809Y-114054761D02*
X193828809Y-112054761D01*
X193162142Y-113483333D01*
X192495476Y-112054761D01*
X192495476Y-114054761D01*
X191638333Y-113483333D02*
X190685952Y-113483333D01*
X191828809Y-114054761D02*
X191162142Y-112054761D01*
X190495476Y-114054761D01*
X189924047Y-113483333D02*
X188971666Y-113483333D01*
X190114523Y-114054761D02*
X189447857Y-112054761D01*
X188781190Y-114054761D01*
X187162142Y-114054761D02*
X188114523Y-114054761D01*
X188114523Y-112054761D01*
X186400238Y-112054761D02*
X186590714Y-112435714D01*
X185638333Y-113959523D02*
X185447857Y-114054761D01*
X185066904Y-114054761D01*
X184876428Y-113959523D01*
X184781190Y-113769047D01*
X184781190Y-113673809D01*
X184876428Y-113483333D01*
X185066904Y-113388095D01*
X185352619Y-113388095D01*
X185543095Y-113292857D01*
X185638333Y-113102380D01*
X185638333Y-113007142D01*
X185543095Y-112816666D01*
X185352619Y-112721428D01*
X185066904Y-112721428D01*
X184876428Y-112816666D01*
X181447857Y-114054761D02*
X182400238Y-114054761D01*
X182400238Y-112054761D01*
X180876428Y-113483333D02*
X179924047Y-113483333D01*
X181066904Y-114054761D02*
X180400238Y-112054761D01*
X179733571Y-114054761D01*
X178400238Y-113007142D02*
X178114523Y-113102380D01*
X178019285Y-113197619D01*
X177924047Y-113388095D01*
X177924047Y-113673809D01*
X178019285Y-113864285D01*
X178114523Y-113959523D01*
X178305000Y-114054761D01*
X179066904Y-114054761D01*
X179066904Y-112054761D01*
X178400238Y-112054761D01*
X178209761Y-112150000D01*
X178114523Y-112245238D01*
X178019285Y-112435714D01*
X178019285Y-112626190D01*
X178114523Y-112816666D01*
X178209761Y-112911904D01*
X178400238Y-113007142D01*
X179066904Y-113007142D01*
X175543095Y-114054761D02*
X175543095Y-112054761D01*
X175066904Y-112054761D01*
X174781190Y-112150000D01*
X174590714Y-112340476D01*
X174495476Y-112530952D01*
X174400238Y-112911904D01*
X174400238Y-113197619D01*
X174495476Y-113578571D01*
X174590714Y-113769047D01*
X174781190Y-113959523D01*
X175066904Y-114054761D01*
X175543095Y-114054761D01*
X172781190Y-113959523D02*
X172971666Y-114054761D01*
X173352619Y-114054761D01*
X173543095Y-113959523D01*
X173638333Y-113769047D01*
X173638333Y-113007142D01*
X173543095Y-112816666D01*
X173352619Y-112721428D01*
X172971666Y-112721428D01*
X172781190Y-112816666D01*
X172685952Y-113007142D01*
X172685952Y-113197619D01*
X173638333Y-113388095D01*
X171924047Y-113959523D02*
X171733571Y-114054761D01*
X171352619Y-114054761D01*
X171162142Y-113959523D01*
X171066904Y-113769047D01*
X171066904Y-113673809D01*
X171162142Y-113483333D01*
X171352619Y-113388095D01*
X171638333Y-113388095D01*
X171828809Y-113292857D01*
X171924047Y-113102380D01*
X171924047Y-113007142D01*
X171828809Y-112816666D01*
X171638333Y-112721428D01*
X171352619Y-112721428D01*
X171162142Y-112816666D01*
X170209761Y-114054761D02*
X170209761Y-112721428D01*
X170209761Y-112054761D02*
X170305000Y-112150000D01*
X170209761Y-112245238D01*
X170114523Y-112150000D01*
X170209761Y-112054761D01*
X170209761Y-112245238D01*
X168400238Y-112721428D02*
X168400238Y-114340476D01*
X168495476Y-114530952D01*
X168590714Y-114626190D01*
X168781190Y-114721428D01*
X169066904Y-114721428D01*
X169257380Y-114626190D01*
X168400238Y-113959523D02*
X168590714Y-114054761D01*
X168971666Y-114054761D01*
X169162142Y-113959523D01*
X169257380Y-113864285D01*
X169352619Y-113673809D01*
X169352619Y-113102380D01*
X169257380Y-112911904D01*
X169162142Y-112816666D01*
X168971666Y-112721428D01*
X168590714Y-112721428D01*
X168400238Y-112816666D01*
X167447857Y-112721428D02*
X167447857Y-114054761D01*
X167447857Y-112911904D02*
X167352619Y-112816666D01*
X167162142Y-112721428D01*
X166876428Y-112721428D01*
X166685952Y-112816666D01*
X166590714Y-113007142D01*
X166590714Y-114054761D01*
D14*
X191666666Y-64000000D02*
G75*
G03*
X191666666Y-64000000I-1666666J0D01*
G01*
X187500000Y-64000000D02*
X192500000Y-64000000D01*
X190000000Y-61500000D02*
X190000000Y-66500000D01*
X154666666Y-64000000D02*
G75*
G03*
X154666666Y-64000000I-1666666J0D01*
G01*
X150500000Y-64000000D02*
X155500000Y-64000000D01*
X153000000Y-61500000D02*
X153000000Y-66500000D01*
X154666666Y-125000000D02*
G75*
G03*
X154666666Y-125000000I-1666666J0D01*
G01*
X150500000Y-125000000D02*
X155500000Y-125000000D01*
X153000000Y-122500000D02*
X153000000Y-127500000D01*
X197666666Y-125000000D02*
G75*
G03*
X197666666Y-125000000I-1666666J0D01*
G01*
X193500000Y-125000000D02*
X198500000Y-125000000D01*
X196000000Y-122500000D02*
X196000000Y-127500000D01*
X116666666Y-125000000D02*
G75*
G03*
X116666666Y-125000000I-1666666J0D01*
G01*
X112500000Y-125000000D02*
X117500000Y-125000000D01*
X115000000Y-122500000D02*
X115000000Y-127500000D01*
X196000000Y-119000000D02*
X196000000Y-71000000D01*
X113000000Y-122000000D02*
X193000000Y-122000000D01*
X110000000Y-71000000D02*
X110000000Y-119000000D01*
X193000000Y-68000000D02*
X113000000Y-68000000D01*
X193000000Y-68000000D02*
G75*
G02*
X196000000Y-71000000I0J-3000000D01*
G01*
X196000000Y-119000000D02*
G75*
G02*
X193000000Y-122000000I-3000000J0D01*
G01*
X113000000Y-122000000D02*
G75*
G02*
X110000000Y-119000000I0J3000000D01*
G01*
X110000000Y-71000000D02*
G75*
G02*
X113000000Y-68000000I3000000J0D01*
G01*
D15*
%TO.C,REF\u002A\u002A*%
G36*
X154177237Y-116010526D02*
G01*
X158856184Y-116010526D01*
X158856184Y-114857500D01*
X154177237Y-114857500D01*
X154177237Y-116010526D01*
G37*
X154177237Y-116010526D02*
X158856184Y-116010526D01*
X158856184Y-114857500D01*
X154177237Y-114857500D01*
X154177237Y-116010526D01*
G36*
X153676744Y-108099337D02*
G01*
X153677567Y-108215066D01*
X154277885Y-108825000D01*
X154878204Y-109434934D01*
X154878641Y-109714835D01*
X154879079Y-109994737D01*
X155244663Y-109994737D01*
X155254083Y-110065756D01*
X155257650Y-110098127D01*
X155263662Y-110159087D01*
X155271799Y-110244998D01*
X155281738Y-110352226D01*
X155293157Y-110477133D01*
X155305736Y-110616083D01*
X155319153Y-110765441D01*
X155333085Y-110921568D01*
X155347212Y-111080830D01*
X155361212Y-111239590D01*
X155374763Y-111394211D01*
X155387544Y-111541057D01*
X155399233Y-111676493D01*
X155409508Y-111796880D01*
X155418048Y-111898584D01*
X155424531Y-111977967D01*
X155428636Y-112031394D01*
X155430041Y-112055229D01*
X155430040Y-112055342D01*
X155419796Y-112074466D01*
X155389026Y-112113955D01*
X155337311Y-112174266D01*
X155264233Y-112255861D01*
X155169373Y-112359198D01*
X155052313Y-112484738D01*
X154912633Y-112632940D01*
X154749916Y-112804263D01*
X154704179Y-112852237D01*
X153978805Y-113612566D01*
X154037449Y-113671052D01*
X154096092Y-113729539D01*
X154190974Y-113626310D01*
X154225685Y-113589003D01*
X154279906Y-113531311D01*
X154350059Y-113457013D01*
X154432568Y-113369889D01*
X154523855Y-113273718D01*
X154620342Y-113172280D01*
X154678065Y-113111695D01*
X154786434Y-112998197D01*
X154874028Y-112907285D01*
X154943080Y-112837307D01*
X154995824Y-112786610D01*
X155034494Y-112753540D01*
X155061323Y-112736444D01*
X155078544Y-112733669D01*
X155088392Y-112743563D01*
X155093099Y-112764471D01*
X155094899Y-112794741D01*
X155095141Y-112803002D01*
X155107658Y-112859909D01*
X155138497Y-112928693D01*
X155181503Y-112998475D01*
X155230520Y-113058378D01*
X155250134Y-113076882D01*
X155350770Y-113141628D01*
X155468327Y-113177854D01*
X155572262Y-113186447D01*
X155690049Y-113170239D01*
X155798831Y-113122712D01*
X155895110Y-113045511D01*
X155912875Y-113026295D01*
X155977832Y-112952500D01*
X157101579Y-112952500D01*
X157101579Y-113186447D01*
X157402368Y-113186447D01*
X157402368Y-113077152D01*
X157406143Y-113002539D01*
X157418825Y-112950750D01*
X157434237Y-112922580D01*
X157445250Y-112902424D01*
X157454679Y-112873200D01*
X157463151Y-112830575D01*
X157471290Y-112770217D01*
X157479721Y-112687793D01*
X157489068Y-112578972D01*
X157495469Y-112498017D01*
X157524831Y-112118732D01*
X158245659Y-112848938D01*
X158375992Y-112981066D01*
X158501108Y-113108096D01*
X158618721Y-113227695D01*
X158726545Y-113337528D01*
X158822295Y-113435263D01*
X158903683Y-113518566D01*
X158968423Y-113585104D01*
X159014230Y-113632542D01*
X159038792Y-113658520D01*
X159079145Y-113699649D01*
X159112805Y-113728335D01*
X159130910Y-113737895D01*
X159154035Y-113726697D01*
X159187743Y-113698719D01*
X159199169Y-113687326D01*
X159247617Y-113636757D01*
X158980881Y-113365702D01*
X158912831Y-113296652D01*
X158825085Y-113207774D01*
X158721492Y-113102959D01*
X158605900Y-112986097D01*
X158482159Y-112861079D01*
X158354119Y-112731795D01*
X158225628Y-112602136D01*
X158133454Y-112509179D01*
X157993342Y-112367520D01*
X157875632Y-112247591D01*
X157778820Y-112147768D01*
X157701399Y-112066428D01*
X157641864Y-112001948D01*
X157612358Y-111968277D01*
X157375409Y-111968277D01*
X157345743Y-112347592D01*
X157336797Y-112458777D01*
X157328142Y-112560453D01*
X157320271Y-112647304D01*
X157313672Y-112714018D01*
X157308836Y-112755279D01*
X157307280Y-112764506D01*
X157298482Y-112802105D01*
X156036681Y-112802105D01*
X156028258Y-112697173D01*
X156002828Y-112573195D01*
X155949611Y-112463524D01*
X155871963Y-112372156D01*
X155773237Y-112303083D01*
X155662428Y-112261620D01*
X155626480Y-112242171D01*
X155608483Y-112200430D01*
X155608106Y-112198589D01*
X155605947Y-112180967D01*
X155608616Y-112162922D01*
X155618720Y-112141108D01*
X155638863Y-112112177D01*
X155671651Y-112072783D01*
X155719690Y-112019577D01*
X155785584Y-111949214D01*
X155871940Y-111858346D01*
X155877520Y-111852493D01*
X155970405Y-111754956D01*
X156069155Y-111651067D01*
X156166984Y-111547977D01*
X156257107Y-111452839D01*
X156332738Y-111372804D01*
X156349605Y-111354911D01*
X156414265Y-111287444D01*
X156471705Y-111229709D01*
X156517801Y-111185675D01*
X156548431Y-111159314D01*
X156558715Y-111153521D01*
X156574052Y-111165646D01*
X156609917Y-111198910D01*
X156663488Y-111250542D01*
X156731940Y-111317775D01*
X156812447Y-111397837D01*
X156902187Y-111487961D01*
X156975532Y-111562198D01*
X157375409Y-111968277D01*
X157612358Y-111968277D01*
X157598709Y-111952703D01*
X157570429Y-111917071D01*
X157555517Y-111893429D01*
X157552199Y-111882480D01*
X157553456Y-111858586D01*
X157557274Y-111804501D01*
X157563407Y-111723338D01*
X157571607Y-111618210D01*
X157581627Y-111492228D01*
X157593220Y-111348505D01*
X157606140Y-111190154D01*
X157620138Y-111020287D01*
X157631419Y-110884528D01*
X157695250Y-110119106D01*
X157531004Y-110119106D01*
X157530297Y-110135624D01*
X157526969Y-110182145D01*
X157521290Y-110255378D01*
X157513526Y-110352028D01*
X157503943Y-110468805D01*
X157492811Y-110602414D01*
X157480395Y-110749563D01*
X157468480Y-110889271D01*
X157454984Y-111047787D01*
X157442413Y-111197421D01*
X157431055Y-111334602D01*
X157421198Y-111455759D01*
X157413130Y-111557320D01*
X157407140Y-111635712D01*
X157403515Y-111687363D01*
X157402509Y-111707423D01*
X157400940Y-111719908D01*
X157394722Y-111724862D01*
X157381459Y-111720218D01*
X157358753Y-111703909D01*
X157324208Y-111673868D01*
X157275427Y-111628027D01*
X157210013Y-111564320D01*
X157125569Y-111480679D01*
X157035971Y-111391299D01*
X156669574Y-111025186D01*
X156672141Y-111022434D01*
X156429951Y-111022434D01*
X156418913Y-111037550D01*
X156388013Y-111073142D01*
X156340347Y-111125941D01*
X156279013Y-111192673D01*
X156207107Y-111270070D01*
X156127727Y-111354858D01*
X156043969Y-111443767D01*
X155958930Y-111533526D01*
X155875708Y-111620864D01*
X155797399Y-111702509D01*
X155727100Y-111775191D01*
X155667909Y-111835637D01*
X155622922Y-111880578D01*
X155595236Y-111906742D01*
X155587686Y-111912072D01*
X155585197Y-111894867D01*
X155580030Y-111847348D01*
X155572470Y-111772489D01*
X155562800Y-111673264D01*
X155551305Y-111552649D01*
X155538269Y-111413618D01*
X155523976Y-111259145D01*
X155508710Y-111092206D01*
X155496521Y-110957597D01*
X155480929Y-110783054D01*
X155466523Y-110618627D01*
X155453547Y-110467299D01*
X155442241Y-110332053D01*
X155432848Y-110215870D01*
X155425611Y-110121735D01*
X155420772Y-110052630D01*
X155418573Y-110011538D01*
X155418824Y-110000868D01*
X155431970Y-110010372D01*
X155465446Y-110040920D01*
X155516326Y-110089556D01*
X155581683Y-110153323D01*
X155658591Y-110229265D01*
X155744124Y-110314424D01*
X155835354Y-110405845D01*
X155929356Y-110500569D01*
X156023202Y-110595641D01*
X156113967Y-110688103D01*
X156198723Y-110774999D01*
X156274544Y-110853372D01*
X156338503Y-110920265D01*
X156387674Y-110972722D01*
X156419131Y-111007785D01*
X156429951Y-111022434D01*
X156672141Y-111022434D01*
X156806202Y-110878760D01*
X156875784Y-110804448D01*
X156953881Y-110721483D01*
X157037406Y-110633102D01*
X157123270Y-110542541D01*
X157208385Y-110453036D01*
X157289664Y-110367823D01*
X157364019Y-110290139D01*
X157428363Y-110223220D01*
X157479606Y-110170303D01*
X157514663Y-110134623D01*
X157530444Y-110119416D01*
X157531004Y-110119106D01*
X157695250Y-110119106D01*
X157711204Y-109927807D01*
X158509286Y-109088485D01*
X159307368Y-108249164D01*
X159306781Y-108131852D01*
X159306194Y-108014539D01*
X159177275Y-108152253D01*
X159105124Y-108229063D01*
X159019940Y-108319304D01*
X158924021Y-108420575D01*
X158819666Y-108530476D01*
X158709174Y-108646604D01*
X158594844Y-108766558D01*
X158478975Y-108887936D01*
X158363865Y-109008338D01*
X158251814Y-109125362D01*
X158145119Y-109236606D01*
X158046080Y-109339669D01*
X157956997Y-109432150D01*
X157880166Y-109511647D01*
X157817888Y-109575758D01*
X157772462Y-109622083D01*
X157746185Y-109648219D01*
X157740426Y-109653233D01*
X157740030Y-109635791D01*
X157742208Y-109591135D01*
X157746583Y-109525340D01*
X157752775Y-109444483D01*
X157755433Y-109412183D01*
X157775228Y-109175921D01*
X157620242Y-109175921D01*
X157612240Y-109213520D01*
X157608160Y-109243255D01*
X157602425Y-109299203D01*
X157595701Y-109374236D01*
X157588648Y-109461225D01*
X157586207Y-109493421D01*
X157579008Y-109585861D01*
X157571742Y-109671707D01*
X157565136Y-109742847D01*
X157559916Y-109791169D01*
X157558739Y-109799939D01*
X157554298Y-109817942D01*
X157544687Y-109839017D01*
X157527860Y-109865525D01*
X157501775Y-109899828D01*
X157464387Y-109944289D01*
X157413654Y-110001271D01*
X157347530Y-110073136D01*
X157263974Y-110162246D01*
X157160940Y-110270964D01*
X157055833Y-110381275D01*
X156951262Y-110490441D01*
X156853649Y-110591540D01*
X156765422Y-110682115D01*
X156689012Y-110759708D01*
X156626849Y-110821862D01*
X156581363Y-110866118D01*
X156554983Y-110890018D01*
X156549357Y-110893574D01*
X156534557Y-110880681D01*
X156499961Y-110847060D01*
X156448929Y-110796082D01*
X156384817Y-110731120D01*
X156310984Y-110655548D01*
X156257589Y-110600493D01*
X155978827Y-110312237D01*
X156800790Y-110312237D01*
X156800790Y-109994737D01*
X155798158Y-109994737D01*
X155798158Y-110136206D01*
X155614342Y-109952960D01*
X155483948Y-109822971D01*
X155230000Y-109822971D01*
X155227571Y-109843477D01*
X155215276Y-109854902D01*
X155185604Y-109859880D01*
X155131045Y-109861044D01*
X155121382Y-109861052D01*
X155012763Y-109861052D01*
X155012763Y-109569584D01*
X155121382Y-109677237D01*
X155182654Y-109742687D01*
X155219301Y-109792829D01*
X155230000Y-109822971D01*
X155483948Y-109822971D01*
X155430526Y-109769715D01*
X155430526Y-109606502D01*
X155430015Y-109531414D01*
X155427672Y-109483645D01*
X155422289Y-109457098D01*
X155412656Y-109445679D01*
X155398129Y-109443289D01*
X155381973Y-109439780D01*
X155370031Y-109425711D01*
X155360861Y-109395769D01*
X155353018Y-109344642D01*
X155345058Y-109267017D01*
X155342504Y-109238585D01*
X155336974Y-109175921D01*
X157620242Y-109175921D01*
X157775228Y-109175921D01*
X157987237Y-109175921D01*
X157987237Y-109025526D01*
X157897141Y-109025526D01*
X157844445Y-109024083D01*
X157815812Y-109017116D01*
X157812309Y-109012970D01*
X157627766Y-109012970D01*
X157618054Y-109022442D01*
X157584412Y-109025366D01*
X157561706Y-109025526D01*
X157485921Y-109025526D01*
X157203306Y-109025526D01*
X155323481Y-109025526D01*
X155387062Y-108960413D01*
X155485814Y-108880062D01*
X155608032Y-108818089D01*
X155755787Y-108773646D01*
X155902599Y-108749065D01*
X155998684Y-108737596D01*
X155998684Y-108858421D01*
X156767368Y-108858421D01*
X156767368Y-108721345D01*
X156880165Y-108732776D01*
X156958975Y-108742425D01*
X157042943Y-108755214D01*
X157093224Y-108764348D01*
X157193487Y-108784488D01*
X157198397Y-108905007D01*
X157203306Y-109025526D01*
X157485921Y-109025526D01*
X157485921Y-108958684D01*
X157488131Y-108916810D01*
X157493650Y-108893536D01*
X157495874Y-108891842D01*
X157520613Y-108902560D01*
X157556757Y-108928563D01*
X157592990Y-108960623D01*
X157617999Y-108989511D01*
X157620227Y-108993267D01*
X157627766Y-109012970D01*
X157812309Y-109012970D01*
X157801919Y-109000674D01*
X157796311Y-108982762D01*
X157773422Y-108936279D01*
X157729460Y-108880400D01*
X157671989Y-108822960D01*
X157608573Y-108771793D01*
X157566918Y-108745143D01*
X157519466Y-108715972D01*
X157495141Y-108691467D01*
X157486595Y-108662572D01*
X157485938Y-108645362D01*
X157485937Y-108641184D01*
X156633684Y-108641184D01*
X156633684Y-108724737D01*
X156132368Y-108724737D01*
X156132368Y-108641184D01*
X156633684Y-108641184D01*
X157485937Y-108641184D01*
X157485921Y-108591052D01*
X157345274Y-108591052D01*
X157280564Y-108592617D01*
X157230130Y-108596785D01*
X157202094Y-108602773D01*
X157199057Y-108605197D01*
X157181273Y-108608918D01*
X157137992Y-108607394D01*
X157076651Y-108601075D01*
X157034737Y-108595240D01*
X156958737Y-108583778D01*
X156889230Y-108573430D01*
X156836997Y-108565796D01*
X156821678Y-108563627D01*
X156781653Y-108551232D01*
X156767368Y-108531808D01*
X156763025Y-108523898D01*
X156747490Y-108517863D01*
X156717001Y-108513466D01*
X156667800Y-108510469D01*
X156596126Y-108508635D01*
X156498219Y-108507725D01*
X156383026Y-108507500D01*
X156260086Y-108507628D01*
X156166559Y-108508230D01*
X156098440Y-108509639D01*
X156051719Y-108512181D01*
X156022391Y-108516189D01*
X156006449Y-108521991D01*
X155999885Y-108529917D01*
X155998684Y-108539133D01*
X155988460Y-108568385D01*
X155954970Y-108585031D01*
X155893988Y-108590968D01*
X155883017Y-108591052D01*
X155779746Y-108601706D01*
X155662453Y-108631033D01*
X155541715Y-108675084D01*
X155428111Y-108729911D01*
X155332219Y-108791564D01*
X155319799Y-108801332D01*
X155279318Y-108833115D01*
X155255345Y-108845844D01*
X155238604Y-108841729D01*
X155221419Y-108824750D01*
X155170664Y-108791492D01*
X155104607Y-108778725D01*
X155033474Y-108785365D01*
X154967486Y-108810327D01*
X154916868Y-108852529D01*
X154913203Y-108857434D01*
X154875328Y-108936211D01*
X154868281Y-109017754D01*
X154891285Y-109095487D01*
X154943563Y-109162835D01*
X154949956Y-109168396D01*
X154987073Y-109194813D01*
X155024733Y-109206447D01*
X155077676Y-109207287D01*
X155090902Y-109206542D01*
X155142703Y-109204641D01*
X155169386Y-109208996D01*
X155179045Y-109222138D01*
X155180037Y-109234408D01*
X155182061Y-109270002D01*
X155187086Y-109323533D01*
X155190697Y-109355559D01*
X155195934Y-109406427D01*
X155193756Y-109432468D01*
X155181125Y-109441986D01*
X155158625Y-109443289D01*
X155145282Y-109438986D01*
X155123756Y-109425057D01*
X155092452Y-109399977D01*
X155049776Y-109362219D01*
X154994132Y-109310256D01*
X154923925Y-109242562D01*
X154837560Y-109157611D01*
X154733442Y-109053875D01*
X154609975Y-108929828D01*
X154465564Y-108783944D01*
X154395969Y-108713449D01*
X153675921Y-107983610D01*
X153676744Y-108099337D01*
G37*
X153676744Y-108099337D02*
X153677567Y-108215066D01*
X154277885Y-108825000D01*
X154878204Y-109434934D01*
X154878641Y-109714835D01*
X154879079Y-109994737D01*
X155244663Y-109994737D01*
X155254083Y-110065756D01*
X155257650Y-110098127D01*
X155263662Y-110159087D01*
X155271799Y-110244998D01*
X155281738Y-110352226D01*
X155293157Y-110477133D01*
X155305736Y-110616083D01*
X155319153Y-110765441D01*
X155333085Y-110921568D01*
X155347212Y-111080830D01*
X155361212Y-111239590D01*
X155374763Y-111394211D01*
X155387544Y-111541057D01*
X155399233Y-111676493D01*
X155409508Y-111796880D01*
X155418048Y-111898584D01*
X155424531Y-111977967D01*
X155428636Y-112031394D01*
X155430041Y-112055229D01*
X155430040Y-112055342D01*
X155419796Y-112074466D01*
X155389026Y-112113955D01*
X155337311Y-112174266D01*
X155264233Y-112255861D01*
X155169373Y-112359198D01*
X155052313Y-112484738D01*
X154912633Y-112632940D01*
X154749916Y-112804263D01*
X154704179Y-112852237D01*
X153978805Y-113612566D01*
X154037449Y-113671052D01*
X154096092Y-113729539D01*
X154190974Y-113626310D01*
X154225685Y-113589003D01*
X154279906Y-113531311D01*
X154350059Y-113457013D01*
X154432568Y-113369889D01*
X154523855Y-113273718D01*
X154620342Y-113172280D01*
X154678065Y-113111695D01*
X154786434Y-112998197D01*
X154874028Y-112907285D01*
X154943080Y-112837307D01*
X154995824Y-112786610D01*
X155034494Y-112753540D01*
X155061323Y-112736444D01*
X155078544Y-112733669D01*
X155088392Y-112743563D01*
X155093099Y-112764471D01*
X155094899Y-112794741D01*
X155095141Y-112803002D01*
X155107658Y-112859909D01*
X155138497Y-112928693D01*
X155181503Y-112998475D01*
X155230520Y-113058378D01*
X155250134Y-113076882D01*
X155350770Y-113141628D01*
X155468327Y-113177854D01*
X155572262Y-113186447D01*
X155690049Y-113170239D01*
X155798831Y-113122712D01*
X155895110Y-113045511D01*
X155912875Y-113026295D01*
X155977832Y-112952500D01*
X157101579Y-112952500D01*
X157101579Y-113186447D01*
X157402368Y-113186447D01*
X157402368Y-113077152D01*
X157406143Y-113002539D01*
X157418825Y-112950750D01*
X157434237Y-112922580D01*
X157445250Y-112902424D01*
X157454679Y-112873200D01*
X157463151Y-112830575D01*
X157471290Y-112770217D01*
X157479721Y-112687793D01*
X157489068Y-112578972D01*
X157495469Y-112498017D01*
X157524831Y-112118732D01*
X158245659Y-112848938D01*
X158375992Y-112981066D01*
X158501108Y-113108096D01*
X158618721Y-113227695D01*
X158726545Y-113337528D01*
X158822295Y-113435263D01*
X158903683Y-113518566D01*
X158968423Y-113585104D01*
X159014230Y-113632542D01*
X159038792Y-113658520D01*
X159079145Y-113699649D01*
X159112805Y-113728335D01*
X159130910Y-113737895D01*
X159154035Y-113726697D01*
X159187743Y-113698719D01*
X159199169Y-113687326D01*
X159247617Y-113636757D01*
X158980881Y-113365702D01*
X158912831Y-113296652D01*
X158825085Y-113207774D01*
X158721492Y-113102959D01*
X158605900Y-112986097D01*
X158482159Y-112861079D01*
X158354119Y-112731795D01*
X158225628Y-112602136D01*
X158133454Y-112509179D01*
X157993342Y-112367520D01*
X157875632Y-112247591D01*
X157778820Y-112147768D01*
X157701399Y-112066428D01*
X157641864Y-112001948D01*
X157612358Y-111968277D01*
X157375409Y-111968277D01*
X157345743Y-112347592D01*
X157336797Y-112458777D01*
X157328142Y-112560453D01*
X157320271Y-112647304D01*
X157313672Y-112714018D01*
X157308836Y-112755279D01*
X157307280Y-112764506D01*
X157298482Y-112802105D01*
X156036681Y-112802105D01*
X156028258Y-112697173D01*
X156002828Y-112573195D01*
X155949611Y-112463524D01*
X155871963Y-112372156D01*
X155773237Y-112303083D01*
X155662428Y-112261620D01*
X155626480Y-112242171D01*
X155608483Y-112200430D01*
X155608106Y-112198589D01*
X155605947Y-112180967D01*
X155608616Y-112162922D01*
X155618720Y-112141108D01*
X155638863Y-112112177D01*
X155671651Y-112072783D01*
X155719690Y-112019577D01*
X155785584Y-111949214D01*
X155871940Y-111858346D01*
X155877520Y-111852493D01*
X155970405Y-111754956D01*
X156069155Y-111651067D01*
X156166984Y-111547977D01*
X156257107Y-111452839D01*
X156332738Y-111372804D01*
X156349605Y-111354911D01*
X156414265Y-111287444D01*
X156471705Y-111229709D01*
X156517801Y-111185675D01*
X156548431Y-111159314D01*
X156558715Y-111153521D01*
X156574052Y-111165646D01*
X156609917Y-111198910D01*
X156663488Y-111250542D01*
X156731940Y-111317775D01*
X156812447Y-111397837D01*
X156902187Y-111487961D01*
X156975532Y-111562198D01*
X157375409Y-111968277D01*
X157612358Y-111968277D01*
X157598709Y-111952703D01*
X157570429Y-111917071D01*
X157555517Y-111893429D01*
X157552199Y-111882480D01*
X157553456Y-111858586D01*
X157557274Y-111804501D01*
X157563407Y-111723338D01*
X157571607Y-111618210D01*
X157581627Y-111492228D01*
X157593220Y-111348505D01*
X157606140Y-111190154D01*
X157620138Y-111020287D01*
X157631419Y-110884528D01*
X157695250Y-110119106D01*
X157531004Y-110119106D01*
X157530297Y-110135624D01*
X157526969Y-110182145D01*
X157521290Y-110255378D01*
X157513526Y-110352028D01*
X157503943Y-110468805D01*
X157492811Y-110602414D01*
X157480395Y-110749563D01*
X157468480Y-110889271D01*
X157454984Y-111047787D01*
X157442413Y-111197421D01*
X157431055Y-111334602D01*
X157421198Y-111455759D01*
X157413130Y-111557320D01*
X157407140Y-111635712D01*
X157403515Y-111687363D01*
X157402509Y-111707423D01*
X157400940Y-111719908D01*
X157394722Y-111724862D01*
X157381459Y-111720218D01*
X157358753Y-111703909D01*
X157324208Y-111673868D01*
X157275427Y-111628027D01*
X157210013Y-111564320D01*
X157125569Y-111480679D01*
X157035971Y-111391299D01*
X156669574Y-111025186D01*
X156672141Y-111022434D01*
X156429951Y-111022434D01*
X156418913Y-111037550D01*
X156388013Y-111073142D01*
X156340347Y-111125941D01*
X156279013Y-111192673D01*
X156207107Y-111270070D01*
X156127727Y-111354858D01*
X156043969Y-111443767D01*
X155958930Y-111533526D01*
X155875708Y-111620864D01*
X155797399Y-111702509D01*
X155727100Y-111775191D01*
X155667909Y-111835637D01*
X155622922Y-111880578D01*
X155595236Y-111906742D01*
X155587686Y-111912072D01*
X155585197Y-111894867D01*
X155580030Y-111847348D01*
X155572470Y-111772489D01*
X155562800Y-111673264D01*
X155551305Y-111552649D01*
X155538269Y-111413618D01*
X155523976Y-111259145D01*
X155508710Y-111092206D01*
X155496521Y-110957597D01*
X155480929Y-110783054D01*
X155466523Y-110618627D01*
X155453547Y-110467299D01*
X155442241Y-110332053D01*
X155432848Y-110215870D01*
X155425611Y-110121735D01*
X155420772Y-110052630D01*
X155418573Y-110011538D01*
X155418824Y-110000868D01*
X155431970Y-110010372D01*
X155465446Y-110040920D01*
X155516326Y-110089556D01*
X155581683Y-110153323D01*
X155658591Y-110229265D01*
X155744124Y-110314424D01*
X155835354Y-110405845D01*
X155929356Y-110500569D01*
X156023202Y-110595641D01*
X156113967Y-110688103D01*
X156198723Y-110774999D01*
X156274544Y-110853372D01*
X156338503Y-110920265D01*
X156387674Y-110972722D01*
X156419131Y-111007785D01*
X156429951Y-111022434D01*
X156672141Y-111022434D01*
X156806202Y-110878760D01*
X156875784Y-110804448D01*
X156953881Y-110721483D01*
X157037406Y-110633102D01*
X157123270Y-110542541D01*
X157208385Y-110453036D01*
X157289664Y-110367823D01*
X157364019Y-110290139D01*
X157428363Y-110223220D01*
X157479606Y-110170303D01*
X157514663Y-110134623D01*
X157530444Y-110119416D01*
X157531004Y-110119106D01*
X157695250Y-110119106D01*
X157711204Y-109927807D01*
X158509286Y-109088485D01*
X159307368Y-108249164D01*
X159306781Y-108131852D01*
X159306194Y-108014539D01*
X159177275Y-108152253D01*
X159105124Y-108229063D01*
X159019940Y-108319304D01*
X158924021Y-108420575D01*
X158819666Y-108530476D01*
X158709174Y-108646604D01*
X158594844Y-108766558D01*
X158478975Y-108887936D01*
X158363865Y-109008338D01*
X158251814Y-109125362D01*
X158145119Y-109236606D01*
X158046080Y-109339669D01*
X157956997Y-109432150D01*
X157880166Y-109511647D01*
X157817888Y-109575758D01*
X157772462Y-109622083D01*
X157746185Y-109648219D01*
X157740426Y-109653233D01*
X157740030Y-109635791D01*
X157742208Y-109591135D01*
X157746583Y-109525340D01*
X157752775Y-109444483D01*
X157755433Y-109412183D01*
X157775228Y-109175921D01*
X157620242Y-109175921D01*
X157612240Y-109213520D01*
X157608160Y-109243255D01*
X157602425Y-109299203D01*
X157595701Y-109374236D01*
X157588648Y-109461225D01*
X157586207Y-109493421D01*
X157579008Y-109585861D01*
X157571742Y-109671707D01*
X157565136Y-109742847D01*
X157559916Y-109791169D01*
X157558739Y-109799939D01*
X157554298Y-109817942D01*
X157544687Y-109839017D01*
X157527860Y-109865525D01*
X157501775Y-109899828D01*
X157464387Y-109944289D01*
X157413654Y-110001271D01*
X157347530Y-110073136D01*
X157263974Y-110162246D01*
X157160940Y-110270964D01*
X157055833Y-110381275D01*
X156951262Y-110490441D01*
X156853649Y-110591540D01*
X156765422Y-110682115D01*
X156689012Y-110759708D01*
X156626849Y-110821862D01*
X156581363Y-110866118D01*
X156554983Y-110890018D01*
X156549357Y-110893574D01*
X156534557Y-110880681D01*
X156499961Y-110847060D01*
X156448929Y-110796082D01*
X156384817Y-110731120D01*
X156310984Y-110655548D01*
X156257589Y-110600493D01*
X155978827Y-110312237D01*
X156800790Y-110312237D01*
X156800790Y-109994737D01*
X155798158Y-109994737D01*
X155798158Y-110136206D01*
X155614342Y-109952960D01*
X155483948Y-109822971D01*
X155230000Y-109822971D01*
X155227571Y-109843477D01*
X155215276Y-109854902D01*
X155185604Y-109859880D01*
X155131045Y-109861044D01*
X155121382Y-109861052D01*
X155012763Y-109861052D01*
X155012763Y-109569584D01*
X155121382Y-109677237D01*
X155182654Y-109742687D01*
X155219301Y-109792829D01*
X155230000Y-109822971D01*
X155483948Y-109822971D01*
X155430526Y-109769715D01*
X155430526Y-109606502D01*
X155430015Y-109531414D01*
X155427672Y-109483645D01*
X155422289Y-109457098D01*
X155412656Y-109445679D01*
X155398129Y-109443289D01*
X155381973Y-109439780D01*
X155370031Y-109425711D01*
X155360861Y-109395769D01*
X155353018Y-109344642D01*
X155345058Y-109267017D01*
X155342504Y-109238585D01*
X155336974Y-109175921D01*
X157620242Y-109175921D01*
X157775228Y-109175921D01*
X157987237Y-109175921D01*
X157987237Y-109025526D01*
X157897141Y-109025526D01*
X157844445Y-109024083D01*
X157815812Y-109017116D01*
X157812309Y-109012970D01*
X157627766Y-109012970D01*
X157618054Y-109022442D01*
X157584412Y-109025366D01*
X157561706Y-109025526D01*
X157485921Y-109025526D01*
X157203306Y-109025526D01*
X155323481Y-109025526D01*
X155387062Y-108960413D01*
X155485814Y-108880062D01*
X155608032Y-108818089D01*
X155755787Y-108773646D01*
X155902599Y-108749065D01*
X155998684Y-108737596D01*
X155998684Y-108858421D01*
X156767368Y-108858421D01*
X156767368Y-108721345D01*
X156880165Y-108732776D01*
X156958975Y-108742425D01*
X157042943Y-108755214D01*
X157093224Y-108764348D01*
X157193487Y-108784488D01*
X157198397Y-108905007D01*
X157203306Y-109025526D01*
X157485921Y-109025526D01*
X157485921Y-108958684D01*
X157488131Y-108916810D01*
X157493650Y-108893536D01*
X157495874Y-108891842D01*
X157520613Y-108902560D01*
X157556757Y-108928563D01*
X157592990Y-108960623D01*
X157617999Y-108989511D01*
X157620227Y-108993267D01*
X157627766Y-109012970D01*
X157812309Y-109012970D01*
X157801919Y-109000674D01*
X157796311Y-108982762D01*
X157773422Y-108936279D01*
X157729460Y-108880400D01*
X157671989Y-108822960D01*
X157608573Y-108771793D01*
X157566918Y-108745143D01*
X157519466Y-108715972D01*
X157495141Y-108691467D01*
X157486595Y-108662572D01*
X157485938Y-108645362D01*
X157485937Y-108641184D01*
X156633684Y-108641184D01*
X156633684Y-108724737D01*
X156132368Y-108724737D01*
X156132368Y-108641184D01*
X156633684Y-108641184D01*
X157485937Y-108641184D01*
X157485921Y-108591052D01*
X157345274Y-108591052D01*
X157280564Y-108592617D01*
X157230130Y-108596785D01*
X157202094Y-108602773D01*
X157199057Y-108605197D01*
X157181273Y-108608918D01*
X157137992Y-108607394D01*
X157076651Y-108601075D01*
X157034737Y-108595240D01*
X156958737Y-108583778D01*
X156889230Y-108573430D01*
X156836997Y-108565796D01*
X156821678Y-108563627D01*
X156781653Y-108551232D01*
X156767368Y-108531808D01*
X156763025Y-108523898D01*
X156747490Y-108517863D01*
X156717001Y-108513466D01*
X156667800Y-108510469D01*
X156596126Y-108508635D01*
X156498219Y-108507725D01*
X156383026Y-108507500D01*
X156260086Y-108507628D01*
X156166559Y-108508230D01*
X156098440Y-108509639D01*
X156051719Y-108512181D01*
X156022391Y-108516189D01*
X156006449Y-108521991D01*
X155999885Y-108529917D01*
X155998684Y-108539133D01*
X155988460Y-108568385D01*
X155954970Y-108585031D01*
X155893988Y-108590968D01*
X155883017Y-108591052D01*
X155779746Y-108601706D01*
X155662453Y-108631033D01*
X155541715Y-108675084D01*
X155428111Y-108729911D01*
X155332219Y-108791564D01*
X155319799Y-108801332D01*
X155279318Y-108833115D01*
X155255345Y-108845844D01*
X155238604Y-108841729D01*
X155221419Y-108824750D01*
X155170664Y-108791492D01*
X155104607Y-108778725D01*
X155033474Y-108785365D01*
X154967486Y-108810327D01*
X154916868Y-108852529D01*
X154913203Y-108857434D01*
X154875328Y-108936211D01*
X154868281Y-109017754D01*
X154891285Y-109095487D01*
X154943563Y-109162835D01*
X154949956Y-109168396D01*
X154987073Y-109194813D01*
X155024733Y-109206447D01*
X155077676Y-109207287D01*
X155090902Y-109206542D01*
X155142703Y-109204641D01*
X155169386Y-109208996D01*
X155179045Y-109222138D01*
X155180037Y-109234408D01*
X155182061Y-109270002D01*
X155187086Y-109323533D01*
X155190697Y-109355559D01*
X155195934Y-109406427D01*
X155193756Y-109432468D01*
X155181125Y-109441986D01*
X155158625Y-109443289D01*
X155145282Y-109438986D01*
X155123756Y-109425057D01*
X155092452Y-109399977D01*
X155049776Y-109362219D01*
X154994132Y-109310256D01*
X154923925Y-109242562D01*
X154837560Y-109157611D01*
X154733442Y-109053875D01*
X154609975Y-108929828D01*
X154465564Y-108783944D01*
X154395969Y-108713449D01*
X153675921Y-107983610D01*
X153676744Y-108099337D01*
G36*
X134651643Y-73754997D02*
G01*
X134388323Y-73756439D01*
X134197754Y-73760342D01*
X134067655Y-73767937D01*
X133985743Y-73780450D01*
X133939734Y-73799111D01*
X133917347Y-73825148D01*
X133906298Y-73859788D01*
X133905224Y-73864272D01*
X133888441Y-73945189D01*
X133857375Y-74104842D01*
X133815258Y-74326238D01*
X133765321Y-74592385D01*
X133710797Y-74886290D01*
X133708893Y-74896612D01*
X133654277Y-75184636D01*
X133603178Y-75439115D01*
X133558894Y-75644785D01*
X133524721Y-75786385D01*
X133503957Y-75848650D01*
X133502967Y-75849753D01*
X133441801Y-75880159D01*
X133315690Y-75930828D01*
X133151869Y-75990822D01*
X133150957Y-75991142D01*
X132944612Y-76068704D01*
X132701340Y-76167507D01*
X132472031Y-76266848D01*
X132461178Y-76271760D01*
X132087683Y-76441276D01*
X131260635Y-75876495D01*
X131006923Y-75704320D01*
X130777098Y-75550395D01*
X130584475Y-75423474D01*
X130442368Y-75332309D01*
X130364093Y-75285655D01*
X130356660Y-75282195D01*
X130299776Y-75297600D01*
X130193531Y-75371927D01*
X130033781Y-75508681D01*
X129816384Y-75711368D01*
X129594452Y-75927008D01*
X129380509Y-76139503D01*
X129189031Y-76333410D01*
X129031545Y-76496754D01*
X128919578Y-76617561D01*
X128864657Y-76683855D01*
X128862614Y-76687268D01*
X128856542Y-76732761D01*
X128879416Y-76807056D01*
X128936885Y-76920186D01*
X129034601Y-77082185D01*
X129178216Y-77303086D01*
X129369667Y-77587460D01*
X129539577Y-77837759D01*
X129691462Y-78062250D01*
X129816545Y-78247900D01*
X129906051Y-78381675D01*
X129951200Y-78450542D01*
X129954042Y-78455218D01*
X129948530Y-78521201D01*
X129906745Y-78649448D01*
X129837003Y-78815720D01*
X129812146Y-78868819D01*
X129703689Y-79105377D01*
X129587980Y-79373789D01*
X129493985Y-79606035D01*
X129426255Y-79778407D01*
X129372457Y-79909403D01*
X129341369Y-79977867D01*
X129337504Y-79983142D01*
X129280329Y-79991880D01*
X129145552Y-80015823D01*
X128951094Y-80051562D01*
X128714875Y-80095689D01*
X128454816Y-80144795D01*
X128188837Y-80195472D01*
X127934857Y-80244313D01*
X127710799Y-80287909D01*
X127534580Y-80322851D01*
X127424123Y-80345732D01*
X127397030Y-80352201D01*
X127369044Y-80368167D01*
X127347919Y-80404227D01*
X127332703Y-80472552D01*
X127322447Y-80585315D01*
X127316200Y-80754686D01*
X127313012Y-80992838D01*
X127311933Y-81311942D01*
X127311877Y-81442741D01*
X127311877Y-82506511D01*
X127567337Y-82556933D01*
X127709463Y-82584273D01*
X127921550Y-82624182D01*
X128177807Y-82671845D01*
X128452442Y-82722446D01*
X128528352Y-82736344D01*
X128781779Y-82785617D01*
X129002553Y-82834070D01*
X129172143Y-82877215D01*
X129272020Y-82910563D01*
X129288657Y-82920502D01*
X129329511Y-82990891D01*
X129388087Y-83127283D01*
X129453045Y-83302805D01*
X129465929Y-83340613D01*
X129551066Y-83575030D01*
X129656744Y-83839524D01*
X129760160Y-84077041D01*
X129760670Y-84078144D01*
X129932888Y-84450733D01*
X129366476Y-85283893D01*
X128800065Y-86117053D01*
X129527298Y-86845500D01*
X129747252Y-87062302D01*
X129947868Y-87253414D01*
X130117878Y-87408636D01*
X130246015Y-87517764D01*
X130321011Y-87570595D01*
X130331769Y-87573947D01*
X130394933Y-87547549D01*
X130523820Y-87474160D01*
X130704351Y-87362484D01*
X130922446Y-87221224D01*
X131158246Y-87063027D01*
X131397564Y-86901664D01*
X131610941Y-86761252D01*
X131784825Y-86650431D01*
X131905666Y-86577838D01*
X131959737Y-86552108D01*
X132025706Y-86573880D01*
X132150802Y-86631251D01*
X132309220Y-86712300D01*
X132326013Y-86721309D01*
X132539348Y-86828300D01*
X132685636Y-86880772D01*
X132776620Y-86881330D01*
X132824041Y-86832580D01*
X132824317Y-86831897D01*
X132848020Y-86774164D01*
X132904551Y-86637115D01*
X132989526Y-86431357D01*
X133098562Y-86167498D01*
X133227276Y-85856144D01*
X133371285Y-85507904D01*
X133510749Y-85170744D01*
X133664020Y-84798666D01*
X133804749Y-84453987D01*
X133928718Y-84147271D01*
X134031709Y-83889085D01*
X134109504Y-83689994D01*
X134157886Y-83560565D01*
X134172796Y-83512261D01*
X134135406Y-83456850D01*
X134037602Y-83368538D01*
X133907185Y-83271174D01*
X133535777Y-82963253D01*
X133245470Y-82610304D01*
X133039744Y-82219761D01*
X132922077Y-81799057D01*
X132895949Y-81355629D01*
X132914940Y-81150958D01*
X133018417Y-80726323D01*
X133196627Y-80351336D01*
X133438518Y-80029696D01*
X133733037Y-79765101D01*
X134069129Y-79561250D01*
X134435742Y-79421842D01*
X134821823Y-79350574D01*
X135216319Y-79351145D01*
X135608175Y-79427254D01*
X135986340Y-79582599D01*
X136339760Y-79820879D01*
X136487273Y-79955639D01*
X136770184Y-80301679D01*
X136967168Y-80679826D01*
X137079536Y-81079055D01*
X137108599Y-81488345D01*
X137055669Y-81896672D01*
X136922057Y-82293013D01*
X136709075Y-82666345D01*
X136418034Y-83005645D01*
X136092814Y-83271174D01*
X135957348Y-83372671D01*
X135861651Y-83460025D01*
X135827203Y-83512343D01*
X135845240Y-83569398D01*
X135896538Y-83705698D01*
X135976876Y-83910678D01*
X136082036Y-84173772D01*
X136207796Y-84484416D01*
X136349937Y-84832043D01*
X136489635Y-85170826D01*
X136643759Y-85543222D01*
X136786518Y-85888307D01*
X136913529Y-86195477D01*
X137020411Y-86454125D01*
X137102780Y-86653647D01*
X137156253Y-86783435D01*
X137176067Y-86831897D01*
X137222876Y-86881129D01*
X137313417Y-86880985D01*
X137459342Y-86828877D01*
X137672302Y-86722216D01*
X137673986Y-86721309D01*
X137834330Y-86638536D01*
X137963948Y-86578242D01*
X138037037Y-86552346D01*
X138040263Y-86552108D01*
X138095284Y-86578374D01*
X138216757Y-86651416D01*
X138391129Y-86762595D01*
X138604850Y-86903273D01*
X138841753Y-87063027D01*
X139082945Y-87224779D01*
X139300326Y-87365450D01*
X139479816Y-87476335D01*
X139607336Y-87548730D01*
X139668230Y-87573947D01*
X139724303Y-87540803D01*
X139837040Y-87448173D01*
X139995177Y-87306257D01*
X140187449Y-87125255D01*
X140402591Y-86915369D01*
X140472952Y-86845249D01*
X141200434Y-86116552D01*
X140646705Y-85303900D01*
X140478423Y-85054342D01*
X140330729Y-84830366D01*
X140211910Y-84644949D01*
X140130250Y-84511065D01*
X140094036Y-84441690D01*
X140092975Y-84436755D01*
X140112067Y-84371364D01*
X140163418Y-84239825D01*
X140238140Y-84064181D01*
X140290588Y-83946591D01*
X140388654Y-83721461D01*
X140481007Y-83494015D01*
X140552606Y-83301839D01*
X140572056Y-83243295D01*
X140627314Y-83086956D01*
X140681331Y-82966158D01*
X140711001Y-82920502D01*
X140776476Y-82892561D01*
X140919376Y-82852951D01*
X141121161Y-82806162D01*
X141363288Y-82756683D01*
X141471647Y-82736344D01*
X141746811Y-82685781D01*
X142010746Y-82636822D01*
X142237659Y-82594281D01*
X142401761Y-82562975D01*
X142432662Y-82556933D01*
X142688122Y-82506511D01*
X142688122Y-81442741D01*
X142687548Y-81092950D01*
X142685193Y-80828300D01*
X142680107Y-80636622D01*
X142671339Y-80505744D01*
X142657938Y-80423493D01*
X142638954Y-80377698D01*
X142613438Y-80356188D01*
X142602969Y-80352201D01*
X142539826Y-80338056D01*
X142400325Y-80309834D01*
X142202389Y-80270943D01*
X141963935Y-80224792D01*
X141702886Y-80174788D01*
X141437161Y-80124341D01*
X141184681Y-80076858D01*
X140963365Y-80035748D01*
X140791134Y-80004419D01*
X140685908Y-79986278D01*
X140662495Y-79983142D01*
X140641284Y-79941173D01*
X140594332Y-79829370D01*
X140530419Y-79668888D01*
X140506014Y-79606035D01*
X140407580Y-79363203D01*
X140291666Y-79094918D01*
X140187853Y-78868819D01*
X140111465Y-78695935D01*
X140060644Y-78553877D01*
X140043679Y-78466878D01*
X140046384Y-78455218D01*
X140082239Y-78400170D01*
X140164108Y-78277739D01*
X140283205Y-78100962D01*
X140430742Y-77882877D01*
X140597931Y-77636520D01*
X140630990Y-77587891D01*
X140824980Y-77299773D01*
X140967579Y-77080377D01*
X141064473Y-76919602D01*
X141121346Y-76807346D01*
X141143884Y-76733510D01*
X141137772Y-76687990D01*
X141137616Y-76687700D01*
X141089511Y-76627910D01*
X140983111Y-76512319D01*
X140829948Y-76352909D01*
X140641555Y-76161665D01*
X140429465Y-75950568D01*
X140405547Y-75927008D01*
X140138262Y-75668172D01*
X139931992Y-75478117D01*
X139782592Y-75353337D01*
X139685920Y-75290327D01*
X139643339Y-75282195D01*
X139581196Y-75317672D01*
X139452237Y-75399623D01*
X139269778Y-75519292D01*
X139047133Y-75667926D01*
X138797616Y-75836772D01*
X138739364Y-75876495D01*
X137912316Y-76441276D01*
X137538821Y-76271760D01*
X137311684Y-76172971D01*
X137067872Y-76073617D01*
X136858275Y-75994401D01*
X136849042Y-75991142D01*
X136685095Y-75931129D01*
X136558715Y-75880382D01*
X136497137Y-75849841D01*
X136497032Y-75849753D01*
X136477493Y-75794548D01*
X136444279Y-75658779D01*
X136400687Y-75457709D01*
X136350016Y-75206599D01*
X136295561Y-74920713D01*
X136291106Y-74896612D01*
X136236482Y-74602059D01*
X136186336Y-74334684D01*
X136143898Y-74111480D01*
X136112402Y-73949439D01*
X136095077Y-73865553D01*
X136094775Y-73864272D01*
X136084232Y-73828588D01*
X136063731Y-73801646D01*
X136020989Y-73782218D01*
X135943724Y-73769075D01*
X135819652Y-73760989D01*
X135636491Y-73756732D01*
X135381958Y-73755075D01*
X135043769Y-73754790D01*
X135000000Y-73754790D01*
X134651643Y-73754997D01*
G37*
X134651643Y-73754997D02*
X134388323Y-73756439D01*
X134197754Y-73760342D01*
X134067655Y-73767937D01*
X133985743Y-73780450D01*
X133939734Y-73799111D01*
X133917347Y-73825148D01*
X133906298Y-73859788D01*
X133905224Y-73864272D01*
X133888441Y-73945189D01*
X133857375Y-74104842D01*
X133815258Y-74326238D01*
X133765321Y-74592385D01*
X133710797Y-74886290D01*
X133708893Y-74896612D01*
X133654277Y-75184636D01*
X133603178Y-75439115D01*
X133558894Y-75644785D01*
X133524721Y-75786385D01*
X133503957Y-75848650D01*
X133502967Y-75849753D01*
X133441801Y-75880159D01*
X133315690Y-75930828D01*
X133151869Y-75990822D01*
X133150957Y-75991142D01*
X132944612Y-76068704D01*
X132701340Y-76167507D01*
X132472031Y-76266848D01*
X132461178Y-76271760D01*
X132087683Y-76441276D01*
X131260635Y-75876495D01*
X131006923Y-75704320D01*
X130777098Y-75550395D01*
X130584475Y-75423474D01*
X130442368Y-75332309D01*
X130364093Y-75285655D01*
X130356660Y-75282195D01*
X130299776Y-75297600D01*
X130193531Y-75371927D01*
X130033781Y-75508681D01*
X129816384Y-75711368D01*
X129594452Y-75927008D01*
X129380509Y-76139503D01*
X129189031Y-76333410D01*
X129031545Y-76496754D01*
X128919578Y-76617561D01*
X128864657Y-76683855D01*
X128862614Y-76687268D01*
X128856542Y-76732761D01*
X128879416Y-76807056D01*
X128936885Y-76920186D01*
X129034601Y-77082185D01*
X129178216Y-77303086D01*
X129369667Y-77587460D01*
X129539577Y-77837759D01*
X129691462Y-78062250D01*
X129816545Y-78247900D01*
X129906051Y-78381675D01*
X129951200Y-78450542D01*
X129954042Y-78455218D01*
X129948530Y-78521201D01*
X129906745Y-78649448D01*
X129837003Y-78815720D01*
X129812146Y-78868819D01*
X129703689Y-79105377D01*
X129587980Y-79373789D01*
X129493985Y-79606035D01*
X129426255Y-79778407D01*
X129372457Y-79909403D01*
X129341369Y-79977867D01*
X129337504Y-79983142D01*
X129280329Y-79991880D01*
X129145552Y-80015823D01*
X128951094Y-80051562D01*
X128714875Y-80095689D01*
X128454816Y-80144795D01*
X128188837Y-80195472D01*
X127934857Y-80244313D01*
X127710799Y-80287909D01*
X127534580Y-80322851D01*
X127424123Y-80345732D01*
X127397030Y-80352201D01*
X127369044Y-80368167D01*
X127347919Y-80404227D01*
X127332703Y-80472552D01*
X127322447Y-80585315D01*
X127316200Y-80754686D01*
X127313012Y-80992838D01*
X127311933Y-81311942D01*
X127311877Y-81442741D01*
X127311877Y-82506511D01*
X127567337Y-82556933D01*
X127709463Y-82584273D01*
X127921550Y-82624182D01*
X128177807Y-82671845D01*
X128452442Y-82722446D01*
X128528352Y-82736344D01*
X128781779Y-82785617D01*
X129002553Y-82834070D01*
X129172143Y-82877215D01*
X129272020Y-82910563D01*
X129288657Y-82920502D01*
X129329511Y-82990891D01*
X129388087Y-83127283D01*
X129453045Y-83302805D01*
X129465929Y-83340613D01*
X129551066Y-83575030D01*
X129656744Y-83839524D01*
X129760160Y-84077041D01*
X129760670Y-84078144D01*
X129932888Y-84450733D01*
X129366476Y-85283893D01*
X128800065Y-86117053D01*
X129527298Y-86845500D01*
X129747252Y-87062302D01*
X129947868Y-87253414D01*
X130117878Y-87408636D01*
X130246015Y-87517764D01*
X130321011Y-87570595D01*
X130331769Y-87573947D01*
X130394933Y-87547549D01*
X130523820Y-87474160D01*
X130704351Y-87362484D01*
X130922446Y-87221224D01*
X131158246Y-87063027D01*
X131397564Y-86901664D01*
X131610941Y-86761252D01*
X131784825Y-86650431D01*
X131905666Y-86577838D01*
X131959737Y-86552108D01*
X132025706Y-86573880D01*
X132150802Y-86631251D01*
X132309220Y-86712300D01*
X132326013Y-86721309D01*
X132539348Y-86828300D01*
X132685636Y-86880772D01*
X132776620Y-86881330D01*
X132824041Y-86832580D01*
X132824317Y-86831897D01*
X132848020Y-86774164D01*
X132904551Y-86637115D01*
X132989526Y-86431357D01*
X133098562Y-86167498D01*
X133227276Y-85856144D01*
X133371285Y-85507904D01*
X133510749Y-85170744D01*
X133664020Y-84798666D01*
X133804749Y-84453987D01*
X133928718Y-84147271D01*
X134031709Y-83889085D01*
X134109504Y-83689994D01*
X134157886Y-83560565D01*
X134172796Y-83512261D01*
X134135406Y-83456850D01*
X134037602Y-83368538D01*
X133907185Y-83271174D01*
X133535777Y-82963253D01*
X133245470Y-82610304D01*
X133039744Y-82219761D01*
X132922077Y-81799057D01*
X132895949Y-81355629D01*
X132914940Y-81150958D01*
X133018417Y-80726323D01*
X133196627Y-80351336D01*
X133438518Y-80029696D01*
X133733037Y-79765101D01*
X134069129Y-79561250D01*
X134435742Y-79421842D01*
X134821823Y-79350574D01*
X135216319Y-79351145D01*
X135608175Y-79427254D01*
X135986340Y-79582599D01*
X136339760Y-79820879D01*
X136487273Y-79955639D01*
X136770184Y-80301679D01*
X136967168Y-80679826D01*
X137079536Y-81079055D01*
X137108599Y-81488345D01*
X137055669Y-81896672D01*
X136922057Y-82293013D01*
X136709075Y-82666345D01*
X136418034Y-83005645D01*
X136092814Y-83271174D01*
X135957348Y-83372671D01*
X135861651Y-83460025D01*
X135827203Y-83512343D01*
X135845240Y-83569398D01*
X135896538Y-83705698D01*
X135976876Y-83910678D01*
X136082036Y-84173772D01*
X136207796Y-84484416D01*
X136349937Y-84832043D01*
X136489635Y-85170826D01*
X136643759Y-85543222D01*
X136786518Y-85888307D01*
X136913529Y-86195477D01*
X137020411Y-86454125D01*
X137102780Y-86653647D01*
X137156253Y-86783435D01*
X137176067Y-86831897D01*
X137222876Y-86881129D01*
X137313417Y-86880985D01*
X137459342Y-86828877D01*
X137672302Y-86722216D01*
X137673986Y-86721309D01*
X137834330Y-86638536D01*
X137963948Y-86578242D01*
X138037037Y-86552346D01*
X138040263Y-86552108D01*
X138095284Y-86578374D01*
X138216757Y-86651416D01*
X138391129Y-86762595D01*
X138604850Y-86903273D01*
X138841753Y-87063027D01*
X139082945Y-87224779D01*
X139300326Y-87365450D01*
X139479816Y-87476335D01*
X139607336Y-87548730D01*
X139668230Y-87573947D01*
X139724303Y-87540803D01*
X139837040Y-87448173D01*
X139995177Y-87306257D01*
X140187449Y-87125255D01*
X140402591Y-86915369D01*
X140472952Y-86845249D01*
X141200434Y-86116552D01*
X140646705Y-85303900D01*
X140478423Y-85054342D01*
X140330729Y-84830366D01*
X140211910Y-84644949D01*
X140130250Y-84511065D01*
X140094036Y-84441690D01*
X140092975Y-84436755D01*
X140112067Y-84371364D01*
X140163418Y-84239825D01*
X140238140Y-84064181D01*
X140290588Y-83946591D01*
X140388654Y-83721461D01*
X140481007Y-83494015D01*
X140552606Y-83301839D01*
X140572056Y-83243295D01*
X140627314Y-83086956D01*
X140681331Y-82966158D01*
X140711001Y-82920502D01*
X140776476Y-82892561D01*
X140919376Y-82852951D01*
X141121161Y-82806162D01*
X141363288Y-82756683D01*
X141471647Y-82736344D01*
X141746811Y-82685781D01*
X142010746Y-82636822D01*
X142237659Y-82594281D01*
X142401761Y-82562975D01*
X142432662Y-82556933D01*
X142688122Y-82506511D01*
X142688122Y-81442741D01*
X142687548Y-81092950D01*
X142685193Y-80828300D01*
X142680107Y-80636622D01*
X142671339Y-80505744D01*
X142657938Y-80423493D01*
X142638954Y-80377698D01*
X142613438Y-80356188D01*
X142602969Y-80352201D01*
X142539826Y-80338056D01*
X142400325Y-80309834D01*
X142202389Y-80270943D01*
X141963935Y-80224792D01*
X141702886Y-80174788D01*
X141437161Y-80124341D01*
X141184681Y-80076858D01*
X140963365Y-80035748D01*
X140791134Y-80004419D01*
X140685908Y-79986278D01*
X140662495Y-79983142D01*
X140641284Y-79941173D01*
X140594332Y-79829370D01*
X140530419Y-79668888D01*
X140506014Y-79606035D01*
X140407580Y-79363203D01*
X140291666Y-79094918D01*
X140187853Y-78868819D01*
X140111465Y-78695935D01*
X140060644Y-78553877D01*
X140043679Y-78466878D01*
X140046384Y-78455218D01*
X140082239Y-78400170D01*
X140164108Y-78277739D01*
X140283205Y-78100962D01*
X140430742Y-77882877D01*
X140597931Y-77636520D01*
X140630990Y-77587891D01*
X140824980Y-77299773D01*
X140967579Y-77080377D01*
X141064473Y-76919602D01*
X141121346Y-76807346D01*
X141143884Y-76733510D01*
X141137772Y-76687990D01*
X141137616Y-76687700D01*
X141089511Y-76627910D01*
X140983111Y-76512319D01*
X140829948Y-76352909D01*
X140641555Y-76161665D01*
X140429465Y-75950568D01*
X140405547Y-75927008D01*
X140138262Y-75668172D01*
X139931992Y-75478117D01*
X139782592Y-75353337D01*
X139685920Y-75290327D01*
X139643339Y-75282195D01*
X139581196Y-75317672D01*
X139452237Y-75399623D01*
X139269778Y-75519292D01*
X139047133Y-75667926D01*
X138797616Y-75836772D01*
X138739364Y-75876495D01*
X137912316Y-76441276D01*
X137538821Y-76271760D01*
X137311684Y-76172971D01*
X137067872Y-76073617D01*
X136858275Y-75994401D01*
X136849042Y-75991142D01*
X136685095Y-75931129D01*
X136558715Y-75880382D01*
X136497137Y-75849841D01*
X136497032Y-75849753D01*
X136477493Y-75794548D01*
X136444279Y-75658779D01*
X136400687Y-75457709D01*
X136350016Y-75206599D01*
X136295561Y-74920713D01*
X136291106Y-74896612D01*
X136236482Y-74602059D01*
X136186336Y-74334684D01*
X136143898Y-74111480D01*
X136112402Y-73949439D01*
X136095077Y-73865553D01*
X136094775Y-73864272D01*
X136084232Y-73828588D01*
X136063731Y-73801646D01*
X136020989Y-73782218D01*
X135943724Y-73769075D01*
X135819652Y-73760989D01*
X135636491Y-73756732D01*
X135381958Y-73755075D01*
X135043769Y-73754790D01*
X135000000Y-73754790D01*
X134651643Y-73754997D01*
G36*
X124427601Y-89594233D02*
G01*
X124235083Y-89720057D01*
X124142226Y-89832696D01*
X124068660Y-90037092D01*
X124062817Y-90198830D01*
X124076053Y-90415094D01*
X124574808Y-90633398D01*
X124817315Y-90744930D01*
X124975771Y-90834650D01*
X125058164Y-90912361D01*
X125072482Y-90987867D01*
X125026713Y-91070971D01*
X124976245Y-91126054D01*
X124829395Y-91214389D01*
X124669672Y-91220579D01*
X124522980Y-91151735D01*
X124415219Y-91014972D01*
X124395945Y-90966680D01*
X124303624Y-90815848D01*
X124197412Y-90751567D01*
X124051724Y-90696576D01*
X124051724Y-90905057D01*
X124064604Y-91046926D01*
X124115057Y-91166563D01*
X124220803Y-91303927D01*
X124236520Y-91321777D01*
X124354145Y-91443986D01*
X124455254Y-91509570D01*
X124581750Y-91539742D01*
X124686616Y-91549623D01*
X124874189Y-91552085D01*
X125007716Y-91520892D01*
X125091017Y-91474579D01*
X125221937Y-91372735D01*
X125312561Y-91262591D01*
X125369913Y-91124069D01*
X125401020Y-90937090D01*
X125412906Y-90681577D01*
X125413855Y-90551894D01*
X125410629Y-90396421D01*
X125116834Y-90396421D01*
X125113427Y-90479827D01*
X125104934Y-90493487D01*
X125048890Y-90474931D01*
X124928282Y-90425822D01*
X124767087Y-90356002D01*
X124733378Y-90340995D01*
X124529661Y-90237404D01*
X124417421Y-90146359D01*
X124392753Y-90061081D01*
X124451755Y-89974794D01*
X124500482Y-89936667D01*
X124676306Y-89860417D01*
X124840873Y-89873014D01*
X124978646Y-89966086D01*
X125074087Y-90131256D01*
X125104686Y-90262357D01*
X125116834Y-90396421D01*
X125410629Y-90396421D01*
X125407568Y-90248919D01*
X125384401Y-90024756D01*
X125338510Y-89861526D01*
X125264046Y-89741352D01*
X125155164Y-89646355D01*
X125107695Y-89615655D01*
X124892062Y-89535703D01*
X124655979Y-89530672D01*
X124427601Y-89594233D01*
G37*
X124427601Y-89594233D02*
X124235083Y-89720057D01*
X124142226Y-89832696D01*
X124068660Y-90037092D01*
X124062817Y-90198830D01*
X124076053Y-90415094D01*
X124574808Y-90633398D01*
X124817315Y-90744930D01*
X124975771Y-90834650D01*
X125058164Y-90912361D01*
X125072482Y-90987867D01*
X125026713Y-91070971D01*
X124976245Y-91126054D01*
X124829395Y-91214389D01*
X124669672Y-91220579D01*
X124522980Y-91151735D01*
X124415219Y-91014972D01*
X124395945Y-90966680D01*
X124303624Y-90815848D01*
X124197412Y-90751567D01*
X124051724Y-90696576D01*
X124051724Y-90905057D01*
X124064604Y-91046926D01*
X124115057Y-91166563D01*
X124220803Y-91303927D01*
X124236520Y-91321777D01*
X124354145Y-91443986D01*
X124455254Y-91509570D01*
X124581750Y-91539742D01*
X124686616Y-91549623D01*
X124874189Y-91552085D01*
X125007716Y-91520892D01*
X125091017Y-91474579D01*
X125221937Y-91372735D01*
X125312561Y-91262591D01*
X125369913Y-91124069D01*
X125401020Y-90937090D01*
X125412906Y-90681577D01*
X125413855Y-90551894D01*
X125410629Y-90396421D01*
X125116834Y-90396421D01*
X125113427Y-90479827D01*
X125104934Y-90493487D01*
X125048890Y-90474931D01*
X124928282Y-90425822D01*
X124767087Y-90356002D01*
X124733378Y-90340995D01*
X124529661Y-90237404D01*
X124417421Y-90146359D01*
X124392753Y-90061081D01*
X124451755Y-89974794D01*
X124500482Y-89936667D01*
X124676306Y-89860417D01*
X124840873Y-89873014D01*
X124978646Y-89966086D01*
X125074087Y-90131256D01*
X125104686Y-90262357D01*
X125116834Y-90396421D01*
X125410629Y-90396421D01*
X125407568Y-90248919D01*
X125384401Y-90024756D01*
X125338510Y-89861526D01*
X125264046Y-89741352D01*
X125155164Y-89646355D01*
X125107695Y-89615655D01*
X124892062Y-89535703D01*
X124655979Y-89530672D01*
X124427601Y-89594233D01*
G36*
X126107184Y-89566697D02*
G01*
X126049024Y-89592116D01*
X125910205Y-89702059D01*
X125791495Y-89861030D01*
X125718079Y-90030677D01*
X125706130Y-90114313D01*
X125746191Y-90231078D01*
X125834065Y-90292862D01*
X125928282Y-90330273D01*
X125971423Y-90337167D01*
X125992429Y-90287138D01*
X126033910Y-90178269D01*
X126052108Y-90129076D01*
X126154152Y-89958913D01*
X126301897Y-89874038D01*
X126491345Y-89876648D01*
X126505377Y-89879991D01*
X126606519Y-89927945D01*
X126680876Y-90021432D01*
X126731662Y-90171939D01*
X126762092Y-90390951D01*
X126775382Y-90689956D01*
X126776628Y-90849056D01*
X126777246Y-91099855D01*
X126781295Y-91270825D01*
X126792067Y-91379454D01*
X126812853Y-91443230D01*
X126846945Y-91479643D01*
X126897635Y-91506179D01*
X126900565Y-91507515D01*
X126998182Y-91548787D01*
X127046542Y-91563985D01*
X127053973Y-91518037D01*
X127060334Y-91391034D01*
X127065168Y-91199235D01*
X127068015Y-90958902D01*
X127068582Y-90783024D01*
X127065687Y-90442688D01*
X127054363Y-90184495D01*
X127030654Y-89993374D01*
X126990603Y-89854253D01*
X126930253Y-89752060D01*
X126845647Y-89671724D01*
X126762101Y-89615655D01*
X126561209Y-89541032D01*
X126327404Y-89524202D01*
X126107184Y-89566697D01*
G37*
X126107184Y-89566697D02*
X126049024Y-89592116D01*
X125910205Y-89702059D01*
X125791495Y-89861030D01*
X125718079Y-90030677D01*
X125706130Y-90114313D01*
X125746191Y-90231078D01*
X125834065Y-90292862D01*
X125928282Y-90330273D01*
X125971423Y-90337167D01*
X125992429Y-90287138D01*
X126033910Y-90178269D01*
X126052108Y-90129076D01*
X126154152Y-89958913D01*
X126301897Y-89874038D01*
X126491345Y-89876648D01*
X126505377Y-89879991D01*
X126606519Y-89927945D01*
X126680876Y-90021432D01*
X126731662Y-90171939D01*
X126762092Y-90390951D01*
X126775382Y-90689956D01*
X126776628Y-90849056D01*
X126777246Y-91099855D01*
X126781295Y-91270825D01*
X126792067Y-91379454D01*
X126812853Y-91443230D01*
X126846945Y-91479643D01*
X126897635Y-91506179D01*
X126900565Y-91507515D01*
X126998182Y-91548787D01*
X127046542Y-91563985D01*
X127053973Y-91518037D01*
X127060334Y-91391034D01*
X127065168Y-91199235D01*
X127068015Y-90958902D01*
X127068582Y-90783024D01*
X127065687Y-90442688D01*
X127054363Y-90184495D01*
X127030654Y-89993374D01*
X126990603Y-89854253D01*
X126930253Y-89752060D01*
X126845647Y-89671724D01*
X126762101Y-89615655D01*
X126561209Y-89541032D01*
X126327404Y-89524202D01*
X126107184Y-89566697D01*
G36*
X127809322Y-89558594D02*
G01*
X127669218Y-89622323D01*
X127559250Y-89699543D01*
X127478676Y-89785887D01*
X127423046Y-89897272D01*
X127387911Y-90049616D01*
X127368821Y-90258835D01*
X127361328Y-90540846D01*
X127360536Y-90726555D01*
X127360536Y-91451046D01*
X127484473Y-91507515D01*
X127582090Y-91548787D01*
X127630450Y-91563985D01*
X127639702Y-91518762D01*
X127647042Y-91396824D01*
X127651536Y-91218772D01*
X127652490Y-91077395D01*
X127656590Y-90873146D01*
X127667646Y-90711113D01*
X127683789Y-90611891D01*
X127696613Y-90590805D01*
X127782814Y-90612338D01*
X127918138Y-90667566D01*
X128074830Y-90742436D01*
X128225137Y-90822892D01*
X128341307Y-90894880D01*
X128395587Y-90944346D01*
X128395802Y-90944881D01*
X128391133Y-91036428D01*
X128349268Y-91123820D01*
X128275765Y-91194802D01*
X128168484Y-91218543D01*
X128076798Y-91215777D01*
X127946942Y-91213741D01*
X127878779Y-91244164D01*
X127837841Y-91324543D01*
X127832679Y-91339700D01*
X127814933Y-91454331D01*
X127862391Y-91523934D01*
X127986093Y-91557105D01*
X128119719Y-91563240D01*
X128360183Y-91517763D01*
X128484662Y-91452817D01*
X128638395Y-91300246D01*
X128719927Y-91112971D01*
X128727244Y-90915085D01*
X128658331Y-90730685D01*
X128554672Y-90615134D01*
X128451177Y-90550442D01*
X128288508Y-90468542D01*
X128098946Y-90385486D01*
X128067350Y-90372795D01*
X127859131Y-90280908D01*
X127739102Y-90199923D01*
X127700499Y-90119413D01*
X127736560Y-90028950D01*
X127798467Y-89958238D01*
X127944787Y-89871170D01*
X128105783Y-89864640D01*
X128253427Y-89931735D01*
X128359690Y-90065544D01*
X128373638Y-90100067D01*
X128454840Y-90227042D01*
X128573392Y-90321309D01*
X128722988Y-90398668D01*
X128722988Y-90179307D01*
X128714183Y-90045280D01*
X128676430Y-89939644D01*
X128592721Y-89826939D01*
X128512364Y-89740127D01*
X128387409Y-89617204D01*
X128290323Y-89551171D01*
X128186046Y-89524684D01*
X128068011Y-89520307D01*
X127809322Y-89558594D01*
G37*
X127809322Y-89558594D02*
X127669218Y-89622323D01*
X127559250Y-89699543D01*
X127478676Y-89785887D01*
X127423046Y-89897272D01*
X127387911Y-90049616D01*
X127368821Y-90258835D01*
X127361328Y-90540846D01*
X127360536Y-90726555D01*
X127360536Y-91451046D01*
X127484473Y-91507515D01*
X127582090Y-91548787D01*
X127630450Y-91563985D01*
X127639702Y-91518762D01*
X127647042Y-91396824D01*
X127651536Y-91218772D01*
X127652490Y-91077395D01*
X127656590Y-90873146D01*
X127667646Y-90711113D01*
X127683789Y-90611891D01*
X127696613Y-90590805D01*
X127782814Y-90612338D01*
X127918138Y-90667566D01*
X128074830Y-90742436D01*
X128225137Y-90822892D01*
X128341307Y-90894880D01*
X128395587Y-90944346D01*
X128395802Y-90944881D01*
X128391133Y-91036428D01*
X128349268Y-91123820D01*
X128275765Y-91194802D01*
X128168484Y-91218543D01*
X128076798Y-91215777D01*
X127946942Y-91213741D01*
X127878779Y-91244164D01*
X127837841Y-91324543D01*
X127832679Y-91339700D01*
X127814933Y-91454331D01*
X127862391Y-91523934D01*
X127986093Y-91557105D01*
X128119719Y-91563240D01*
X128360183Y-91517763D01*
X128484662Y-91452817D01*
X128638395Y-91300246D01*
X128719927Y-91112971D01*
X128727244Y-90915085D01*
X128658331Y-90730685D01*
X128554672Y-90615134D01*
X128451177Y-90550442D01*
X128288508Y-90468542D01*
X128098946Y-90385486D01*
X128067350Y-90372795D01*
X127859131Y-90280908D01*
X127739102Y-90199923D01*
X127700499Y-90119413D01*
X127736560Y-90028950D01*
X127798467Y-89958238D01*
X127944787Y-89871170D01*
X128105783Y-89864640D01*
X128253427Y-89931735D01*
X128359690Y-90065544D01*
X128373638Y-90100067D01*
X128454840Y-90227042D01*
X128573392Y-90321309D01*
X128722988Y-90398668D01*
X128722988Y-90179307D01*
X128714183Y-90045280D01*
X128676430Y-89939644D01*
X128592721Y-89826939D01*
X128512364Y-89740127D01*
X128387409Y-89617204D01*
X128290323Y-89551171D01*
X128186046Y-89524684D01*
X128068011Y-89520307D01*
X127809322Y-89558594D01*
G36*
X129033127Y-89566400D02*
G01*
X129025701Y-89694422D01*
X129019882Y-89888985D01*
X129016141Y-90134702D01*
X129014942Y-90392426D01*
X129014942Y-91264545D01*
X129168925Y-91418528D01*
X129275037Y-91513412D01*
X129368184Y-91551845D01*
X129495496Y-91549413D01*
X129546032Y-91543223D01*
X129703983Y-91525210D01*
X129834629Y-91514888D01*
X129866475Y-91513935D01*
X129973834Y-91520171D01*
X130127381Y-91535824D01*
X130186917Y-91543223D01*
X130333143Y-91554668D01*
X130431411Y-91529808D01*
X130528850Y-91453058D01*
X130564024Y-91418528D01*
X130718007Y-91264545D01*
X130718007Y-89633246D01*
X130594070Y-89576776D01*
X130487350Y-89534950D01*
X130424913Y-89520307D01*
X130408904Y-89566583D01*
X130393942Y-89695884D01*
X130381022Y-89893914D01*
X130371143Y-90146380D01*
X130366378Y-90359675D01*
X130353065Y-91199042D01*
X130236920Y-91215464D01*
X130131284Y-91203982D01*
X130079523Y-91166805D01*
X130065055Y-91097298D01*
X130052702Y-90949240D01*
X130043448Y-90741391D01*
X130038272Y-90492512D01*
X130037526Y-90364435D01*
X130036781Y-89627145D01*
X129883543Y-89573726D01*
X129775084Y-89537406D01*
X129716087Y-89520468D01*
X129714386Y-89520307D01*
X129708467Y-89566349D01*
X129701961Y-89694018D01*
X129695414Y-89887632D01*
X129689373Y-90131507D01*
X129685152Y-90359675D01*
X129671839Y-91199042D01*
X129379885Y-91199042D01*
X129366487Y-90433275D01*
X129353090Y-89667508D01*
X129210762Y-89593908D01*
X129105678Y-89543366D01*
X129043483Y-89520431D01*
X129041688Y-89520307D01*
X129033127Y-89566400D01*
G37*
X129033127Y-89566400D02*
X129025701Y-89694422D01*
X129019882Y-89888985D01*
X129016141Y-90134702D01*
X129014942Y-90392426D01*
X129014942Y-91264545D01*
X129168925Y-91418528D01*
X129275037Y-91513412D01*
X129368184Y-91551845D01*
X129495496Y-91549413D01*
X129546032Y-91543223D01*
X129703983Y-91525210D01*
X129834629Y-91514888D01*
X129866475Y-91513935D01*
X129973834Y-91520171D01*
X130127381Y-91535824D01*
X130186917Y-91543223D01*
X130333143Y-91554668D01*
X130431411Y-91529808D01*
X130528850Y-91453058D01*
X130564024Y-91418528D01*
X130718007Y-91264545D01*
X130718007Y-89633246D01*
X130594070Y-89576776D01*
X130487350Y-89534950D01*
X130424913Y-89520307D01*
X130408904Y-89566583D01*
X130393942Y-89695884D01*
X130381022Y-89893914D01*
X130371143Y-90146380D01*
X130366378Y-90359675D01*
X130353065Y-91199042D01*
X130236920Y-91215464D01*
X130131284Y-91203982D01*
X130079523Y-91166805D01*
X130065055Y-91097298D01*
X130052702Y-90949240D01*
X130043448Y-90741391D01*
X130038272Y-90492512D01*
X130037526Y-90364435D01*
X130036781Y-89627145D01*
X129883543Y-89573726D01*
X129775084Y-89537406D01*
X129716087Y-89520468D01*
X129714386Y-89520307D01*
X129708467Y-89566349D01*
X129701961Y-89694018D01*
X129695414Y-89887632D01*
X129689373Y-90131507D01*
X129685152Y-90359675D01*
X129671839Y-91199042D01*
X129379885Y-91199042D01*
X129366487Y-90433275D01*
X129353090Y-89667508D01*
X129210762Y-89593908D01*
X129105678Y-89543366D01*
X129043483Y-89520431D01*
X129041688Y-89520307D01*
X129033127Y-89566400D01*
G36*
X131010143Y-89924093D02*
G01*
X131010761Y-90287769D01*
X131013153Y-90567532D01*
X131018329Y-90776784D01*
X131027296Y-90928926D01*
X131041064Y-91037359D01*
X131060639Y-91115485D01*
X131087032Y-91176707D01*
X131107016Y-91211652D01*
X131272517Y-91401157D01*
X131482352Y-91519942D01*
X131714514Y-91562564D01*
X131946992Y-91523583D01*
X132085428Y-91453532D01*
X132230758Y-91332353D01*
X132329805Y-91184354D01*
X132389565Y-90990534D01*
X132417031Y-90731892D01*
X132420921Y-90542146D01*
X132420397Y-90528510D01*
X132080459Y-90528510D01*
X132078383Y-90746096D01*
X132068870Y-90890134D01*
X132046992Y-90984364D01*
X132007824Y-91052523D01*
X131961024Y-91103936D01*
X131803854Y-91203175D01*
X131635100Y-91211653D01*
X131475607Y-91128799D01*
X131463193Y-91117572D01*
X131410209Y-91059171D01*
X131376986Y-90989686D01*
X131359000Y-90886270D01*
X131351725Y-90726073D01*
X131350574Y-90548965D01*
X131353068Y-90326467D01*
X131363392Y-90178037D01*
X131385809Y-90080489D01*
X131424582Y-90010637D01*
X131456374Y-89973539D01*
X131604061Y-89879975D01*
X131774154Y-89868725D01*
X131936508Y-89940190D01*
X131967840Y-89966720D01*
X132021178Y-90025636D01*
X132054469Y-90095837D01*
X132072344Y-90200418D01*
X132079434Y-90362479D01*
X132080459Y-90528510D01*
X132420397Y-90528510D01*
X132409160Y-90236579D01*
X132369213Y-90006993D01*
X132294087Y-89834387D01*
X132176786Y-89699760D01*
X132085428Y-89630759D01*
X131919373Y-89556214D01*
X131726908Y-89521613D01*
X131548001Y-89530875D01*
X131447892Y-89568238D01*
X131408607Y-89578872D01*
X131382539Y-89539225D01*
X131364342Y-89432981D01*
X131350574Y-89271145D01*
X131335501Y-89090902D01*
X131314564Y-88982458D01*
X131276468Y-88920446D01*
X131209915Y-88879499D01*
X131168103Y-88861366D01*
X131009961Y-88795120D01*
X131010143Y-89924093D01*
G37*
X131010143Y-89924093D02*
X131010761Y-90287769D01*
X131013153Y-90567532D01*
X131018329Y-90776784D01*
X131027296Y-90928926D01*
X131041064Y-91037359D01*
X131060639Y-91115485D01*
X131087032Y-91176707D01*
X131107016Y-91211652D01*
X131272517Y-91401157D01*
X131482352Y-91519942D01*
X131714514Y-91562564D01*
X131946992Y-91523583D01*
X132085428Y-91453532D01*
X132230758Y-91332353D01*
X132329805Y-91184354D01*
X132389565Y-90990534D01*
X132417031Y-90731892D01*
X132420921Y-90542146D01*
X132420397Y-90528510D01*
X132080459Y-90528510D01*
X132078383Y-90746096D01*
X132068870Y-90890134D01*
X132046992Y-90984364D01*
X132007824Y-91052523D01*
X131961024Y-91103936D01*
X131803854Y-91203175D01*
X131635100Y-91211653D01*
X131475607Y-91128799D01*
X131463193Y-91117572D01*
X131410209Y-91059171D01*
X131376986Y-90989686D01*
X131359000Y-90886270D01*
X131351725Y-90726073D01*
X131350574Y-90548965D01*
X131353068Y-90326467D01*
X131363392Y-90178037D01*
X131385809Y-90080489D01*
X131424582Y-90010637D01*
X131456374Y-89973539D01*
X131604061Y-89879975D01*
X131774154Y-89868725D01*
X131936508Y-89940190D01*
X131967840Y-89966720D01*
X132021178Y-90025636D01*
X132054469Y-90095837D01*
X132072344Y-90200418D01*
X132079434Y-90362479D01*
X132080459Y-90528510D01*
X132420397Y-90528510D01*
X132409160Y-90236579D01*
X132369213Y-90006993D01*
X132294087Y-89834387D01*
X132176786Y-89699760D01*
X132085428Y-89630759D01*
X131919373Y-89556214D01*
X131726908Y-89521613D01*
X131548001Y-89530875D01*
X131447892Y-89568238D01*
X131408607Y-89578872D01*
X131382539Y-89539225D01*
X131364342Y-89432981D01*
X131350574Y-89271145D01*
X131335501Y-89090902D01*
X131314564Y-88982458D01*
X131276468Y-88920446D01*
X131209915Y-88879499D01*
X131168103Y-88861366D01*
X131009961Y-88795120D01*
X131010143Y-89924093D01*
G36*
X133223428Y-89536534D02*
G01*
X133002391Y-89618099D01*
X132823317Y-89762366D01*
X132753280Y-89863920D01*
X132676929Y-90050268D01*
X132678515Y-90185010D01*
X132758653Y-90275631D01*
X132788304Y-90291040D01*
X132916326Y-90339084D01*
X132981706Y-90326776D01*
X133003852Y-90246098D01*
X133004980Y-90201533D01*
X133045523Y-90037581D01*
X133151198Y-89922891D01*
X133298076Y-89867497D01*
X133462227Y-89881435D01*
X133595663Y-89953827D01*
X133640731Y-89995120D01*
X133672677Y-90045216D01*
X133694256Y-90120942D01*
X133708227Y-90239128D01*
X133717345Y-90416600D01*
X133724369Y-90670186D01*
X133726188Y-90750479D01*
X133732822Y-91025158D01*
X133740364Y-91218481D01*
X133751675Y-91346388D01*
X133769615Y-91424822D01*
X133797045Y-91469725D01*
X133836823Y-91497038D01*
X133862290Y-91509105D01*
X133970444Y-91550367D01*
X134034110Y-91563985D01*
X134055146Y-91518505D01*
X134067987Y-91381006D01*
X134072700Y-91149902D01*
X134069356Y-90823604D01*
X134068314Y-90773276D01*
X134060965Y-90475581D01*
X134052274Y-90258205D01*
X134039908Y-90104153D01*
X134021530Y-89996430D01*
X133994805Y-89918042D01*
X133957398Y-89851994D01*
X133937830Y-89823691D01*
X133825634Y-89698467D01*
X133700150Y-89601063D01*
X133684787Y-89592561D01*
X133459777Y-89525433D01*
X133223428Y-89536534D01*
G37*
X133223428Y-89536534D02*
X133002391Y-89618099D01*
X132823317Y-89762366D01*
X132753280Y-89863920D01*
X132676929Y-90050268D01*
X132678515Y-90185010D01*
X132758653Y-90275631D01*
X132788304Y-90291040D01*
X132916326Y-90339084D01*
X132981706Y-90326776D01*
X133003852Y-90246098D01*
X133004980Y-90201533D01*
X133045523Y-90037581D01*
X133151198Y-89922891D01*
X133298076Y-89867497D01*
X133462227Y-89881435D01*
X133595663Y-89953827D01*
X133640731Y-89995120D01*
X133672677Y-90045216D01*
X133694256Y-90120942D01*
X133708227Y-90239128D01*
X133717345Y-90416600D01*
X133724369Y-90670186D01*
X133726188Y-90750479D01*
X133732822Y-91025158D01*
X133740364Y-91218481D01*
X133751675Y-91346388D01*
X133769615Y-91424822D01*
X133797045Y-91469725D01*
X133836823Y-91497038D01*
X133862290Y-91509105D01*
X133970444Y-91550367D01*
X134034110Y-91563985D01*
X134055146Y-91518505D01*
X134067987Y-91381006D01*
X134072700Y-91149902D01*
X134069356Y-90823604D01*
X134068314Y-90773276D01*
X134060965Y-90475581D01*
X134052274Y-90258205D01*
X134039908Y-90104153D01*
X134021530Y-89996430D01*
X133994805Y-89918042D01*
X133957398Y-89851994D01*
X133937830Y-89823691D01*
X133825634Y-89698467D01*
X133700150Y-89601063D01*
X133684787Y-89592561D01*
X133459777Y-89525433D01*
X133223428Y-89536534D01*
G36*
X134866759Y-89540601D02*
G01*
X134676095Y-89611403D01*
X134673914Y-89612764D01*
X134555994Y-89699550D01*
X134468940Y-89800973D01*
X134407714Y-89933145D01*
X134367277Y-90112182D01*
X134342591Y-90354195D01*
X134328618Y-90675299D01*
X134327393Y-90721048D01*
X134309800Y-91410869D01*
X134457848Y-91487427D01*
X134564970Y-91539163D01*
X134629649Y-91563678D01*
X134632641Y-91563985D01*
X134643834Y-91518751D01*
X134652725Y-91396736D01*
X134658194Y-91218468D01*
X134659387Y-91074116D01*
X134659414Y-90840271D01*
X134670104Y-90693419D01*
X134707367Y-90623376D01*
X134787112Y-90619958D01*
X134925251Y-90672983D01*
X135133812Y-90770454D01*
X135287171Y-90851409D01*
X135366048Y-90921644D01*
X135389236Y-90998194D01*
X135389272Y-91001982D01*
X135351007Y-91133852D01*
X135237717Y-91205091D01*
X135064336Y-91215410D01*
X134939450Y-91213620D01*
X134873601Y-91249589D01*
X134832536Y-91335985D01*
X134808901Y-91446054D01*
X134842961Y-91508508D01*
X134855786Y-91517446D01*
X134976528Y-91553343D01*
X135145612Y-91558426D01*
X135319739Y-91534631D01*
X135443124Y-91491147D01*
X135613713Y-91346309D01*
X135710681Y-91144694D01*
X135729885Y-90987180D01*
X135715230Y-90845104D01*
X135662199Y-90729127D01*
X135557194Y-90626121D01*
X135386614Y-90522954D01*
X135136862Y-90406496D01*
X135121647Y-90399914D01*
X134896671Y-90295981D01*
X134757843Y-90210743D01*
X134698338Y-90134147D01*
X134711328Y-90056139D01*
X134789988Y-89966664D01*
X134813510Y-89946073D01*
X134971067Y-89866236D01*
X135134323Y-89869597D01*
X135276505Y-89947874D01*
X135370840Y-90092781D01*
X135379605Y-90121224D01*
X135464962Y-90259174D01*
X135573271Y-90325620D01*
X135729885Y-90391471D01*
X135729885Y-90221097D01*
X135682244Y-89973454D01*
X135540841Y-89746307D01*
X135467258Y-89670318D01*
X135299991Y-89572790D01*
X135087274Y-89528640D01*
X134866759Y-89540601D01*
G37*
X134866759Y-89540601D02*
X134676095Y-89611403D01*
X134673914Y-89612764D01*
X134555994Y-89699550D01*
X134468940Y-89800973D01*
X134407714Y-89933145D01*
X134367277Y-90112182D01*
X134342591Y-90354195D01*
X134328618Y-90675299D01*
X134327393Y-90721048D01*
X134309800Y-91410869D01*
X134457848Y-91487427D01*
X134564970Y-91539163D01*
X134629649Y-91563678D01*
X134632641Y-91563985D01*
X134643834Y-91518751D01*
X134652725Y-91396736D01*
X134658194Y-91218468D01*
X134659387Y-91074116D01*
X134659414Y-90840271D01*
X134670104Y-90693419D01*
X134707367Y-90623376D01*
X134787112Y-90619958D01*
X134925251Y-90672983D01*
X135133812Y-90770454D01*
X135287171Y-90851409D01*
X135366048Y-90921644D01*
X135389236Y-90998194D01*
X135389272Y-91001982D01*
X135351007Y-91133852D01*
X135237717Y-91205091D01*
X135064336Y-91215410D01*
X134939450Y-91213620D01*
X134873601Y-91249589D01*
X134832536Y-91335985D01*
X134808901Y-91446054D01*
X134842961Y-91508508D01*
X134855786Y-91517446D01*
X134976528Y-91553343D01*
X135145612Y-91558426D01*
X135319739Y-91534631D01*
X135443124Y-91491147D01*
X135613713Y-91346309D01*
X135710681Y-91144694D01*
X135729885Y-90987180D01*
X135715230Y-90845104D01*
X135662199Y-90729127D01*
X135557194Y-90626121D01*
X135386614Y-90522954D01*
X135136862Y-90406496D01*
X135121647Y-90399914D01*
X134896671Y-90295981D01*
X134757843Y-90210743D01*
X134698338Y-90134147D01*
X134711328Y-90056139D01*
X134789988Y-89966664D01*
X134813510Y-89946073D01*
X134971067Y-89866236D01*
X135134323Y-89869597D01*
X135276505Y-89947874D01*
X135370840Y-90092781D01*
X135379605Y-90121224D01*
X135464962Y-90259174D01*
X135573271Y-90325620D01*
X135729885Y-90391471D01*
X135729885Y-90221097D01*
X135682244Y-89973454D01*
X135540841Y-89746307D01*
X135467258Y-89670318D01*
X135299991Y-89572790D01*
X135087274Y-89528640D01*
X134866759Y-89540601D01*
G36*
X137092337Y-89206429D02*
G01*
X137078077Y-89405313D01*
X137061698Y-89522511D01*
X137039002Y-89573632D01*
X137005788Y-89574286D01*
X136995019Y-89568183D01*
X136851767Y-89523997D01*
X136665425Y-89526577D01*
X136475976Y-89571999D01*
X136357483Y-89630759D01*
X136235991Y-89724631D01*
X136147177Y-89830865D01*
X136086208Y-89965850D01*
X136048250Y-90145976D01*
X136028468Y-90387633D01*
X136022030Y-90707211D01*
X136021914Y-90768516D01*
X136021839Y-91457147D01*
X136175077Y-91510566D01*
X136283913Y-91546908D01*
X136343626Y-91563828D01*
X136345383Y-91563985D01*
X136351264Y-91518100D01*
X136356268Y-91391539D01*
X136360016Y-91200941D01*
X136362127Y-90962948D01*
X136362452Y-90818252D01*
X136363129Y-90532955D01*
X136366614Y-90328480D01*
X136375088Y-90188334D01*
X136390734Y-90096023D01*
X136415731Y-90035053D01*
X136452262Y-89988931D01*
X136475071Y-89966720D01*
X136631751Y-89877214D01*
X136802726Y-89870511D01*
X136957850Y-89946208D01*
X136986537Y-89973539D01*
X137028613Y-90024929D01*
X137057799Y-90085886D01*
X137076429Y-90174025D01*
X137086839Y-90306961D01*
X137091363Y-90502309D01*
X137092337Y-90771652D01*
X137092337Y-91457147D01*
X137245575Y-91510566D01*
X137354411Y-91546908D01*
X137414124Y-91563828D01*
X137415881Y-91563985D01*
X137420375Y-91517414D01*
X137424425Y-91386051D01*
X137427870Y-91182422D01*
X137430547Y-90919054D01*
X137432294Y-90608471D01*
X137432949Y-90263201D01*
X137432950Y-90247843D01*
X137432950Y-88931701D01*
X137116666Y-88798289D01*
X137092337Y-89206429D01*
G37*
X137092337Y-89206429D02*
X137078077Y-89405313D01*
X137061698Y-89522511D01*
X137039002Y-89573632D01*
X137005788Y-89574286D01*
X136995019Y-89568183D01*
X136851767Y-89523997D01*
X136665425Y-89526577D01*
X136475976Y-89571999D01*
X136357483Y-89630759D01*
X136235991Y-89724631D01*
X136147177Y-89830865D01*
X136086208Y-89965850D01*
X136048250Y-90145976D01*
X136028468Y-90387633D01*
X136022030Y-90707211D01*
X136021914Y-90768516D01*
X136021839Y-91457147D01*
X136175077Y-91510566D01*
X136283913Y-91546908D01*
X136343626Y-91563828D01*
X136345383Y-91563985D01*
X136351264Y-91518100D01*
X136356268Y-91391539D01*
X136360016Y-91200941D01*
X136362127Y-90962948D01*
X136362452Y-90818252D01*
X136363129Y-90532955D01*
X136366614Y-90328480D01*
X136375088Y-90188334D01*
X136390734Y-90096023D01*
X136415731Y-90035053D01*
X136452262Y-89988931D01*
X136475071Y-89966720D01*
X136631751Y-89877214D01*
X136802726Y-89870511D01*
X136957850Y-89946208D01*
X136986537Y-89973539D01*
X137028613Y-90024929D01*
X137057799Y-90085886D01*
X137076429Y-90174025D01*
X137086839Y-90306961D01*
X137091363Y-90502309D01*
X137092337Y-90771652D01*
X137092337Y-91457147D01*
X137245575Y-91510566D01*
X137354411Y-91546908D01*
X137414124Y-91563828D01*
X137415881Y-91563985D01*
X137420375Y-91517414D01*
X137424425Y-91386051D01*
X137427870Y-91182422D01*
X137430547Y-90919054D01*
X137432294Y-90608471D01*
X137432949Y-90263201D01*
X137432950Y-90247843D01*
X137432950Y-88931701D01*
X137116666Y-88798289D01*
X137092337Y-89206429D01*
G36*
X141140747Y-89474461D02*
G01*
X140948903Y-89603519D01*
X140800648Y-89789915D01*
X140712084Y-90027109D01*
X140694172Y-90201691D01*
X140696206Y-90274544D01*
X140713240Y-90330324D01*
X140760064Y-90380298D01*
X140851473Y-90435733D01*
X141002258Y-90507896D01*
X141227213Y-90608055D01*
X141228352Y-90608558D01*
X141435415Y-90703396D01*
X141605212Y-90787609D01*
X141720388Y-90852133D01*
X141763590Y-90887900D01*
X141763601Y-90888188D01*
X141725525Y-90966074D01*
X141636484Y-91051924D01*
X141534263Y-91113769D01*
X141482474Y-91126054D01*
X141341184Y-91083564D01*
X141219512Y-90977152D01*
X141160145Y-90860156D01*
X141103033Y-90773905D01*
X140991161Y-90675681D01*
X140859654Y-90590827D01*
X140743632Y-90544681D01*
X140719371Y-90542146D01*
X140692062Y-90583868D01*
X140690416Y-90690519D01*
X140710486Y-90834321D01*
X140748322Y-90987501D01*
X140799977Y-91122283D01*
X140802586Y-91127516D01*
X140958031Y-91344557D01*
X141159493Y-91492185D01*
X141388288Y-91564644D01*
X141625733Y-91556177D01*
X141853146Y-91461027D01*
X141863257Y-91454337D01*
X142042150Y-91292211D01*
X142159780Y-91080682D01*
X142224877Y-90802543D01*
X142233613Y-90724398D01*
X142249086Y-90355549D01*
X142230537Y-90183541D01*
X141763601Y-90183541D01*
X141757534Y-90290838D01*
X141724351Y-90322152D01*
X141641623Y-90298725D01*
X141511221Y-90243348D01*
X141365457Y-90173932D01*
X141361834Y-90172094D01*
X141238283Y-90107108D01*
X141188697Y-90063740D01*
X141200925Y-90018275D01*
X141252412Y-89958536D01*
X141383399Y-89872085D01*
X141524462Y-89865733D01*
X141650995Y-89928649D01*
X141738392Y-90050003D01*
X141763601Y-90183541D01*
X142230537Y-90183541D01*
X142217260Y-90060435D01*
X142135609Y-89826382D01*
X142021939Y-89662413D01*
X141816775Y-89496716D01*
X141590786Y-89414519D01*
X141360075Y-89409281D01*
X141140747Y-89474461D01*
G37*
X141140747Y-89474461D02*
X140948903Y-89603519D01*
X140800648Y-89789915D01*
X140712084Y-90027109D01*
X140694172Y-90201691D01*
X140696206Y-90274544D01*
X140713240Y-90330324D01*
X140760064Y-90380298D01*
X140851473Y-90435733D01*
X141002258Y-90507896D01*
X141227213Y-90608055D01*
X141228352Y-90608558D01*
X141435415Y-90703396D01*
X141605212Y-90787609D01*
X141720388Y-90852133D01*
X141763590Y-90887900D01*
X141763601Y-90888188D01*
X141725525Y-90966074D01*
X141636484Y-91051924D01*
X141534263Y-91113769D01*
X141482474Y-91126054D01*
X141341184Y-91083564D01*
X141219512Y-90977152D01*
X141160145Y-90860156D01*
X141103033Y-90773905D01*
X140991161Y-90675681D01*
X140859654Y-90590827D01*
X140743632Y-90544681D01*
X140719371Y-90542146D01*
X140692062Y-90583868D01*
X140690416Y-90690519D01*
X140710486Y-90834321D01*
X140748322Y-90987501D01*
X140799977Y-91122283D01*
X140802586Y-91127516D01*
X140958031Y-91344557D01*
X141159493Y-91492185D01*
X141388288Y-91564644D01*
X141625733Y-91556177D01*
X141853146Y-91461027D01*
X141863257Y-91454337D01*
X142042150Y-91292211D01*
X142159780Y-91080682D01*
X142224877Y-90802543D01*
X142233613Y-90724398D01*
X142249086Y-90355549D01*
X142230537Y-90183541D01*
X141763601Y-90183541D01*
X141757534Y-90290838D01*
X141724351Y-90322152D01*
X141641623Y-90298725D01*
X141511221Y-90243348D01*
X141365457Y-90173932D01*
X141361834Y-90172094D01*
X141238283Y-90107108D01*
X141188697Y-90063740D01*
X141200925Y-90018275D01*
X141252412Y-89958536D01*
X141383399Y-89872085D01*
X141524462Y-89865733D01*
X141650995Y-89928649D01*
X141738392Y-90050003D01*
X141763601Y-90183541D01*
X142230537Y-90183541D01*
X142217260Y-90060435D01*
X142135609Y-89826382D01*
X142021939Y-89662413D01*
X141816775Y-89496716D01*
X141590786Y-89414519D01*
X141360075Y-89409281D01*
X141140747Y-89474461D01*
G36*
X144919632Y-89443358D02*
G01*
X144691564Y-89563280D01*
X144523248Y-89756278D01*
X144463459Y-89880355D01*
X144416934Y-90066653D01*
X144393118Y-90302045D01*
X144390860Y-90558952D01*
X144409008Y-90809799D01*
X144446411Y-91027009D01*
X144501916Y-91183005D01*
X144518975Y-91209871D01*
X144721030Y-91410415D01*
X144961022Y-91530529D01*
X145221434Y-91565680D01*
X145484753Y-91511337D01*
X145558033Y-91478756D01*
X145700739Y-91378353D01*
X145825986Y-91245225D01*
X145837823Y-91228341D01*
X145885935Y-91146969D01*
X145917738Y-91059984D01*
X145936526Y-90945475D01*
X145945592Y-90781530D01*
X145948229Y-90546240D01*
X145948275Y-90493487D01*
X145948154Y-90476699D01*
X145461685Y-90476699D01*
X145458854Y-90698761D01*
X145447712Y-90846123D01*
X145424291Y-90941308D01*
X145384619Y-91006837D01*
X145364367Y-91028736D01*
X145247940Y-91111953D01*
X145134902Y-91108158D01*
X145020609Y-91035973D01*
X144952441Y-90958911D01*
X144912070Y-90846429D01*
X144889398Y-90669055D01*
X144887843Y-90648367D01*
X144883973Y-90326911D01*
X144924417Y-90088167D01*
X145008626Y-89933600D01*
X145136053Y-89864678D01*
X145181540Y-89860920D01*
X145300981Y-89879821D01*
X145382683Y-89945306D01*
X145432637Y-90070544D01*
X145456834Y-90268704D01*
X145461685Y-90476699D01*
X145948154Y-90476699D01*
X145946463Y-90242765D01*
X145938853Y-90067582D01*
X145922186Y-89946191D01*
X145893201Y-89856847D01*
X145848640Y-89777803D01*
X145838793Y-89763107D01*
X145673280Y-89565011D01*
X145492930Y-89450014D01*
X145273365Y-89404365D01*
X145198805Y-89402135D01*
X144919632Y-89443358D01*
G37*
X144919632Y-89443358D02*
X144691564Y-89563280D01*
X144523248Y-89756278D01*
X144463459Y-89880355D01*
X144416934Y-90066653D01*
X144393118Y-90302045D01*
X144390860Y-90558952D01*
X144409008Y-90809799D01*
X144446411Y-91027009D01*
X144501916Y-91183005D01*
X144518975Y-91209871D01*
X144721030Y-91410415D01*
X144961022Y-91530529D01*
X145221434Y-91565680D01*
X145484753Y-91511337D01*
X145558033Y-91478756D01*
X145700739Y-91378353D01*
X145825986Y-91245225D01*
X145837823Y-91228341D01*
X145885935Y-91146969D01*
X145917738Y-91059984D01*
X145936526Y-90945475D01*
X145945592Y-90781530D01*
X145948229Y-90546240D01*
X145948275Y-90493487D01*
X145948154Y-90476699D01*
X145461685Y-90476699D01*
X145458854Y-90698761D01*
X145447712Y-90846123D01*
X145424291Y-90941308D01*
X145384619Y-91006837D01*
X145364367Y-91028736D01*
X145247940Y-91111953D01*
X145134902Y-91108158D01*
X145020609Y-91035973D01*
X144952441Y-90958911D01*
X144912070Y-90846429D01*
X144889398Y-90669055D01*
X144887843Y-90648367D01*
X144883973Y-90326911D01*
X144924417Y-90088167D01*
X145008626Y-89933600D01*
X145136053Y-89864678D01*
X145181540Y-89860920D01*
X145300981Y-89879821D01*
X145382683Y-89945306D01*
X145432637Y-90070544D01*
X145456834Y-90268704D01*
X145461685Y-90476699D01*
X145948154Y-90476699D01*
X145946463Y-90242765D01*
X145938853Y-90067582D01*
X145922186Y-89946191D01*
X145893201Y-89856847D01*
X145848640Y-89777803D01*
X145838793Y-89763107D01*
X145673280Y-89565011D01*
X145492930Y-89450014D01*
X145273365Y-89404365D01*
X145198805Y-89402135D01*
X144919632Y-89443358D01*
G36*
X139304284Y-89462865D02*
G01*
X139148128Y-89553190D01*
X139039559Y-89642845D01*
X138960155Y-89736776D01*
X138905454Y-89851646D01*
X138870990Y-90004114D01*
X138852299Y-90210844D01*
X138844919Y-90488496D01*
X138844061Y-90688086D01*
X138844061Y-91422766D01*
X139050862Y-91515472D01*
X139257662Y-91608179D01*
X139281992Y-90803492D01*
X139292045Y-90502966D01*
X139302591Y-90284835D01*
X139315657Y-90134186D01*
X139333271Y-90036107D01*
X139357461Y-89975688D01*
X139390254Y-89938016D01*
X139400775Y-89929862D01*
X139560187Y-89866178D01*
X139721321Y-89891378D01*
X139817241Y-89958238D01*
X139856259Y-90005616D01*
X139883267Y-90067787D01*
X139900432Y-90162039D01*
X139909918Y-90305657D01*
X139913893Y-90515931D01*
X139914559Y-90735070D01*
X139914690Y-91009999D01*
X139919397Y-91204602D01*
X139935154Y-91335851D01*
X139968433Y-91420718D01*
X140025707Y-91476177D01*
X140113447Y-91519201D01*
X140230638Y-91563907D01*
X140358632Y-91612571D01*
X140343396Y-90748910D01*
X140337261Y-90437565D01*
X140330082Y-90207483D01*
X140319795Y-90042614D01*
X140304330Y-89926909D01*
X140281621Y-89844316D01*
X140249601Y-89778788D01*
X140210997Y-89720974D01*
X140024747Y-89536283D01*
X139797479Y-89429481D01*
X139550291Y-89403898D01*
X139304284Y-89462865D01*
G37*
X139304284Y-89462865D02*
X139148128Y-89553190D01*
X139039559Y-89642845D01*
X138960155Y-89736776D01*
X138905454Y-89851646D01*
X138870990Y-90004114D01*
X138852299Y-90210844D01*
X138844919Y-90488496D01*
X138844061Y-90688086D01*
X138844061Y-91422766D01*
X139050862Y-91515472D01*
X139257662Y-91608179D01*
X139281992Y-90803492D01*
X139292045Y-90502966D01*
X139302591Y-90284835D01*
X139315657Y-90134186D01*
X139333271Y-90036107D01*
X139357461Y-89975688D01*
X139390254Y-89938016D01*
X139400775Y-89929862D01*
X139560187Y-89866178D01*
X139721321Y-89891378D01*
X139817241Y-89958238D01*
X139856259Y-90005616D01*
X139883267Y-90067787D01*
X139900432Y-90162039D01*
X139909918Y-90305657D01*
X139913893Y-90515931D01*
X139914559Y-90735070D01*
X139914690Y-91009999D01*
X139919397Y-91204602D01*
X139935154Y-91335851D01*
X139968433Y-91420718D01*
X140025707Y-91476177D01*
X140113447Y-91519201D01*
X140230638Y-91563907D01*
X140358632Y-91612571D01*
X140343396Y-90748910D01*
X140337261Y-90437565D01*
X140330082Y-90207483D01*
X140319795Y-90042614D01*
X140304330Y-89926909D01*
X140281621Y-89844316D01*
X140249601Y-89778788D01*
X140210997Y-89720974D01*
X140024747Y-89536283D01*
X139797479Y-89429481D01*
X139550291Y-89403898D01*
X139304284Y-89462865D01*
G36*
X143046834Y-89436506D02*
G01*
X142860916Y-89529204D01*
X142696820Y-89699885D01*
X142651628Y-89763107D01*
X142602396Y-89845834D01*
X142570453Y-89935687D01*
X142552178Y-90055608D01*
X142543952Y-90228537D01*
X142542145Y-90456835D01*
X142550303Y-90769693D01*
X142578659Y-91004598D01*
X142633038Y-91179847D01*
X142719263Y-91313738D01*
X142843159Y-91424569D01*
X142852263Y-91431131D01*
X142974366Y-91498256D01*
X143121400Y-91531467D01*
X143308396Y-91539655D01*
X143612387Y-91539655D01*
X143612515Y-91834762D01*
X143615344Y-91999117D01*
X143632582Y-92095523D01*
X143677630Y-92153343D01*
X143763886Y-92201941D01*
X143784601Y-92211869D01*
X143881538Y-92258398D01*
X143956593Y-92287786D01*
X144012402Y-92290324D01*
X144051603Y-92256302D01*
X144076832Y-92176012D01*
X144090728Y-92039743D01*
X144095927Y-91837787D01*
X144095066Y-91560434D01*
X144090784Y-91197976D01*
X144089447Y-91089560D01*
X144084629Y-90715837D01*
X144080313Y-90471369D01*
X143612643Y-90471369D01*
X143610015Y-90678877D01*
X143598333Y-90814645D01*
X143571903Y-90904192D01*
X143525031Y-90973039D01*
X143493207Y-91006618D01*
X143363108Y-91104869D01*
X143247921Y-91112866D01*
X143129066Y-91031730D01*
X143126053Y-91028736D01*
X143077695Y-90966030D01*
X143048278Y-90880808D01*
X143033440Y-90749564D01*
X143028819Y-90548793D01*
X143028735Y-90504314D01*
X143039902Y-90227639D01*
X143076253Y-90035842D01*
X143142059Y-89918757D01*
X143241593Y-89866215D01*
X143299119Y-89860920D01*
X143435649Y-89885767D01*
X143529298Y-89967581D01*
X143585670Y-90117270D01*
X143610367Y-90345743D01*
X143612643Y-90471369D01*
X144080313Y-90471369D01*
X144079522Y-90426587D01*
X144072922Y-90208970D01*
X144063623Y-90050146D01*
X144050423Y-89937274D01*
X144032115Y-89857513D01*
X144007497Y-89798023D01*
X143975363Y-89745963D01*
X143961585Y-89726373D01*
X143778812Y-89541328D01*
X143547724Y-89436412D01*
X143280410Y-89407163D01*
X143046834Y-89436506D01*
G37*
X143046834Y-89436506D02*
X142860916Y-89529204D01*
X142696820Y-89699885D01*
X142651628Y-89763107D01*
X142602396Y-89845834D01*
X142570453Y-89935687D01*
X142552178Y-90055608D01*
X142543952Y-90228537D01*
X142542145Y-90456835D01*
X142550303Y-90769693D01*
X142578659Y-91004598D01*
X142633038Y-91179847D01*
X142719263Y-91313738D01*
X142843159Y-91424569D01*
X142852263Y-91431131D01*
X142974366Y-91498256D01*
X143121400Y-91531467D01*
X143308396Y-91539655D01*
X143612387Y-91539655D01*
X143612515Y-91834762D01*
X143615344Y-91999117D01*
X143632582Y-92095523D01*
X143677630Y-92153343D01*
X143763886Y-92201941D01*
X143784601Y-92211869D01*
X143881538Y-92258398D01*
X143956593Y-92287786D01*
X144012402Y-92290324D01*
X144051603Y-92256302D01*
X144076832Y-92176012D01*
X144090728Y-92039743D01*
X144095927Y-91837787D01*
X144095066Y-91560434D01*
X144090784Y-91197976D01*
X144089447Y-91089560D01*
X144084629Y-90715837D01*
X144080313Y-90471369D01*
X143612643Y-90471369D01*
X143610015Y-90678877D01*
X143598333Y-90814645D01*
X143571903Y-90904192D01*
X143525031Y-90973039D01*
X143493207Y-91006618D01*
X143363108Y-91104869D01*
X143247921Y-91112866D01*
X143129066Y-91031730D01*
X143126053Y-91028736D01*
X143077695Y-90966030D01*
X143048278Y-90880808D01*
X143033440Y-90749564D01*
X143028819Y-90548793D01*
X143028735Y-90504314D01*
X143039902Y-90227639D01*
X143076253Y-90035842D01*
X143142059Y-89918757D01*
X143241593Y-89866215D01*
X143299119Y-89860920D01*
X143435649Y-89885767D01*
X143529298Y-89967581D01*
X143585670Y-90117270D01*
X143610367Y-90345743D01*
X143612643Y-90471369D01*
X144080313Y-90471369D01*
X144079522Y-90426587D01*
X144072922Y-90208970D01*
X144063623Y-90050146D01*
X144050423Y-89937274D01*
X144032115Y-89857513D01*
X144007497Y-89798023D01*
X143975363Y-89745963D01*
X143961585Y-89726373D01*
X143778812Y-89541328D01*
X143547724Y-89436412D01*
X143280410Y-89407163D01*
X143046834Y-89436506D01*
%TD*%
M02*
