%TF.GenerationSoftware,KiCad,Pcbnew,5.1.10-88a1d61d58~90~ubuntu20.04.1*%
%TF.CreationDate,2021-10-13T17:16:21+03:00*%
%TF.ProjectId,Arduino_Nano_Example,41726475-696e-46f5-9f4e-616e6f5f4578,1*%
%TF.SameCoordinates,Original*%
%TF.FileFunction,Paste,Top*%
%TF.FilePolarity,Positive*%
%FSLAX46Y46*%
G04 Gerber Fmt 4.6, Leading zero omitted, Abs format (unit mm)*
G04 Created by KiCad (PCBNEW 5.1.10-88a1d61d58~90~ubuntu20.04.1) date 2021-10-13 17:16:21*
%MOMM*%
%LPD*%
G01*
G04 APERTURE LIST*
%ADD10C,0.100000*%
%ADD11C,0.150000*%
%ADD12C,0.300000*%
%ADD13C,0.400000*%
%TA.AperFunction,Profile*%
%ADD14C,0.050000*%
%TD*%
%ADD15R,0.450000X1.750000*%
%ADD16R,3.200000X0.400000*%
%ADD17R,1.600000X0.550000*%
%ADD18R,0.550000X1.600000*%
%ADD19R,2.000000X1.500000*%
%ADD20R,2.000000X3.800000*%
%ADD21R,1.000000X1.700000*%
%ADD22R,1.900000X1.000000*%
%ADD23R,1.900000X1.800000*%
%ADD24R,1.300000X1.650000*%
%ADD25R,1.550000X1.425000*%
%ADD26R,1.380000X0.450000*%
%ADD27R,2.000000X1.100000*%
%ADD28R,0.800000X1.100000*%
G04 APERTURE END LIST*
D10*
D11*
X177002200Y-166007200D02*
X177002200Y-198007200D01*
X285002200Y-198007200D01*
X285002200Y-166007200D01*
X177002200Y-166007200D01*
D10*
D11*
X10000000Y-10000000D02*
X10000000Y-200007200D01*
X287002200Y-200007200D01*
X287002200Y-10000000D01*
X10000000Y-10000000D01*
D10*
D11*
X12000000Y-12000000D02*
X12000000Y-198007200D01*
X285002200Y-198007200D01*
X285002200Y-12000000D01*
X12000000Y-12000000D01*
D10*
D11*
X60000000Y-12000000D02*
X60000000Y-10000000D01*
D10*
D11*
X110000000Y-12000000D02*
X110000000Y-10000000D01*
D10*
D11*
X160000000Y-12000000D02*
X160000000Y-10000000D01*
D10*
D11*
X210000000Y-12000000D02*
X210000000Y-10000000D01*
D10*
D11*
X260000000Y-12000000D02*
X260000000Y-10000000D01*
D10*
D11*
X36065476Y-11588095D02*
X35322619Y-11588095D01*
X35694047Y-11588095D02*
X35694047Y-10288095D01*
X35570238Y-10473809D01*
X35446428Y-10597619D01*
X35322619Y-10659523D01*
D10*
D11*
X85322619Y-10411904D02*
X85384523Y-10350000D01*
X85508333Y-10288095D01*
X85817857Y-10288095D01*
X85941666Y-10350000D01*
X86003571Y-10411904D01*
X86065476Y-10535714D01*
X86065476Y-10659523D01*
X86003571Y-10845238D01*
X85260714Y-11588095D01*
X86065476Y-11588095D01*
D10*
D11*
X135260714Y-10288095D02*
X136065476Y-10288095D01*
X135632142Y-10783333D01*
X135817857Y-10783333D01*
X135941666Y-10845238D01*
X136003571Y-10907142D01*
X136065476Y-11030952D01*
X136065476Y-11340476D01*
X136003571Y-11464285D01*
X135941666Y-11526190D01*
X135817857Y-11588095D01*
X135446428Y-11588095D01*
X135322619Y-11526190D01*
X135260714Y-11464285D01*
D10*
D11*
X185941666Y-10721428D02*
X185941666Y-11588095D01*
X185632142Y-10226190D02*
X185322619Y-11154761D01*
X186127380Y-11154761D01*
D10*
D11*
X236003571Y-10288095D02*
X235384523Y-10288095D01*
X235322619Y-10907142D01*
X235384523Y-10845238D01*
X235508333Y-10783333D01*
X235817857Y-10783333D01*
X235941666Y-10845238D01*
X236003571Y-10907142D01*
X236065476Y-11030952D01*
X236065476Y-11340476D01*
X236003571Y-11464285D01*
X235941666Y-11526190D01*
X235817857Y-11588095D01*
X235508333Y-11588095D01*
X235384523Y-11526190D01*
X235322619Y-11464285D01*
D10*
D11*
X285941666Y-10288095D02*
X285694047Y-10288095D01*
X285570238Y-10350000D01*
X285508333Y-10411904D01*
X285384523Y-10597619D01*
X285322619Y-10845238D01*
X285322619Y-11340476D01*
X285384523Y-11464285D01*
X285446428Y-11526190D01*
X285570238Y-11588095D01*
X285817857Y-11588095D01*
X285941666Y-11526190D01*
X286003571Y-11464285D01*
X286065476Y-11340476D01*
X286065476Y-11030952D01*
X286003571Y-10907142D01*
X285941666Y-10845238D01*
X285817857Y-10783333D01*
X285570238Y-10783333D01*
X285446428Y-10845238D01*
X285384523Y-10907142D01*
X285322619Y-11030952D01*
D10*
D11*
X60000000Y-198007200D02*
X60000000Y-200007200D01*
D10*
D11*
X110000000Y-198007200D02*
X110000000Y-200007200D01*
D10*
D11*
X160000000Y-198007200D02*
X160000000Y-200007200D01*
D10*
D11*
X210000000Y-198007200D02*
X210000000Y-200007200D01*
D10*
D11*
X260000000Y-198007200D02*
X260000000Y-200007200D01*
D10*
D11*
X36065476Y-199595295D02*
X35322619Y-199595295D01*
X35694047Y-199595295D02*
X35694047Y-198295295D01*
X35570238Y-198481009D01*
X35446428Y-198604819D01*
X35322619Y-198666723D01*
D10*
D11*
X85322619Y-198419104D02*
X85384523Y-198357200D01*
X85508333Y-198295295D01*
X85817857Y-198295295D01*
X85941666Y-198357200D01*
X86003571Y-198419104D01*
X86065476Y-198542914D01*
X86065476Y-198666723D01*
X86003571Y-198852438D01*
X85260714Y-199595295D01*
X86065476Y-199595295D01*
D10*
D11*
X135260714Y-198295295D02*
X136065476Y-198295295D01*
X135632142Y-198790533D01*
X135817857Y-198790533D01*
X135941666Y-198852438D01*
X136003571Y-198914342D01*
X136065476Y-199038152D01*
X136065476Y-199347676D01*
X136003571Y-199471485D01*
X135941666Y-199533390D01*
X135817857Y-199595295D01*
X135446428Y-199595295D01*
X135322619Y-199533390D01*
X135260714Y-199471485D01*
D10*
D11*
X185941666Y-198728628D02*
X185941666Y-199595295D01*
X185632142Y-198233390D02*
X185322619Y-199161961D01*
X186127380Y-199161961D01*
D10*
D11*
X236003571Y-198295295D02*
X235384523Y-198295295D01*
X235322619Y-198914342D01*
X235384523Y-198852438D01*
X235508333Y-198790533D01*
X235817857Y-198790533D01*
X235941666Y-198852438D01*
X236003571Y-198914342D01*
X236065476Y-199038152D01*
X236065476Y-199347676D01*
X236003571Y-199471485D01*
X235941666Y-199533390D01*
X235817857Y-199595295D01*
X235508333Y-199595295D01*
X235384523Y-199533390D01*
X235322619Y-199471485D01*
D10*
D11*
X285941666Y-198295295D02*
X285694047Y-198295295D01*
X285570238Y-198357200D01*
X285508333Y-198419104D01*
X285384523Y-198604819D01*
X285322619Y-198852438D01*
X285322619Y-199347676D01*
X285384523Y-199471485D01*
X285446428Y-199533390D01*
X285570238Y-199595295D01*
X285817857Y-199595295D01*
X285941666Y-199533390D01*
X286003571Y-199471485D01*
X286065476Y-199347676D01*
X286065476Y-199038152D01*
X286003571Y-198914342D01*
X285941666Y-198852438D01*
X285817857Y-198790533D01*
X285570238Y-198790533D01*
X285446428Y-198852438D01*
X285384523Y-198914342D01*
X285322619Y-199038152D01*
D10*
D11*
X10000000Y-60000000D02*
X12000000Y-60000000D01*
D10*
D11*
X10000000Y-110000000D02*
X12000000Y-110000000D01*
D10*
D11*
X10000000Y-160000000D02*
X12000000Y-160000000D01*
D10*
D11*
X10690476Y-35216666D02*
X11309523Y-35216666D01*
X10566666Y-35588095D02*
X11000000Y-34288095D01*
X11433333Y-35588095D01*
D10*
D11*
X11092857Y-84907142D02*
X11278571Y-84969047D01*
X11340476Y-85030952D01*
X11402380Y-85154761D01*
X11402380Y-85340476D01*
X11340476Y-85464285D01*
X11278571Y-85526190D01*
X11154761Y-85588095D01*
X10659523Y-85588095D01*
X10659523Y-84288095D01*
X11092857Y-84288095D01*
X11216666Y-84350000D01*
X11278571Y-84411904D01*
X11340476Y-84535714D01*
X11340476Y-84659523D01*
X11278571Y-84783333D01*
X11216666Y-84845238D01*
X11092857Y-84907142D01*
X10659523Y-84907142D01*
D10*
D11*
X11402380Y-135464285D02*
X11340476Y-135526190D01*
X11154761Y-135588095D01*
X11030952Y-135588095D01*
X10845238Y-135526190D01*
X10721428Y-135402380D01*
X10659523Y-135278571D01*
X10597619Y-135030952D01*
X10597619Y-134845238D01*
X10659523Y-134597619D01*
X10721428Y-134473809D01*
X10845238Y-134350000D01*
X11030952Y-134288095D01*
X11154761Y-134288095D01*
X11340476Y-134350000D01*
X11402380Y-134411904D01*
D10*
D11*
X10659523Y-185588095D02*
X10659523Y-184288095D01*
X10969047Y-184288095D01*
X11154761Y-184350000D01*
X11278571Y-184473809D01*
X11340476Y-184597619D01*
X11402380Y-184845238D01*
X11402380Y-185030952D01*
X11340476Y-185278571D01*
X11278571Y-185402380D01*
X11154761Y-185526190D01*
X10969047Y-185588095D01*
X10659523Y-185588095D01*
D10*
D11*
X287002200Y-60000000D02*
X285002200Y-60000000D01*
D10*
D11*
X287002200Y-110000000D02*
X285002200Y-110000000D01*
D10*
D11*
X287002200Y-160000000D02*
X285002200Y-160000000D01*
D10*
D11*
X285692676Y-35216666D02*
X286311723Y-35216666D01*
X285568866Y-35588095D02*
X286002200Y-34288095D01*
X286435533Y-35588095D01*
D10*
D11*
X286095057Y-84907142D02*
X286280771Y-84969047D01*
X286342676Y-85030952D01*
X286404580Y-85154761D01*
X286404580Y-85340476D01*
X286342676Y-85464285D01*
X286280771Y-85526190D01*
X286156961Y-85588095D01*
X285661723Y-85588095D01*
X285661723Y-84288095D01*
X286095057Y-84288095D01*
X286218866Y-84350000D01*
X286280771Y-84411904D01*
X286342676Y-84535714D01*
X286342676Y-84659523D01*
X286280771Y-84783333D01*
X286218866Y-84845238D01*
X286095057Y-84907142D01*
X285661723Y-84907142D01*
D10*
D11*
X286404580Y-135464285D02*
X286342676Y-135526190D01*
X286156961Y-135588095D01*
X286033152Y-135588095D01*
X285847438Y-135526190D01*
X285723628Y-135402380D01*
X285661723Y-135278571D01*
X285599819Y-135030952D01*
X285599819Y-134845238D01*
X285661723Y-134597619D01*
X285723628Y-134473809D01*
X285847438Y-134350000D01*
X286033152Y-134288095D01*
X286156961Y-134288095D01*
X286342676Y-134350000D01*
X286404580Y-134411904D01*
D10*
D11*
X285661723Y-185588095D02*
X285661723Y-184288095D01*
X285971247Y-184288095D01*
X286156961Y-184350000D01*
X286280771Y-184473809D01*
X286342676Y-184597619D01*
X286404580Y-184845238D01*
X286404580Y-185030952D01*
X286342676Y-185278571D01*
X286280771Y-185402380D01*
X286156961Y-185526190D01*
X285971247Y-185588095D01*
X285661723Y-185588095D01*
D10*
D11*
X200434342Y-193785771D02*
X200434342Y-192285771D01*
X200791485Y-192285771D01*
X201005771Y-192357200D01*
X201148628Y-192500057D01*
X201220057Y-192642914D01*
X201291485Y-192928628D01*
X201291485Y-193142914D01*
X201220057Y-193428628D01*
X201148628Y-193571485D01*
X201005771Y-193714342D01*
X200791485Y-193785771D01*
X200434342Y-193785771D01*
X202577200Y-193785771D02*
X202577200Y-193000057D01*
X202505771Y-192857200D01*
X202362914Y-192785771D01*
X202077200Y-192785771D01*
X201934342Y-192857200D01*
X202577200Y-193714342D02*
X202434342Y-193785771D01*
X202077200Y-193785771D01*
X201934342Y-193714342D01*
X201862914Y-193571485D01*
X201862914Y-193428628D01*
X201934342Y-193285771D01*
X202077200Y-193214342D01*
X202434342Y-193214342D01*
X202577200Y-193142914D01*
X203077200Y-192785771D02*
X203648628Y-192785771D01*
X203291485Y-192285771D02*
X203291485Y-193571485D01*
X203362914Y-193714342D01*
X203505771Y-193785771D01*
X203648628Y-193785771D01*
X204720057Y-193714342D02*
X204577200Y-193785771D01*
X204291485Y-193785771D01*
X204148628Y-193714342D01*
X204077200Y-193571485D01*
X204077200Y-193000057D01*
X204148628Y-192857200D01*
X204291485Y-192785771D01*
X204577200Y-192785771D01*
X204720057Y-192857200D01*
X204791485Y-193000057D01*
X204791485Y-193142914D01*
X204077200Y-193285771D01*
X205434342Y-193642914D02*
X205505771Y-193714342D01*
X205434342Y-193785771D01*
X205362914Y-193714342D01*
X205434342Y-193642914D01*
X205434342Y-193785771D01*
X205434342Y-192857200D02*
X205505771Y-192928628D01*
X205434342Y-193000057D01*
X205362914Y-192928628D01*
X205434342Y-192857200D01*
X205434342Y-193000057D01*
X207220057Y-192428628D02*
X207291485Y-192357200D01*
X207434342Y-192285771D01*
X207791485Y-192285771D01*
X207934342Y-192357200D01*
X208005771Y-192428628D01*
X208077200Y-192571485D01*
X208077200Y-192714342D01*
X208005771Y-192928628D01*
X207148628Y-193785771D01*
X208077200Y-193785771D01*
X209005771Y-192285771D02*
X209148628Y-192285771D01*
X209291485Y-192357200D01*
X209362914Y-192428628D01*
X209434342Y-192571485D01*
X209505771Y-192857200D01*
X209505771Y-193214342D01*
X209434342Y-193500057D01*
X209362914Y-193642914D01*
X209291485Y-193714342D01*
X209148628Y-193785771D01*
X209005771Y-193785771D01*
X208862914Y-193714342D01*
X208791485Y-193642914D01*
X208720057Y-193500057D01*
X208648628Y-193214342D01*
X208648628Y-192857200D01*
X208720057Y-192571485D01*
X208791485Y-192428628D01*
X208862914Y-192357200D01*
X209005771Y-192285771D01*
X210077200Y-192428628D02*
X210148628Y-192357200D01*
X210291485Y-192285771D01*
X210648628Y-192285771D01*
X210791485Y-192357200D01*
X210862914Y-192428628D01*
X210934342Y-192571485D01*
X210934342Y-192714342D01*
X210862914Y-192928628D01*
X210005771Y-193785771D01*
X210934342Y-193785771D01*
X212362914Y-193785771D02*
X211505771Y-193785771D01*
X211934342Y-193785771D02*
X211934342Y-192285771D01*
X211791485Y-192500057D01*
X211648628Y-192642914D01*
X211505771Y-192714342D01*
X213005771Y-193214342D02*
X214148628Y-193214342D01*
X215648628Y-193785771D02*
X214791485Y-193785771D01*
X215220057Y-193785771D02*
X215220057Y-192285771D01*
X215077200Y-192500057D01*
X214934342Y-192642914D01*
X214791485Y-192714342D01*
X216577200Y-192285771D02*
X216720057Y-192285771D01*
X216862914Y-192357200D01*
X216934342Y-192428628D01*
X217005771Y-192571485D01*
X217077200Y-192857200D01*
X217077200Y-193214342D01*
X217005771Y-193500057D01*
X216934342Y-193642914D01*
X216862914Y-193714342D01*
X216720057Y-193785771D01*
X216577200Y-193785771D01*
X216434342Y-193714342D01*
X216362914Y-193642914D01*
X216291485Y-193500057D01*
X216220057Y-193214342D01*
X216220057Y-192857200D01*
X216291485Y-192571485D01*
X216362914Y-192428628D01*
X216434342Y-192357200D01*
X216577200Y-192285771D01*
X217720057Y-193214342D02*
X218862914Y-193214342D01*
X220362914Y-193785771D02*
X219505771Y-193785771D01*
X219934342Y-193785771D02*
X219934342Y-192285771D01*
X219791485Y-192500057D01*
X219648628Y-192642914D01*
X219505771Y-192714342D01*
X220862914Y-192285771D02*
X221791485Y-192285771D01*
X221291485Y-192857200D01*
X221505771Y-192857200D01*
X221648628Y-192928628D01*
X221720057Y-193000057D01*
X221791485Y-193142914D01*
X221791485Y-193500057D01*
X221720057Y-193642914D01*
X221648628Y-193714342D01*
X221505771Y-193785771D01*
X221077200Y-193785771D01*
X220934342Y-193714342D01*
X220862914Y-193642914D01*
D10*
D11*
X177002200Y-194507200D02*
X285002200Y-194507200D01*
D10*
D11*
X178434342Y-196585771D02*
X178434342Y-195085771D01*
X179291485Y-196585771D02*
X178648628Y-195728628D01*
X179291485Y-195085771D02*
X178434342Y-195942914D01*
X179934342Y-196585771D02*
X179934342Y-195585771D01*
X179934342Y-195085771D02*
X179862914Y-195157200D01*
X179934342Y-195228628D01*
X180005771Y-195157200D01*
X179934342Y-195085771D01*
X179934342Y-195228628D01*
X181505771Y-196442914D02*
X181434342Y-196514342D01*
X181220057Y-196585771D01*
X181077200Y-196585771D01*
X180862914Y-196514342D01*
X180720057Y-196371485D01*
X180648628Y-196228628D01*
X180577200Y-195942914D01*
X180577200Y-195728628D01*
X180648628Y-195442914D01*
X180720057Y-195300057D01*
X180862914Y-195157200D01*
X181077200Y-195085771D01*
X181220057Y-195085771D01*
X181434342Y-195157200D01*
X181505771Y-195228628D01*
X182791485Y-196585771D02*
X182791485Y-195800057D01*
X182720057Y-195657200D01*
X182577200Y-195585771D01*
X182291485Y-195585771D01*
X182148628Y-195657200D01*
X182791485Y-196514342D02*
X182648628Y-196585771D01*
X182291485Y-196585771D01*
X182148628Y-196514342D01*
X182077200Y-196371485D01*
X182077200Y-196228628D01*
X182148628Y-196085771D01*
X182291485Y-196014342D01*
X182648628Y-196014342D01*
X182791485Y-195942914D01*
X184148628Y-196585771D02*
X184148628Y-195085771D01*
X184148628Y-196514342D02*
X184005771Y-196585771D01*
X183720057Y-196585771D01*
X183577200Y-196514342D01*
X183505771Y-196442914D01*
X183434342Y-196300057D01*
X183434342Y-195871485D01*
X183505771Y-195728628D01*
X183577200Y-195657200D01*
X183720057Y-195585771D01*
X184005771Y-195585771D01*
X184148628Y-195657200D01*
X186005771Y-195800057D02*
X186505771Y-195800057D01*
X186720057Y-196585771D02*
X186005771Y-196585771D01*
X186005771Y-195085771D01*
X186720057Y-195085771D01*
X187362914Y-196442914D02*
X187434342Y-196514342D01*
X187362914Y-196585771D01*
X187291485Y-196514342D01*
X187362914Y-196442914D01*
X187362914Y-196585771D01*
X188077200Y-196585771D02*
X188077200Y-195085771D01*
X188434342Y-195085771D01*
X188648628Y-195157200D01*
X188791485Y-195300057D01*
X188862914Y-195442914D01*
X188934342Y-195728628D01*
X188934342Y-195942914D01*
X188862914Y-196228628D01*
X188791485Y-196371485D01*
X188648628Y-196514342D01*
X188434342Y-196585771D01*
X188077200Y-196585771D01*
X189577200Y-196442914D02*
X189648628Y-196514342D01*
X189577200Y-196585771D01*
X189505771Y-196514342D01*
X189577200Y-196442914D01*
X189577200Y-196585771D01*
X190220057Y-196157200D02*
X190934342Y-196157200D01*
X190077200Y-196585771D02*
X190577200Y-195085771D01*
X191077200Y-196585771D01*
X191577200Y-196442914D02*
X191648628Y-196514342D01*
X191577200Y-196585771D01*
X191505771Y-196514342D01*
X191577200Y-196442914D01*
X191577200Y-196585771D01*
X194577200Y-196585771D02*
X194577200Y-195085771D01*
X194720057Y-196014342D02*
X195148628Y-196585771D01*
X195148628Y-195585771D02*
X194577200Y-196157200D01*
X195791485Y-196585771D02*
X195791485Y-195585771D01*
X195791485Y-195085771D02*
X195720057Y-195157200D01*
X195791485Y-195228628D01*
X195862914Y-195157200D01*
X195791485Y-195085771D01*
X195791485Y-195228628D01*
X197148628Y-196514342D02*
X197005771Y-196585771D01*
X196720057Y-196585771D01*
X196577200Y-196514342D01*
X196505771Y-196442914D01*
X196434342Y-196300057D01*
X196434342Y-195871485D01*
X196505771Y-195728628D01*
X196577200Y-195657200D01*
X196720057Y-195585771D01*
X197005771Y-195585771D01*
X197148628Y-195657200D01*
X198434342Y-196585771D02*
X198434342Y-195800057D01*
X198362914Y-195657200D01*
X198220057Y-195585771D01*
X197934342Y-195585771D01*
X197791485Y-195657200D01*
X198434342Y-196514342D02*
X198291485Y-196585771D01*
X197934342Y-196585771D01*
X197791485Y-196514342D01*
X197720057Y-196371485D01*
X197720057Y-196228628D01*
X197791485Y-196085771D01*
X197934342Y-196014342D01*
X198291485Y-196014342D01*
X198434342Y-195942914D01*
X199791485Y-196585771D02*
X199791485Y-195085771D01*
X199791485Y-196514342D02*
X199648628Y-196585771D01*
X199362914Y-196585771D01*
X199220057Y-196514342D01*
X199148628Y-196442914D01*
X199077200Y-196300057D01*
X199077200Y-195871485D01*
X199148628Y-195728628D01*
X199220057Y-195657200D01*
X199362914Y-195585771D01*
X199648628Y-195585771D01*
X199791485Y-195657200D01*
X202362914Y-195085771D02*
X201648628Y-195085771D01*
X201577200Y-195800057D01*
X201648628Y-195728628D01*
X201791485Y-195657200D01*
X202148628Y-195657200D01*
X202291485Y-195728628D01*
X202362914Y-195800057D01*
X202434342Y-195942914D01*
X202434342Y-196300057D01*
X202362914Y-196442914D01*
X202291485Y-196514342D01*
X202148628Y-196585771D01*
X201791485Y-196585771D01*
X201648628Y-196514342D01*
X201577200Y-196442914D01*
X203077200Y-196442914D02*
X203148628Y-196514342D01*
X203077200Y-196585771D01*
X203005771Y-196514342D01*
X203077200Y-196442914D01*
X203077200Y-196585771D01*
X204577200Y-196585771D02*
X203720057Y-196585771D01*
X204148628Y-196585771D02*
X204148628Y-195085771D01*
X204005771Y-195300057D01*
X203862914Y-195442914D01*
X203720057Y-195514342D01*
X205220057Y-196442914D02*
X205291485Y-196514342D01*
X205220057Y-196585771D01*
X205148628Y-196514342D01*
X205220057Y-196442914D01*
X205220057Y-196585771D01*
X206720057Y-196585771D02*
X205862914Y-196585771D01*
X206291485Y-196585771D02*
X206291485Y-195085771D01*
X206148628Y-195300057D01*
X206005771Y-195442914D01*
X205862914Y-195514342D01*
X207648628Y-195085771D02*
X207791485Y-195085771D01*
X207934342Y-195157200D01*
X208005771Y-195228628D01*
X208077200Y-195371485D01*
X208148628Y-195657200D01*
X208148628Y-196014342D01*
X208077200Y-196300057D01*
X208005771Y-196442914D01*
X207934342Y-196514342D01*
X207791485Y-196585771D01*
X207648628Y-196585771D01*
X207505771Y-196514342D01*
X207434342Y-196442914D01*
X207362914Y-196300057D01*
X207291485Y-196014342D01*
X207291485Y-195657200D01*
X207362914Y-195371485D01*
X207434342Y-195228628D01*
X207505771Y-195157200D01*
X207648628Y-195085771D01*
X208791485Y-196014342D02*
X209934342Y-196014342D01*
X210862914Y-195728628D02*
X210720057Y-195657200D01*
X210648628Y-195585771D01*
X210577200Y-195442914D01*
X210577200Y-195371485D01*
X210648628Y-195228628D01*
X210720057Y-195157200D01*
X210862914Y-195085771D01*
X211148628Y-195085771D01*
X211291485Y-195157200D01*
X211362914Y-195228628D01*
X211434342Y-195371485D01*
X211434342Y-195442914D01*
X211362914Y-195585771D01*
X211291485Y-195657200D01*
X211148628Y-195728628D01*
X210862914Y-195728628D01*
X210720057Y-195800057D01*
X210648628Y-195871485D01*
X210577200Y-196014342D01*
X210577200Y-196300057D01*
X210648628Y-196442914D01*
X210720057Y-196514342D01*
X210862914Y-196585771D01*
X211148628Y-196585771D01*
X211291485Y-196514342D01*
X211362914Y-196442914D01*
X211434342Y-196300057D01*
X211434342Y-196014342D01*
X211362914Y-195871485D01*
X211291485Y-195800057D01*
X211148628Y-195728628D01*
X212291485Y-195728628D02*
X212148628Y-195657200D01*
X212077200Y-195585771D01*
X212005771Y-195442914D01*
X212005771Y-195371485D01*
X212077200Y-195228628D01*
X212148628Y-195157200D01*
X212291485Y-195085771D01*
X212577200Y-195085771D01*
X212720057Y-195157200D01*
X212791485Y-195228628D01*
X212862914Y-195371485D01*
X212862914Y-195442914D01*
X212791485Y-195585771D01*
X212720057Y-195657200D01*
X212577200Y-195728628D01*
X212291485Y-195728628D01*
X212148628Y-195800057D01*
X212077200Y-195871485D01*
X212005771Y-196014342D01*
X212005771Y-196300057D01*
X212077200Y-196442914D01*
X212148628Y-196514342D01*
X212291485Y-196585771D01*
X212577200Y-196585771D01*
X212720057Y-196514342D01*
X212791485Y-196442914D01*
X212862914Y-196300057D01*
X212862914Y-196014342D01*
X212791485Y-195871485D01*
X212720057Y-195800057D01*
X212577200Y-195728628D01*
X214148628Y-196585771D02*
X214148628Y-195800057D01*
X214077200Y-195657200D01*
X213934342Y-195585771D01*
X213648628Y-195585771D01*
X213505771Y-195657200D01*
X214148628Y-196514342D02*
X214005771Y-196585771D01*
X213648628Y-196585771D01*
X213505771Y-196514342D01*
X213434342Y-196371485D01*
X213434342Y-196228628D01*
X213505771Y-196085771D01*
X213648628Y-196014342D01*
X214005771Y-196014342D01*
X214148628Y-195942914D01*
X215648628Y-196585771D02*
X214791485Y-196585771D01*
X215220057Y-196585771D02*
X215220057Y-195085771D01*
X215077200Y-195300057D01*
X214934342Y-195442914D01*
X214791485Y-195514342D01*
X216934342Y-196585771D02*
X216934342Y-195085771D01*
X216934342Y-196514342D02*
X216791485Y-196585771D01*
X216505771Y-196585771D01*
X216362914Y-196514342D01*
X216291485Y-196442914D01*
X216220057Y-196300057D01*
X216220057Y-195871485D01*
X216291485Y-195728628D01*
X216362914Y-195657200D01*
X216505771Y-195585771D01*
X216791485Y-195585771D01*
X216934342Y-195657200D01*
X218291485Y-195085771D02*
X218005771Y-195085771D01*
X217862914Y-195157200D01*
X217791485Y-195228628D01*
X217648628Y-195442914D01*
X217577200Y-195728628D01*
X217577200Y-196300057D01*
X217648628Y-196442914D01*
X217720057Y-196514342D01*
X217862914Y-196585771D01*
X218148628Y-196585771D01*
X218291485Y-196514342D01*
X218362914Y-196442914D01*
X218434342Y-196300057D01*
X218434342Y-195942914D01*
X218362914Y-195800057D01*
X218291485Y-195728628D01*
X218148628Y-195657200D01*
X217862914Y-195657200D01*
X217720057Y-195728628D01*
X217648628Y-195800057D01*
X217577200Y-195942914D01*
X219862914Y-196585771D02*
X219005771Y-196585771D01*
X219434342Y-196585771D02*
X219434342Y-195085771D01*
X219291485Y-195300057D01*
X219148628Y-195442914D01*
X219005771Y-195514342D01*
X221148628Y-196585771D02*
X221148628Y-195085771D01*
X221148628Y-196514342D02*
X221005771Y-196585771D01*
X220720057Y-196585771D01*
X220577200Y-196514342D01*
X220505771Y-196442914D01*
X220434342Y-196300057D01*
X220434342Y-195871485D01*
X220505771Y-195728628D01*
X220577200Y-195657200D01*
X220720057Y-195585771D01*
X221005771Y-195585771D01*
X221148628Y-195657200D01*
X222577200Y-195085771D02*
X221862914Y-195085771D01*
X221791485Y-195800057D01*
X221862914Y-195728628D01*
X222005771Y-195657200D01*
X222362914Y-195657200D01*
X222505771Y-195728628D01*
X222577200Y-195800057D01*
X222648628Y-195942914D01*
X222648628Y-196300057D01*
X222577200Y-196442914D01*
X222505771Y-196514342D01*
X222362914Y-196585771D01*
X222005771Y-196585771D01*
X221862914Y-196514342D01*
X221791485Y-196442914D01*
X223505771Y-195728628D02*
X223362914Y-195657200D01*
X223291485Y-195585771D01*
X223220057Y-195442914D01*
X223220057Y-195371485D01*
X223291485Y-195228628D01*
X223362914Y-195157200D01*
X223505771Y-195085771D01*
X223791485Y-195085771D01*
X223934342Y-195157200D01*
X224005771Y-195228628D01*
X224077200Y-195371485D01*
X224077200Y-195442914D01*
X224005771Y-195585771D01*
X223934342Y-195657200D01*
X223791485Y-195728628D01*
X223505771Y-195728628D01*
X223362914Y-195800057D01*
X223291485Y-195871485D01*
X223220057Y-196014342D01*
X223220057Y-196300057D01*
X223291485Y-196442914D01*
X223362914Y-196514342D01*
X223505771Y-196585771D01*
X223791485Y-196585771D01*
X223934342Y-196514342D01*
X224005771Y-196442914D01*
X224077200Y-196300057D01*
X224077200Y-196014342D01*
X224005771Y-195871485D01*
X223934342Y-195800057D01*
X223791485Y-195728628D01*
X224362914Y-194677200D02*
X225791485Y-194677200D01*
X224791485Y-196585771D02*
X225077200Y-196585771D01*
X225220057Y-196514342D01*
X225291485Y-196442914D01*
X225434342Y-196228628D01*
X225505771Y-195942914D01*
X225505771Y-195371485D01*
X225434342Y-195228628D01*
X225362914Y-195157200D01*
X225220057Y-195085771D01*
X224934342Y-195085771D01*
X224791485Y-195157200D01*
X224720057Y-195228628D01*
X224648628Y-195371485D01*
X224648628Y-195728628D01*
X224720057Y-195871485D01*
X224791485Y-195942914D01*
X224934342Y-196014342D01*
X225220057Y-196014342D01*
X225362914Y-195942914D01*
X225434342Y-195871485D01*
X225505771Y-195728628D01*
X225791485Y-194677200D02*
X227220057Y-194677200D01*
X226434342Y-195085771D02*
X226577199Y-195085771D01*
X226720057Y-195157200D01*
X226791485Y-195228628D01*
X226862914Y-195371485D01*
X226934342Y-195657200D01*
X226934342Y-196014342D01*
X226862914Y-196300057D01*
X226791485Y-196442914D01*
X226720057Y-196514342D01*
X226577199Y-196585771D01*
X226434342Y-196585771D01*
X226291485Y-196514342D01*
X226220057Y-196442914D01*
X226148628Y-196300057D01*
X226077199Y-196014342D01*
X226077199Y-195657200D01*
X226148628Y-195371485D01*
X226220057Y-195228628D01*
X226291485Y-195157200D01*
X226434342Y-195085771D01*
X228220057Y-195585771D02*
X228220057Y-196585771D01*
X227577199Y-195585771D02*
X227577199Y-196371485D01*
X227648628Y-196514342D01*
X227791485Y-196585771D01*
X228005771Y-196585771D01*
X228148628Y-196514342D01*
X228220057Y-196442914D01*
X228934342Y-196585771D02*
X228934342Y-195085771D01*
X228934342Y-195657200D02*
X229077199Y-195585771D01*
X229362914Y-195585771D01*
X229505771Y-195657200D01*
X229577199Y-195728628D01*
X229648628Y-195871485D01*
X229648628Y-196300057D01*
X229577199Y-196442914D01*
X229505771Y-196514342D01*
X229362914Y-196585771D01*
X229077199Y-196585771D01*
X228934342Y-196514342D01*
X230934342Y-195585771D02*
X230934342Y-196585771D01*
X230291485Y-195585771D02*
X230291485Y-196371485D01*
X230362914Y-196514342D01*
X230505771Y-196585771D01*
X230720057Y-196585771D01*
X230862914Y-196514342D01*
X230934342Y-196442914D01*
X231648628Y-195585771D02*
X231648628Y-196585771D01*
X231648628Y-195728628D02*
X231720057Y-195657200D01*
X231862914Y-195585771D01*
X232077199Y-195585771D01*
X232220057Y-195657200D01*
X232291485Y-195800057D01*
X232291485Y-196585771D01*
X232791485Y-195585771D02*
X233362914Y-195585771D01*
X233005771Y-195085771D02*
X233005771Y-196371485D01*
X233077199Y-196514342D01*
X233220057Y-196585771D01*
X233362914Y-196585771D01*
X234505771Y-195585771D02*
X234505771Y-196585771D01*
X233862914Y-195585771D02*
X233862914Y-196371485D01*
X233934342Y-196514342D01*
X234077200Y-196585771D01*
X234291485Y-196585771D01*
X234434342Y-196514342D01*
X234505771Y-196442914D01*
X235148628Y-195228628D02*
X235220057Y-195157200D01*
X235362914Y-195085771D01*
X235720057Y-195085771D01*
X235862914Y-195157200D01*
X235934342Y-195228628D01*
X236005771Y-195371485D01*
X236005771Y-195514342D01*
X235934342Y-195728628D01*
X235077200Y-196585771D01*
X236005771Y-196585771D01*
X236934342Y-195085771D02*
X237077199Y-195085771D01*
X237220057Y-195157200D01*
X237291485Y-195228628D01*
X237362914Y-195371485D01*
X237434342Y-195657200D01*
X237434342Y-196014342D01*
X237362914Y-196300057D01*
X237291485Y-196442914D01*
X237220057Y-196514342D01*
X237077199Y-196585771D01*
X236934342Y-196585771D01*
X236791485Y-196514342D01*
X236720057Y-196442914D01*
X236648628Y-196300057D01*
X236577199Y-196014342D01*
X236577199Y-195657200D01*
X236648628Y-195371485D01*
X236720057Y-195228628D01*
X236791485Y-195157200D01*
X236934342Y-195085771D01*
X238077199Y-196442914D02*
X238148628Y-196514342D01*
X238077199Y-196585771D01*
X238005771Y-196514342D01*
X238077199Y-196442914D01*
X238077199Y-196585771D01*
X239077199Y-195085771D02*
X239220057Y-195085771D01*
X239362914Y-195157200D01*
X239434342Y-195228628D01*
X239505771Y-195371485D01*
X239577199Y-195657200D01*
X239577199Y-196014342D01*
X239505771Y-196300057D01*
X239434342Y-196442914D01*
X239362914Y-196514342D01*
X239220057Y-196585771D01*
X239077199Y-196585771D01*
X238934342Y-196514342D01*
X238862914Y-196442914D01*
X238791485Y-196300057D01*
X238720057Y-196014342D01*
X238720057Y-195657200D01*
X238791485Y-195371485D01*
X238862914Y-195228628D01*
X238934342Y-195157200D01*
X239077199Y-195085771D01*
X240862914Y-195585771D02*
X240862914Y-196585771D01*
X240505771Y-195014342D02*
X240148628Y-196085771D01*
X241077199Y-196085771D01*
X241648628Y-196442914D02*
X241720057Y-196514342D01*
X241648628Y-196585771D01*
X241577199Y-196514342D01*
X241648628Y-196442914D01*
X241648628Y-196585771D01*
X243148628Y-196585771D02*
X242291485Y-196585771D01*
X242720057Y-196585771D02*
X242720057Y-195085771D01*
X242577199Y-195300057D01*
X242434342Y-195442914D01*
X242291485Y-195514342D01*
D10*
D11*
X177002200Y-191507200D02*
X285002200Y-191507200D01*
D10*
D12*
X264411485Y-193785771D02*
X263911485Y-193071485D01*
X263554342Y-193785771D02*
X263554342Y-192285771D01*
X264125771Y-192285771D01*
X264268628Y-192357200D01*
X264340057Y-192428628D01*
X264411485Y-192571485D01*
X264411485Y-192785771D01*
X264340057Y-192928628D01*
X264268628Y-193000057D01*
X264125771Y-193071485D01*
X263554342Y-193071485D01*
X265625771Y-193714342D02*
X265482914Y-193785771D01*
X265197200Y-193785771D01*
X265054342Y-193714342D01*
X264982914Y-193571485D01*
X264982914Y-193000057D01*
X265054342Y-192857200D01*
X265197200Y-192785771D01*
X265482914Y-192785771D01*
X265625771Y-192857200D01*
X265697200Y-193000057D01*
X265697200Y-193142914D01*
X264982914Y-193285771D01*
X266197200Y-192785771D02*
X266554342Y-193785771D01*
X266911485Y-192785771D01*
X267482914Y-193642914D02*
X267554342Y-193714342D01*
X267482914Y-193785771D01*
X267411485Y-193714342D01*
X267482914Y-193642914D01*
X267482914Y-193785771D01*
X267482914Y-192857200D02*
X267554342Y-192928628D01*
X267482914Y-193000057D01*
X267411485Y-192928628D01*
X267482914Y-192857200D01*
X267482914Y-193000057D01*
X270125771Y-193785771D02*
X269268628Y-193785771D01*
X269697200Y-193785771D02*
X269697200Y-192285771D01*
X269554342Y-192500057D01*
X269411485Y-192642914D01*
X269268628Y-192714342D01*
D10*
D11*
X178362914Y-193714342D02*
X178577200Y-193785771D01*
X178934342Y-193785771D01*
X179077200Y-193714342D01*
X179148628Y-193642914D01*
X179220057Y-193500057D01*
X179220057Y-193357200D01*
X179148628Y-193214342D01*
X179077200Y-193142914D01*
X178934342Y-193071485D01*
X178648628Y-193000057D01*
X178505771Y-192928628D01*
X178434342Y-192857200D01*
X178362914Y-192714342D01*
X178362914Y-192571485D01*
X178434342Y-192428628D01*
X178505771Y-192357200D01*
X178648628Y-192285771D01*
X179005771Y-192285771D01*
X179220057Y-192357200D01*
X179862914Y-193785771D02*
X179862914Y-192785771D01*
X179862914Y-192285771D02*
X179791485Y-192357200D01*
X179862914Y-192428628D01*
X179934342Y-192357200D01*
X179862914Y-192285771D01*
X179862914Y-192428628D01*
X180434342Y-192785771D02*
X181220057Y-192785771D01*
X180434342Y-193785771D01*
X181220057Y-193785771D01*
X182362914Y-193714342D02*
X182220057Y-193785771D01*
X181934342Y-193785771D01*
X181791485Y-193714342D01*
X181720057Y-193571485D01*
X181720057Y-193000057D01*
X181791485Y-192857200D01*
X181934342Y-192785771D01*
X182220057Y-192785771D01*
X182362914Y-192857200D01*
X182434342Y-193000057D01*
X182434342Y-193142914D01*
X181720057Y-193285771D01*
X183077200Y-193642914D02*
X183148628Y-193714342D01*
X183077200Y-193785771D01*
X183005771Y-193714342D01*
X183077200Y-193642914D01*
X183077200Y-193785771D01*
X183077200Y-192857200D02*
X183148628Y-192928628D01*
X183077200Y-193000057D01*
X183005771Y-192928628D01*
X183077200Y-192857200D01*
X183077200Y-193000057D01*
X184862914Y-193357200D02*
X185577200Y-193357200D01*
X184720057Y-193785771D02*
X185220057Y-192285771D01*
X185720057Y-193785771D01*
X186862914Y-192785771D02*
X186862914Y-193785771D01*
X186505771Y-192214342D02*
X186148628Y-193285771D01*
X187077200Y-193285771D01*
D10*
D11*
X263434342Y-196585771D02*
X263434342Y-195085771D01*
X264791485Y-196585771D02*
X264791485Y-195085771D01*
X264791485Y-196514342D02*
X264648628Y-196585771D01*
X264362914Y-196585771D01*
X264220057Y-196514342D01*
X264148628Y-196442914D01*
X264077200Y-196300057D01*
X264077200Y-195871485D01*
X264148628Y-195728628D01*
X264220057Y-195657200D01*
X264362914Y-195585771D01*
X264648628Y-195585771D01*
X264791485Y-195657200D01*
X265505771Y-196442914D02*
X265577200Y-196514342D01*
X265505771Y-196585771D01*
X265434342Y-196514342D01*
X265505771Y-196442914D01*
X265505771Y-196585771D01*
X265505771Y-195657200D02*
X265577200Y-195728628D01*
X265505771Y-195800057D01*
X265434342Y-195728628D01*
X265505771Y-195657200D01*
X265505771Y-195800057D01*
X268148628Y-196585771D02*
X267291485Y-196585771D01*
X267720057Y-196585771D02*
X267720057Y-195085771D01*
X267577200Y-195300057D01*
X267434342Y-195442914D01*
X267291485Y-195514342D01*
X269862914Y-195014342D02*
X268577200Y-196942914D01*
X271148628Y-196585771D02*
X270291485Y-196585771D01*
X270720057Y-196585771D02*
X270720057Y-195085771D01*
X270577200Y-195300057D01*
X270434342Y-195442914D01*
X270291485Y-195514342D01*
D10*
D11*
X177002200Y-187507200D02*
X285002200Y-187507200D01*
D10*
D13*
X178714580Y-188211961D02*
X179857438Y-188211961D01*
X179036009Y-190211961D02*
X179286009Y-188211961D01*
X180274104Y-190211961D02*
X180440771Y-188878628D01*
X180524104Y-188211961D02*
X180416961Y-188307200D01*
X180500295Y-188402438D01*
X180607438Y-188307200D01*
X180524104Y-188211961D01*
X180500295Y-188402438D01*
X181107438Y-188878628D02*
X181869342Y-188878628D01*
X181476485Y-188211961D02*
X181262200Y-189926247D01*
X181333628Y-190116723D01*
X181512200Y-190211961D01*
X181702676Y-190211961D01*
X182655057Y-190211961D02*
X182476485Y-190116723D01*
X182405057Y-189926247D01*
X182619342Y-188211961D01*
X184190771Y-190116723D02*
X183988390Y-190211961D01*
X183607438Y-190211961D01*
X183428866Y-190116723D01*
X183357438Y-189926247D01*
X183452676Y-189164342D01*
X183571723Y-188973866D01*
X183774104Y-188878628D01*
X184155057Y-188878628D01*
X184333628Y-188973866D01*
X184405057Y-189164342D01*
X184381247Y-189354819D01*
X183405057Y-189545295D01*
X185155057Y-190021485D02*
X185238390Y-190116723D01*
X185131247Y-190211961D01*
X185047914Y-190116723D01*
X185155057Y-190021485D01*
X185131247Y-190211961D01*
X185286009Y-188973866D02*
X185369342Y-189069104D01*
X185262200Y-189164342D01*
X185178866Y-189069104D01*
X185286009Y-188973866D01*
X185262200Y-189164342D01*
X187583628Y-189640533D02*
X188536009Y-189640533D01*
X187321723Y-190211961D02*
X188238390Y-188211961D01*
X188655057Y-190211961D01*
X189321723Y-190211961D02*
X189488390Y-188878628D01*
X189440771Y-189259580D02*
X189559819Y-189069104D01*
X189666961Y-188973866D01*
X189869342Y-188878628D01*
X190059819Y-188878628D01*
X191416961Y-190211961D02*
X191666961Y-188211961D01*
X191428866Y-190116723D02*
X191226485Y-190211961D01*
X190845533Y-190211961D01*
X190666961Y-190116723D01*
X190583628Y-190021485D01*
X190512200Y-189831009D01*
X190583628Y-189259580D01*
X190702676Y-189069104D01*
X190809819Y-188973866D01*
X191012200Y-188878628D01*
X191393152Y-188878628D01*
X191571723Y-188973866D01*
X193393152Y-188878628D02*
X193226485Y-190211961D01*
X192536009Y-188878628D02*
X192405057Y-189926247D01*
X192476485Y-190116723D01*
X192655057Y-190211961D01*
X192940771Y-190211961D01*
X193143152Y-190116723D01*
X193250295Y-190021485D01*
X194178866Y-190211961D02*
X194345533Y-188878628D01*
X194428866Y-188211961D02*
X194321723Y-188307200D01*
X194405057Y-188402438D01*
X194512200Y-188307200D01*
X194428866Y-188211961D01*
X194405057Y-188402438D01*
X195297914Y-188878628D02*
X195131247Y-190211961D01*
X195274104Y-189069104D02*
X195381247Y-188973866D01*
X195583628Y-188878628D01*
X195869342Y-188878628D01*
X196047914Y-188973866D01*
X196119342Y-189164342D01*
X195988390Y-190211961D01*
X197226485Y-190211961D02*
X197047914Y-190116723D01*
X196964580Y-190021485D01*
X196893152Y-189831009D01*
X196964580Y-189259580D01*
X197083628Y-189069104D01*
X197190771Y-188973866D01*
X197393152Y-188878628D01*
X197678866Y-188878628D01*
X197857438Y-188973866D01*
X197940771Y-189069104D01*
X198012200Y-189259580D01*
X197940771Y-189831009D01*
X197821723Y-190021485D01*
X197714580Y-190116723D01*
X197512200Y-190211961D01*
X197226485Y-190211961D01*
X200274104Y-190211961D02*
X200524104Y-188211961D01*
X201416961Y-190211961D01*
X201666961Y-188211961D01*
X203226485Y-190211961D02*
X203357438Y-189164342D01*
X203286009Y-188973866D01*
X203107438Y-188878628D01*
X202726485Y-188878628D01*
X202524104Y-188973866D01*
X203238390Y-190116723D02*
X203036009Y-190211961D01*
X202559819Y-190211961D01*
X202381247Y-190116723D01*
X202309819Y-189926247D01*
X202333628Y-189735771D01*
X202452676Y-189545295D01*
X202655057Y-189450057D01*
X203131247Y-189450057D01*
X203333628Y-189354819D01*
X204345533Y-188878628D02*
X204178866Y-190211961D01*
X204321723Y-189069104D02*
X204428866Y-188973866D01*
X204631247Y-188878628D01*
X204916961Y-188878628D01*
X205095533Y-188973866D01*
X205166961Y-189164342D01*
X205036009Y-190211961D01*
X206274104Y-190211961D02*
X206095533Y-190116723D01*
X206012200Y-190021485D01*
X205940771Y-189831009D01*
X206012200Y-189259580D01*
X206131247Y-189069104D01*
X206238390Y-188973866D01*
X206440771Y-188878628D01*
X206726485Y-188878628D01*
X206905057Y-188973866D01*
X206988390Y-189069104D01*
X207059819Y-189259580D01*
X206988390Y-189831009D01*
X206869342Y-190021485D01*
X206762200Y-190116723D01*
X206559819Y-190211961D01*
X206274104Y-190211961D01*
D10*
D11*
X178934342Y-185600057D02*
X178434342Y-185600057D01*
X178434342Y-186385771D02*
X178434342Y-184885771D01*
X179148628Y-184885771D01*
X179720057Y-186385771D02*
X179720057Y-185385771D01*
X179720057Y-184885771D02*
X179648628Y-184957200D01*
X179720057Y-185028628D01*
X179791485Y-184957200D01*
X179720057Y-184885771D01*
X179720057Y-185028628D01*
X180648628Y-186385771D02*
X180505771Y-186314342D01*
X180434342Y-186171485D01*
X180434342Y-184885771D01*
X181791485Y-186314342D02*
X181648628Y-186385771D01*
X181362914Y-186385771D01*
X181220057Y-186314342D01*
X181148628Y-186171485D01*
X181148628Y-185600057D01*
X181220057Y-185457200D01*
X181362914Y-185385771D01*
X181648628Y-185385771D01*
X181791485Y-185457200D01*
X181862914Y-185600057D01*
X181862914Y-185742914D01*
X181148628Y-185885771D01*
X182505771Y-186242914D02*
X182577200Y-186314342D01*
X182505771Y-186385771D01*
X182434342Y-186314342D01*
X182505771Y-186242914D01*
X182505771Y-186385771D01*
X182505771Y-185457200D02*
X182577200Y-185528628D01*
X182505771Y-185600057D01*
X182434342Y-185528628D01*
X182505771Y-185457200D01*
X182505771Y-185600057D01*
X184291485Y-185957200D02*
X185005771Y-185957200D01*
X184148628Y-186385771D02*
X184648628Y-184885771D01*
X185148628Y-186385771D01*
X185648628Y-186385771D02*
X185648628Y-185385771D01*
X185648628Y-185671485D02*
X185720057Y-185528628D01*
X185791485Y-185457200D01*
X185934342Y-185385771D01*
X186077200Y-185385771D01*
X187220057Y-186385771D02*
X187220057Y-184885771D01*
X187220057Y-186314342D02*
X187077200Y-186385771D01*
X186791485Y-186385771D01*
X186648628Y-186314342D01*
X186577200Y-186242914D01*
X186505771Y-186100057D01*
X186505771Y-185671485D01*
X186577200Y-185528628D01*
X186648628Y-185457200D01*
X186791485Y-185385771D01*
X187077200Y-185385771D01*
X187220057Y-185457200D01*
X188577200Y-185385771D02*
X188577200Y-186385771D01*
X187934342Y-185385771D02*
X187934342Y-186171485D01*
X188005771Y-186314342D01*
X188148628Y-186385771D01*
X188362914Y-186385771D01*
X188505771Y-186314342D01*
X188577200Y-186242914D01*
X189291485Y-186385771D02*
X189291485Y-185385771D01*
X189291485Y-184885771D02*
X189220057Y-184957200D01*
X189291485Y-185028628D01*
X189362914Y-184957200D01*
X189291485Y-184885771D01*
X189291485Y-185028628D01*
X190005771Y-185385771D02*
X190005771Y-186385771D01*
X190005771Y-185528628D02*
X190077200Y-185457200D01*
X190220057Y-185385771D01*
X190434342Y-185385771D01*
X190577200Y-185457200D01*
X190648628Y-185600057D01*
X190648628Y-186385771D01*
X191577200Y-186385771D02*
X191434342Y-186314342D01*
X191362914Y-186242914D01*
X191291485Y-186100057D01*
X191291485Y-185671485D01*
X191362914Y-185528628D01*
X191434342Y-185457200D01*
X191577200Y-185385771D01*
X191791485Y-185385771D01*
X191934342Y-185457200D01*
X192005771Y-185528628D01*
X192077200Y-185671485D01*
X192077200Y-186100057D01*
X192005771Y-186242914D01*
X191934342Y-186314342D01*
X191791485Y-186385771D01*
X191577200Y-186385771D01*
X192362914Y-186528628D02*
X193505771Y-186528628D01*
X193862914Y-186385771D02*
X193862914Y-184885771D01*
X194720057Y-186385771D01*
X194720057Y-184885771D01*
X196077200Y-186385771D02*
X196077200Y-185600057D01*
X196005771Y-185457200D01*
X195862914Y-185385771D01*
X195577200Y-185385771D01*
X195434342Y-185457200D01*
X196077200Y-186314342D02*
X195934342Y-186385771D01*
X195577200Y-186385771D01*
X195434342Y-186314342D01*
X195362914Y-186171485D01*
X195362914Y-186028628D01*
X195434342Y-185885771D01*
X195577200Y-185814342D01*
X195934342Y-185814342D01*
X196077200Y-185742914D01*
X196791485Y-185385771D02*
X196791485Y-186385771D01*
X196791485Y-185528628D02*
X196862914Y-185457200D01*
X197005771Y-185385771D01*
X197220057Y-185385771D01*
X197362914Y-185457200D01*
X197434342Y-185600057D01*
X197434342Y-186385771D01*
X198362914Y-186385771D02*
X198220057Y-186314342D01*
X198148628Y-186242914D01*
X198077200Y-186100057D01*
X198077200Y-185671485D01*
X198148628Y-185528628D01*
X198220057Y-185457200D01*
X198362914Y-185385771D01*
X198577200Y-185385771D01*
X198720057Y-185457200D01*
X198791485Y-185528628D01*
X198862914Y-185671485D01*
X198862914Y-186100057D01*
X198791485Y-186242914D01*
X198720057Y-186314342D01*
X198577200Y-186385771D01*
X198362914Y-186385771D01*
X199148628Y-186528628D02*
X200291485Y-186528628D01*
X200648628Y-185600057D02*
X201148628Y-185600057D01*
X201362914Y-186385771D02*
X200648628Y-186385771D01*
X200648628Y-184885771D01*
X201362914Y-184885771D01*
X201862914Y-186385771D02*
X202648628Y-185385771D01*
X201862914Y-185385771D02*
X202648628Y-186385771D01*
X203862914Y-186385771D02*
X203862914Y-185600057D01*
X203791485Y-185457200D01*
X203648628Y-185385771D01*
X203362914Y-185385771D01*
X203220057Y-185457200D01*
X203862914Y-186314342D02*
X203720057Y-186385771D01*
X203362914Y-186385771D01*
X203220057Y-186314342D01*
X203148628Y-186171485D01*
X203148628Y-186028628D01*
X203220057Y-185885771D01*
X203362914Y-185814342D01*
X203720057Y-185814342D01*
X203862914Y-185742914D01*
X204577200Y-186385771D02*
X204577200Y-185385771D01*
X204577200Y-185528628D02*
X204648628Y-185457200D01*
X204791485Y-185385771D01*
X205005771Y-185385771D01*
X205148628Y-185457200D01*
X205220057Y-185600057D01*
X205220057Y-186385771D01*
X205220057Y-185600057D02*
X205291485Y-185457200D01*
X205434342Y-185385771D01*
X205648628Y-185385771D01*
X205791485Y-185457200D01*
X205862914Y-185600057D01*
X205862914Y-186385771D01*
X206577200Y-185385771D02*
X206577200Y-186885771D01*
X206577200Y-185457200D02*
X206720057Y-185385771D01*
X207005771Y-185385771D01*
X207148628Y-185457200D01*
X207220057Y-185528628D01*
X207291485Y-185671485D01*
X207291485Y-186100057D01*
X207220057Y-186242914D01*
X207148628Y-186314342D01*
X207005771Y-186385771D01*
X206720057Y-186385771D01*
X206577200Y-186314342D01*
X208148628Y-186385771D02*
X208005771Y-186314342D01*
X207934342Y-186171485D01*
X207934342Y-184885771D01*
X209291485Y-186314342D02*
X209148628Y-186385771D01*
X208862914Y-186385771D01*
X208720057Y-186314342D01*
X208648628Y-186171485D01*
X208648628Y-185600057D01*
X208720057Y-185457200D01*
X208862914Y-185385771D01*
X209148628Y-185385771D01*
X209291485Y-185457200D01*
X209362914Y-185600057D01*
X209362914Y-185742914D01*
X208648628Y-185885771D01*
X210005771Y-186242914D02*
X210077200Y-186314342D01*
X210005771Y-186385771D01*
X209934342Y-186314342D01*
X210005771Y-186242914D01*
X210005771Y-186385771D01*
X210720057Y-186385771D02*
X210720057Y-184885771D01*
X210862914Y-185814342D02*
X211291485Y-186385771D01*
X211291485Y-185385771D02*
X210720057Y-185957200D01*
X211934342Y-186385771D02*
X211934342Y-185385771D01*
X211934342Y-184885771D02*
X211862914Y-184957200D01*
X211934342Y-185028628D01*
X212005771Y-184957200D01*
X211934342Y-184885771D01*
X211934342Y-185028628D01*
X213291485Y-186314342D02*
X213148628Y-186385771D01*
X212862914Y-186385771D01*
X212720057Y-186314342D01*
X212648628Y-186242914D01*
X212577200Y-186100057D01*
X212577200Y-185671485D01*
X212648628Y-185528628D01*
X212720057Y-185457200D01*
X212862914Y-185385771D01*
X213148628Y-185385771D01*
X213291485Y-185457200D01*
X214577200Y-186385771D02*
X214577200Y-185600057D01*
X214505771Y-185457200D01*
X214362914Y-185385771D01*
X214077200Y-185385771D01*
X213934342Y-185457200D01*
X214577200Y-186314342D02*
X214434342Y-186385771D01*
X214077200Y-186385771D01*
X213934342Y-186314342D01*
X213862914Y-186171485D01*
X213862914Y-186028628D01*
X213934342Y-185885771D01*
X214077200Y-185814342D01*
X214434342Y-185814342D01*
X214577200Y-185742914D01*
X215934342Y-186385771D02*
X215934342Y-184885771D01*
X215934342Y-186314342D02*
X215791485Y-186385771D01*
X215505771Y-186385771D01*
X215362914Y-186314342D01*
X215291485Y-186242914D01*
X215220057Y-186100057D01*
X215220057Y-185671485D01*
X215291485Y-185528628D01*
X215362914Y-185457200D01*
X215505771Y-185385771D01*
X215791485Y-185385771D01*
X215934342Y-185457200D01*
X216291485Y-186528628D02*
X217434342Y-186528628D01*
X217791485Y-185385771D02*
X217791485Y-186885771D01*
X217791485Y-185457200D02*
X217934342Y-185385771D01*
X218220057Y-185385771D01*
X218362914Y-185457200D01*
X218434342Y-185528628D01*
X218505771Y-185671485D01*
X218505771Y-186100057D01*
X218434342Y-186242914D01*
X218362914Y-186314342D01*
X218220057Y-186385771D01*
X217934342Y-186385771D01*
X217791485Y-186314342D01*
X219791485Y-186314342D02*
X219648628Y-186385771D01*
X219362914Y-186385771D01*
X219220057Y-186314342D01*
X219148628Y-186242914D01*
X219077200Y-186100057D01*
X219077200Y-185671485D01*
X219148628Y-185528628D01*
X219220057Y-185457200D01*
X219362914Y-185385771D01*
X219648628Y-185385771D01*
X219791485Y-185457200D01*
X220434342Y-186385771D02*
X220434342Y-184885771D01*
X220434342Y-185457200D02*
X220577200Y-185385771D01*
X220862914Y-185385771D01*
X221005771Y-185457200D01*
X221077200Y-185528628D01*
X221148628Y-185671485D01*
X221148628Y-186100057D01*
X221077200Y-186242914D01*
X221005771Y-186314342D01*
X220862914Y-186385771D01*
X220577200Y-186385771D01*
X220434342Y-186314342D01*
D10*
D11*
X177002200Y-181507200D02*
X285002200Y-181507200D01*
D10*
D11*
X178362914Y-183614342D02*
X178577200Y-183685771D01*
X178934342Y-183685771D01*
X179077200Y-183614342D01*
X179148628Y-183542914D01*
X179220057Y-183400057D01*
X179220057Y-183257200D01*
X179148628Y-183114342D01*
X179077200Y-183042914D01*
X178934342Y-182971485D01*
X178648628Y-182900057D01*
X178505771Y-182828628D01*
X178434342Y-182757200D01*
X178362914Y-182614342D01*
X178362914Y-182471485D01*
X178434342Y-182328628D01*
X178505771Y-182257200D01*
X178648628Y-182185771D01*
X179005771Y-182185771D01*
X179220057Y-182257200D01*
X179862914Y-183685771D02*
X179862914Y-182185771D01*
X180505771Y-183685771D02*
X180505771Y-182900057D01*
X180434342Y-182757200D01*
X180291485Y-182685771D01*
X180077200Y-182685771D01*
X179934342Y-182757200D01*
X179862914Y-182828628D01*
X181791485Y-183614342D02*
X181648628Y-183685771D01*
X181362914Y-183685771D01*
X181220057Y-183614342D01*
X181148628Y-183471485D01*
X181148628Y-182900057D01*
X181220057Y-182757200D01*
X181362914Y-182685771D01*
X181648628Y-182685771D01*
X181791485Y-182757200D01*
X181862914Y-182900057D01*
X181862914Y-183042914D01*
X181148628Y-183185771D01*
X183077200Y-183614342D02*
X182934342Y-183685771D01*
X182648628Y-183685771D01*
X182505771Y-183614342D01*
X182434342Y-183471485D01*
X182434342Y-182900057D01*
X182505771Y-182757200D01*
X182648628Y-182685771D01*
X182934342Y-182685771D01*
X183077200Y-182757200D01*
X183148628Y-182900057D01*
X183148628Y-183042914D01*
X182434342Y-183185771D01*
X183577200Y-182685771D02*
X184148628Y-182685771D01*
X183791485Y-182185771D02*
X183791485Y-183471485D01*
X183862914Y-183614342D01*
X184005771Y-183685771D01*
X184148628Y-183685771D01*
X184648628Y-183542914D02*
X184720057Y-183614342D01*
X184648628Y-183685771D01*
X184577200Y-183614342D01*
X184648628Y-183542914D01*
X184648628Y-183685771D01*
X184648628Y-182757200D02*
X184720057Y-182828628D01*
X184648628Y-182900057D01*
X184577200Y-182828628D01*
X184648628Y-182757200D01*
X184648628Y-182900057D01*
D10*
D12*
X178554342Y-180685771D02*
X178554342Y-179185771D01*
X179054342Y-180257200D01*
X179554342Y-179185771D01*
X179554342Y-180685771D01*
X180197200Y-180257200D02*
X180911485Y-180257200D01*
X180054342Y-180685771D02*
X180554342Y-179185771D01*
X181054342Y-180685771D01*
X181482914Y-180257200D02*
X182197200Y-180257200D01*
X181340057Y-180685771D02*
X181840057Y-179185771D01*
X182340057Y-180685771D01*
X183554342Y-180685771D02*
X182840057Y-180685771D01*
X182840057Y-179185771D01*
X184125771Y-179185771D02*
X183982914Y-179471485D01*
X184697200Y-180614342D02*
X184840057Y-180685771D01*
X185125771Y-180685771D01*
X185268628Y-180614342D01*
X185340057Y-180471485D01*
X185340057Y-180400057D01*
X185268628Y-180257200D01*
X185125771Y-180185771D01*
X184911485Y-180185771D01*
X184768628Y-180114342D01*
X184697200Y-179971485D01*
X184697200Y-179900057D01*
X184768628Y-179757200D01*
X184911485Y-179685771D01*
X185125771Y-179685771D01*
X185268628Y-179757200D01*
X187840057Y-180685771D02*
X187125771Y-180685771D01*
X187125771Y-179185771D01*
X188268628Y-180257200D02*
X188982914Y-180257200D01*
X188125771Y-180685771D02*
X188625771Y-179185771D01*
X189125771Y-180685771D01*
X190125771Y-179900057D02*
X190340057Y-179971485D01*
X190411485Y-180042914D01*
X190482914Y-180185771D01*
X190482914Y-180400057D01*
X190411485Y-180542914D01*
X190340057Y-180614342D01*
X190197200Y-180685771D01*
X189625771Y-180685771D01*
X189625771Y-179185771D01*
X190125771Y-179185771D01*
X190268628Y-179257200D01*
X190340057Y-179328628D01*
X190411485Y-179471485D01*
X190411485Y-179614342D01*
X190340057Y-179757200D01*
X190268628Y-179828628D01*
X190125771Y-179900057D01*
X189625771Y-179900057D01*
D10*
D11*
X178434342Y-177685771D02*
X178434342Y-176185771D01*
X178791485Y-176185771D01*
X179005771Y-176257200D01*
X179148628Y-176400057D01*
X179220057Y-176542914D01*
X179291485Y-176828628D01*
X179291485Y-177042914D01*
X179220057Y-177328628D01*
X179148628Y-177471485D01*
X179005771Y-177614342D01*
X178791485Y-177685771D01*
X178434342Y-177685771D01*
X180505771Y-177614342D02*
X180362914Y-177685771D01*
X180077200Y-177685771D01*
X179934342Y-177614342D01*
X179862914Y-177471485D01*
X179862914Y-176900057D01*
X179934342Y-176757200D01*
X180077200Y-176685771D01*
X180362914Y-176685771D01*
X180505771Y-176757200D01*
X180577200Y-176900057D01*
X180577200Y-177042914D01*
X179862914Y-177185771D01*
X181148628Y-177614342D02*
X181291485Y-177685771D01*
X181577200Y-177685771D01*
X181720057Y-177614342D01*
X181791485Y-177471485D01*
X181791485Y-177400057D01*
X181720057Y-177257200D01*
X181577200Y-177185771D01*
X181362914Y-177185771D01*
X181220057Y-177114342D01*
X181148628Y-176971485D01*
X181148628Y-176900057D01*
X181220057Y-176757200D01*
X181362914Y-176685771D01*
X181577200Y-176685771D01*
X181720057Y-176757200D01*
X182434342Y-177685771D02*
X182434342Y-176685771D01*
X182434342Y-176185771D02*
X182362914Y-176257200D01*
X182434342Y-176328628D01*
X182505771Y-176257200D01*
X182434342Y-176185771D01*
X182434342Y-176328628D01*
X183791485Y-176685771D02*
X183791485Y-177900057D01*
X183720057Y-178042914D01*
X183648628Y-178114342D01*
X183505771Y-178185771D01*
X183291485Y-178185771D01*
X183148628Y-178114342D01*
X183791485Y-177614342D02*
X183648628Y-177685771D01*
X183362914Y-177685771D01*
X183220057Y-177614342D01*
X183148628Y-177542914D01*
X183077200Y-177400057D01*
X183077200Y-176971485D01*
X183148628Y-176828628D01*
X183220057Y-176757200D01*
X183362914Y-176685771D01*
X183648628Y-176685771D01*
X183791485Y-176757200D01*
X184505771Y-176685771D02*
X184505771Y-177685771D01*
X184505771Y-176828628D02*
X184577200Y-176757200D01*
X184720057Y-176685771D01*
X184934342Y-176685771D01*
X185077200Y-176757200D01*
X185148628Y-176900057D01*
X185148628Y-177685771D01*
X186434342Y-177614342D02*
X186291485Y-177685771D01*
X186005771Y-177685771D01*
X185862914Y-177614342D01*
X185791485Y-177471485D01*
X185791485Y-176900057D01*
X185862914Y-176757200D01*
X186005771Y-176685771D01*
X186291485Y-176685771D01*
X186434342Y-176757200D01*
X186505771Y-176900057D01*
X186505771Y-177042914D01*
X185791485Y-177185771D01*
X187148628Y-177685771D02*
X187148628Y-176685771D01*
X187148628Y-176971485D02*
X187220057Y-176828628D01*
X187291485Y-176757200D01*
X187434342Y-176685771D01*
X187577200Y-176685771D01*
X188077200Y-177542914D02*
X188148628Y-177614342D01*
X188077200Y-177685771D01*
X188005771Y-177614342D01*
X188077200Y-177542914D01*
X188077200Y-177685771D01*
X188077200Y-176757200D02*
X188148628Y-176828628D01*
X188077200Y-176900057D01*
X188005771Y-176828628D01*
X188077200Y-176757200D01*
X188077200Y-176900057D01*
X189934342Y-177685771D02*
X189934342Y-176185771D01*
X190434342Y-177257200D01*
X190934342Y-176185771D01*
X190934342Y-177685771D01*
X191862914Y-177685771D02*
X191720057Y-177614342D01*
X191648628Y-177542914D01*
X191577200Y-177400057D01*
X191577200Y-176971485D01*
X191648628Y-176828628D01*
X191720057Y-176757200D01*
X191862914Y-176685771D01*
X192077200Y-176685771D01*
X192220057Y-176757200D01*
X192291485Y-176828628D01*
X192362914Y-176971485D01*
X192362914Y-177400057D01*
X192291485Y-177542914D01*
X192220057Y-177614342D01*
X192077200Y-177685771D01*
X191862914Y-177685771D01*
X193005771Y-177685771D02*
X193005771Y-176185771D01*
X193648628Y-177685771D02*
X193648628Y-176900057D01*
X193577200Y-176757200D01*
X193434342Y-176685771D01*
X193220057Y-176685771D01*
X193077200Y-176757200D01*
X193005771Y-176828628D01*
X195005771Y-177685771D02*
X195005771Y-176900057D01*
X194934342Y-176757200D01*
X194791485Y-176685771D01*
X194505771Y-176685771D01*
X194362914Y-176757200D01*
X195005771Y-177614342D02*
X194862914Y-177685771D01*
X194505771Y-177685771D01*
X194362914Y-177614342D01*
X194291485Y-177471485D01*
X194291485Y-177328628D01*
X194362914Y-177185771D01*
X194505771Y-177114342D01*
X194862914Y-177114342D01*
X195005771Y-177042914D01*
X195720057Y-177685771D02*
X195720057Y-176685771D01*
X195720057Y-176828628D02*
X195791485Y-176757200D01*
X195934342Y-176685771D01*
X196148628Y-176685771D01*
X196291485Y-176757200D01*
X196362914Y-176900057D01*
X196362914Y-177685771D01*
X196362914Y-176900057D02*
X196434342Y-176757200D01*
X196577200Y-176685771D01*
X196791485Y-176685771D01*
X196934342Y-176757200D01*
X197005771Y-176900057D01*
X197005771Y-177685771D01*
X197720057Y-177685771D02*
X197720057Y-176685771D01*
X197720057Y-176828628D02*
X197791485Y-176757200D01*
X197934342Y-176685771D01*
X198148628Y-176685771D01*
X198291485Y-176757200D01*
X198362914Y-176900057D01*
X198362914Y-177685771D01*
X198362914Y-176900057D02*
X198434342Y-176757200D01*
X198577200Y-176685771D01*
X198791485Y-176685771D01*
X198934342Y-176757200D01*
X199005771Y-176900057D01*
X199005771Y-177685771D01*
X200362914Y-177685771D02*
X200362914Y-176900057D01*
X200291485Y-176757200D01*
X200148628Y-176685771D01*
X199862914Y-176685771D01*
X199720057Y-176757200D01*
X200362914Y-177614342D02*
X200220057Y-177685771D01*
X199862914Y-177685771D01*
X199720057Y-177614342D01*
X199648628Y-177471485D01*
X199648628Y-177328628D01*
X199720057Y-177185771D01*
X199862914Y-177114342D01*
X200220057Y-177114342D01*
X200362914Y-177042914D01*
X201720057Y-177685771D02*
X201720057Y-176185771D01*
X201720057Y-177614342D02*
X201577200Y-177685771D01*
X201291485Y-177685771D01*
X201148628Y-177614342D01*
X201077200Y-177542914D01*
X201005771Y-177400057D01*
X201005771Y-176971485D01*
X201077200Y-176828628D01*
X201148628Y-176757200D01*
X201291485Y-176685771D01*
X201577200Y-176685771D01*
X201720057Y-176757200D01*
X203505771Y-177257200D02*
X204220057Y-177257200D01*
X203362914Y-177685771D02*
X203862914Y-176185771D01*
X204362914Y-177685771D01*
X204862914Y-177685771D02*
X204862914Y-176185771D01*
X205505771Y-177685771D02*
X205505771Y-176900057D01*
X205434342Y-176757200D01*
X205291485Y-176685771D01*
X205077200Y-176685771D01*
X204934342Y-176757200D01*
X204862914Y-176828628D01*
X206220057Y-177685771D02*
X206220057Y-176685771D01*
X206220057Y-176828628D02*
X206291485Y-176757200D01*
X206434342Y-176685771D01*
X206648628Y-176685771D01*
X206791485Y-176757200D01*
X206862914Y-176900057D01*
X206862914Y-177685771D01*
X206862914Y-176900057D02*
X206934342Y-176757200D01*
X207077200Y-176685771D01*
X207291485Y-176685771D01*
X207434342Y-176757200D01*
X207505771Y-176900057D01*
X207505771Y-177685771D01*
X208862914Y-177685771D02*
X208862914Y-176900057D01*
X208791485Y-176757200D01*
X208648628Y-176685771D01*
X208362914Y-176685771D01*
X208220057Y-176757200D01*
X208862914Y-177614342D02*
X208720057Y-177685771D01*
X208362914Y-177685771D01*
X208220057Y-177614342D01*
X208148628Y-177471485D01*
X208148628Y-177328628D01*
X208220057Y-177185771D01*
X208362914Y-177114342D01*
X208720057Y-177114342D01*
X208862914Y-177042914D01*
X210220057Y-177685771D02*
X210220057Y-176185771D01*
X210220057Y-177614342D02*
X210077200Y-177685771D01*
X209791485Y-177685771D01*
X209648628Y-177614342D01*
X209577200Y-177542914D01*
X209505771Y-177400057D01*
X209505771Y-176971485D01*
X209577200Y-176828628D01*
X209648628Y-176757200D01*
X209791485Y-176685771D01*
X210077200Y-176685771D01*
X210220057Y-176757200D01*
X212005771Y-177257200D02*
X212720057Y-177257200D01*
X211862914Y-177685771D02*
X212362914Y-176185771D01*
X212862914Y-177685771D01*
X214077200Y-177685771D02*
X213362914Y-177685771D01*
X213362914Y-176185771D01*
X214577200Y-177685771D02*
X214577200Y-176185771D01*
X215220057Y-177685771D02*
X215220057Y-176900057D01*
X215148628Y-176757200D01*
X215005771Y-176685771D01*
X214791485Y-176685771D01*
X214648628Y-176757200D01*
X214577200Y-176828628D01*
X216577200Y-177685771D02*
X216577200Y-176900057D01*
X216505771Y-176757200D01*
X216362914Y-176685771D01*
X216077200Y-176685771D01*
X215934342Y-176757200D01*
X216577200Y-177614342D02*
X216434342Y-177685771D01*
X216077200Y-177685771D01*
X215934342Y-177614342D01*
X215862914Y-177471485D01*
X215862914Y-177328628D01*
X215934342Y-177185771D01*
X216077200Y-177114342D01*
X216434342Y-177114342D01*
X216577200Y-177042914D01*
X217291485Y-177685771D02*
X217291485Y-176685771D01*
X217291485Y-176828628D02*
X217362914Y-176757200D01*
X217505771Y-176685771D01*
X217720057Y-176685771D01*
X217862914Y-176757200D01*
X217934342Y-176900057D01*
X217934342Y-177685771D01*
X217934342Y-176900057D02*
X218005771Y-176757200D01*
X218148628Y-176685771D01*
X218362914Y-176685771D01*
X218505771Y-176757200D01*
X218577200Y-176900057D01*
X218577200Y-177685771D01*
X219934342Y-177685771D02*
X219934342Y-176900057D01*
X219862914Y-176757200D01*
X219720057Y-176685771D01*
X219434342Y-176685771D01*
X219291485Y-176757200D01*
X219934342Y-177614342D02*
X219791485Y-177685771D01*
X219434342Y-177685771D01*
X219291485Y-177614342D01*
X219220057Y-177471485D01*
X219220057Y-177328628D01*
X219291485Y-177185771D01*
X219434342Y-177114342D01*
X219791485Y-177114342D01*
X219934342Y-177042914D01*
X221291485Y-177685771D02*
X221291485Y-176185771D01*
X221291485Y-177614342D02*
X221148628Y-177685771D01*
X220862914Y-177685771D01*
X220720057Y-177614342D01*
X220648628Y-177542914D01*
X220577200Y-177400057D01*
X220577200Y-176971485D01*
X220648628Y-176828628D01*
X220720057Y-176757200D01*
X220862914Y-176685771D01*
X221148628Y-176685771D01*
X221291485Y-176757200D01*
D10*
D11*
X197002200Y-191507200D02*
X197002200Y-194507200D01*
D10*
D11*
X261002200Y-191507200D02*
X261002200Y-198007200D01*
D14*
X116666666Y-64000000D02*
G75*
G03*
X116666666Y-64000000I-1666666J0D01*
G01*
X112500000Y-64000000D02*
X117500000Y-64000000D01*
X115000000Y-61500000D02*
X115000000Y-66500000D01*
X191666666Y-64000000D02*
G75*
G03*
X191666666Y-64000000I-1666666J0D01*
G01*
X187500000Y-64000000D02*
X192500000Y-64000000D01*
X190000000Y-61500000D02*
X190000000Y-66500000D01*
X154666666Y-64000000D02*
G75*
G03*
X154666666Y-64000000I-1666666J0D01*
G01*
X150500000Y-64000000D02*
X155500000Y-64000000D01*
X153000000Y-61500000D02*
X153000000Y-66500000D01*
X154666666Y-125000000D02*
G75*
G03*
X154666666Y-125000000I-1666666J0D01*
G01*
X150500000Y-125000000D02*
X155500000Y-125000000D01*
X153000000Y-122500000D02*
X153000000Y-127500000D01*
X197666666Y-125000000D02*
G75*
G03*
X197666666Y-125000000I-1666666J0D01*
G01*
X193500000Y-125000000D02*
X198500000Y-125000000D01*
X196000000Y-122500000D02*
X196000000Y-127500000D01*
X116666666Y-125000000D02*
G75*
G03*
X116666666Y-125000000I-1666666J0D01*
G01*
X112500000Y-125000000D02*
X117500000Y-125000000D01*
X115000000Y-122500000D02*
X115000000Y-127500000D01*
X196000000Y-119000000D02*
X196000000Y-71000000D01*
X113000000Y-122000000D02*
X193000000Y-122000000D01*
X110000000Y-71000000D02*
X110000000Y-119000000D01*
X193000000Y-68000000D02*
X113000000Y-68000000D01*
X193000000Y-68000000D02*
G75*
G02*
X196000000Y-71000000I0J-3000000D01*
G01*
X196000000Y-119000000D02*
G75*
G02*
X193000000Y-122000000I-3000000J0D01*
G01*
X113000000Y-122000000D02*
G75*
G02*
X110000000Y-119000000I0J3000000D01*
G01*
X110000000Y-71000000D02*
G75*
G02*
X113000000Y-68000000I3000000J0D01*
G01*
%TO.C,C10*%
G36*
G01*
X158487500Y-93875000D02*
X158487500Y-92925000D01*
G75*
G02*
X158737500Y-92675000I250000J0D01*
G01*
X159412500Y-92675000D01*
G75*
G02*
X159662500Y-92925000I0J-250000D01*
G01*
X159662500Y-93875000D01*
G75*
G02*
X159412500Y-94125000I-250000J0D01*
G01*
X158737500Y-94125000D01*
G75*
G02*
X158487500Y-93875000I0J250000D01*
G01*
G37*
G36*
G01*
X156412500Y-93875000D02*
X156412500Y-92925000D01*
G75*
G02*
X156662500Y-92675000I250000J0D01*
G01*
X157337500Y-92675000D01*
G75*
G02*
X157587500Y-92925000I0J-250000D01*
G01*
X157587500Y-93875000D01*
G75*
G02*
X157337500Y-94125000I-250000J0D01*
G01*
X156662500Y-94125000D01*
G75*
G02*
X156412500Y-93875000I0J250000D01*
G01*
G37*
%TD*%
D15*
%TO.C,U1*%
X178775000Y-103400000D03*
X179425000Y-103400000D03*
X180075000Y-103400000D03*
X180725000Y-103400000D03*
X181375000Y-103400000D03*
X182025000Y-103400000D03*
X182675000Y-103400000D03*
X183325000Y-103400000D03*
X183975000Y-103400000D03*
X184625000Y-103400000D03*
X185275000Y-103400000D03*
X185925000Y-103400000D03*
X186575000Y-103400000D03*
X187225000Y-103400000D03*
X187225000Y-110600000D03*
X186575000Y-110600000D03*
X185925000Y-110600000D03*
X185275000Y-110600000D03*
X184625000Y-110600000D03*
X183975000Y-110600000D03*
X183325000Y-110600000D03*
X182675000Y-110600000D03*
X182025000Y-110600000D03*
X181375000Y-110600000D03*
X180725000Y-110600000D03*
X180075000Y-110600000D03*
X179425000Y-110600000D03*
X178775000Y-110600000D03*
%TD*%
%TO.C,R1*%
G36*
G01*
X175450001Y-113600000D02*
X174549999Y-113600000D01*
G75*
G02*
X174300000Y-113350001I0J249999D01*
G01*
X174300000Y-112649999D01*
G75*
G02*
X174549999Y-112400000I249999J0D01*
G01*
X175450001Y-112400000D01*
G75*
G02*
X175700000Y-112649999I0J-249999D01*
G01*
X175700000Y-113350001D01*
G75*
G02*
X175450001Y-113600000I-249999J0D01*
G01*
G37*
G36*
G01*
X175450001Y-115600000D02*
X174549999Y-115600000D01*
G75*
G02*
X174300000Y-115350001I0J249999D01*
G01*
X174300000Y-114649999D01*
G75*
G02*
X174549999Y-114400000I249999J0D01*
G01*
X175450001Y-114400000D01*
G75*
G02*
X175700000Y-114649999I0J-249999D01*
G01*
X175700000Y-115350001D01*
G75*
G02*
X175450001Y-115600000I-249999J0D01*
G01*
G37*
%TD*%
%TO.C,D2*%
G36*
G01*
X184310000Y-118340000D02*
X184310000Y-118660000D01*
G75*
G02*
X184150000Y-118820000I-160000J0D01*
G01*
X183705000Y-118820000D01*
G75*
G02*
X183545000Y-118660000I0J160000D01*
G01*
X183545000Y-118340000D01*
G75*
G02*
X183705000Y-118180000I160000J0D01*
G01*
X184150000Y-118180000D01*
G75*
G02*
X184310000Y-118340000I0J-160000D01*
G01*
G37*
G36*
G01*
X185455000Y-118340000D02*
X185455000Y-118660000D01*
G75*
G02*
X185295000Y-118820000I-160000J0D01*
G01*
X184850000Y-118820000D01*
G75*
G02*
X184690000Y-118660000I0J160000D01*
G01*
X184690000Y-118340000D01*
G75*
G02*
X184850000Y-118180000I160000J0D01*
G01*
X185295000Y-118180000D01*
G75*
G02*
X185455000Y-118340000I0J-160000D01*
G01*
G37*
%TD*%
%TO.C,C6*%
G36*
G01*
X164574999Y-86900000D02*
X165425001Y-86900000D01*
G75*
G02*
X165675000Y-87149999I0J-249999D01*
G01*
X165675000Y-88225001D01*
G75*
G02*
X165425001Y-88475000I-249999J0D01*
G01*
X164574999Y-88475000D01*
G75*
G02*
X164325000Y-88225001I0J249999D01*
G01*
X164325000Y-87149999D01*
G75*
G02*
X164574999Y-86900000I249999J0D01*
G01*
G37*
G36*
G01*
X164574999Y-84025000D02*
X165425001Y-84025000D01*
G75*
G02*
X165675000Y-84274999I0J-249999D01*
G01*
X165675000Y-85350001D01*
G75*
G02*
X165425001Y-85600000I-249999J0D01*
G01*
X164574999Y-85600000D01*
G75*
G02*
X164325000Y-85350001I0J249999D01*
G01*
X164325000Y-84274999D01*
G75*
G02*
X164574999Y-84025000I249999J0D01*
G01*
G37*
%TD*%
%TO.C,C5*%
G36*
G01*
X178074999Y-86650000D02*
X178925001Y-86650000D01*
G75*
G02*
X179175000Y-86899999I0J-249999D01*
G01*
X179175000Y-87975001D01*
G75*
G02*
X178925001Y-88225000I-249999J0D01*
G01*
X178074999Y-88225000D01*
G75*
G02*
X177825000Y-87975001I0J249999D01*
G01*
X177825000Y-86899999D01*
G75*
G02*
X178074999Y-86650000I249999J0D01*
G01*
G37*
G36*
G01*
X178074999Y-83775000D02*
X178925001Y-83775000D01*
G75*
G02*
X179175000Y-84024999I0J-249999D01*
G01*
X179175000Y-85100001D01*
G75*
G02*
X178925001Y-85350000I-249999J0D01*
G01*
X178074999Y-85350000D01*
G75*
G02*
X177825000Y-85100001I0J249999D01*
G01*
X177825000Y-84024999D01*
G75*
G02*
X178074999Y-83775000I249999J0D01*
G01*
G37*
%TD*%
D16*
%TO.C,Y1*%
X155800000Y-91200000D03*
X155800000Y-90000000D03*
X155800000Y-88800000D03*
%TD*%
D17*
%TO.C,U3*%
X152650000Y-97800000D03*
X152650000Y-97000000D03*
X152650000Y-96200000D03*
X152650000Y-95400000D03*
X152650000Y-94600000D03*
X152650000Y-93800000D03*
X152650000Y-93000000D03*
X152650000Y-92200000D03*
D18*
X151200000Y-90750000D03*
X150400000Y-90750000D03*
X149600000Y-90750000D03*
X148800000Y-90750000D03*
X148000000Y-90750000D03*
X147200000Y-90750000D03*
X146400000Y-90750000D03*
X145600000Y-90750000D03*
D17*
X144150000Y-92200000D03*
X144150000Y-93000000D03*
X144150000Y-93800000D03*
X144150000Y-94600000D03*
X144150000Y-95400000D03*
X144150000Y-96200000D03*
X144150000Y-97000000D03*
X144150000Y-97800000D03*
D18*
X145600000Y-99250000D03*
X146400000Y-99250000D03*
X147200000Y-99250000D03*
X148000000Y-99250000D03*
X148800000Y-99250000D03*
X149600000Y-99250000D03*
X150400000Y-99250000D03*
X151200000Y-99250000D03*
%TD*%
D19*
%TO.C,U2*%
X173650000Y-81300000D03*
X173650000Y-76700000D03*
X173650000Y-79000000D03*
D20*
X167350000Y-79000000D03*
%TD*%
D21*
%TO.C,SW1*%
X165500000Y-114450000D03*
X165500000Y-120750000D03*
X161700000Y-114450000D03*
X161700000Y-120750000D03*
%TD*%
%TO.C,R7*%
G36*
G01*
X115400000Y-90450001D02*
X115400000Y-89549999D01*
G75*
G02*
X115649999Y-89300000I249999J0D01*
G01*
X116350001Y-89300000D01*
G75*
G02*
X116600000Y-89549999I0J-249999D01*
G01*
X116600000Y-90450001D01*
G75*
G02*
X116350001Y-90700000I-249999J0D01*
G01*
X115649999Y-90700000D01*
G75*
G02*
X115400000Y-90450001I0J249999D01*
G01*
G37*
G36*
G01*
X113400000Y-90450001D02*
X113400000Y-89549999D01*
G75*
G02*
X113649999Y-89300000I249999J0D01*
G01*
X114350001Y-89300000D01*
G75*
G02*
X114600000Y-89549999I0J-249999D01*
G01*
X114600000Y-90450001D01*
G75*
G02*
X114350001Y-90700000I-249999J0D01*
G01*
X113649999Y-90700000D01*
G75*
G02*
X113400000Y-90450001I0J249999D01*
G01*
G37*
%TD*%
%TO.C,R6*%
G36*
G01*
X156600000Y-102949999D02*
X156600000Y-103850001D01*
G75*
G02*
X156350001Y-104100000I-249999J0D01*
G01*
X155649999Y-104100000D01*
G75*
G02*
X155400000Y-103850001I0J249999D01*
G01*
X155400000Y-102949999D01*
G75*
G02*
X155649999Y-102700000I249999J0D01*
G01*
X156350001Y-102700000D01*
G75*
G02*
X156600000Y-102949999I0J-249999D01*
G01*
G37*
G36*
G01*
X158600000Y-102949999D02*
X158600000Y-103850001D01*
G75*
G02*
X158350001Y-104100000I-249999J0D01*
G01*
X157649999Y-104100000D01*
G75*
G02*
X157400000Y-103850001I0J249999D01*
G01*
X157400000Y-102949999D01*
G75*
G02*
X157649999Y-102700000I249999J0D01*
G01*
X158350001Y-102700000D01*
G75*
G02*
X158600000Y-102949999I0J-249999D01*
G01*
G37*
%TD*%
%TO.C,R5*%
G36*
G01*
X156600000Y-105349999D02*
X156600000Y-106250001D01*
G75*
G02*
X156350001Y-106500000I-249999J0D01*
G01*
X155649999Y-106500000D01*
G75*
G02*
X155400000Y-106250001I0J249999D01*
G01*
X155400000Y-105349999D01*
G75*
G02*
X155649999Y-105100000I249999J0D01*
G01*
X156350001Y-105100000D01*
G75*
G02*
X156600000Y-105349999I0J-249999D01*
G01*
G37*
G36*
G01*
X158600000Y-105349999D02*
X158600000Y-106250001D01*
G75*
G02*
X158350001Y-106500000I-249999J0D01*
G01*
X157649999Y-106500000D01*
G75*
G02*
X157400000Y-106250001I0J249999D01*
G01*
X157400000Y-105349999D01*
G75*
G02*
X157649999Y-105100000I249999J0D01*
G01*
X158350001Y-105100000D01*
G75*
G02*
X158600000Y-105349999I0J-249999D01*
G01*
G37*
%TD*%
%TO.C,R4*%
G36*
G01*
X162050001Y-108200000D02*
X161149999Y-108200000D01*
G75*
G02*
X160900000Y-107950001I0J249999D01*
G01*
X160900000Y-107249999D01*
G75*
G02*
X161149999Y-107000000I249999J0D01*
G01*
X162050001Y-107000000D01*
G75*
G02*
X162300000Y-107249999I0J-249999D01*
G01*
X162300000Y-107950001D01*
G75*
G02*
X162050001Y-108200000I-249999J0D01*
G01*
G37*
G36*
G01*
X162050001Y-110200000D02*
X161149999Y-110200000D01*
G75*
G02*
X160900000Y-109950001I0J249999D01*
G01*
X160900000Y-109249999D01*
G75*
G02*
X161149999Y-109000000I249999J0D01*
G01*
X162050001Y-109000000D01*
G75*
G02*
X162300000Y-109249999I0J-249999D01*
G01*
X162300000Y-109950001D01*
G75*
G02*
X162050001Y-110200000I-249999J0D01*
G01*
G37*
%TD*%
%TO.C,R3*%
G36*
G01*
X167950001Y-87600000D02*
X167049999Y-87600000D01*
G75*
G02*
X166800000Y-87350001I0J249999D01*
G01*
X166800000Y-86649999D01*
G75*
G02*
X167049999Y-86400000I249999J0D01*
G01*
X167950001Y-86400000D01*
G75*
G02*
X168200000Y-86649999I0J-249999D01*
G01*
X168200000Y-87350001D01*
G75*
G02*
X167950001Y-87600000I-249999J0D01*
G01*
G37*
G36*
G01*
X167950001Y-85600000D02*
X167049999Y-85600000D01*
G75*
G02*
X166800000Y-85350001I0J249999D01*
G01*
X166800000Y-84649999D01*
G75*
G02*
X167049999Y-84400000I249999J0D01*
G01*
X167950001Y-84400000D01*
G75*
G02*
X168200000Y-84649999I0J-249999D01*
G01*
X168200000Y-85350001D01*
G75*
G02*
X167950001Y-85600000I-249999J0D01*
G01*
G37*
%TD*%
%TO.C,R2*%
G36*
G01*
X177450001Y-113600000D02*
X176549999Y-113600000D01*
G75*
G02*
X176300000Y-113350001I0J249999D01*
G01*
X176300000Y-112649999D01*
G75*
G02*
X176549999Y-112400000I249999J0D01*
G01*
X177450001Y-112400000D01*
G75*
G02*
X177700000Y-112649999I0J-249999D01*
G01*
X177700000Y-113350001D01*
G75*
G02*
X177450001Y-113600000I-249999J0D01*
G01*
G37*
G36*
G01*
X177450001Y-115600000D02*
X176549999Y-115600000D01*
G75*
G02*
X176300000Y-115350001I0J249999D01*
G01*
X176300000Y-114649999D01*
G75*
G02*
X176549999Y-114400000I249999J0D01*
G01*
X177450001Y-114400000D01*
G75*
G02*
X177700000Y-114649999I0J-249999D01*
G01*
X177700000Y-115350001D01*
G75*
G02*
X177450001Y-115600000I-249999J0D01*
G01*
G37*
%TD*%
D22*
%TO.C,J2*%
X194575000Y-105450000D03*
D23*
X194575000Y-108150000D03*
D24*
X194575000Y-103625000D03*
X194575000Y-110375000D03*
D25*
X192000000Y-104512500D03*
X192000000Y-109487500D03*
D26*
X191915000Y-105700000D03*
X191915000Y-106350000D03*
X191915000Y-107000000D03*
X191915000Y-107650000D03*
X191915000Y-108300000D03*
%TD*%
%TO.C,F1*%
G36*
G01*
X192739999Y-98950000D02*
X193640001Y-98950000D01*
G75*
G02*
X193890000Y-99199999I0J-249999D01*
G01*
X193890000Y-99850001D01*
G75*
G02*
X193640001Y-100100000I-249999J0D01*
G01*
X192739999Y-100100000D01*
G75*
G02*
X192490000Y-99850001I0J249999D01*
G01*
X192490000Y-99199999D01*
G75*
G02*
X192739999Y-98950000I249999J0D01*
G01*
G37*
G36*
G01*
X192739999Y-96900000D02*
X193640001Y-96900000D01*
G75*
G02*
X193890000Y-97149999I0J-249999D01*
G01*
X193890000Y-97800001D01*
G75*
G02*
X193640001Y-98050000I-249999J0D01*
G01*
X192739999Y-98050000D01*
G75*
G02*
X192490000Y-97800001I0J249999D01*
G01*
X192490000Y-97149999D01*
G75*
G02*
X192739999Y-96900000I249999J0D01*
G01*
G37*
%TD*%
%TO.C,D5*%
G36*
G01*
X111960000Y-94210000D02*
X111640000Y-94210000D01*
G75*
G02*
X111480000Y-94050000I0J160000D01*
G01*
X111480000Y-93605000D01*
G75*
G02*
X111640000Y-93445000I160000J0D01*
G01*
X111960000Y-93445000D01*
G75*
G02*
X112120000Y-93605000I0J-160000D01*
G01*
X112120000Y-94050000D01*
G75*
G02*
X111960000Y-94210000I-160000J0D01*
G01*
G37*
G36*
G01*
X111960000Y-95355000D02*
X111640000Y-95355000D01*
G75*
G02*
X111480000Y-95195000I0J160000D01*
G01*
X111480000Y-94750000D01*
G75*
G02*
X111640000Y-94590000I160000J0D01*
G01*
X111960000Y-94590000D01*
G75*
G02*
X112120000Y-94750000I0J-160000D01*
G01*
X112120000Y-95195000D01*
G75*
G02*
X111960000Y-95355000I-160000J0D01*
G01*
G37*
%TD*%
%TO.C,D4*%
G36*
G01*
X172340000Y-86190000D02*
X172660000Y-86190000D01*
G75*
G02*
X172820000Y-86350000I0J-160000D01*
G01*
X172820000Y-86795000D01*
G75*
G02*
X172660000Y-86955000I-160000J0D01*
G01*
X172340000Y-86955000D01*
G75*
G02*
X172180000Y-86795000I0J160000D01*
G01*
X172180000Y-86350000D01*
G75*
G02*
X172340000Y-86190000I160000J0D01*
G01*
G37*
G36*
G01*
X172340000Y-85045000D02*
X172660000Y-85045000D01*
G75*
G02*
X172820000Y-85205000I0J-160000D01*
G01*
X172820000Y-85650000D01*
G75*
G02*
X172660000Y-85810000I-160000J0D01*
G01*
X172340000Y-85810000D01*
G75*
G02*
X172180000Y-85650000I0J160000D01*
G01*
X172180000Y-85205000D01*
G75*
G02*
X172340000Y-85045000I160000J0D01*
G01*
G37*
%TD*%
%TO.C,D3*%
G36*
G01*
X181690000Y-118660000D02*
X181690000Y-118340000D01*
G75*
G02*
X181850000Y-118180000I160000J0D01*
G01*
X182295000Y-118180000D01*
G75*
G02*
X182455000Y-118340000I0J-160000D01*
G01*
X182455000Y-118660000D01*
G75*
G02*
X182295000Y-118820000I-160000J0D01*
G01*
X181850000Y-118820000D01*
G75*
G02*
X181690000Y-118660000I0J160000D01*
G01*
G37*
G36*
G01*
X180545000Y-118660000D02*
X180545000Y-118340000D01*
G75*
G02*
X180705000Y-118180000I160000J0D01*
G01*
X181150000Y-118180000D01*
G75*
G02*
X181310000Y-118340000I0J-160000D01*
G01*
X181310000Y-118660000D01*
G75*
G02*
X181150000Y-118820000I-160000J0D01*
G01*
X180705000Y-118820000D01*
G75*
G02*
X180545000Y-118660000I0J160000D01*
G01*
G37*
%TD*%
D27*
%TO.C,D1*%
X185600000Y-88500000D03*
D28*
X187500000Y-88500000D03*
%TD*%
%TO.C,C9*%
G36*
G01*
X157975000Y-95675001D02*
X157975000Y-95124999D01*
G75*
G02*
X158224999Y-94875000I249999J0D01*
G01*
X158975001Y-94875000D01*
G75*
G02*
X159225000Y-95124999I0J-249999D01*
G01*
X159225000Y-95675001D01*
G75*
G02*
X158975001Y-95925000I-249999J0D01*
G01*
X158224999Y-95925000D01*
G75*
G02*
X157975000Y-95675001I0J249999D01*
G01*
G37*
G36*
G01*
X156375000Y-95675001D02*
X156375000Y-95124999D01*
G75*
G02*
X156624999Y-94875000I249999J0D01*
G01*
X157375001Y-94875000D01*
G75*
G02*
X157625000Y-95124999I0J-249999D01*
G01*
X157625000Y-95675001D01*
G75*
G02*
X157375001Y-95925000I-249999J0D01*
G01*
X156624999Y-95925000D01*
G75*
G02*
X156375000Y-95675001I0J249999D01*
G01*
G37*
%TD*%
%TO.C,C8*%
G36*
G01*
X138625000Y-96087500D02*
X139575000Y-96087500D01*
G75*
G02*
X139825000Y-96337500I0J-250000D01*
G01*
X139825000Y-97012500D01*
G75*
G02*
X139575000Y-97262500I-250000J0D01*
G01*
X138625000Y-97262500D01*
G75*
G02*
X138375000Y-97012500I0J250000D01*
G01*
X138375000Y-96337500D01*
G75*
G02*
X138625000Y-96087500I250000J0D01*
G01*
G37*
G36*
G01*
X138625000Y-94012500D02*
X139575000Y-94012500D01*
G75*
G02*
X139825000Y-94262500I0J-250000D01*
G01*
X139825000Y-94937500D01*
G75*
G02*
X139575000Y-95187500I-250000J0D01*
G01*
X138625000Y-95187500D01*
G75*
G02*
X138375000Y-94937500I0J250000D01*
G01*
X138375000Y-94262500D01*
G75*
G02*
X138625000Y-94012500I250000J0D01*
G01*
G37*
%TD*%
%TO.C,C7*%
G36*
G01*
X136575000Y-96100000D02*
X137525000Y-96100000D01*
G75*
G02*
X137775000Y-96350000I0J-250000D01*
G01*
X137775000Y-97025000D01*
G75*
G02*
X137525000Y-97275000I-250000J0D01*
G01*
X136575000Y-97275000D01*
G75*
G02*
X136325000Y-97025000I0J250000D01*
G01*
X136325000Y-96350000D01*
G75*
G02*
X136575000Y-96100000I250000J0D01*
G01*
G37*
G36*
G01*
X136575000Y-94025000D02*
X137525000Y-94025000D01*
G75*
G02*
X137775000Y-94275000I0J-250000D01*
G01*
X137775000Y-94950000D01*
G75*
G02*
X137525000Y-95200000I-250000J0D01*
G01*
X136575000Y-95200000D01*
G75*
G02*
X136325000Y-94950000I0J250000D01*
G01*
X136325000Y-94275000D01*
G75*
G02*
X136575000Y-94025000I250000J0D01*
G01*
G37*
%TD*%
%TO.C,C4*%
G36*
G01*
X179475000Y-113550000D02*
X178525000Y-113550000D01*
G75*
G02*
X178275000Y-113300000I0J250000D01*
G01*
X178275000Y-112625000D01*
G75*
G02*
X178525000Y-112375000I250000J0D01*
G01*
X179475000Y-112375000D01*
G75*
G02*
X179725000Y-112625000I0J-250000D01*
G01*
X179725000Y-113300000D01*
G75*
G02*
X179475000Y-113550000I-250000J0D01*
G01*
G37*
G36*
G01*
X179475000Y-115625000D02*
X178525000Y-115625000D01*
G75*
G02*
X178275000Y-115375000I0J250000D01*
G01*
X178275000Y-114700000D01*
G75*
G02*
X178525000Y-114450000I250000J0D01*
G01*
X179475000Y-114450000D01*
G75*
G02*
X179725000Y-114700000I0J-250000D01*
G01*
X179725000Y-115375000D01*
G75*
G02*
X179475000Y-115625000I-250000J0D01*
G01*
G37*
%TD*%
%TO.C,C3*%
G36*
G01*
X186937500Y-100125000D02*
X186937500Y-99175000D01*
G75*
G02*
X187187500Y-98925000I250000J0D01*
G01*
X187862500Y-98925000D01*
G75*
G02*
X188112500Y-99175000I0J-250000D01*
G01*
X188112500Y-100125000D01*
G75*
G02*
X187862500Y-100375000I-250000J0D01*
G01*
X187187500Y-100375000D01*
G75*
G02*
X186937500Y-100125000I0J250000D01*
G01*
G37*
G36*
G01*
X184862500Y-100125000D02*
X184862500Y-99175000D01*
G75*
G02*
X185112500Y-98925000I250000J0D01*
G01*
X185787500Y-98925000D01*
G75*
G02*
X186037500Y-99175000I0J-250000D01*
G01*
X186037500Y-100125000D01*
G75*
G02*
X185787500Y-100375000I-250000J0D01*
G01*
X185112500Y-100375000D01*
G75*
G02*
X184862500Y-100125000I0J250000D01*
G01*
G37*
%TD*%
%TO.C,C2*%
G36*
G01*
X192500000Y-89050000D02*
X192500000Y-87950000D01*
G75*
G02*
X192750000Y-87700000I250000J0D01*
G01*
X194850000Y-87700000D01*
G75*
G02*
X195100000Y-87950000I0J-250000D01*
G01*
X195100000Y-89050000D01*
G75*
G02*
X194850000Y-89300000I-250000J0D01*
G01*
X192750000Y-89300000D01*
G75*
G02*
X192500000Y-89050000I0J250000D01*
G01*
G37*
G36*
G01*
X188900000Y-89050000D02*
X188900000Y-87950000D01*
G75*
G02*
X189150000Y-87700000I250000J0D01*
G01*
X191250000Y-87700000D01*
G75*
G02*
X191500000Y-87950000I0J-250000D01*
G01*
X191500000Y-89050000D01*
G75*
G02*
X191250000Y-89300000I-250000J0D01*
G01*
X189150000Y-89300000D01*
G75*
G02*
X188900000Y-89050000I0J250000D01*
G01*
G37*
%TD*%
%TO.C,C1*%
G36*
G01*
X193700000Y-93975000D02*
X193700000Y-93025000D01*
G75*
G02*
X193950000Y-92775000I250000J0D01*
G01*
X194625000Y-92775000D01*
G75*
G02*
X194875000Y-93025000I0J-250000D01*
G01*
X194875000Y-93975000D01*
G75*
G02*
X194625000Y-94225000I-250000J0D01*
G01*
X193950000Y-94225000D01*
G75*
G02*
X193700000Y-93975000I0J250000D01*
G01*
G37*
G36*
G01*
X191625000Y-93975000D02*
X191625000Y-93025000D01*
G75*
G02*
X191875000Y-92775000I250000J0D01*
G01*
X192550000Y-92775000D01*
G75*
G02*
X192800000Y-93025000I0J-250000D01*
G01*
X192800000Y-93975000D01*
G75*
G02*
X192550000Y-94225000I-250000J0D01*
G01*
X191875000Y-94225000D01*
G75*
G02*
X191625000Y-93975000I0J250000D01*
G01*
G37*
%TD*%
M02*
